<svg xmlns="http://www.w3.org/2000/svg" width="24" height="24" fill="none" viewBox="0 0 24 24"><path fill="currentColor" d="M20.174 4.456a19.182 19.182 0 0 0-4.858-1.527c-.21.379-.454.888-.623 1.293a17.84 17.84 0 0 0-5.384 0 13.81 13.81 0 0 0-.63-1.293 19.117 19.117 0 0 0-4.862 1.53C.742 9.107-.092 13.638.325 18.105a19.424 19.424 0 0 0 5.959 3.053c.48-.66.907-1.362 1.276-2.101a12.55 12.55 0 0 1-2.01-.978c.169-.125.334-.256.493-.39 3.875 1.812 8.085 1.812 11.914 0 .161.134.326.265.493.39-.638.384-1.312.713-2.014.98.369.737.795 1.441 1.276 2.101a19.386 19.386 0 0 0 5.963-3.055c.489-5.178-.835-9.667-3.5-13.648ZM8.088 15.357c-1.163 0-2.117-1.086-2.117-2.408 0-1.323.933-2.41 2.117-2.41s2.137 1.085 2.117 2.41c.002 1.322-.933 2.408-2.117 2.408Zm7.824 0c-1.163 0-2.117-1.086-2.117-2.408 0-1.323.933-2.41 2.117-2.41s2.137 1.085 2.117 2.41c0 1.322-.933 2.408-2.117 2.408Z"/></svg>