<svg xmlns="http://www.w3.org/2000/svg" width="24" height="24" fill="none" viewBox="0 0 24 24"><path fill="currentColor" d="M4.043 5.664a2.92 2.92 0 0 1 .943-1.036L11.602.01 4.82 11.224s-.59-1.005-.828-1.512a4.812 4.812 0 0 1 .051-4.048ZM1.31 13.398a7.564 7.564 0 0 0 2.961 5.488l7.32 5.105S7.016 17.385 3.144 10.82a6.611 6.611 0 0 1-.777-2.236 3.752 3.752 0 0 1 0-1.077c-.103.186-.3.57-.3.57a8.402 8.402 0 0 0-.787 2.536c-.062.921-.062 1.864.031 2.785Zm18.669.89c-.239-.507-.829-1.511-.829-1.511L12.38 23.991l6.616-4.618a2.92 2.92 0 0 0 .942-1.036 4.774 4.774 0 0 0 .042-4.048Zm2.692-3.685a7.564 7.564 0 0 0-2.962-5.488L12.4.01s4.577 6.606 8.45 13.17c.393.694.652 1.45.776 2.237.052.352.052.715 0 1.077.103-.186.3-.57.3-.57a8.4 8.4 0 0 0 .787-2.536c.073-.932.073-1.864-.02-2.796l-.021.01Z"/></svg>