<svg xmlns="http://www.w3.org/2000/svg" width="24" height="24" fill="none" viewBox="0 0 24 24"><path fill="currentColor" fill-rule="evenodd" d="M1 11.67C1 5.54 5.804 1 12 1s11 4.543 11 10.673-4.804 10.67-11 10.67c-1.114 0-2.18-.149-3.184-.424a.884.884 0 0 0-.589.044l-2.184.963a.88.88 0 0 1-1.234-.778l-.06-1.959a.87.87 0 0 0-.295-.627C2.314 17.648 1 14.877 1 11.67Zm7.626-2.005-3.232 5.126c-.31.492.295 1.045.757.693l3.47-2.634a.66.66 0 0 1 .795-.003l2.571 1.928a1.65 1.65 0 0 0 2.387-.44l3.234-5.124c.308-.492-.297-1.047-.759-.695l-3.47 2.634a.66.66 0 0 1-.795.003l-2.571-1.928a1.65 1.65 0 0 0-2.387.44Z" clip-rule="evenodd"/></svg>