<svg xmlns="http://www.w3.org/2000/svg" width="24" height="24" fill="none" viewBox="0 0 24 24"><path fill="currentColor" fill-rule="evenodd" d="M23 12c0 6.075-4.925 11-11 11S1 18.075 1 12 5.925 1 12 1s11 4.925 11 11ZM12.986 8.853l-7.408 3.052c-1.303.508-.541.985-.541.985s1.113.382 2.066.668c.954.286 1.463-.032 1.463-.032l4.482-3.02c1.59-1.081 1.209-.191.827.19-.826.827-2.194 2.13-3.338 3.18-.509.445-.255.826-.032 1.017.647.547 2.17 1.543 2.863 1.995.192.126.32.21.348.23.159.128 1.048.7 1.59.573.541-.127.605-.859.605-.859l.794-4.99c.07-.465.14-.92.206-1.343.172-1.116.312-2.023.335-2.346.095-1.08-1.05-.635-1.05-.635s-2.48 1.017-3.21 1.335Z" clip-rule="evenodd"/></svg>