<svg width="24" height="24" viewBox="0 0 24 24" fill="none" xmlns="http://www.w3.org/2000/svg">
<path fill-rule="evenodd" clip-rule="evenodd" d="M12 1C5.9225 1 1 5.9323 1 12.0219C1 16.8991 4.14875 21.0185 8.52125 22.4789C9.07125 22.5754 9.2775 22.2447 9.2775 21.9554C9.2775 21.6936 9.26375 20.8257 9.26375 19.9026C6.5 20.4123 5.785 19.2275 5.565 18.6075C5.44125 18.2906 4.905 17.3124 4.4375 17.0507C4.0525 16.844 3.5025 16.3342 4.42375 16.3205C5.29 16.3067 5.90875 17.1195 6.115 17.4502C7.105 19.1173 8.68625 18.6488 9.31875 18.3595C9.415 17.6431 9.70375 17.1609 10.02 16.8853C7.5725 16.6098 5.015 15.6591 5.015 11.4433C5.015 10.2446 5.44125 9.25265 6.1425 8.48112C6.0325 8.20557 5.6475 7.07583 6.2525 5.56031C6.2525 5.56031 7.17375 5.27099 9.2775 6.69006C10.1575 6.44207 11.0925 6.31807 12.0275 6.31807C12.9625 6.31807 13.8975 6.44207 14.7775 6.69006C16.8813 5.25721 17.8025 5.56031 17.8025 5.56031C18.4075 7.07583 18.0225 8.20557 17.9125 8.48112C18.6138 9.25265 19.04 10.2308 19.04 11.4433C19.04 15.6729 16.4688 16.6098 14.0213 16.8853C14.42 17.2298 14.7638 17.8911 14.7638 18.9244C14.7638 20.3986 14.75 21.5834 14.75 21.9554C14.75 22.2447 14.9563 22.5892 15.5063 22.4789C19.8513 21.0185 23 16.8853 23 12.0219C23 5.9323 18.0775 1 12 1Z" fill="currentColor"/>
</svg>
