<svg width="24" height="24" viewBox="0 0 24 24" fill="none" xmlns="http://www.w3.org/2000/svg">
<path d="M12.001 2C9.28509 2 8.94425 2.01188 7.87757 2.06042C6.81298 2.10917 6.0863 2.27771 5.45046 2.52501C4.79274 2.78043 4.23482 3.1221 3.67898 3.67815C3.12272 4.23399 2.78105 4.79191 2.5248 5.44942C2.27688 6.08547 2.10813 6.81235 2.06021 7.87653C2.0125 8.94321 2 9.28426 2 12.0001C2 14.716 2.01208 15.0558 2.06042 16.1225C2.10938 17.1871 2.27792 17.9137 2.52501 18.5496C2.78063 19.2073 3.12231 19.7652 3.67835 20.3211C4.23399 20.8773 4.79191 21.2198 5.44921 21.4752C6.08547 21.7225 6.81235 21.8911 7.87674 21.9398C8.94342 21.9884 9.28405 22.0002 11.9997 22.0002C14.7158 22.0002 15.0556 21.9884 16.1223 21.9398C17.1869 21.8911 17.9144 21.7225 18.5506 21.4752C19.2081 21.2198 19.7652 20.8773 20.3209 20.3211C20.8771 19.7652 21.2188 19.2073 21.475 18.5498C21.7209 17.9137 21.8896 17.1869 21.9396 16.1227C21.9875 15.056 22 14.716 22 12.0001C22 9.28426 21.9875 8.94342 21.9396 7.87674C21.8896 6.81214 21.7209 6.08547 21.475 5.44963C21.2188 4.79191 20.8771 4.23399 20.3209 3.67815C19.7646 3.12189 19.2083 2.78022 18.55 2.52501C17.9125 2.27771 17.1854 2.10917 16.1208 2.06042C15.0541 2.01188 14.7145 2 11.9978 2H12.001ZM11.1039 3.80211C11.3701 3.80169 11.6672 3.80211 12.001 3.80211C14.671 3.80211 14.9875 3.81169 16.0418 3.85961C17.0169 3.90419 17.546 4.06711 17.8985 4.20399C18.3652 4.38524 18.6979 4.60191 19.0477 4.95191C19.3977 5.30192 19.6144 5.63525 19.7961 6.10193C19.9329 6.45401 20.0961 6.98319 20.1404 7.9582C20.1884 9.01238 20.1988 9.32905 20.1988 11.9978C20.1988 14.6666 20.1884 14.9833 20.1404 16.0375C20.0959 17.0125 19.9329 17.5417 19.7961 17.8937C19.6148 18.3604 19.3977 18.6927 19.0477 19.0425C18.6977 19.3925 18.3654 19.6092 17.8985 19.7904C17.5464 19.9279 17.0169 20.0904 16.0418 20.135C14.9877 20.1829 14.671 20.1934 12.001 20.1934C9.33072 20.1934 9.01425 20.1829 7.96007 20.135C6.98506 20.09 6.45589 19.9271 6.10318 19.7902C5.6365 19.609 5.30317 19.3923 4.95316 19.0423C4.60316 18.6923 4.38649 18.3598 4.20482 17.8929C4.06794 17.5408 3.90482 17.0116 3.86044 16.0366C3.81252 14.9825 3.80294 14.6658 3.80294 11.9953C3.80294 9.32488 3.81252 9.00988 3.86044 7.9557C3.90502 6.98069 4.06794 6.45151 4.20482 6.09901C4.38607 5.63234 4.60316 5.299 4.95316 4.94899C5.30317 4.59899 5.6365 4.38232 6.10318 4.20065C6.45568 4.06315 6.98506 3.90065 7.96007 3.85586C8.88259 3.81419 9.24009 3.80169 11.1039 3.79961V3.80211ZM17.3389 5.46254C16.6764 5.46254 16.1389 5.99942 16.1389 6.66214C16.1389 7.32465 16.6764 7.86216 17.3389 7.86216C18.0014 7.86216 18.539 7.32465 18.539 6.66214C18.539 5.99963 18.0014 5.46213 17.3389 5.46213V5.46254ZM12.001 6.86464C9.16488 6.86464 6.86548 9.16405 6.86548 12.0001C6.86548 14.8362 9.16488 17.1346 12.001 17.1346C14.837 17.1346 17.1356 14.8362 17.1356 12.0001C17.1356 9.16405 14.8368 6.86464 12.0007 6.86464H12.001ZM12.001 8.66675C13.8418 8.66675 15.3343 10.1591 15.3343 12.0001C15.3343 13.841 13.8418 15.3335 12.001 15.3335C10.1599 15.3335 8.66758 13.841 8.66758 12.0001C8.66758 10.1591 10.1599 8.66675 12.001 8.66675V8.66675Z" fill="currentColor"/>
</svg>
