<svg xmlns="http://www.w3.org/2000/svg" width="40" height="40" fill="none" viewBox="0 0 40 40"><path fill="currentColor" d="M20 40c11.046 0 20-8.954 20-20 0-5.072-1.888-9.704-5-13.23V20c0 8.284-6.716 15-15 15-1.753 0-3.436-.3-5-.853V20a5 5 0 0 1 5-5v-5c-5.523 0-10 4.477-10 10v17.324A19.908 19.908 0 0 0 20 40Z"/><path fill="currentColor" d="M5 33.23V20c0-8.284 6.716-15 15-15 1.753 0 3.436.3 5 .854V20a5 5 0 0 1-5 5v5c5.523 0 10-4.477 10-10V2.676A19.908 19.908 0 0 0 20 0C8.954 0 0 8.954 0 20c0 5.072 1.888 9.703 5 13.23Z"/></svg>