<svg width="24" height="24" viewBox="0 0 24 24" fill="none" xmlns="http://www.w3.org/2000/svg">
<path d="M5.38722 16.1692C4.91545 16.171 4.45477 16.3123 4.06333 16.5754C3.67191 16.8385 3.36728 17.2116 3.18794 17.6475C3.00859 18.0834 2.96255 18.5627 3.05565 19.0248C3.14874 19.4868 3.37679 19.9109 3.71099 20.2436C4.04519 20.5763 4.47057 20.8026 4.93341 20.8939C5.39624 20.9852 5.87578 20.9374 6.31149 20.7567C6.74715 20.5759 7.11953 20.2703 7.38142 19.8782C7.64332 19.4863 7.78316 19.0255 7.78316 18.5542C7.78089 17.9209 7.52744 17.3143 7.07832 16.8672C6.62927 16.4203 6.02116 16.1692 5.38722 16.1692ZM3 9.10154V12.5832C4.10524 12.5843 5.19943 12.8029 6.2201 13.2266C7.2408 13.6501 8.1679 14.2705 8.94863 15.052C9.72935 15.8336 10.3484 16.7611 10.7702 17.7817C11.1922 18.8022 11.4087 19.8958 11.4076 21H14.8925C14.8959 19.438 14.5908 17.8906 13.9946 16.4466C13.3984 15.0026 12.5228 13.6903 11.418 12.585C10.3133 11.4797 9.00099 10.603 7.55646 10.0053C6.11194 9.40749 4.56354 9.10041 3 9.10154ZM3 3.0087V6.49033C6.84151 6.49719 10.5242 8.02241 13.2438 10.7329C15.9634 13.4433 17.4989 17.1188 17.515 20.9565H21C20.9931 16.1917 19.0936 11.6245 15.7187 8.25777C12.3438 4.891 7.76939 2.99999 3 3V3.0087Z" fill="currentColor"/>
</svg>
