<svg width="24" height="24" viewBox="0 0 24 24" fill="none" xmlns="http://www.w3.org/2000/svg">
<path fill-rule="evenodd" clip-rule="evenodd" d="M23 5.11647C22.1905 5.47545 21.3207 5.71815 20.4076 5.82719C21.3396 5.26864 22.0553 4.38402 22.3922 3.33009C21.5201 3.84736 20.5542 4.22292 19.5261 4.42538C18.7028 3.54817 17.5297 3 16.2316 3C13.7387 3 11.7179 5.02095 11.7179 7.51346C11.7179 7.8673 11.7578 8.21171 11.8347 8.54205C8.08355 8.35382 4.75776 6.5569 2.53161 3.8262C2.14309 4.49282 1.92051 5.26816 1.92051 6.09532C1.92051 7.66121 2.71733 9.04274 3.92842 9.8522C3.18857 9.82878 2.49258 9.62567 1.88406 9.28761C1.88373 9.30644 1.88365 9.32535 1.88365 9.34434C1.88365 11.5312 3.43948 13.3555 5.50429 13.7702C5.12551 13.8733 4.72678 13.9284 4.31517 13.9284C4.02427 13.9284 3.74157 13.9001 3.46596 13.8474C4.04036 15.6406 5.70724 16.9456 7.68232 16.9821C6.13752 18.1926 4.1914 18.9141 2.0767 18.9141C1.71241 18.9141 1.35311 18.8928 1 18.8511C2.99753 20.1317 5.36998 20.8789 7.91891 20.8789C16.221 20.8789 20.7609 14.0014 20.7609 8.03685C20.7609 7.84114 20.7565 7.64648 20.7479 7.45295C21.6297 6.81658 22.3949 6.02161 23 5.11647Z" fill="currentColor"/>
</svg>
