<svg xmlns="http://www.w3.org/2000/svg" width="128" height="64" fill="none" viewBox="0 0 128 64"><path fill="currentColor" d="m67.49 31.303 4.858-5.907H68.23l-3.857 4.853h-.494c-.002-.005-.002-.012-.002-.017V19.599h-3.429v19.237h3.43v-6.031c0-.022.001-.041.009-.058h.505l4.239 6.089h4.097L67.49 31.61c-.061-.092-.061-.244 0-.307Z"/><path fill="currentColor" fill-rule="evenodd" d="M40.388 26.571h-.538c-1.088-.964-2.439-1.508-3.875-1.508-3.672 0-6.487 3.033-6.487 7.014 0 4.01 2.849 7.099 6.487 7.099a5.61 5.61 0 0 0 3.875-1.52h.538v1.189h3.398v-13.44h-3.398v1.166Zm-3.672 9.577c-2.21 0-3.768-1.716-3.768-4.07 0-2.3 1.592-3.982 3.768-3.982 2.114 0 3.7 1.716 3.7 4.01 0 2.326-1.558 4.042-3.7 4.042Z" clip-rule="evenodd"/><path fill="currentColor" d="M74.319 19.6h3.429v19.236h-3.43V19.599Zm7.855 0A2.163 2.163 0 0 0 80 21.772c0 1.224.95 2.174 2.174 2.174 1.255 0 2.205-.919 2.205-2.174 0-1.226-.98-2.174-2.205-2.174Zm-1.714 5.796h3.428v13.44H80.46v-13.44Zm11.925-.336c-3.582 0-5.816 2.203-5.816 5.694v8.082h3.429v-7.96c0-1.776.856-2.787 2.387-2.787 1.53 0 2.389 1.011 2.389 2.786v7.96h3.429v-8.08c0-3.492-2.234-5.695-5.818-5.695Zm-46.112 5.694c0-3.492 2.234-5.694 5.816-5.694 3.583 0 5.818 2.203 5.818 5.694v8.082h-3.43v-7.96c0-1.776-.858-2.787-2.388-2.787-1.531 0-2.387 1.011-2.387 2.786v7.96h-3.429v-8.08Z"/><path fill="currentColor" fill-rule="evenodd" d="M21.134 25.06a6.79 6.79 0 0 0-3.663 1.068V19.6H14.21v12.518c0 3.898 3.1 7.059 6.925 7.059 3.824 0 6.924-3.161 6.924-7.06 0-3.897-3.1-7.058-6.924-7.058Zm-.002 10.654c-1.947 0-3.527-1.609-3.527-3.595 0-1.987 1.58-3.595 3.527-3.595 1.95 0 3.527 1.608 3.527 3.595 0 1.986-1.578 3.595-3.527 3.595Zm89.397 2.396a6.792 6.792 0 0 1-3.663 1.067c-3.823 0-6.923-3.16-6.923-7.059 0-3.898 3.1-7.059 6.923-7.059 3.826 0 6.925 3.161 6.925 7.06v12.517h-3.262V38.11Zm-.134-5.992c0-1.986-1.58-3.595-3.527-3.595-1.949 0-3.527 1.609-3.527 3.595 0 1.987 1.578 3.595 3.527 3.595 1.947 0 3.527-1.608 3.527-3.595Z" clip-rule="evenodd"/></svg>