<svg xmlns="http://www.w3.org/2000/svg" width="128" height="64" fill="none" viewBox="0 0 128 64"><path fill="currentColor" fill-rule="evenodd" d="M121.127 28.022c-.616-1.12-1.944-1.97-3.386-1.97-1.269 0-2.385.521-2.385 1.873 0 1.139 1.405 1.911 2.867 2.858 1.596 1.004 3.25 2.24 3.25 4.384 0 2.8-2.711 4.518-5.847 4.518-1.289 0-2.634-.251-4.154-.83l.249-3.727c.732 1.487 2.098 2.664 4.116 2.664 1.558 0 2.712-.752 2.712-2.066 0-1.12-.943-1.815-2.096-2.51-2.424-1.467-3.962-2.646-3.962-4.77 0-3.186 2.654-4.248 5.404-4.248 1.596 0 2.597.29 3.616.29l-.384 3.534Zm-13.444 3.34c-.348.58-.788 1.37-1.059 1.95-.23 1.1-.346 2.57-.346 4.19 0 .676.116 1.584.423 1.893h-4.019c.711-.676 1-4.826.962-6.14-.538-1.873-1.271-3.669-2.386-5.851-.71-1.37-1.538-2.666-2.057-2.916a38.66 38.66 0 0 1 2.616-.134c.999 0 1.27.134 1.885 1.486.96 2.183 1.672 3.823 2.096 5.04 1.02-1.603 1.731-2.703 2.654-4.21.231-.366.423-.83.423-1.274 0-.348-.058-.734-.211-.908h3.981c-.769.174-4.232 5.639-4.962 6.874ZM93.7 27.984l-2.384 5.193H95.2l-1.5-5.193Zm4.674 11.545c-1.27 0-1.366-.037-2.385-3.552l-.365-1.293c-.615.289-1.713.424-3.462.424h-1.77l-.308.657c-.442.986-1.038 2.142-1.038 2.955 0 .193.02.405.096.675H78.641c.596-.675.789-2.857 1.077-6.816l.057-.946c.154-2.26.271-3.997.251-5.213-.02-1.004-.116-1.641-.385-1.93h4.06c-.578.444-.79 2.838-1.059 6.797l-.077.945c-.097 1.468-.288 2.974-.288 4.441 0 .675.269.83.962.83 2.46 0 3.077-.058 4.192-.81a82.668 82.668 0 0 0 2.25-4.539l1.04-2.22c.98-2.086 1.941-4.21 1.941-4.615 0-.29-.077-.56-.191-.83h3.23s1.308 4.866 1.597 5.907l.634 2.357c1.096 3.958 1.789 5.889 2.712 6.642-.77.097-1.866.134-2.27.134Zm-26.176.156c-3.827 0-6.04-3.167-6.04-6.72 0-4.942 2.674-8.767 7.77-8.767 1.597 0 2.348.29 3.635.29l-.384 3.804c-.73-1.332-1.924-2.24-3.52-2.24-3.172 0-4.461 3.438-4.461 6.392 0 3.205 1.789 4.962 4.173 4.962 1.289 0 2.423-.348 4.328-1.68-.77 2.472-2.559 3.959-5.5 3.959Zm-13.27-13.381c-.366 0-.81 0-1.154.038-.116.637-.212 1.738-.347 3.514l-.078 1.043c.194.04.443.06.675.06 1.845 0 3.115-1.122 3.115-2.82 0-1.16-.807-1.835-2.211-1.835Zm5.365 13.728c-1.096 0-1.366-.174-1.73-.676l-4.155-5.793c-.328-.444-.577-.811-1.096-.811h-.097l-.076 1.12c-.097 1.526-.154 2.743-.154 3.65.019 1.004.134 1.621.404 1.873h-4.02c.577-.522.788-2.26 1.115-6.817l.058-.945c.154-2.24.27-3.978.25-5.194-.02-1.062-.134-1.72-.423-1.95h5.48c1.79 0 4.251.309 4.251 3.224 0 2.393-1.596 3.707-3.577 4.324.193.175.538.619.75.89l3.02 4.016c1.885 2.49 2.038 2.606 2.712 2.954-.846.096-1.98.135-2.712.135ZM45.56 27.984l-2.405 5.193h3.904l-1.499-5.193Zm4.673 11.545c-1.269 0-1.365-.037-2.384-3.552l-.366-1.293c-.617.289-1.712.424-3.463.424h-1.769l-.307.657c-.308.696-1.059 2.125-1.04 2.955 0 .193.02.386.097.675h-3.558c1.02-1.023 2.308-3.398 4.097-7.24l1.039-2.22c.942-2.008 1.942-4.287 1.942-4.615 0-.291-.076-.56-.192-.831h3.232s.845 3.225 1.596 5.908l.634 2.356c1.097 3.959 1.789 5.89 2.712 6.642a23.74 23.74 0 0 1-2.27.134Zm-18.31-13.245c-.29 0-.674 0-1.039.04a39.943 39.943 0 0 0-.327 3.146s-.058.946-.058.907h.385c1.885 0 3.617-.656 3.617-2.393 0-1.005-.828-1.7-2.579-1.7Zm-.48 5.909h-1.058l-.154 2.2a43.775 43.775 0 0 0-.135 2.742c0 .136.423.426 1.422.426 2.078 0 3.444-1.043 3.444-2.762 0-1.912-1.558-2.606-3.52-2.606Zm.23 7.202h-5.193c.654-.58.827-2.839 1.116-6.817l.057-.926c.155-2.26.27-3.997.25-5.213-.018-1.043-.134-1.72-.423-1.95h5.808c1.385 0 4.155.077 4.155 2.973 0 1.93-1.789 3.128-3.424 3.553 2.309.232 4.04 1.352 4.04 3.746-.001 2.587-2.424 4.634-6.386 4.634ZM14.793 22.4l.123-.001c.615.024 1.109.147 1.514.511.406.355.489 1.226.507 1.614.023.382.01 1.529.406 2.086.408.578.85.746 1.376.746.121 0 .248-.007.379-.023.699-.085.895-.5.895-.5s-.587-.159-.587-.902c-.003-.5.433-.967 1.07-1.16a2.4 2.4 0 0 1 .664-.089c.75 0 1.594.315 2.155 1.057 1.281 1.698 1.385 4.166 1.072 6.471-.312 2.31-1.77 4.44-1.817 4.503-.026.038-.056.06-.084.06a.076.076 0 0 1-.054-.027c-.63-.604-1.226-1.446-1.484-2.006-.28.215-.13.682.014 1.187.15.514.505 1.187.62 1.405.126.21.284.463.071.593a.17.17 0 0 1-.087.02c-.284 0-.941-.492-1.685-1.484a11.42 11.42 0 0 1-1.254-2.105c-.058.024-.153.118-.141.401.004.282.307 1.35.873 2.33.574.986 1.106 1.606 1.207 1.74.064.09.01.136-.033.165-.037.032-1.058.989-2.533 1.795-1.75.935-2.523 1.099-2.523 1.099s-.776-.169-2.525-1.104c-1.476-.805-2.492-1.757-2.534-1.786-.043-.033-.099-.084-.033-.165.107-.14.638-.757 1.212-1.744.569-.987.86-2.048.872-2.333.017-.28-.085-.383-.146-.397 0 0-.42.99-1.249 2.105-.74.99-1.404 1.484-1.686 1.484a.16.16 0 0 1-.084-.02c-.22-.13-.057-.379.065-.593.126-.218.475-.895.619-1.406.15-.499.294-.966.02-1.186-.257.56-.857 1.397-1.486 2.01a.08.08 0 0 1-.05.022c-.032 0-.06-.023-.09-.063-.043-.059-1.5-2.194-1.814-4.5-.312-2.3-.208-4.773 1.072-6.47a2.697 2.697 0 0 1 2.148-1.054c.237 0 .464.03.671.09.633.188 1.072.65 1.077 1.156-.005.743-.588.902-.588.902s.212.425.886.5c.2.018.386.018.386.018 1.45-.013 1.804-1.07 1.859-2.02.06-.949-.443-1.308-1.123-1.389-.082-.007-.158-.014-.227-.014-.493 0-.642.22-.642.22-.224-.36-.024-.85.394-1.128.434-.291.942-.35 1.338-.35.072 0 .14.002.206.006.167-.187.273-.277.788-.277Z" clip-rule="evenodd"/></svg>