<svg xmlns="http://www.w3.org/2000/svg" width="128" height="64" fill="none" viewBox="0 0 128 64"><path fill="currentColor" fill-rule="evenodd" d="M89.627 36.894h-1.67V26.771h1.59c.61 0 .77-.291.77-.768v-2.147c0-.477-.16-.768-.77-.768H82.18c-.61 0-.769.29-.769.768v2.146c0 .478.16.769.769.769h1.616v10.123h-1.669c-.61 0-.769.292-.769.77v2.093c0 .477.16.768.77.768h7.499c.61 0 .769-.291.769-.768v-2.094c0-.477-.16-.769-.77-.769Z" clip-rule="evenodd" opacity=".5"/><path fill="currentColor" fill-rule="evenodd" d="M94.146 26.784A1.858 1.858 0 0 0 96 24.929a1.858 1.858 0 0 0-1.854-1.854 1.858 1.858 0 0 0-1.855 1.854 1.86 1.86 0 0 0 1.855 1.855ZM78.63 23.088H66.332c-.61 0-.77.291-.77.768v2.2c0 .477.16.768.77.768h4.08v12.933c0 .61.292.769.77.769h2.623c.477 0 .769-.16.769-.769V26.824h4.054c.61 0 .769-.291.769-.768v-2.2c0-.477-.16-.768-.769-.768ZM40.6 36.762h-4.453v-3.336h4.363c1.235.014 2.13.392 2.13 1.614 0 1.192-.742 1.722-2.04 1.722Zm-.424-9.938c1.378 0 2.2.287 2.2 1.471 0 1.025-.663 1.577-2.2 1.577h-.345l-.036.002h-3.648v-3.05h4.029Zm4.24 4.664c.238-.106 1.934-.954 1.934-3.63 0-2.492-1.854-4.797-6.174-4.797h-7.42c-.61 0-.77.291-.77.769v15.927c0 .477.16.768.77.768h7.79c3.684 0 6.308-1.722 6.308-5.088 0-2.862-2.226-3.869-2.438-3.949Zm12.482.292h-2.544v-4.956h2.544c2.067 0 2.968 1.113 2.968 2.491 0 1.325-.901 2.465-2.968 2.465Zm.027-8.692H50.96c-.61 0-.768.29-.768.767v15.902c0 .609.291.768.768.768h2.624c.477 0 .769-.16.769-.768v-4.4h2.544c4.532 0 6.97-2.438 6.97-6.121 0-3.658-2.386-6.148-6.943-6.148Z" clip-rule="evenodd"/></svg>