<svg xmlns="http://www.w3.org/2000/svg" width="128" height="64" fill="none" viewBox="0 0 128 64"><path fill="currentColor" d="M53.492 42.424h-.685l-.388-1.044h-1.784l-.39 1.044h-.66l1.553-4.094h.796l1.558 4.094Zm-2.626-1.67h1.319l-.663-1.767-.656 1.767Zm4.368 1.67V38.33h.637v4.095l-.637-.001Zm4.457-4.094c.907 0 1.397.419 1.397 1.185 0 .696-.513 1.158-1.316 1.187l1.299 1.723h-.789l-1.255-1.724h-.322v1.723h-.637V38.33h1.623Zm-.986.618v1.154h.968c.512 0 .752-.194.752-.587 0-.393-.253-.565-.752-.565l-.968-.002Zm7.28 3.476h-2.82V38.33h.636v3.47h2.183v.624Zm1.766 0V38.33h.637v4.095l-.637-.001Zm5.563 0-2.2-2.964v2.964h-.636V38.33h.573l2.203 2.963V38.33h.636v4.095l-.576-.001Zm5.768 0h-2.876V38.33h2.84v.62h-2.203v1.103h2.126v.62h-2.126v1.132h2.24v.619Zm3.646-2.347-.273-.038c-.513-.076-.82-.207-.82-.547 0-.374.36-.61.887-.61a4.92 4.92 0 0 1 1.28.236v-.636a4.149 4.149 0 0 0-1.276-.223c-.854 0-1.555.456-1.555 1.278 0 .76.583 1.047 1.168 1.132l.308.043c.578.084.887.232.887.553 0 .378-.403.606-.921.606-.547 0-1.135-.257-1.408-.394v.664c.436.236.92.359 1.411.357.853 0 1.58-.457 1.58-1.291.003-.76-.629-1.034-1.268-1.127v-.003ZM13.929 20.819h2.048v4.608c.715-.77 1.905-1.236 3.24-1.236 2.75 0 4.855 2.04 4.855 4.921 0 2.868-2.132 4.878-5.065 4.878-2.806.001-5.078-1.869-5.078-5.453v-7.718Zm5.022 11.19c1.795 0 3.03-1.195 3.03-2.924 0-1.687-1.164-2.91-2.918-2.91-1.74 0-3.016 1.194-3.016 2.99 0 1.736 1.179 2.844 2.904 2.844Zm10.774-7.718c.628 0 1.256.033 1.88.098v1.884a16.852 16.852 0 0 0-1.557-.08c-1.796 0-2.314.8-2.314 2.46v5.215h-2.049v-6.175c0-1.574 1.052-3.402 4.04-3.402Zm7.604 9.686c-3.1 0-4.391-1.982-4.391-4.147v-5.54h2.047v5.175c0 1.097.14 2.531 2.34 2.531 2.09 0 2.339-1.374 2.339-2.531V24.29h2.048v5.54c.008 2.164-1.296 4.146-4.383 4.146Zm9.904.043c-1.276 0-2.662-.225-3.63-.605v-1.8c.726.31 2.189.59 3.47.59 1.247 0 2.033-.379 2.033-1.096 0-.548-.421-.858-2.567-1.322-1.824-.393-2.985-1.068-2.985-2.755 0-1.898 1.487-2.868 4.04-2.868.856 0 2.132.113 3.157.408v1.785c-.887-.21-2.147-.404-3.087-.404-1.136 0-2.006.242-2.006 1.04 0 .549.59.815 2.47 1.209 1.977.408 3.086 1.223 3.086 2.83-.01 1.89-1.581 2.988-3.98 2.988Zm9.204 0c-1.277 0-2.662-.225-3.63-.605v-1.8c.726.31 2.188.59 3.468.59 1.25 0 2.035-.379 2.035-1.096 0-.548-.421-.858-2.568-1.322-1.823-.393-2.985-1.068-2.985-2.755 0-1.898 1.488-2.868 4.041-2.868.855 0 2.133.113 3.156.408v1.785c-.887-.21-2.146-.404-3.086-.404-1.136 0-2.006.242-2.006 1.04 0 .549.589.815 2.469 1.209 1.978.408 3.086 1.223 3.086 2.83-.01 1.89-1.582 2.988-3.98 2.988ZM70.1 31.547v1.86c-.855.379-1.865.603-3.059.603-3.507 0-5.302-2.249-5.302-4.878 0-2.91 1.936-4.976 4.938-4.976 2.259 0 4.153 1.434 4.153 3.5 0 1.434-.898 2.264-2.764 2.264h-4.153c.323 1.406 1.473 2.182 3.353 2.182.688-.01 1.81-.178 2.834-.555Zm-2.034-3.306c.49 0 .8-.296.8-.704 0-.745-.815-1.546-2.161-1.546-1.347 0-2.511.675-2.806 2.25h4.167Zm6.44-7.438v13.033h-2.049V20.804h2.048ZM80.02 34.02c-1.277 0-2.663-.225-3.63-.605v-1.8c.725.31 2.187.59 3.464.59 1.25 0 2.034-.379 2.034-1.096 0-.548-.42-.858-2.567-1.322-1.824-.393-2.985-1.068-2.985-2.755 0-1.898 1.487-2.868 4.04-2.868.856 0 2.133.113 3.157.408v1.785c-.887-.21-2.147-.404-3.087-.404-1.135 0-2.005.242-2.005 1.04 0 .549.589.815 2.468 1.209 1.979.408 3.087 1.223 3.087 2.83-.006 1.89-1.575 2.988-3.976 2.988ZM113.925 23.069a2.428 2.428 0 1 1-4.856 0 2.428 2.428 0 0 1 4.856 0ZM102.863 34.759a3.056 3.056 0 1 0 .001-6.113 3.056 3.056 0 0 0-.001 6.113ZM114.149 31.702a2.652 2.652 0 1 1-5.304.001 2.652 2.652 0 0 1 5.304 0ZM94.229 33.97a2.268 2.268 0 1 0 0-4.535 2.268 2.268 0 0 0 0 4.535ZM105.534 40.337a2.67 2.67 0 1 1-5.342 0 2.67 2.67 0 0 1 5.342 0ZM94.229 41.957a1.62 1.62 0 1 0 0-3.24 1.62 1.62 0 0 0 0 3.24ZM111.497 41.922a1.585 1.585 0 1 0 0-3.17 1.585 1.585 0 0 0 0 3.17ZM102.863 24.835a1.766 1.766 0 1 0 0-3.531 1.766 1.766 0 0 0 0 3.53ZM95.814 23.069a1.585 1.585 0 1 1-3.17 0 1.585 1.585 0 0 1 3.17 0Z"/></svg>