<svg xmlns="http://www.w3.org/2000/svg" width="128" height="64" fill="none" viewBox="0 0 128 64"><path fill="currentColor" d="M46.149 34.532a4.86 4.86 0 0 1 .354 1.83 4.819 4.819 0 0 1-1.426 3.439l-7.602 7.62a4.83 4.83 0 0 1-1.609 1.067 4.845 4.845 0 0 1-3.661 0 4.974 4.974 0 0 1-1.614-1.067l-.987-.986-8.058-8.059a5.214 5.214 0 0 1-1.073-1.545 4.62 4.62 0 0 1-.416-1.9v-.097L20 28.241v-.028a4.87 4.87 0 0 1 1.443-3.262l9.125-9.125a4.845 4.845 0 0 1 3.439-1.426 4.84 4.84 0 0 1 3.445 1.426l7.653 7.653a4.772 4.772 0 0 1 1.067 1.609c.24.587.36 1.209.36 1.83 0 .622-.12 1.244-.354 1.831a4.898 4.898 0 0 1-1.073 1.614l-1.288 1.289-1.905 1.905-4.46 4.46a4.868 4.868 0 0 1-3.439 1.426 4.869 4.869 0 0 1-3.44-1.426l-.792-.776-2.116-2.116a4.9 4.9 0 0 1-1.072-1.614 4.952 4.952 0 0 1-.354-1.83c0-.622.12-1.244.354-1.831.24-.588.599-1.14 1.072-1.614l2.914-2.915a4.936 4.936 0 0 1 1.609-1.072 4.842 4.842 0 0 1 1.83-.353 4.848 4.848 0 0 1 3.445 1.42l2.869 2.868-1.9 1.9-2.868-2.863a2.139 2.139 0 0 0-.724-.48 2.148 2.148 0 0 0-.822-.16c-.28 0-.559.052-.82.16a2.255 2.255 0 0 0-.725.48l-2.909 2.92c-.216.216-.37.456-.479.724a2.15 2.15 0 0 0-.16.821c0 .28.058.56.16.822.108.262.262.501.48.724l2.115 2.116.787.787a2.175 2.175 0 0 0 2.361.479c.263-.109.502-.268.725-.48l.593-.593 7.111-7.111-.005-.006a2.15 2.15 0 0 0 .593-1.494c0-.28-.051-.56-.16-.822a2.255 2.255 0 0 0-.479-.724l-7.648-7.648a2.196 2.196 0 0 0-2.372-.479 2.268 2.268 0 0 0-.719.48l-9.125 9.124a2.18 2.18 0 0 0-.656 1.443v.006l.057 6.541v.08c0 .268.057.53.177.799.12.262.297.524.519.747l8.059 8.053.986.986a2.148 2.148 0 0 0 1.54.639c.28 0 .559-.057.821-.16.263-.108.502-.262.725-.479l7.602-7.602a2.14 2.14 0 0 0 .48-.724c.108-.263.159-.542.159-.822 0-.279-.051-.558-.16-.82a1.96 1.96 0 0 0-.16-.309l1.928-1.927c.308.376.553.787.73 1.22Zm58.657 1.842v-9.707H108v-2.994h-3.194v-3.439h-3.524v3.44h-2.293v2.993h2.293V37.03a2.63 2.63 0 0 0 2.629 2.63H108v-3.286h-3.194Z"/><path fill="currentColor" fill-rule="evenodd" d="M69.441 38.735c.525.416 1.146.736 1.865.964a7.824 7.824 0 0 0 2.361.342c1.18 0 2.224-.205 3.12-.622a4.692 4.692 0 0 0 2.116-1.922c.04.553.08.97.13 1.243l.03.156c.043.235.09.488.136.763h3.228c-.154-.668-.274-1.495-.353-2.47a36.66 36.66 0 0 1-.103-4.117c.011-.405.017-.793.017-1.17 0-.376.006-.724.017-1.038.011-.313.017-.57.017-.77.023-1.26-.137-2.332-.473-3.21-.337-.879-.81-1.586-1.42-2.116a5.642 5.642 0 0 0-2.162-1.152 9.757 9.757 0 0 0-2.663-.354c-.964 0-1.848.131-2.646.4-.799.267-1.495.638-2.088 1.123a5.556 5.556 0 0 0-1.42 1.733 5.52 5.52 0 0 0-.622 2.22h3.462c.04-.97.36-1.689.964-2.162.605-.474 1.346-.713 2.236-.713.439 0 .855.057 1.26.177s.759.308 1.067.576c.302.268.547.633.724 1.095.183.462.268 1.026.268 1.699v.297a74.52 74.52 0 0 0-4.13.564c-1.294.217-2.429.53-3.404.947-.975.41-1.75.947-2.321 1.597-.57.65-.855 1.471-.855 2.458 0 .73.142 1.386.427 1.967.285.582.69 1.078 1.215 1.495Zm3.747-5.56c.57-.24 1.3-.434 2.19-.594a42.348 42.348 0 0 1 3.228-.416v1.215c0 1.363-.365 2.372-1.095 3.034-.73.661-1.75.992-3.051.992-.89 0-1.603-.2-2.133-.593-.53-.394-.799-.936-.799-1.626 0-.456.131-.844.4-1.169.268-.325.69-.604 1.26-.844Z" clip-rule="evenodd"/><path fill="currentColor" d="M65.192 36.694c.479-.73.798-1.557.98-2.481h-3.427c-.12.53-.308.98-.559 1.346-.256.359-.57.661-.918.9-.36.229-.741.4-1.158.497a5.631 5.631 0 0 1-1.277.148 3.766 3.766 0 0 1-1.506-.308c-.49-.205-.93-.536-1.317-.975-.388-.45-.696-1.01-.918-1.688-.223-.684-.343-1.494-.343-2.441 0-.953.12-1.757.343-2.43.222-.673.53-1.226.918-1.665.382-.45.827-.77 1.329-.98a4.175 4.175 0 0 1 1.585-.309c.964 0 1.785.268 2.458.799.548.433.918.975 1.13 1.625h3.444a6.682 6.682 0 0 0-.793-1.956 6.782 6.782 0 0 0-1.596-1.814 7.167 7.167 0 0 0-2.145-1.169 7.532 7.532 0 0 0-2.504-.41c-1.18 0-2.252.21-3.222.638a7.09 7.09 0 0 0-2.475 1.757 7.833 7.833 0 0 0-1.568 2.646c-.365 1.015-.548 2.116-.548 3.302s.183 2.287.548 3.302a7.794 7.794 0 0 0 1.556 2.635 7.346 7.346 0 0 0 2.413 1.745c.941.422 1.99.64 3.154.64.85 0 1.67-.138 2.486-.389a7.654 7.654 0 0 0 2.213-1.129 6.778 6.778 0 0 0 1.717-1.836ZM93.445 26.53c-.621-.308-1.374-.456-2.264-.456-.77 0-1.454.16-2.059.473-.599.314-.9.742-.9 1.272s.182.947.547 1.244c.365.296.895.513 1.585.65l2.247.444c.81.16 1.557.348 2.247.565.69.217 1.295.508 1.808.873a3.91 3.91 0 0 1 1.198 1.346c.285.53.428 1.186.428 1.95 0 .827-.183 1.563-.548 2.207a4.927 4.927 0 0 1-1.477 1.614 7.058 7.058 0 0 1-2.144.993 9.444 9.444 0 0 1-2.578.342c-.987 0-1.876-.131-2.68-.4a6.978 6.978 0 0 1-2.088-1.094 5.56 5.56 0 0 1-1.437-1.66 5.61 5.61 0 0 1-.696-2.087h3.433c.16.827.53 1.465 1.124 1.91.593.445 1.409.667 2.458.667.93 0 1.694-.182 2.293-.547.598-.365.9-.873.9-1.523 0-.65-.262-1.14-.786-1.466-.525-.325-1.18-.564-1.968-.724l-2.395-.473a11.512 11.512 0 0 1-1.882-.548 5.406 5.406 0 0 1-1.523-.89 3.899 3.899 0 0 1-1.021-1.328c-.245-.525-.37-1.152-.37-1.882 0-.713.176-1.346.53-1.91a4.902 4.902 0 0 1 1.42-1.45 6.872 6.872 0 0 1 2.059-.93 9.19 9.19 0 0 1 2.47-.324c.77 0 1.516.091 2.246.28.73.188 1.392.478 1.985.872.593.393 1.095.89 1.511 1.483.417.593.702 1.283.856 2.07H94.66c-.188-.741-.593-1.255-1.215-1.563Z"/></svg>