<svg xmlns="http://www.w3.org/2000/svg" width="128" height="64" fill="none" viewBox="0 0 128 64"><path fill="currentColor" fill-rule="evenodd" d="M54.14 42.279c1.602 1.034 3.522 2.535 4.2 3.553-2.033-1.492-4.824-2.23-6.759-2.052-2.353.039-3.294 1.867-3.294 1.867-2.832-5.156-11.45-2.194-13.133-1.79-1.684.405-4.187 1.074-6.257 1.291-2.951.249-5.425-.94-6.617-3.18-1.54-3.227-.513-7.193.624-9.96 1.97-4.589 5.454-8.78 9.808-11.805 1.991-1.22 4.148-2.325 6.465-2.192.676.124 1.221.49 1.537 1.018.752 1.486-.204 3.08-.852 3.912-.6.738-1.992 1.018-1.937-.327.039-.879.755-1.532 1.016-1.734.321-.21.737-.249.984-.249.235-.218.416-1.742-1.523-1.244-2.53.793-4.445 2.768-6.51 5.07-3.7 4.424-5.784 8.413-6.555 12.558-.332 2.542.113 4.308 1.355 5.404 3.23 2.232 5.691 1.12 13.071-.614 6.923-1.921 11.215-1.563 14.378.474ZM40.643 24.978c1.643 1.197.081 4.393-.108 4.899.578.148 2.427-1.174 3.505-2.364.857-.949 2.324-2.17 3.251-2.52.693-.334 1.763-.443 2.464-.023.47.273.786.832.819 1.423.093 1.649-1.825 4.355-2.787 2.986-.198-.59.018-1.22.641-1.874.316-.327.705-.474 1.19-.458.192-.304.143-.747-.16-.926-.317-.194-.956-.062-1.544.397-2.084 1.656-3.915 4.401-4.977 7.426-.189.568-.291 1.432.042 2.023.913 1.407 3.049-.551 3.049-.551 1.442-1.283 2.832-3.06 3.924-4.64 2.837-4.105 6.605-7.645 8.269-5.344.03.04.073.121.09.137.025-.031.318-.506.318-.506h2.686l-5.696 9.88c-.118.241-.193.58-.002.744.155.11.423-.029.425-.029 1.476-.715 3.747-4.008 3.758-4.008h.925c-1.45 2.125-3.245 4.584-5.474 6.154-.619.413-1.433.852-2.237.563-.852-.536-.692-1.205-.637-2.013-.007 0-2.117 2.566-3.884 2.053-.584-.187-1.519-.693-.825-3.103 0 0 .052-.218.093-.38-.16.155-.445.427-.445.427-1.668 1.633-3.558 3.468-5.926 3.071-1.777-.552-1.729-2.371-1.791-2.87-.2-1.632 1.757-4.921 1.764-4.945a14.44 14.44 0 0 1-1.347.327l-.641 1.057c-.666 1.105-1.354 2.255-2.244 3.212l-.17.179c-1.309 1.532-4.388 4.393-6.047 2.426-1.114-1.672-.09-5.287 2.283-8.398 2.595-3.468 5.834-5.49 7.446-4.432Zm12.948 4.727c.522-.722 2.043-2.659 2.413-2.985 1.247-1.097 1.745-.615 1.789-.273a245.787 245.787 0 0 1-3.828 6.618c.002-.008-.404.614-.404.614-.57.87-1.145 1.617-2.082 2.138-.133.04-.353.055-.5-.054a.53.53 0 0 1-.226-.514c.056-.668.737-2.713 2.838-5.544Zm-14.61 1.252s-.024.07-.035.093c-.003 0-1.171 1.905-1.171 1.905-.705.941-1.585 2.124-2.685 2.691-.326.109-.777.18-1.007-.108-.486-.584-.236-1.392-.032-2.045l.073-.234c.584-1.586 1.512-2.986 2.414-4.285a.118.118 0 0 1 .046-.015c.002.008.006.008.008.024.566 1.088 1.628 1.593 2.423 1.827.005 0 .01.008.01.023a.383.383 0 0 1-.044.124Zm1.106-2.247c-.005.016-.52 1.198-.52 1.198-.074.062-.192.03-.327 0l-.231-.04c-.726-.225-1.274-.707-1.443-1.282-.233-1.12.724-1.999 1.146-2.317.404-.28 1.032-.428 1.398-.14.225.264.31.606.31.98 0 .505-.156 1.072-.333 1.601Zm33.951 3.608c.57 1.198.203 2.768-.128 3.88-1.372 3.74-4.125 6.99-7.187 8.5-1.414.567-3.416.909-4.926-.67-1.775-1.858-1.554-4.992-.827-7.122.944-3.165 2.715-6.368 5.57-10.078 3.882-4.735 7.504-7.465 11.405-8.584 1.085-.265 2.557-.358 3.454.622 0 0 .435-.148.91-.319 1.21-.435 3.586-.995 6.506.599 1.286.707 2.592 1.423 3.828 2.177l.771.474a37.258 37.258 0 0 0-2.056 2.186c-1.181-.514-4.683-3.196-6.328-3.74 0 0-2.104-.965-3.13-.42.015.186.025.435.025.621 0 1.54-.585 2.924-1.242 4.316-1.134 1.835-2.522 3.841-4.67 4.339-.467.03-1.046-.016-1.373-.607-.624-1.135-.004-2.418.442-3.367 1.753-3.74 5.43-5.762 5.43-5.762-.64-.248-1.38-.155-2.179.25-3.917 1.936-6.824 5.567-9.462 9.105-2.558 3.81-4.345 7.154-4.759 11.08-.093 1.385.349 2.458 1.215 2.97 1.375.84 2.948-.248 4.01-1.15 1.202-1.073 2.39-2.628 3.166-4.184 1.05-2.114 1.327-4.3.537-4.564-.903-.256-1.708.708-2.11 1.307a7.371 7.371 0 0 0-1.27 3.071c-1.532.684-2.881 1.936-3.543 2.698.205-1.695.518-2.76 1.092-4.051 1.092-2.512 3.173-4.261 5.3-4.456.656-.038 1.27.32 1.53.88ZM81.08 20.6c-.405 4.65-4.02 7.38-4.914 7.597-.542.109-1.467-.132-.641-2.084 1.216-2.628 3.291-4.86 5.518-6.003.055.195.053.319.037.49Zm21.441.59c2.374-1.344 3.979-3.18 3.979-3.18s-1.098 2.341-3.24 4.2c-2.025 1.842-5.655 3.779-9.08 2.908a37.472 37.472 0 0 1 1.942-2.356c2.44.248 4.455-.467 6.399-1.571Zm-36.744 3.873-1.439 2.338h-2.55l1.439-2.338h2.55Zm30.335 17.432c1.575-.925 2.828-2.876 3.812-4.363h.908c-.692 1.168-3.36 5.21-5.587 6.424-.621.335-1.158.725-1.876.592-1.046-.132-1.098-1.454-.907-2.193-.595.63-1.877 1.859-3.027 2.17-1.002.194-2.315-.203-1.953-2.738-1.687 2.116-3.76 3.718-5.013 2.17-.877-1.096-.448-2.947.48-5.668 0 0 .313-.934.347-1.05-.013-.008-.016-.008-.025-.008-.604.156-1.404.179-1.462.186-1.464 2.567-3.322 5.374-5.98 6.773-.391.202-1.387.622-2.178.218-.769-.436-1.07-1.306-.922-2.66.21-1.726.969-3.233 1.73-4.641 1.415-2.216 3.377-4.907 6-5.995.587-.265 1.455-.428 2.158-.078.6.435.76 1.065.76 1.734 0 .311-.036.63-.076.94-.228 1.09-.685 2.093-1.047 2.839.175.117 1.203-.124 1.469-.326 3.67-7.667 7.87-13.282 12.842-17.177l.04-.024c.967-.66 2.169-1.477 3.272-1.267a.828.828 0 0 1 .658.692c.18 1.112-.31 2.045-.751 2.877-.381.125-.962.233-.962.233l.41-.84c.292-.575.547-1.08.514-1.765-.085-.179-.184-.186-.26-.179-.727.148-1.66 1.05-2.559 1.929l-.582.56c-3.698 3.693-8.043 11.415-8.716 13.032 1.519-.738 6.526-5.7 8.974-9.113.5-.016.925-.101.925-.101-.392.77-3.074 4.214-6.255 7.255a37.632 37.632 0 0 1-4.492 3.67c-.694 1.5-1.384 3.157-1.681 4.899-.033.241-.113 1.276.656 1.213.983-.217 2.756-3.148 2.756-3.148 1.683-2.636 3.818-6.016 6.744-7.727.673-.381 1.649-.58 2.314-.16.155.101.531.568.657.777 0 0 .277-.488.406-.7h2.722l-3.973 7.047s-1.427 2.218-1.786 3.307c-.144.428.242.571.516.384Zm-19.998-.27c-.142-.21-.189-.44-.193-.688-.027-1.525 1.613-4.255 2.77-5.743h.003c.486 1.063 1.584 1.746 2.248 2.034-.824 1.835-3.65 5.765-4.828 4.397Zm5.293-5.218c-.079.055-1.464-.412-1.732-1.695-.227-1.104.533-1.968 1.27-2.403.315-.249.79-.334 1.14-.21.324.218.412.607.412 1.026 0 .258-.034.522-.065.763l-.006.054a10.35 10.35 0 0 1-1.02 2.465Zm11.113 4.728-.263.233c-.374.334-.758.692-1.223.513-.128-.047-.218-.217-.24-.35-.02-.956.41-1.843.828-2.706l.107-.225c1.201-2.006 2.598-4.37 4.649-6.01.345-.25.72-.46 1.116-.296.091.085.197.233.197.38a.64.64 0 0 1-.065.21c-.573.926-1.119 1.898-1.649 2.831-1.037 1.843-2.112 3.748-3.457 5.42Z" clip-rule="evenodd"/></svg>