<svg xmlns="http://www.w3.org/2000/svg" width="128" height="64" fill="none" viewBox="0 0 128 64"><path fill="currentColor" fill-rule="evenodd" d="M92.812 25.362v5.803h7.817c0 .02-.007-5.804 0-5.803h3.871s.013 14.497 0 14.512h-3.871v-6.386c0 .018-7.817 0-7.817 0 .006.024 0 6.39 0 6.386h-3.868s.02-14.512 0-14.512h3.868Zm-36.73 0v2.469h-5.917v12.043h-3.87V27.831H40.38s.007-2.466 0-2.47c.007.004 15.702 0 15.702 0Zm15.044 14.512h-4.31c.007 0-1.265-3.12-1.265-3.12h-7.254s-1.247 3.124-1.265 3.12c.003.004-4.309 0-4.309 0l6.827-14.512c0 .009 4.746 0 4.746 0l6.83 14.512Zm-9.203-12.043 2.697 6.6h-5.39l2.693-6.6Zm45.641-2.47h3.874v14.513h-3.874V25.362Zm-87.193 0s-.004 5.845 0 5.804h7.813c0 .02-.005-5.804 0-5.803h3.87s.014 14.497 0 14.512h-3.87v-6.386c0 .018-7.813 0-7.813 0 .003.024-.004 6.39 0 6.386H16.5s.02-14.512 0-14.512h3.871Zm14.753 0h3.868v14.513h-3.868V25.362Zm35.864 10.49a9.306 9.306 0 0 1-.52-3.09c0-1.523.271-3 1.006-4.225a6.51 6.51 0 0 1 3.32-2.763 12.315 12.315 0 0 1 4.29-.773c1.739 0 3.385.38 4.884 1.023a4.706 4.706 0 0 1 2.761 3.354c.064.3.11.608.138.92h-4.061a3.459 3.459 0 0 0-.21-1.117 2.81 2.81 0 0 0-1.816-1.68 5.826 5.826 0 0 0-1.695-.25c-.673 0-1.317.117-1.916.328a3.481 3.481 0 0 0-2.114 2.13 9.139 9.139 0 0 0-.528 3.054c0 .886.141 1.738.368 2.55a3.459 3.459 0 0 0 2.115 2.29 5.922 5.922 0 0 0 2.075.383c.623 0 1.224-.094 1.788-.276a2.768 2.768 0 0 0 1.693-1.507c.212-.474.318-1 .318-1.555h4.077c-.024.47-.09.938-.195 1.376-.349 1.435-1.36 2.64-2.706 3.2-1.532.64-3.21 1.01-4.975 1.01-1.37 0-2.69-.215-3.927-.6-1.887-.593-3.521-1.94-4.17-3.782Z" clip-rule="evenodd"/></svg>