<svg xmlns="http://www.w3.org/2000/svg" width="128" height="64" fill="none" viewBox="0 0 128 64"><path fill="currentColor" d="M20 29h6v6h-6z" opacity=".8"/><path fill="currentColor" d="M20 23h6v6h-6zM20 35h6v6h-6z" opacity=".6"/><path fill="currentColor" d="M20 41h6v6h-6zM32 17h6v6h-6z" opacity=".4"/><path fill="currentColor" d="M32 23h6v6h-6zM32 35h6v6h-6z" opacity=".6"/><path fill="currentColor" d="M32 29h6v6h-6z" opacity=".8"/><path fill="currentColor" d="M26 29h6v6h-6z"/><path fill="currentColor" d="M38 23h6v6h-6zM14 35h6v6h-6z" opacity=".4"/><path fill="currentColor" d="M56.026 23.08H60.3v6.9h7.539v-6.9h4.275V41H67.84v-7.066H60.3V41h-4.274V23.08Z"/><path fill="currentColor" fill-rule="evenodd" d="M73.852 34.715c0-3.801 2.893-6.617 6.81-6.617 3.93 0 6.822 2.816 6.822 6.617 0 3.802-2.892 6.618-6.822 6.618-3.917 0-6.81-2.816-6.81-6.618Zm9.536 0c0-1.69-1.152-2.88-2.726-2.88-1.562 0-2.714 1.19-2.714 2.88s1.152 2.88 2.714 2.88c1.574 0 2.726-1.19 2.726-2.88Z" clip-rule="evenodd"/><path fill="currentColor" d="M101.416 28.443h-4.378l-2.005 4.037 2.07 4.203 4.313-8.24ZM96.282 38.249l-4.902-9.806h-4.595l5.287 9.792-4.301 7.91h4.377l4.135-7.896ZM110.301 28.443h3.994v7.181c0 3.93-2.714 5.709-6.054 5.709-3.354 0-6.068-1.78-6.068-5.722v-7.168h4.007v6.823c0 1.6.857 2.33 2.061 2.33 1.19 0 2.06-.73 2.06-2.33v-6.823Z"/></svg>