<svg xmlns="http://www.w3.org/2000/svg" width="128" height="64" fill="none" viewBox="0 0 128 64"><path fill="currentColor" d="M17.574 31.456c-1.662-1.078-2.496-2.73-2.496-4.823 0-.452.04-.896.12-1.327A11.15 11.15 0 0 0 12.978 32c0 6.186 5.014 11.2 11.2 11.2.283 0 .564-.01.842-.031 4.183-.316 6.391-2.988 6.391-5.802 0-1.524-.566-2.556-1.646-3.257-.526-.341-1.195-.617-2.016-.816l-1.46 3.373h-2.033l1.587-3.668a19.836 19.836 0 0 0-1.665-.066c-.375 0-.74-.008-1.096-.025l.798-1.843.298.002c.865 0 1.68.043 2.443.136l1.674-3.87h2.034l-1.83 4.227c.865.236 1.63.56 2.283.984 1.661 1.079 2.496 2.73 2.496 4.823 0 .452-.04.896-.12 1.327A11.15 11.15 0 0 0 35.378 32c0-6.186-5.015-11.2-11.2-11.2-.284 0-.565.01-.843.031-4.182.316-6.39 2.988-6.39 5.802 0 1.524.565 2.556 1.645 3.257.526.341 1.194.616 2.013.815l1.46-3.372h2.033l-4.039 9.334h-2.034l1.83-4.228c-.864-.236-1.627-.56-2.28-.983Zm25.041 5.522V26.524h1.912v4.346h4.689v-4.346h1.911v10.454h-1.911v-4.555h-4.69v4.555h-1.91Zm10.753 3.285 1.718-3.778h-.448l-2.883-6.914h2.076l2.076 5.212 2.165-5.212h2.031L55.4 40.263h-2.03Zm7.312 0V29.571h1.703l.21 1.06c.238-.328.552-.617.94-.866.398-.249.911-.373 1.538-.373.697 0 1.32.169 1.867.507.547.339.98.802 1.3 1.39.318.587.477 1.254.477 2 0 .747-.16 1.414-.478 2.001a3.668 3.668 0 0 1-1.3 1.374c-.547.329-1.169.493-1.866.493-.557 0-1.045-.104-1.463-.314a2.638 2.638 0 0 1-1.016-.88v4.3h-1.911Zm3.988-4.779c.607 0 1.11-.204 1.508-.612.398-.408.598-.936.598-1.583 0-.647-.2-1.18-.598-1.598-.398-.418-.9-.627-1.508-.627-.617 0-1.125.21-1.523.627-.388.409-.583.936-.583 1.583 0 .647.195 1.18.583 1.598.398.408.906.612 1.523.612Zm8.682 1.673c-.747 0-1.41-.16-1.987-.478a3.459 3.459 0 0 1-1.359-1.344c-.328-.577-.492-1.244-.492-2 0-.767.159-1.45.477-2.047a3.54 3.54 0 0 1 1.344-1.389c.578-.338 1.255-.507 2.031-.507.727 0 1.37.159 1.927.477.557.32.99.757 1.299 1.315a3.58 3.58 0 0 1 .478 1.836c0 .11-.005.224-.015.344 0 .12-.005.244-.015.373h-5.63c.04.578.239 1.03.597 1.36.369.328.812.492 1.33.492.388 0 .711-.085.97-.254a1.65 1.65 0 0 0 .597-.687h1.942c-.14.468-.373.896-.702 1.284a3.375 3.375 0 0 1-1.195.896c-.468.22-1 .329-1.598.329Zm.014-6.212a2.01 2.01 0 0 0-1.24.403c-.358.259-.587.657-.686 1.195h3.688c-.03-.488-.209-.877-.537-1.165-.329-.289-.737-.433-1.225-.433Zm4.64 6.033V29.57h1.702l.18 1.389a3.06 3.06 0 0 1 1.09-1.135c.467-.289 1.015-.433 1.642-.433v2.016h-.538c-.418 0-.791.064-1.12.194-.328.13-.587.353-.776.672-.18.318-.269.761-.269 1.329v3.375h-1.912Zm8.31.179c-.657 0-1.235-.104-1.733-.314a3.054 3.054 0 0 1-1.194-.896 2.574 2.574 0 0 1-.538-1.314h1.926c.06.289.22.538.478.747.27.199.613.299 1.03.299.419 0 .723-.085.912-.254.199-.17.298-.364.298-.583 0-.318-.139-.532-.418-.642-.279-.12-.667-.234-1.165-.343-.318-.07-.642-.155-.97-.254a4.983 4.983 0 0 1-.911-.373 2.112 2.112 0 0 1-.657-.598c-.17-.249-.254-.552-.254-.91 0-.658.259-1.21.776-1.658.528-.448 1.265-.672 2.21-.672.877 0 1.574.204 2.091.612.528.408.842.97.941 1.687H87.33c-.11-.547-.522-.82-1.24-.82-.358 0-.636.069-.836.208-.189.14-.283.314-.283.523 0 .219.144.393.433.522.288.13.672.25 1.15.359.517.12.99.254 1.418.403.438.14.787.353 1.046.642.258.279.388.682.388 1.21.01.458-.11.87-.359 1.24-.248.368-.607.656-1.075.865-.468.21-1.02.314-1.657.314Zm7.741 0c-.757 0-1.424-.164-2.001-.493a3.64 3.64 0 0 1-1.374-1.374c-.329-.587-.493-1.26-.493-2.016s.165-1.428.493-2.016a3.64 3.64 0 0 1 1.374-1.373c.577-.33 1.244-.493 2.001-.493.946 0 1.742.248 2.39.746.646.488 1.06 1.165 1.239 2.031h-2.016a1.43 1.43 0 0 0-.598-.836 1.71 1.71 0 0 0-1.03-.314c-.528 0-.976.2-1.344.598-.368.398-.552.95-.552 1.657 0 .707.184 1.26.552 1.658.368.398.816.597 1.344.597.398 0 .742-.1 1.03-.298.3-.2.498-.483.598-.852h2.016c-.18.837-.593 1.509-1.24 2.016-.647.508-1.443.762-2.389.762Zm7.207 0c-.637 0-1.16-.1-1.568-.299-.408-.209-.712-.482-.911-.821a2.169 2.169 0 0 1-.299-1.12c0-.687.27-1.245.807-1.672.537-.429 1.344-.643 2.419-.643h1.882v-.179c0-.508-.145-.88-.434-1.12-.288-.239-.647-.358-1.075-.358a1.81 1.81 0 0 0-1.015.284c-.289.179-.468.448-.538.806h-1.866c.05-.538.228-1.006.537-1.404a3.048 3.048 0 0 1 1.225-.91 4.106 4.106 0 0 1 1.672-.33c1.056 0 1.887.265 2.494.792.607.528.911 1.274.911 2.24v4.555h-1.628l-.179-1.195a2.74 2.74 0 0 1-.926.986c-.388.259-.891.388-1.508.388Zm.433-1.493c.548 0 .971-.18 1.269-.538.309-.358.503-.801.583-1.329h-1.628c-.508 0-.871.095-1.09.284a.834.834 0 0 0-.329.672c0 .288.11.512.329.672.219.159.508.239.866.239Zm4.96 1.314V26.226h1.912v10.752h-1.912Zm6.792.179c-.747 0-1.409-.16-1.987-.478a3.456 3.456 0 0 1-1.358-1.344c-.329-.577-.493-1.244-.493-2 0-.767.159-1.45.478-2.047a3.531 3.531 0 0 1 1.344-1.389c.577-.338 1.254-.507 2.031-.507.726 0 1.368.159 1.926.477.557.32.991.757 1.299 1.315a3.58 3.58 0 0 1 .478 1.836c0 .11-.005.224-.015.344 0 .12-.005.244-.015.373h-5.63c.04.578.239 1.03.598 1.36.368.328.811.492 1.329.492.388 0 .712-.085.97-.254a1.66 1.66 0 0 0 .598-.687h1.941a3.523 3.523 0 0 1-.702 1.284 3.37 3.37 0 0 1-1.195.896c-.467.22-1 .329-1.597.329Zm.015-6.212a2.01 2.01 0 0 0-1.24.403c-.358.259-.587.657-.687 1.195h3.689c-.03-.488-.209-.877-.538-1.165-.328-.289-.737-.433-1.224-.433Z"/></svg>