<svg xmlns="http://www.w3.org/2000/svg" width="128" height="64" fill="none" viewBox="0 0 128 64"><path fill="currentColor" d="M23.18 22.75a.249.249 0 0 0 .248-.248v-2.987a.249.249 0 1 0-.497 0v2.987c0 .137.111.249.248.249ZM28.976 25.01a.247.247 0 0 1-.35 0 .25.25 0 0 1 0-.352l2.107-2.111a.248.248 0 1 1 .352.351l-2.109 2.113ZM34.11 30.218h-2.98a.249.249 0 0 0 0 .498h2.98a.249.249 0 0 0 0-.498ZM28.625 35.923a.248.248 0 0 1 .351 0l2.108 2.112a.25.25 0 0 1-.175.425.248.248 0 0 1-.176-.073l-2.108-2.112a.249.249 0 0 1 0-.352ZM20.79 38.89l4.675-.66a.373.373 0 0 1 .104.74l-4.675.658a.372.372 0 1 1-.103-.739ZM25.465 39.475l-4.674.659a.373.373 0 0 0 .103.74l4.674-.66a.373.373 0 0 0-.103-.739ZM25.465 40.72l-4.674.658a.373.373 0 0 0 .103.74l4.674-.659a.373.373 0 0 0-.103-.74ZM25.443 41.98l-4.448.625c-.245.035-.298.374-.07.473.505.218.77.332 1.758.332 1.04 0 2.67-.576 2.973-1.007.137-.196.023-.457-.213-.424ZM17.558 25.084a.248.248 0 0 1-.175-.073l-2.108-2.113a.249.249 0 0 1 .35-.351l2.109 2.112a.25.25 0 0 1-.176.425ZM15.478 30.467a.249.249 0 0 0-.248-.25h-2.982a.249.249 0 0 0 0 .499h2.982a.249.249 0 0 0 .248-.25ZM15.275 38.035l2.108-2.112a.248.248 0 1 1 .35.352l-2.107 2.112a.248.248 0 0 1-.351 0 .25.25 0 0 1 0-.352Z"/><path fill="currentColor" fill-rule="evenodd" d="M20.428 30.594a.544.544 0 0 1-.2.033.795.795 0 0 1-.163-.02 1.023 1.023 0 0 0 .535.621 1.1 1.1 0 0 0 .973.011.335.335 0 0 1 .178-.043 1.26 1.26 0 0 1 .824-.861c.076-.028.209-.048.36-.048.187 0 .401.032.565.122.082-.17.251-.435.557-.607.243-.135.537-.169.767-.169.21 0 .364.028.377.03a.124.124 0 0 1 .1.145.124.124 0 0 1-.144.1 2.13 2.13 0 0 0-.335-.025c-.198 0-.447.027-.644.137a1.173 1.173 0 0 0-.505.621.125.125 0 0 1-.118.088.125.125 0 0 1-.092-.04c-.104-.113-.335-.156-.533-.156a.858.858 0 0 0-.27.036c-.366.132-.588.373-.68.731.02.021.039.044.053.07.069.13.56.445.981.638.044.02.152.037.339.037.034 0 .069 0 .105-.002a5.201 5.201 0 0 0 .582-.053.636.636 0 0 1 .39-.37.557.557 0 0 1 .165-.024c.214 0 .43.123.614.355a.124.124 0 0 1-.194.155c-.137-.171-.282-.261-.42-.261a.31.31 0 0 0-.091.014.374.374 0 0 0-.2.159.317.317 0 0 1 .15.156c.094.21.649.479 1.193.479.436 0 .812-.156 1.073-.532.297-.427.351-.872.23-1.32a1.997 1.997 0 0 0-.275-.596c-.213.22-.289.44-.048.889.032.06.01.136-.051.168l-.059.015a.124.124 0 0 1-.11-.066c-.343-.641-.134-.974.173-1.26a.338.338 0 0 1 .01-.072c.12-.456.1-.776-.132-1.151-.09-.146-.263-.25-.496-.311a1.862 1.862 0 0 0-.462-.06h-.027a.339.339 0 0 1-.083-.007 1.998 1.998 0 0 1-.243.34c.356.079.804.358.975 1.067a.124.124 0 0 1-.092.15l-.03.003a.125.125 0 0 1-.12-.095c-.203-.844-.821-.9-.974-.9a1.367 1.367 0 0 1-.842.287c-.336 0-.698-.117-1.08-.35a.124.124 0 0 1 .128-.212c.343.208.662.313.953.313a1.116 1.116 0 0 0 .712-.254l.01-.008c.194-.158.323-.352.394-.477a.323.323 0 0 1-.053-.136.414.414 0 0 0-.025-.078.812.812 0 0 0-.125-.205c-.168-.207-.443-.375-.855-.474a1.64 1.64 0 0 0-.381-.045c-.32 0-.622.097-.896.26a2.016 2.016 0 0 0-.343.26l-.001.001-.003.003-.002.001a.043.043 0 0 0-.004.004c.157.617-.38 1.555-.73 1.94a.124.124 0 0 1-.176.008.124.124 0 0 1-.008-.176c.373-.41.775-1.21.681-1.678a.323.323 0 0 1-.176-.05 1.335 1.335 0 0 0-.63-.179.941.941 0 0 0-.257.035c-.185.052-.355.197-.5.404a1.82 1.82 0 0 0-.182.326c.188.411-.031.936-.378 1.183a.125.125 0 0 1-.173-.03.126.126 0 0 1 .03-.173c.23-.164.39-.508.326-.786a.333.333 0 0 1-.198.013c-.307-.077-.793.372-.8.77a.684.684 0 0 0 .23.518 1.091 1.091 0 0 0 .266.186c.088.04.152.118.18.21.094.04.174.051.231.051a.326.326 0 0 0 .106-.014.126.126 0 0 1 .16.07.123.123 0 0 1-.067.16Zm.948-2.438a.123.123 0 0 1 .174-.014c.053.044.06.122.015.175-.476.565-.576 1.423-.273 2.354a.125.125 0 0 1-.08.157l-.038.006a.124.124 0 0 1-.118-.086c-.33-1.015-.214-1.96.32-2.592Zm.915 1.644a.767.767 0 0 1 .641-.344c.171 0 .35.055.514.167a.124.124 0 1 1-.14.206.668.668 0 0 0-.373-.124.52.52 0 0 0-.437.236.124.124 0 0 1-.172.032.125.125 0 0 1-.033-.173Zm.799-1.948a.123.123 0 0 1 .175-.004c.016.015.33.305.753.305a.935.935 0 0 0 .375-.079.125.125 0 0 1 .164.065.125.125 0 0 1-.065.164c-.166.072-.326.1-.473.1-.525 0-.905-.356-.925-.375a.125.125 0 0 1-.005-.175Zm2.545 2.947c.273.269.376.684.308 1.235a.124.124 0 0 1-.123.109l-.016-.001a.124.124 0 0 1-.107-.139c.058-.469-.02-.814-.235-1.026-.216-.213-.525-.247-.7-.247-.027 0-.05 0-.07.002-.358.622-.877.832-1.34.832-.264 0-.51-.068-.697-.166a.125.125 0 0 1 .058-.235.12.12 0 0 1 .057.014c.155.08.357.137.574.137.402 0 .857-.19 1.162-.76a.124.124 0 0 1 .091-.064c.008-.001.07-.01.165-.01.215 0 .594.044.873.319Z" clip-rule="evenodd"/><path fill="currentColor" d="M24.904 28.915h-.032a.17.17 0 0 1-.015.002h.007l.007-.001.033-.001Z"/><path fill="currentColor" d="M22.781 24.257c-3.03.189-5.521 2.616-5.787 5.646a6.22 6.22 0 0 0 2.58 5.63c.39.28.624.732.624 1.214v1.112c0 .303.267.535.567.493l.924-.13V31.704a.04.04 0 0 0 .002-.006 1.56 1.56 0 0 1-1.294-.05c-.638-.311-.799-.926-.836-1.14-.19-.105-.716-.454-.704-1.106.013-.642.678-1.294 1.268-1.232.107-.225.412-.763.947-.914.123-.035.252-.052.383-.052.353 0 .646.126.787.2.192-.174.738-.594 1.5-.594.162 0 .326.02.488.059.962.23 1.246.783 1.326 1.023.286.008.982.081 1.296.59.344.556.302 1.046.202 1.455.17.254.813 1.345.047 2.45-.42.605-1.022.732-1.453.732-.339 0-.688-.083-.978-.214v4.897l1.063-.15a.498.498 0 0 0 .428-.492v-.413c0-.475.222-.927.61-1.203a6.218 6.218 0 0 0 2.62-5.077c0-3.569-2.999-6.436-6.61-6.21Z"/><path fill="currentColor" d="M22.82 32.431c.117.054.291.08.533.08.281 0 .581-.036.727-.056a.876.876 0 0 0 .12.142.245.245 0 0 0-.027.11v5.165l-1.987.28v-6.066c.311.196.629.343.634.345ZM51.474 37.841v-5.116c0-.926-.293-1.673-.861-2.225-.487-.471-1.202-.747-2.063-.747-1.12 0-2.014.454-2.631 1.331-.487-.877-1.348-1.331-2.453-1.331-.893 0-1.689.325-2.257.974v-.877h-1.17v7.991h1.17V32.92c0-1.397.796-2.128 1.997-2.128 1.202 0 1.966.715 1.966 2.128v4.921h1.17V32.79c0-1.267.828-1.998 1.997-1.998 1.202 0 1.965.715 1.965 2.128v4.921h1.17ZM60.6 34.154v-.536c0-2.371-1.218-3.865-3.28-3.865-2.031 0-3.282 1.51-3.282 4.093 0 2.826 1.38 4.093 3.492 4.093 1.365 0 2.112-.423 2.924-1.235l-.796-.698c-.633.633-1.17.91-2.095.91-1.527 0-2.355-1.008-2.355-2.762H60.6Zm-1.17-.877h-4.222c.032-.65.065-.893.243-1.332.309-.73 1.024-1.202 1.868-1.202.845 0 1.56.471 1.868 1.202.179.439.211.682.244 1.332ZM74.686 37.841v-5.116c0-.926-.292-1.673-.86-2.225-.488-.471-1.203-.747-2.063-.747-1.121 0-2.014.454-2.632 1.331-.487-.877-1.348-1.331-2.452-1.331-.893 0-1.69.325-2.258.974v-.877h-1.17v7.991h1.17V32.92c0-1.397.796-2.128 1.998-2.128s1.965.715 1.965 2.128v4.921h1.17V32.79c0-1.267.828-1.998 1.997-1.998 1.202 0 1.966.715 1.966 2.128v4.921h1.17ZM83.796 33.846c0-1.235-.162-2.355-.974-3.184-.553-.552-1.316-.91-2.29-.91-.975 0-1.738.358-2.29.91-.813.829-.975 1.95-.975 3.184 0 1.234.163 2.355.975 3.183.552.552 1.315.91 2.29.91.974 0 1.737-.358 2.29-.91.812-.828.974-1.949.974-3.183Zm-1.17 0c0 .893-.048 1.884-.633 2.468a2.048 2.048 0 0 1-1.461.585 2.01 2.01 0 0 1-1.446-.585c-.585-.584-.65-1.575-.65-2.468 0-.894.065-1.884.65-2.47a2.01 2.01 0 0 1 1.446-.584c.568 0 1.088.211 1.461.585.585.585.634 1.575.634 2.469ZM91.792 30.5c-.569-.569-1.154-.747-1.917-.747-.926 0-1.803.406-2.241 1.072v-.975h-1.17v7.991h1.17v-4.905c0-1.218.747-2.144 1.916-2.144.618 0 .942.146 1.38.585l.862-.877ZM99.005 37.841v-5.425c0-1.738-1.055-2.663-3.2-2.663-1.299 0-2.11.26-2.826 1.185l.796.731c.471-.666.991-.91 2.014-.91 1.462 0 2.047.585 2.047 1.755v.763h-2.404c-1.787 0-2.761.91-2.761 2.306 0 .634.211 1.235.6 1.625.504.52 1.154.73 2.258.73 1.072 0 1.657-.21 2.307-.86v.763h1.17Zm-1.17-2.826c0 .666-.13 1.12-.405 1.38-.504.488-1.105.536-1.787.536-1.267 0-1.835-.438-1.835-1.364 0-.926.585-1.413 1.786-1.413h2.242v.861ZM107.944 37.841V26.277h-1.169v4.499c-.65-.828-1.381-1.023-2.258-1.023-.812 0-1.527.276-1.949.698-.812.812-.974 2.144-.974 3.395 0 1.25.162 2.582.974 3.394.422.422 1.137.698 1.949.698.877 0 1.624-.21 2.274-1.055v.958h1.153Zm-1.169-3.995c0 1.559-.26 3.053-1.998 3.053s-2.014-1.494-2.014-3.053c0-1.56.276-3.054 2.014-3.054 1.738 0 1.998 1.494 1.998 3.054ZM117.136 33.846c0-1.235-.163-2.355-.975-3.184-.552-.552-1.315-.91-2.29-.91-.974 0-1.738.358-2.29.91-.812.829-.974 1.95-.974 3.184 0 1.234.162 2.355.974 3.183.552.552 1.316.91 2.29.91.975 0 1.738-.358 2.29-.91.812-.828.975-1.949.975-3.183Zm-1.17 0c0 .893-.048 1.884-.633 2.468a2.049 2.049 0 0 1-1.462.585 2.009 2.009 0 0 1-1.445-.585c-.585-.584-.65-1.575-.65-2.468 0-.894.065-1.884.65-2.47a2.01 2.01 0 0 1 1.445-.584 2.05 2.05 0 0 1 1.462.585c.585.585.633 1.575.633 2.469Z"/></svg>