<svg xmlns="http://www.w3.org/2000/svg" width="128" height="64" fill="none" viewBox="0 0 128 64"><path fill="currentColor" d="M46.023 36.267v-7.525h1.714l.167 1.017c.243-.364.562-.653.956-.865.405-.223.87-.334 1.396-.334 1.163 0 1.987.45 2.472 1.35a2.938 2.938 0 0 1 1.093-.986 3.23 3.23 0 0 1 1.517-.364c.98 0 1.734.293 2.26.88.526.587.789 1.446.789 2.579v4.248h-1.942V32.2c0-.647-.126-1.143-.379-1.487-.243-.343-.622-.515-1.138-.515-.526 0-.95.192-1.274.576-.314.384-.47.92-.47 1.608v3.884h-1.942V32.2c0-.647-.127-1.143-.38-1.487-.252-.343-.642-.515-1.168-.515-.515 0-.935.192-1.259.576-.313.384-.47.92-.47 1.608v3.884h-1.942ZM63.28 36.449c-.759 0-1.431-.162-2.018-.486a3.514 3.514 0 0 1-1.38-1.365c-.334-.587-.5-1.264-.5-2.033 0-.779.16-1.471.485-2.078a3.595 3.595 0 0 1 1.365-1.411c.586-.344 1.274-.516 2.063-.516.738 0 1.39.162 1.957.486a3.417 3.417 0 0 1 1.32 1.335c.323.556.485 1.178.485 1.865 0 .112-.005.228-.015.35 0 .12-.005.247-.015.379h-5.72c.041.586.243 1.047.607 1.38.375.334.825.5 1.35.5.395 0 .724-.085.987-.257.273-.182.475-.415.607-.698h1.972a3.59 3.59 0 0 1-.713 1.305 3.427 3.427 0 0 1-1.214.91c-.475.222-1.016.334-1.623.334Zm.015-6.311c-.475 0-.895.136-1.26.41-.363.262-.596.667-.697 1.213h3.747c-.03-.495-.212-.89-.546-1.183-.334-.293-.748-.44-1.244-.44ZM69.82 36.267l-2.76-7.525h2.032l1.912 5.69 1.91-5.69h2.034l-2.776 7.525H69.82ZM75.399 32.687v-1.624h6.356v1.624H75.4Z"/><g fill="currentColor" opacity=".6"><path d="M88.054 36.449c-.567 0-1.062-.106-1.487-.319a2.68 2.68 0 0 1-1.032-.895l-.212 1.032h-1.73V25.344h1.942v4.475c.243-.334.562-.627.956-.88.405-.253.925-.379 1.563-.379.707 0 1.34.172 1.896.516.556.344.996.814 1.32 1.41.323.598.485 1.275.485 2.034 0 .758-.162 1.436-.485 2.032a3.726 3.726 0 0 1-1.32 1.396c-.556.334-1.189.5-1.896.5Zm-.41-1.7c.617 0 1.128-.207 1.532-.621.405-.415.607-.951.607-1.608 0-.658-.202-1.199-.607-1.624-.404-.424-.915-.637-1.532-.637-.627 0-1.143.213-1.547.637-.395.415-.592.951-.592 1.608 0 .658.197 1.199.592 1.624.404.414.92.622 1.547.622ZM96.493 36.449a3.917 3.917 0 0 1-1.972-.5 3.765 3.765 0 0 1-1.38-1.381c-.334-.597-.5-1.285-.5-2.064 0-.778.171-1.461.515-2.048a3.732 3.732 0 0 1 1.38-1.395 3.917 3.917 0 0 1 1.973-.5c.718 0 1.365.166 1.942.5a3.59 3.59 0 0 1 1.38 1.395c.344.587.516 1.27.516 2.048 0 .78-.172 1.467-.516 2.064a3.62 3.62 0 0 1-1.38 1.38c-.587.334-1.24.5-1.957.5Zm0-1.684c.506 0 .946-.187 1.32-.562.375-.384.562-.95.562-1.699 0-.748-.187-1.31-.562-1.683-.374-.385-.809-.577-1.304-.577-.516 0-.961.192-1.335.576-.364.375-.546.936-.546 1.684 0 .749.182 1.315.546 1.7.374.374.814.56 1.32.56ZM105.087 36.449a3.916 3.916 0 0 1-1.972-.5 3.764 3.764 0 0 1-1.381-1.381c-.334-.597-.501-1.285-.501-2.064 0-.778.172-1.461.516-2.048a3.731 3.731 0 0 1 1.381-1.395 3.916 3.916 0 0 1 1.972-.5c.718 0 1.365.166 1.942.5a3.596 3.596 0 0 1 1.38 1.395c.344.587.516 1.27.516 2.048 0 .78-.172 1.467-.516 2.064a3.625 3.625 0 0 1-1.38 1.38c-.587.334-1.239.5-1.957.5Zm0-1.684c.505 0 .945-.187 1.32-.562.374-.384.561-.95.561-1.699 0-.748-.187-1.31-.561-1.683-.375-.385-.81-.577-1.305-.577a1.8 1.8 0 0 0-1.335.576c-.364.375-.546.936-.546 1.684 0 .749.182 1.315.546 1.7.374.374.814.56 1.32.56ZM113.179 36.449c-.667 0-1.254-.106-1.759-.319-.506-.222-.911-.526-1.214-.91a2.602 2.602 0 0 1-.546-1.335h1.957c.06.293.222.546.485.758.273.203.622.304 1.047.304.425 0 .733-.086.925-.258.203-.172.304-.37.304-.592 0-.323-.142-.54-.425-.652-.283-.121-.678-.238-1.183-.349a12.81 12.81 0 0 1-.986-.258 5.063 5.063 0 0 1-.926-.38 2.144 2.144 0 0 1-.667-.606c-.172-.253-.258-.561-.258-.925 0-.668.263-1.23.789-1.684.536-.455 1.284-.683 2.245-.683.89 0 1.598.207 2.124.622.536.415.854.986.955 1.714h-1.835c-.111-.556-.531-.834-1.259-.834-.364 0-.648.07-.85.212-.192.142-.288.319-.288.531 0 .223.147.4.44.531.293.132.683.253 1.168.364a13.81 13.81 0 0 1 1.441.41c.445.142.799.359 1.062.652.263.283.395.693.395 1.23.01.464-.112.884-.365 1.258-.252.374-.616.668-1.092.88-.475.212-1.036.319-1.684.319ZM120.549 36.267c-.789 0-1.421-.193-1.897-.577-.475-.384-.713-1.067-.713-2.048v-3.277h-1.289v-1.623h1.289l.228-2.018h1.714v2.018h2.033v1.623h-2.033v3.292c0 .364.076.617.228.759.161.131.434.197.819.197h.94v1.654h-1.319Z"/></g><path fill="currentColor" fill-rule="evenodd" d="M21.333 24.889 7.111 32l14.222 7.111V24.89Z" clip-rule="evenodd" opacity=".45"/><path fill="currentColor" fill-rule="evenodd" d="M19.911 51.2 8.701 34.385l11.21 5.605V51.2Z" clip-rule="evenodd" opacity=".8"/><path fill="currentColor" fill-rule="evenodd" d="M21.333 24.889 7.111 32l14.222-21.333v14.222Z" clip-rule="evenodd" opacity=".3"/><path fill="currentColor" fill-rule="evenodd" d="m22.756 24.01 11.21 5.605L22.755 12.8v11.21Z" clip-rule="evenodd" opacity=".8"/><path fill="currentColor" fill-rule="evenodd" d="M21.333 24.889 35.556 32l-14.223 7.111V24.89Z" clip-rule="evenodd" opacity=".6"/><path fill="currentColor" fill-rule="evenodd" d="M21.333 53.333 35.556 32l-14.223 7.111v14.222Z" clip-rule="evenodd" opacity=".8"/></svg>