<svg xmlns="http://www.w3.org/2000/svg" width="128" height="64" fill="none" viewBox="0 0 128 64"><path fill="currentColor" d="M57.491 19.423a2.891 2.891 0 0 1 2.123-.87c.807 0 1.509.296 2.088.87.579.575.868 1.271.868 2.073 0 .827-.29 1.532-.868 2.107a2.866 2.866 0 0 1-2.088.862c-.833 0-1.544-.288-2.123-.862a2.874 2.874 0 0 1-.868-2.108c0-.8.29-1.497.868-2.072ZM56.93 26.79h5.36v17.17h-5.36V26.79ZM80.342 18.552h-5.298V43.96h5.298V18.552ZM65.974 18.552h5.298V43.96h-5.298V18.552ZM49.842 27.538a7.939 7.939 0 0 0-4.438-1.35 7.94 7.94 0 0 0-3.088.619 7.867 7.867 0 0 0-2.228 1.436 7.939 7.939 0 0 0-5.342-2.055 7.94 7.94 0 0 0-3.088.619 7.97 7.97 0 0 0-3.491 2.847 7.798 7.798 0 0 0-1.36 4.406v9.891h5.21v-9.883c0-.383.08-.731.211-1.053a2.737 2.737 0 0 1 2.518-1.655c.386 0 .736.079 1.061.21.482.2.904.548 1.202.983.298.436.465.94.465 1.515v9.892h5.21v-9.892c0-.383.08-.731.21-1.053a2.738 2.738 0 0 1 2.518-1.655c.386 0 .737.079 1.062.21.482.2.903.548 1.201.983.299.436.465.94.465 1.515v9.892h5.21v-9.892c0-1.08-.218-2.124-.622-3.064a7.986 7.986 0 0 0-2.886-3.466Z"/><path fill="currentColor" fill-rule="evenodd" d="M92.035 26.223a9.205 9.205 0 0 1 6.483 2.665 9.068 9.068 0 0 1 2.684 6.434 9.069 9.069 0 0 1-2.684 6.435 9.184 9.184 0 0 1-6.483 2.664 9.17 9.17 0 0 1-6.482-2.664 9.049 9.049 0 0 1-2.685-6.435 9.033 9.033 0 0 1 2.685-6.434 9.2 9.2 0 0 1 6.482-2.665Zm0 12.904a3.811 3.811 0 0 0 2.71-1.114 3.72 3.72 0 0 0 1.123-2.69 3.755 3.755 0 0 0-1.122-2.691 3.796 3.796 0 0 0-2.71-1.115 3.811 3.811 0 0 0-2.712 1.115 3.74 3.74 0 0 0-1.122 2.69c0 1.054.42 1.994 1.123 2.69a3.796 3.796 0 0 0 2.71 1.115Z" clip-rule="evenodd"/></svg>