<svg xmlns="http://www.w3.org/2000/svg" width="128" height="64" fill="none" viewBox="0 0 128 64"><path fill="currentColor" d="m35.775 23.626 9.806 9.914 1.822-1.822L36.848 21h-10.29L16.002 31.718l1.822 1.875 2.036-2.09 7.77-7.877h8.146Z"/><path fill="currentColor" d="m42.956 32.468-7.235 7.341H27.63l-7.18-7.288-1.876 1.822 7.985 8.092h10.289l7.93-8.092-1.821-1.875Z"/><path fill="currentColor" d="M33.166 30.415c.251.251.592.392.948.392a1.18 1.18 0 0 0 .696-.214c.106.347.16.708.16 1.072a3.109 3.109 0 1 1-3.107-3.109c.366.015.728.087 1.072.215a1.5 1.5 0 0 0-.161.696c0 .356.14.697.392.948Z"/><path fill="currentColor" fill-rule="evenodd" d="M61.015 37.666c3.162 0 5.627-2.358 5.627-5.359 0-3.055-2.465-5.359-5.627-5.359s-5.627 2.358-5.627 5.359c0 3 2.465 5.359 5.627 5.359Zm-3.19-3.23a3.805 3.805 0 1 1 6.379-4.15 3.805 3.805 0 0 1-6.379 4.15Z" clip-rule="evenodd"/><path fill="currentColor" d="m73.662 30.646-2.626-3.644H69l3.59 5.145-3.858 5.412h2.09l2.84-3.965 2.84 3.965h2.144l-3.859-5.52 3.537-5.037h-2.09l-2.572 3.644Zm9.807-3.644H81.7v10.579h1.769V27.002Z"/><path fill="currentColor" fill-rule="evenodd" d="M91.829 34.397c2.679 0 4.18-1.393 4.18-3.804 0-2.251-1.501-3.59-4.18-3.59h-4.18v10.556h1.768v-3.162h2.412Zm-.054-5.787c1.607 0 2.572.643 2.572 2.036 0 1.447-.965 2.144-2.572 2.144h-2.358v-4.18h2.358Z" clip-rule="evenodd"/><path fill="currentColor" d="M100.938 27.002H99.17v10.579h1.768V27.002Zm11.361 1.608v-1.608h-8.467v1.608h3.323v8.949h1.768v-8.95h3.376Z"/></svg>