<svg xmlns="http://www.w3.org/2000/svg" width="128" height="64" fill="none" viewBox="0 0 128 64"><path fill="currentColor" d="M78.423 37.528c1.522-1.523 2.296-3.355 2.296-5.543 0-.315-.015-.625-.046-.935h-7.727v2.968h4.124c-.216.5-.526.96-.918 1.383-.862.95-1.967 1.414-3.293 1.414-1.306 0-2.41-.464-3.293-1.414s-1.327-2.075-1.327-3.422.444-2.472 1.327-3.421c.888-.95 1.992-1.415 3.293-1.415 1.259 0 2.322.418 3.164 1.28l2.188-2.188c-1.486-1.389-3.272-2.07-5.357-2.07-2.184 0-4.042.754-5.564 2.276-1.528 1.523-2.276 3.355-2.276 5.544 0 2.183.753 4.02 2.276 5.543 1.522 1.522 3.375 2.276 5.564 2.276 2.188 0 4.046-.754 5.569-2.276Z"/><path fill="currentColor" fill-rule="evenodd" d="M28.322 26.472c1.522 1.523 2.297 3.36 2.297 5.544 0 2.188-.775 4.02-2.297 5.543-1.523 1.522-3.38 2.276-5.57 2.276-2.188 0-4.04-.754-5.568-2.276-1.518-1.523-2.271-3.355-2.271-5.543 0-2.184.753-4.021 2.276-5.544 1.523-1.522 3.38-2.276 5.564-2.276 2.188 0 4.046.754 5.569 2.276Zm-2.276 8.97c.882-.95 1.326-2.074 1.326-3.421s-.444-2.473-1.326-3.422c-.862-.95-1.967-1.415-3.293-1.415-1.306 0-2.41.465-3.293 1.415s-1.326 2.075-1.326 3.422.443 2.472 1.326 3.422c.883.95 1.987 1.414 3.293 1.414 1.326 0 2.43-.465 3.293-1.414Z" clip-rule="evenodd"/><path fill="currentColor" d="M58.04 34.653v4.836h-3.225v-4.836L48.828 24.47h3.535l4.042 6.962 4.04-6.962h3.536l-5.94 10.183ZM94.67 30.632h-7.024v-3.267h7.928V24.47H84.44v15.024h11.133V36.6h-7.928v-3.071h7.024v-2.896ZM110.712 39.494l-7.887-9.125v9.125H99.62V24.47h2.41l7.954 9.367V24.47h3.205v15.024h-2.477ZM39.64 31.231a7.809 7.809 0 0 0 7.737-6.761h-3.03a4.827 4.827 0 0 1-4.712 3.783 4.831 4.831 0 0 1-4.712-3.783h-3.02a7.805 7.805 0 0 0 7.738 6.761ZM31.91 39.494a7.809 7.809 0 0 1 7.736-6.761 7.805 7.805 0 0 1 7.737 6.761h-3.02a4.827 4.827 0 0 0-9.425 0H31.91Z"/></svg>