<svg xmlns="http://www.w3.org/2000/svg" width="128" height="64" fill="none" viewBox="0 0 128 64"><path fill="currentColor" fill-rule="evenodd" d="M51.779 43.28h.362c4.366 0 8.073-.401 11.12-1.204.22-.064.436-.125.65-.184 4.165-1.223 6.471-3.18 6.918-5.87.149-.873-.188-1.808-1.01-2.804-.388-.472-.947-1.014-1.667-1.622-.348-.272-.732-.56-1.153-.865-1.578-1.145-2.578-1.912-2.998-2.3-.88-.815-1.271-1.517-1.174-2.105.369-2.219 2.96-3.894 7.772-5.027.517-.122 1.06-.239 1.63-.349l.137-.024.118-.021c.436-.081.87-.159 1.305-.229a52.67 52.67 0 0 1 1.014-.15l.067-.01a41.665 41.665 0 0 1 1.69-.21l.157-.018a56.604 56.604 0 0 1 1.402-.131v.002a.128.128 0 0 0 .125-.126.121.121 0 0 0-.121-.121h-.371l-.103.001-.095.001c-.475.002-.945.006-1.404.017a29.871 29.871 0 0 0-.778.028l-.26.01c-.169.005-.338.01-.503.018-3.027.15-5.684.527-7.968 1.128a31.5 31.5 0 0 1-.65.184c-4.166 1.223-6.472 3.18-6.919 5.87-.149.874.188 1.809 1.01 2.805.388.472.947 1.014 1.667 1.622.348.272.732.56 1.153.865 1.578 1.145 2.578 1.911 2.998 2.3.88.814 1.271 1.516 1.174 2.105-.369 2.219-2.959 3.894-7.772 5.026-.517.123-1.06.24-1.63.35l-.13.023-.125.022c-.436.08-.87.158-1.305.229-.338.054-.676.102-1.013.15l-.035.004c-.15.022-.3.044-.45.064-.425.056-.85.107-1.274.152l-.156.017c-.468.05-1.402.13-1.405.13a.125.125 0 0 0-.122.125c0 .067.055.122.122.122Zm26.34-23.125v.002-.002ZM42.4 29.8a6.585 6.585 0 0 0-.126-1.038 2.879 2.879 0 0 0-.766-1.417c-.466-.479-1.113-.805-1.94-.98a11.776 11.776 0 0 0-1.524-.174 32.844 32.844 0 0 0-2.222-.068c-1.113 0-2.044.048-2.794.145-.764.104-1.365.259-1.805.466-.46.226-.802.547-1.029.96-.226.408-.34.903-.34 1.485l.02.476a.37.37 0 0 0 .107.203c.065.059.14.088.223.088h1.65a.315.315 0 0 0 .33-.33v-.136c0-.291.048-.52.145-.689a.796.796 0 0 1 .407-.34 2.44 2.44 0 0 1 .427-.116l.69-.097a26.073 26.073 0 0 1 2.085-.068c.654 0 1.21.016 1.67.048.446.033.811.075 1.096.127.278.065.498.145.66.242.187.104.333.224.436.36.13.155.227.368.291.64.072.297.107.656.107 1.077v.407a2.561 2.561 0 0 0-.262-.194 3.051 3.051 0 0 0-.95-.359c-.324-.052-.835-.097-1.534-.136a56.297 56.297 0 0 0-2.571-.048c-.783 0-1.43.016-1.94.048a11 11 0 0 0-1.35.155c-.226.04-.43.098-.61.175v.01a2.583 2.583 0 0 0-.719.427c-.2.181-.365.398-.495.65-.232.472-.349 1.12-.349 1.94 0 .667.078 1.2.233 1.601.155.408.437.754.844 1.039.194.155.443.284.747.388.278.097.599.168.961.213h.01c.33.039.815.071 1.455.097.815.02 1.562.03 2.241.03.738 0 1.394-.02 1.97-.059.576-.052.996-.113 1.262-.184.4-.117.76-.314 1.077-.592l-.02.369a.37.37 0 0 0 .097.242.35.35 0 0 0 .243.097h1.581a.307.307 0 0 0 .223-.097.303.303 0 0 0 .107-.233v-5.297c0-.602-.016-1.12-.048-1.553Zm-2.454 4.6a.925.925 0 0 1-.466.358c-.233.104-.618.181-1.155.233-.517.045-1.21.068-2.076.068-1.533 0-2.623-.038-3.27-.117a2.351 2.351 0 0 1-.514-.087l-.136-.038a.92.92 0 0 1-.417-.379c-.09-.175-.136-.398-.136-.67 0-.284.039-.52.116-.708a.882.882 0 0 1 .34-.378c.104-.052.22-.09.35-.117a5.64 5.64 0 0 1 .63-.097c.498-.045 1.404-.067 2.717-.067.931 0 1.665.028 2.202.087.57.051.993.13 1.271.233.233.09.408.217.524.378.11.155.165.366.165.63 0 .266-.048.489-.145.67Zm-12.653-5.697a3.288 3.288 0 0 0-.611-1.038 3.637 3.637 0 0 0-.951-.786c-.485-.284-1.093-.478-1.824-.582-.731-.097-1.773-.146-3.125-.146-.789 0-1.471.023-2.047.068-.595.052-1.048.126-1.358.223-.356.11-.673.27-.951.476-.065.052-.13.11-.194.175v-.486a.318.318 0 0 0-.097-.232.307.307 0 0 0-.224-.098H14.33a.35.35 0 0 0-.243.098.315.315 0 0 0-.087.232V40.27c0 .097.03.175.087.233a.35.35 0 0 0 .243.097h1.582a.307.307 0 0 0 .223-.097.32.32 0 0 0 .097-.233v-4.065c.336.284.73.491 1.183.62.317.098.754.169 1.31.214.53.045 1.158.068 1.883.068 1.002 0 1.856-.029 2.561-.087.731-.058 1.297-.15 1.698-.272a3.65 3.65 0 0 0 2.077-1.582c.252-.381.44-.88.562-1.494.123-.575.185-1.255.185-2.037 0-1.249-.133-2.226-.398-2.93Zm-2.183 4.91c-.142.434-.372.75-.69.95-.284.188-.691.315-1.222.38-.556.077-1.43.116-2.62.116-.88 0-1.6-.036-2.163-.107-.53-.071-.928-.178-1.194-.32a1.73 1.73 0 0 1-.465-.388 1.808 1.808 0 0 1-.31-.563c-.17-.46-.253-1.177-.253-2.154 0-.822.077-1.452.233-1.892.149-.42.375-.738.679-.951.272-.181.689-.307 1.252-.379.634-.077 1.565-.116 2.794-.116a15.6 15.6 0 0 1 2.038.116c.524.078.902.185 1.135.32.187.11.343.237.466.38.136.16.239.345.31.552.168.46.252 1.165.252 2.116 0 .84-.08 1.487-.242 1.94Z" clip-rule="evenodd"/><path fill="currentColor" d="m50.464 34.855-4.677-8.412a.308.308 0 0 0-.281-.165h-1.864a.311.311 0 0 0-.28.155.321.321 0 0 0 0 .34l5.646 10.023a.377.377 0 0 0 .262.165 6.692 6.692 0 0 1-.388.553c-.213.258-.404.433-.572.524v.01c-.181.103-.444.184-.786.242a7.15 7.15 0 0 1-1.281.097c-.2 0-.433-.013-.699-.039a.363.363 0 0 0-.262.078.314.314 0 0 0-.106.242v1.456c0 .09.032.168.097.233a.33.33 0 0 0 .213.097c.259.013.566.02.922.02.86-.007 1.52-.06 1.98-.156a3.87 3.87 0 0 0 1.358-.592c.44-.31.837-.715 1.193-1.213.33-.472.796-1.274 1.397-2.406v-.01l4.89-9.344c.059-.097.055-.204-.01-.32a.312.312 0 0 0-.28-.155h-1.863a.314.314 0 0 0-.292.175l-4.317 8.402Z"/><path fill="currentColor" fill-rule="evenodd" d="M86.17 31.983c0 .09-.035.168-.106.233a.298.298 0 0 1-.233.097H74.983c.032.46.094.847.184 1.164.104.376.253.66.447.854.103.116.268.23.495.34.239.103.5.177.786.223h-.01c.343.058.77.103 1.28.136.596.019 1.24.029 1.931.029 1.12 0 1.931-.048 2.436-.146.233-.045.437-.113.611-.204a1.35 1.35 0 0 0 .388-.271c.007 0 .01-.003.01-.01a.869.869 0 0 0 .165-.33c.052-.149.09-.343.117-.582a.418.418 0 0 1 .106-.214.324.324 0 0 1 .223-.077h1.67c.083 0 .157.032.222.097a.297.297 0 0 1 .097.233c-.012.653-.138 1.21-.378 1.669a2.66 2.66 0 0 1-1.048 1.125c-.44.252-1.041.447-1.804.582-.732.117-1.611.175-2.64.175-1.668 0-2.962-.065-3.88-.194-.92-.136-1.625-.375-2.116-.718-.563-.4-.987-.99-1.271-1.766-.259-.757-.389-1.682-.389-2.775 0-.776.056-1.449.166-2.018.116-.602.29-1.103.524-1.504a3.41 3.41 0 0 1 .824-.98c.311-.265.686-.47 1.126-.611.42-.136.96-.233 1.62-.291a23.73 23.73 0 0 1 2.358-.098c.867 0 1.62.023 2.26.068.647.046 1.165.117 1.553.214.834.194 1.507.582 2.018 1.164a3.9 3.9 0 0 1 .864 1.66c.142.607.223 1.516.242 2.726ZM75.274 29.45a3.42 3.42 0 0 0-.223.845h8.694a3.012 3.012 0 0 0-.175-.815 1.526 1.526 0 0 0-.475-.66c-.285-.227-.712-.388-1.281-.486-.589-.096-1.465-.145-2.63-.145-1.002 0-1.769.049-2.3.145-.478.078-.85.22-1.115.428l-.01.01a1.589 1.589 0 0 0-.485.678Z" clip-rule="evenodd"/><path fill="currentColor" d="M98.454 26.985c-.368-.316-.83-.54-1.387-.67-.518-.109-1.278-.164-2.28-.164-.35 0-.666.003-.951.01-.537.013-.977.038-1.32.077-.537.059-.977.178-1.32.36a3.128 3.128 0 0 0-.756.533v-.524a.317.317 0 0 0-.097-.233.35.35 0 0 0-.243-.097h-1.58a.307.307 0 0 0-.224.097.317.317 0 0 0-.096.233V36.65c0 .09.032.168.096.232.065.065.14.097.224.097h1.58c.09 0 .172-.032.243-.097a.316.316 0 0 0 .097-.232v-4.638c0-.634.036-1.19.107-1.67.07-.458.174-.824.31-1.096.084-.168.178-.297.282-.388.11-.097.258-.187.446-.271a4.28 4.28 0 0 1 .728-.214c.433-.09.94-.149 1.523-.175.24-.006.495-.01.766-.01.596 0 1.103.046 1.524.137.362.077.62.19.776.34a1.1 1.1 0 0 1 .3.542v.01c.072.285.107.68.107 1.184v.718a.34.34 0 0 0 .097.233.317.317 0 0 0 .234.097h1.62c.09 0 .168-.032.233-.097a.324.324 0 0 0 .106-.233v-1.038c-.012-.718-.106-1.32-.281-1.805a3.017 3.017 0 0 0-.864-1.29Z"/><path fill="currentColor" fill-rule="evenodd" d="M113.708 28.762c.058.304.097.65.116 1.038.033.433.049.951.049 1.552v5.298a.32.32 0 0 1-.097.233.319.319 0 0 1-.233.097h-1.592a.362.362 0 0 1-.232-.097.346.346 0 0 1-.088-.242l.01-.37a2.899 2.899 0 0 1-1.077.593c-.259.07-.679.132-1.261.184a29.07 29.07 0 0 1-1.96.058c-.68 0-1.43-.01-2.252-.029a21.98 21.98 0 0 1-1.465-.097 4.518 4.518 0 0 1-.96-.213 2.598 2.598 0 0 1-.737-.379c-.415-.29-.699-.64-.854-1.048-.149-.4-.223-.934-.223-1.6 0-.822.113-1.469.339-1.941.136-.253.304-.47.504-.65a2.31 2.31 0 0 1 .718-.427v-.01c.182-.078.382-.136.602-.175a11 11 0 0 1 1.349-.155 31.596 31.596 0 0 1 1.931-.048c1.041 0 1.901.016 2.581.048a17.58 17.58 0 0 1 1.533.136c.349.071.666.19.951.36.09.057.181.122.271.193v-.408c0-.42-.035-.779-.106-1.076-.078-.279-.178-.492-.301-.64a1.376 1.376 0 0 0-.437-.36 2.485 2.485 0 0 0-.66-.242h-.009a9.826 9.826 0 0 0-1.078-.127 24.618 24.618 0 0 0-1.668-.048c-.854 0-1.553.022-2.096.068l-.689.097a2.947 2.947 0 0 0-.427.116.785.785 0 0 0-.407.34c-.097.168-.146.398-.146.689v.136a.35.35 0 0 1-.087.242.336.336 0 0 1-.233.088h-1.659a.291.291 0 0 1-.214-.088.278.278 0 0 1-.107-.204l-.029-.475c0-.582.114-1.077.34-1.484a2.344 2.344 0 0 1 1.038-.961c.44-.207 1.042-.362 1.805-.466.744-.097 1.672-.146 2.784-.146.822 0 1.563.023 2.222.069.628.032 1.139.09 1.533.174.816.175 1.459.501 1.932.98h-.01c.401.401.663.873.786 1.417Zm-2.805 5.996c.214-.084.366-.204.457-.359.109-.175.165-.398.165-.67 0-.264-.056-.475-.165-.63-.117-.162-.295-.288-.534-.378-.272-.104-.695-.181-1.271-.233-.531-.059-1.265-.087-2.203-.087-1.3 0-2.206.022-2.716.067-.253.02-.46.052-.622.097a1.216 1.216 0 0 0-.349.117.867.867 0 0 0-.349.378c-.084.2-.126.437-.126.708 0 .259.048.482.145.67.085.155.22.281.408.378l.145.04c.13.038.301.067.514.086.647.078 1.741.117 3.28.117.86 0 1.553-.023 2.076-.068.525-.052.906-.13 1.145-.233Z" clip-rule="evenodd"/></svg>