<svg xmlns="http://www.w3.org/2000/svg" width="128" height="64" fill="none" viewBox="0 0 128 64"><path fill="currentColor" d="M41.567 41.62H22.246V29.83H16.35v-7.532h31.11v7.532h-5.894v11.79ZM28.14 23.936H17.988v4.257h5.895v11.79h4.257V23.935Zm5.895 0h-4.257v16.046H39.93v-4.257h-5.895v-11.79Zm11.79 0H35.672v10.152h4.258v-5.895h5.895v-4.257Zm11.421 6.721v-7.232h2l.212-1.298h-5.934v1.299h2.014v7.232h1.708Zm9.387 0 .212-1.298h-3.391v-2.41h2.543l.212-1.298h-2.755v-2.226h2.967l.212-1.298h-4.875v8.53h4.875Zm3.4 0 .37-1.483h2.173l.423 1.483h1.683l-2.424-8.53h-1.682l.106.411-2.358 8.12h1.708Zm2.172-2.781h-1.47l.688-2.729.782 2.729Zm7.32 2.967c.848 0 1.563-.146 2.04-.424l.278-1.59c-.517.451-1.285.65-1.974.65-1.404 0-1.973-1.232-1.973-3.087 0-2.04.914-3.086 2.106-3.086.715 0 1.245.265 1.642.61v-1.55c-.37-.292-1.073-.424-1.775-.424-2.357 0-3.735 2.08-3.735 4.45 0 2.597 1.06 4.45 3.391 4.45Zm5.93-.186V26.95h2.132v3.708h1.682v-8.53h-1.682v3.524h-2.132v-3.524h-1.696v8.53h1.696Zm11.2 0 .213-1.298h-3.391v-2.41h2.543l.212-1.298h-2.755v-2.226h2.967l.212-1.298H91.78v8.53h4.875Zm3.944 0v-3.152h.582l1.775 3.152h1.881l-2.119-3.708c.212-.186 1.483-.927 1.483-2.41 0-1.855-1.271-2.597-3.179-2.597-.423 0-1.271 0-2.119.185v8.53h1.696Zm1.059-4.45h-1.059V23.24h.212c1.059 0 1.695.37 1.695 1.298 0 .927-.424 1.484-.848 1.669Zm7.082 4.636c1.894 0 3.033-.954 3.033-2.543 0-1.245-.543-2.014-1.602-2.477l-.755-.331c-.583-.252-1.1-.517-1.1-1.14 0-.754.583-1.046 1.351-1.046.702 0 1.338.146 1.828.437v-1.457c-.503-.251-1.285-.344-1.987-.344-1.523 0-2.887.9-2.887 2.41 0 1.312.596 1.988 1.669 2.451l.649.278c.702.305 1.073.556 1.073 1.311 0 .756-.716 1.087-1.484 1.087-.98 0-1.695-.358-2.119-.676v1.55c.424.291 1.271.49 2.331.49Z"/><path fill="currentColor" d="m59.127 41.695.212-1.298H56.08v-7.232h-1.695v8.53h4.742Zm7.506 0 .212-1.298h-3.391v-2.41h2.543l.212-1.298h-2.755v-2.226h2.967l.212-1.298h-4.875v8.53h4.875Zm3.4 0 .37-1.483h2.172L73 41.695h1.683l-2.424-8.53h-1.683l.106.411-2.357 8.12h1.708Zm2.172-2.781h-1.47l.688-2.729.782 2.729Zm6.512 2.967c2.331 0 3.179-1.67 3.179-4.265 0-2.967-1.073-4.636-3.603-4.636-.212 0-1.06 0-1.907.185v8.451c.622.159 1.271.265 2.33.265Zm.12-1.378c-.213 0-.544 0-.756-.04v-6.185h.212c1.484 0 1.907 1.113 1.907 3.338 0 1.907-.503 2.887-1.364 2.887Z" opacity=".5"/><path fill="currentColor" d="M87.416 41.695v-7.232h2l.212-1.298h-5.934v1.298h2.014v7.232h1.708Zm9.387 0 .212-1.298h-3.391v-2.41h2.543l.212-1.298h-2.755v-2.226h2.967l.212-1.298h-4.874v8.53h4.874Zm5.386.186c.848 0 1.563-.146 2.04-.424l.278-1.59c-.516.45-1.284.65-1.973.65-1.404 0-1.974-1.232-1.974-3.087 0-2.04.914-3.086 2.106-3.086a2.43 2.43 0 0 1 1.643.61v-1.55c-.371-.292-1.073-.424-1.775-.424-2.358 0-3.735 2.08-3.735 4.45 0 2.596 1.06 4.45 3.39 4.45Zm5.93-.186v-3.708h2.133v3.708h1.682v-8.53h-1.682v3.524h-2.133v-3.524h-1.695v8.53h1.695Z"/></svg>