<svg xmlns="http://www.w3.org/2000/svg" width="128" height="64" fill="none" viewBox="0 0 128 64"><circle cx="43.333" cy="26.667" r="10.667" fill="currentColor" opacity=".3"/><circle cx="32.667" cy="37.334" r="10.667" fill="currentColor" opacity=".5"/><path fill="currentColor" fill-rule="evenodd" d="M34.094 32a10.617 10.617 0 0 1-1.427-5.333c1.943 0 3.764.52 5.333 1.427a10.617 10.617 0 0 1 5.333-1.427c0 1.943-.52 3.764-1.427 5.333a10.618 10.618 0 0 1 1.427 5.334c-1.942 0-3.764-.52-5.333-1.428a10.618 10.618 0 0 1-5.333 1.428c0-1.943.52-3.765 1.427-5.334ZM79.048 25.342a2.212 2.212 0 1 0 0-4.424 2.212 2.212 0 0 0 0 4.424Zm-12.61-.931a1.336 1.336 0 0 0-.203.707v2.53s-1.659 0-2.388.002a1.37 1.37 0 0 0-.823.274 2.213 2.213 0 0 0-.712 2.612h3.924v4.463c0 1.288.069 2.766.944 3.806 1.104 1.31 2.753 1.797 4.41 1.837.423.01 1.325-.054 1.876-.183a.686.686 0 0 0 .416-.36 2.077 2.077 0 0 0-.69-2.607c-.948.271-2.41.287-3.123-.498-.368-.459-.42-1.039-.42-1.602v-4.856s2.185 0 3.041-.002c.297 0 .586-.096.823-.274a2.212 2.212 0 0 0 .712-2.612h-4.577v-4.247c-1.188-.492-2.559-.03-3.21 1.01Zm11.12 3.76a1.331 1.331 0 0 0-.21.717V40.38h3.412V27.16a2.612 2.612 0 0 0-3.203 1.011Zm23.287.717c0-.254.072-.503.208-.717a2.614 2.614 0 0 1 3.204-1.01v13.22h-3.412V28.887Zm-15.93-.747c-.139.216-.213.467-.213.724v18.119a2.613 2.613 0 0 0 3.203-1.009c.137-.215.21-.465.21-.72v-5.767c.997.77 2.135 1.155 3.413 1.155.944 0 1.845-.193 2.703-.578.858-.385 1.566-.91 2.127-1.575.507-.577.9-1.247 1.18-2.008.28-.761.42-1.58.42-2.454 0-.945-.161-1.82-.485-2.626a6.525 6.525 0 0 0-1.339-2.1 6.296 6.296 0 0 0-1.995-1.404 5.865 5.865 0 0 0-2.428-.512c-.735 0-1.413.114-2.035.341a6.077 6.077 0 0 0-1.693.945V27.19a2.512 2.512 0 0 0-3.067.952Zm9.678 5.881c0-1.93-1.532-3.496-3.42-3.496s-3.42 1.566-3.42 3.496 1.532 3.497 3.42 3.497 3.42-1.567 3.42-3.497Zm10.163-10.892a2.212 2.212 0 1 1-4.425 0 2.212 2.212 0 0 1 4.425 0Z" clip-rule="evenodd"/></svg>