<svg xmlns="http://www.w3.org/2000/svg" width="128" height="64" fill="none" viewBox="0 0 128 64"><path fill="currentColor" d="M87.413 19.636h-3.825a.287.287 0 0 0-.288.288v23.075a.288.288 0 0 0 .288.275h3.825a.288.288 0 0 0 .3-.275V19.924a.287.287 0 0 0-.3-.288ZM113.525 30.174a2 2 0 0 1 .25.375 1.984 1.984 0 0 1-.288 2.15l-7.987 9.275a.247.247 0 0 1-.263.087.225.225 0 0 1-.125 0l-2.95-2.412a.289.289 0 0 1 0-.388l6.713-7.8-6.675-7.812a.277.277 0 0 1-.074-.188c0-.07.027-.136.074-.187l2.95-2.388a.288.288 0 0 1 .387 0l5.113 5.938 2.875 3.35ZM62.75 27.136h7.888a.288.288 0 0 1 .25.263v13.987a.289.289 0 0 1-.3.288H67.9a.287.287 0 0 1-.287-.288V30.061H62.75v11.325a.288.288 0 0 1-.237.288h-2.688a.287.287 0 0 1-.3-.288v-11.3h-2.6a.287.287 0 0 1-.287-.287v-2.375a.287.287 0 0 1 .287-.288h2.6v-1.375a4.499 4.499 0 0 1 1.45-3.625 5.337 5.337 0 0 1 3.563-1.25 6.686 6.686 0 0 1 3.275.863.3.3 0 0 1 .125.387l-1.025 1.975a.3.3 0 0 1-.413.113 3.275 3.275 0 0 0-1.737-.488 1.975 1.975 0 0 0-1.463.55 2.273 2.273 0 0 0-.55 1.663v1.187ZM30.925 24.211v-2.5a.288.288 0 0 0-.288-.287h-16.35a.287.287 0 0 0-.287.325v2.5a.287.287 0 0 0 .287.287h6.475v16.85a.289.289 0 0 0 .3.288h2.813a.287.287 0 0 0 .288-.288V24.5h6.474a.287.287 0 0 0 .288-.288ZM39.063 27.136a5.697 5.697 0 0 0-1.7-.25 3.975 3.975 0 0 0-3.75 1.963v-1.45a.289.289 0 0 0-.325-.263h-2.625a.287.287 0 0 0-.288.288v13.962a.287.287 0 0 0 .288.288h2.687a.29.29 0 0 0 .277-.175.288.288 0 0 0 .023-.113v-7.762a3.613 3.613 0 0 1 .85-2.638 2.95 2.95 0 0 1 2.2-.862 5.46 5.46 0 0 1 1.587.25.287.287 0 0 0 .376-.2l.6-2.663a.3.3 0 0 0-.2-.375Z"/><path fill="currentColor" fill-rule="evenodd" d="M54.587 27.136h-2.625a.287.287 0 0 0-.287.287v1.375a5.662 5.662 0 0 0-4.75-2.062 7.612 7.612 0 0 0-5.263 2.012 7.226 7.226 0 0 0-2.237 5.638 7.325 7.325 0 0 0 2.075 5.562 7.05 7.05 0 0 0 5 2.025 7.237 7.237 0 0 0 5.1-1.987v1.462a.287.287 0 0 0 .287.288h2.625a.288.288 0 0 0 .288-.288v-14.05a.287.287 0 0 0-.213-.262ZM50.25 37.798a4.525 4.525 0 0 1-3.175 1.25 4.337 4.337 0 0 1-3.1-1.25 4.663 4.663 0 0 1-1.25-3.512 4.574 4.574 0 0 1 1.275-3.4 4.375 4.375 0 0 1 3.1-1.25 4.563 4.563 0 0 1 3.15 1.25 4.5 4.5 0 0 1 1.337 3.475 4.5 4.5 0 0 1-1.337 3.437Z" clip-rule="evenodd"/><path fill="currentColor" d="m98.212 24.961 1.7 4.55.475 1.262c.076.222.114.454.113.688v.163a1.879 1.879 0 0 1-.113.512l-2.1 5.55-1.787 4.825a.288.288 0 0 1-.225.162h-.113l-3.012-1.075-.6-.212a.276.276 0 0 1-.175-.35l3.612-9.513-3.575-9.587a.3.3 0 0 1 0-.25.262.262 0 0 1 .138-.087l2-.713 1.6-.65a.287.287 0 0 1 .175 0 .249.249 0 0 1 .175.162l1.537 4.088.175.475Z"/></svg>