<svg xmlns="http://www.w3.org/2000/svg" width="128" height="64" fill="none" viewBox="0 0 128 64"><path fill="currentColor" fill-rule="evenodd" d="m103.028 39.899-.413.376c-3.352-.078-6.252-2.35-7.228-5.689-1.249-4.272.618-8.673 4.343-10.239a8.614 8.614 0 0 1 3.335-.68 7.96 7.96 0 0 1 4.4 1.305c2.262 1.5 3.515 3.977 3.525 6.977.001.24-.014.474-.03.708l-.239.217-2.476 2.26a7.057 7.057 0 0 0 .735-3.137c.006-2.254-.965-4.232-2.663-5.43-1.55-1.092-3.493-1.34-5.327-.68-2.87 1.033-4.489 4.321-3.765 7.648.652 3 2.921 4.848 5.805 4.848.348 0 .707-.027 1.071-.083.326-.049.639-.135.942-.24l-2.015 1.839ZM16.5 24.062l1.8 4.186 4.586-4.186H16.5Zm11.44.93v.003a2072.99 2072.99 0 0 1-2.698 6.628l-.856 2.084c-.085.206-.177.41-.29.661l-.071.164h-1.043l-2.386-5.708-1.525 1.394 4.35 10.115 7.015-16.27H28.32l-.377.927-.001.002Zm45.624-.93h-1.83v15.799h1.83V24.062ZM57.6 32.006c.312 0 .617-.002.922-.012a6.235 6.235 0 0 0 1.114-.16c1.298-.278 2.124-1.215 2.208-2.504.046-.701-.044-1.692-.733-2.428-.552-.59-1.378-.89-2.451-.89h-2.863V32l1.146.004h.015l.642.002Zm6.278-3.41c.179 2.342-.807 4.084-2.777 4.906-.124.05-.465.164-.465.164l3.236 6.29h-2.28l-2.988-6.047h-2.842v6.046h-1.865V25.93l-.29-1.736h5.889c2.79 0 4.242 2.574 4.382 4.401ZM46.37 39.823l-.489-1.753H38.62v-5.405h6.51V30.84h-6.532v-5.042h5.533l1.356.34v-2.076H36.34l.325 1.767v13.995h9.706ZM81.73 25.8l-.374-1.739h8.98v2.079l-1.283-.322h-5.379v5.046h6.448v1.826h-6.43v7.123H81.73V25.802Z" clip-rule="evenodd"/></svg>