<svg xmlns="http://www.w3.org/2000/svg" width="128" height="64" fill="none" viewBox="0 0 128 64"><path fill="currentColor" fill-rule="evenodd" d="M43.237 18.33c-.168 0-.599.26-1.653 1.118-.404.142-.716.015-1.2.677-2.997 4.115-5.13 17.125-7.664 21.7-.497-.181-.445-10.095-.728-16.962.014-.906.17-1.308.113-2.973-.048-1.41-.271-2.36-1.741-2.752-2.22-.591-5.44.457-5.484 2.682-.12 7.158.439 14.9 1.945 22.434.396 1.976 2.285 2.302 4.3 2.205 6.432-1.048 7.422-8.804 9.23-15.335.698-2.527 2.383-10.21 3.17-12.42.043-.125-.06-.405-.287-.373h-.001Zm37.6 6.231c-.825-1.156-2.647-1.275-4.082-1.296.122-1.184.249-2.422.367-3.671.022-.233.233-.915-.125-1.503.35-.868-.08-1.061-.511-1.207-1.084-.365-2.97-.41-3.442.936-.52 1.569-.908 3.636-1.1 5.264-.977.066-2.892.167-2.897.598-.021 1.556 1.51 2.114 2.586 2.135-.293 2.623-.691 6.28-1.03 9.585-2.65 3.586-5.38 6.776-5.628 6.257-.455-.92 1.072-6.4-.02-8.635-.59-1.183-3.314-1.534-4.402-1.096-2.09.833-3.697 4.121-4.38 5.173.282-1.403.846-4.252 1.044-5.479.16-.877-1.04-1.753-1.858-1.009-.959.351-2.148 0-2.433 1.315a66.48 66.48 0 0 0-.754 4.56c-1.787 2.623-4.722 6.665-5.573 5.949-.913-.78 1.012-7.85 1.128-9.135.541-1.057-.72-2.342-2.051-2.342-.551 0-.927-.184-1.372.092-1.47.872-2.63 5.876-2.493 8.493.185 3.534 2.335 4.27 3.224 4.591 2.587.94 4.828-1.005 6.723-3.516-.04.683-.081 1.319-.05 1.872.044.76.84.439 1.768.833.979.868 1.686.419 2.178-.745 1.33-3.137 2.488-5.654 4.894-8.416.898.314-1.092 7.715.249 9.205 2.747 2.992 6.922-1.044 9.44-4.253-.112 1.203-.224 3.278-.054 4.456.054.376.095.636.442.874.452.214 1.205.401 1.46.548.515.215.492.353 1.235.304.265-.018.634-.291.726-.909.987-6.692 2.434-18.493 2.434-18.493.463-.035 2.744-.35 3.362-.354.128-.107 1.097-.839.996-.98Zm16.305 8.333c-4.807 1.486-5.88 10.463-4.618 9.68 2.01-1.248 3.636-4.304 4.61-9.622l.007-.058ZM80.93 36.687c3.661-.36 4.24-2.997 4.228-4.408-1.791-.187-3.584 2.112-4.228 4.408Zm22.798-16.313c-2.42 13.396-3.513 23.821-3.355 25.714-.01.254.025.72-.356.736-.477-.01-2.176.435-3.101.423-.606-.009-1.063-2.092-.808-5.178-1.429 1.7-3.057 2.786-4.32 2.655-1.693-.175-2.41-2.272-2.507-4.325-3.161 3.657-7.713 4.763-9.737 3.389-1.635-1.108-2.203-2.967-2.234-4.742-.062-3.51 3.48-8.598 7.528-8.626l.03.001.062.004c1.183.095 2.307 2.144 2.406 3.455.193 2.582-2.122 5.79-6.653 4.61.043 1.511.83 2.676 2.783 2.59 2.391-.104 4.12-1.847 6.17-4.373a.908.908 0 0 0 .002-.014c1.102-3.939 4.028-7.264 8.043-7.66.413-2.82.738-5.432 1.651-9.237.111-.587 1.004-.962 1.473-.819.928-.764 2.898-1.212 3.029.225.031.334-.069.937-.105 1.173l-.001-.001Zm-58.516 5.904c-.046-1.072 2.325-1.785 3.094-1.785 1.188 0 1.4.947 1.447 2.061.042.993-1.008 1.866-2.095 1.866-1.802 0-2.445-2.103-2.446-2.143" clip-rule="evenodd"/></svg>