<svg width="128" height="64" viewBox="0 0 128 64" fill="none" xmlns="http://www.w3.org/2000/svg">
<path d="M64.9927 11.9246C66.8965 10.6521 69.135 9.97291 71.4249 9.97291C72.9443 9.97118 74.4492 10.269 75.8535 10.8492C77.2578 11.4295 78.5339 12.2809 79.6089 13.3547C80.684 14.4285 81.5368 15.7037 82.1186 17.1073C82.7005 18.5109 83 20.0155 83 21.5349C83.0026 23.8248 82.326 26.064 81.0556 27.9693C79.7853 29.8745 77.9784 31.3602 75.8636 32.2383C73.7487 33.1164 71.421 33.3475 69.1747 32.9024C66.9285 32.4572 64.8648 31.3558 63.2447 29.7376C61.6245 28.1193 60.5208 26.0568 60.0731 23.8111C59.6254 21.5654 59.8539 19.2373 60.7296 17.1215C61.6053 15.0056 63.0889 13.1971 64.9927 11.9246Z" fill="currentColor"/>
<path d="M51.2307 32.8604C49.8353 32.8604 48.4712 33.2741 47.3109 34.0494C46.1506 34.8247 45.2463 35.9266 44.7123 37.2158C44.1783 38.505 44.0386 39.9236 44.3108 41.2922C44.583 42.6609 45.255 43.918 46.2417 44.9048C47.2285 45.8915 48.4856 46.5634 49.8542 46.8357C51.2229 47.1079 52.6415 46.9682 53.9307 46.4342C55.2199 45.9002 56.3218 44.9959 57.0971 43.8356C57.8723 42.6753 58.2861 41.3112 58.2861 39.9158C58.2861 38.0446 57.5428 36.25 56.2196 34.9268C54.8965 33.6037 53.1019 32.8604 51.2307 32.8604Z" fill="currentColor"/>
<path d="M38.0001 48.6267C37.3791 48.6267 36.7719 48.8109 36.2555 49.1559C35.7391 49.501 35.3367 49.9914 35.099 50.5652C34.8613 51.139 34.7992 51.7703 34.9203 52.3795C35.0415 52.9886 35.3405 53.5481 35.7797 53.9873C36.2189 54.4264 36.7784 54.7255 37.3875 54.8466C37.9966 54.9678 38.628 54.9056 39.2018 54.6679C39.7756 54.4303 40.266 54.0278 40.611 53.5114C40.9561 52.995 41.1402 52.3879 41.1402 51.7668C41.1402 50.934 40.8094 50.1353 40.2205 49.5464C39.6316 48.9575 38.8329 48.6267 38.0001 48.6267Z" fill="currentColor"/>
</svg>
