<svg width="128" height="64" viewBox="0 0 128 64" fill="none" xmlns="http://www.w3.org/2000/svg">
<path d="M34.7042 40.516C31.3405 40.516 28.8623 39.8016 27.2697 38.3727C25.6771 36.9439 24.8809 34.9048 24.8809 32.2555C24.8809 29.5912 25.6771 27.4852 27.2697 25.9372C28.8623 24.3893 31.3405 23.6154 34.7042 23.6154C39.4075 23.6154 42.5555 25.2303 44.1481 28.4601C42.8085 28.9215 41.2383 29.6136 39.4373 30.5364C39.0057 29.7029 38.321 29.0852 37.3833 28.6833C36.4605 28.2815 35.5154 28.0805 34.548 28.0805C33.1191 28.0805 32.0549 28.4601 31.3554 29.2191C30.6558 29.9633 30.306 30.8861 30.306 31.9875C30.306 33.1783 30.6781 34.1532 31.4223 34.9122C32.1814 35.6564 33.3349 36.0285 34.8828 36.0285C36.1182 36.0285 37.1005 35.8276 37.8299 35.4257C38.5592 35.009 39.095 34.3541 39.4373 33.4611C40.6578 34.1159 42.2206 34.8527 44.1257 35.6713C43.3815 37.4723 42.1387 38.73 40.3973 39.4444C38.6559 40.1588 36.7582 40.516 34.7042 40.516Z" fill="currentColor"/>
<path d="M59.1591 24.0619H64.6959V32.9476C64.6661 35.1355 63.9145 36.9439 62.441 38.3727C60.9823 39.8016 58.5191 40.516 55.0511 40.516C51.5385 40.516 49.1348 39.8388 47.8399 38.4844C46.545 37.1151 45.9124 35.3215 45.9422 33.1038V24.0619H51.479V32.7466C51.479 33.4015 51.5236 33.9373 51.6129 34.3541C51.7171 34.756 52.0297 35.1355 52.5506 35.4927C53.0864 35.8499 53.9423 36.0285 55.1181 36.0285C56.3981 36.0285 57.3358 35.8499 57.9311 35.4927C58.5265 35.1206 58.8763 34.7113 58.9805 34.2648C59.0995 33.8183 59.1591 33.2452 59.1591 32.5457V24.0619Z" fill="currentColor"/>
<path d="M79.5631 32.2331C82.9567 32.2331 84.6534 33.3122 84.6534 35.4704C84.6534 36.4825 84.4227 37.3458 83.9613 38.0602C83.4999 38.7597 82.6739 39.3104 81.4832 39.7123C80.2924 40.0993 78.6403 40.2928 76.5268 40.2928H66.4802C66.5993 37.4053 66.6588 34.7039 66.6588 32.1885C66.6588 29.6731 66.5993 26.9717 66.4802 24.0842H71.7268V24.1065H76.4822C78.3278 24.1065 79.779 24.2628 80.8357 24.5754C81.9074 24.873 82.659 25.3121 83.0906 25.8926C83.5371 26.4731 83.7604 27.2098 83.7604 28.1029C83.7604 29.0108 83.4404 29.8219 82.8004 30.5364C82.1753 31.2359 81.0962 31.8015 79.5631 32.2331ZM71.7268 28.1698V30.2461H76.0133C76.9361 30.2461 77.5761 30.1643 77.9334 30.0005C78.3054 29.8368 78.4915 29.5391 78.4915 29.1075C78.4915 28.7652 78.298 28.527 77.911 28.3931C77.5389 28.2442 76.9064 28.1698 76.0133 28.1698H71.7268ZM76.0133 36.2071C76.7873 36.2071 77.3752 36.1774 77.7771 36.1178C78.1938 36.0434 78.4915 35.9243 78.6701 35.7606C78.8487 35.582 78.938 35.3439 78.938 35.0462C78.938 34.6592 78.7222 34.3839 78.2906 34.2201C77.8738 34.0415 77.1147 33.9522 76.0133 33.9522H71.7268V36.2071H76.0133Z" fill="currentColor"/>
<path d="M91.6985 36.2071C97.3543 36.1774 101.455 36.0955 104 35.9616C103.896 36.5718 103.829 37.2044 103.799 37.8592C103.784 38.4993 103.777 39.3104 103.777 40.2928H86.4296C86.5486 37.4053 86.6082 34.7039 86.6082 32.1885C86.6082 29.6731 86.5486 26.9717 86.4296 24.0842H103.777V28.1252H91.6985V30.2685C92.4129 30.2833 93.4696 30.2908 94.8687 30.2908C97.2353 30.2908 99.6837 30.2461 102.214 30.1568V33.9969C99.6837 33.9076 97.2353 33.8629 94.8687 33.8629C93.4696 33.8629 92.4129 33.8704 91.6985 33.8852V36.2071Z" fill="currentColor"/>
</svg>
