<svg xmlns="http://www.w3.org/2000/svg" width="128" height="64" fill="none" viewBox="0 0 128 64"><g fill="currentColor" clip-path="url(#a)"><path fill-rule="evenodd" d="m102.434 27.292 1.913-1.673h-3.342v-2.074h6.417v1.836l-1.862 1.636c1.22.445 2.183 1.483 2.183 3.062 0 2.08-1.688 3.333-3.655 3.333-.983 0-1.863-.288-2.498-.862-.638-.575-1.017-1.426-1.017-2.524v-.131h2.304v.131c0 .438.132.758.346.969.214.211.525.327.913.327.384 0 .686-.127.892-.34.207-.214.329-.526.329-.918 0-.35-.108-.662-.329-.885-.221-.223-.571-.374-1.085-.374h-1.511l.002-1.513Z" clip-rule="evenodd"/><path d="M48.406 40.755c3.277 0 6.578-1.734 6.578-5.58v-.666h-3.49v.309c0 1.995-1.64 2.802-3.064 2.802-1.853 0-3.373-1.092-3.373-2.968V29.38c0-2.161 1.734-2.992 3.278-2.992 1.425 0 3.158.807 3.158 2.778v.332h3.491v-.665c0-3.847-3.42-5.58-6.673-5.58-3.728 0-6.934 2.16-6.934 6.245v5.272c0 4.014 3.324 5.985 7.029 5.985ZM63.367 40.755c3.966 0 6.864-2.28 6.864-6.412V23.538h-3.658v10.686c0 2.209-1.092 3.349-3.134 3.349-2.185 0-3.183-1.354-3.183-3.349V23.538h-3.704v11.019c0 4.156 2.707 6.198 6.815 6.198ZM72.349 40.47h8.264c2.945 0 5.272-1.876 5.272-4.845 0-1.852-.997-3.514-2.921-4.013v-.047c1.758-.737 2.47-2.138 2.47-3.705 0-2.731-1.829-4.322-5.13-4.322H72.35V40.47Zm3.705-3.016v-4.156h3.657c1.567 0 2.445.689 2.445 2.019s-.925 2.137-2.445 2.137h-3.657Zm0-7.077v-3.87h3.372c1.448 0 2.374.617 2.374 1.875 0 1.211-.807 1.995-2.28 1.995h-3.466ZM87.447 40.47H99.63v-3.111h-8.502v-3.918h7.291V30.33h-7.29v-3.681h8.43v-3.111H87.447V40.47ZM28.679 42.535l3.468-.61 3.831-4.408-3.444.307-3.855 4.711ZM23.445 27.42 20 32l3.445 4.58L27.317 32l-3.872-4.58ZM35.978 26.483l-3.83-4.409-3.47-.61 3.856 4.712 3.444.307ZM31.955 26.491l-4.071-4.974-4.039 5.37 3.896 4.61 4.214-5.006ZM27.74 32.502l-3.895 4.61 4.039 5.37 4.07-4.974-4.213-5.006ZM28.44 32.326l4.077 4.839 3.596-.32-3.774-4.519H28.44ZM28.44 31.673h3.899l3.774-4.518-3.596-.32-4.076 4.838Z"/></g><defs><clipPath id="a"><path fill="#fff" d="M0 0h88v21.07H0z" transform="translate(20 21.465)"/></clipPath></defs></svg>