<svg xmlns="http://www.w3.org/2000/svg" width="128" height="64" fill="none" viewBox="0 0 128 64"><path fill="currentColor" d="M64 54c12.15 0 22-9.85 22-22 0-5.58-2.077-10.674-5.5-14.552V32c0 9.113-7.387 16.5-16.5 16.5-1.928 0-3.78-.33-5.5-.939V32a5.5 5.5 0 0 1 5.5-5.5V21c-6.075 0-11 4.925-11 11v19.057A21.898 21.898 0 0 0 64 54Z"/><path fill="currentColor" d="M47.5 46.552V32c0-9.113 7.387-16.5 16.5-16.5 1.928 0 3.78.33 5.5.939V32a5.5 5.5 0 0 1-5.5 5.5V43c6.075 0 11-4.925 11-11V12.943A21.898 21.898 0 0 0 64 10c-12.15 0-22 9.85-22 22 0 5.58 2.077 10.674 5.5 14.552Z"/></svg>