<svg xmlns="http://www.w3.org/2000/svg" width="128" height="64" fill="none" viewBox="0 0 128 64"><path fill="currentColor" d="M66.724 25.448c0-1.194.984-2.195 2.178-2.195 1.203 0 2.186 1 2.186 2.195a2.186 2.186 0 0 1-2.186 2.178 2.184 2.184 0 0 1-2.178-2.178ZM56.257 32.095l-1.026 2.304h2.102L56.3 32.095h-.042ZM60.74 33.07v-1.766h1.135c.538 0 .866.354.866.866 0 .505-.328.9-.866.9H60.74ZM60.731 35.627v-1.8h1.153c.546 0 1.034.37 1.034.883a.896.896 0 0 1-.908.916H60.73Z"/><path fill="currentColor" fill-rule="evenodd" d="M64 54c12.15 0 22-9.85 22-22s-9.85-22-22-22-22 9.85-22 22 9.85 22 22 22Zm-5.24-25.618c-.118 0-.177-.075-.16-.193l1.043-5.65c.017-.068.084-.127.151-.127h.135c.05 0 .126.042.142.093l1.758 4.297h.034l1.749-4.297c.017-.05.084-.093.143-.093h.134c.067 0 .135.059.151.126l1.035 5.651c.025.118-.034.193-.152.193h-.546a.175.175 0 0 1-.16-.117l-.622-3.76h-.025l-1.514 3.869c-.017.05-.067.093-.143.093h-.151c-.068 0-.126-.043-.143-.093l-1.522-3.868h-.034l-.605 3.759c-.009.058-.084.117-.152.117h-.546Zm-8.904-.16c0 .085.067.16.16.16h2.993a.16.16 0 0 0 .16-.16v-.462a.16.16 0 0 0-.16-.16H50.73v-4.944a.165.165 0 0 0-.16-.16h-.555a.16.16 0 0 0-.16.16v5.567Zm4.196 0c0 .085.067.16.16.16h3.363a.16.16 0 0 0 .16-.16v-.462a.16.16 0 0 0-.16-.16h-2.657v-1.808h2.245a.16.16 0 0 0 .16-.16v-.47a.165.165 0 0 0-.16-.16h-2.245v-1.715h2.657a.16.16 0 0 0 .16-.16v-.471a.16.16 0 0 0-.16-.16h-3.363a.16.16 0 0 0-.16.16v5.567Zm11.831-2.774a3 3 0 0 0 3.019 3.018 3.008 3.008 0 0 0 3.027-3.018 3.022 3.022 0 0 0-3.027-3.036 3.015 3.015 0 0 0-3.019 3.036Zm7.405 2.934a.165.165 0 0 1-.16-.16v-5.659c0-.084.076-.15.16-.15h.21l3.65 4.22h.008v-3.977a.16.16 0 0 1 .16-.16h.538c.084 0 .16.076.16.16v5.66c0 .083-.076.15-.16.15h-.219l-3.65-4.338h-.008v4.095a.16.16 0 0 1-.16.16h-.53ZM49.856 36.24c0 .084.067.16.16.16h2.993a.16.16 0 0 0 .16-.16v-.462a.16.16 0 0 0-.16-.16H50.73v-4.944a.165.165 0 0 0-.16-.16h-.555a.16.16 0 0 0-.16.16v5.566Zm4.34.16h-.529c-.126 0-.193-.11-.143-.218l2.582-5.66c.025-.05.1-.092.143-.092h.084c.042 0 .117.042.143.092l2.564 5.66c.05.109-.016.218-.142.218h-.53c-.101 0-.16-.05-.194-.126l-.521-1.152h-2.75c-.084.193-.17.385-.256.576-.086.191-.173.383-.257.576a.211.211 0 0 1-.193.126Zm5.686-.16c0 .084.068.16.16.16h1.976c1.06 0 1.833-.681 1.833-1.623 0-.773-.605-1.185-1.05-1.37.394-.227.874-.69.874-1.337 0-.883-.732-1.556-1.75-1.556h-1.883a.16.16 0 0 0-.16.16v5.566Zm6.711.244c-1.026 0-1.673-.538-1.808-.664-.075-.067-.134-.126-.05-.27.038-.054.073-.113.11-.171.035-.06.07-.118.108-.173.076-.11.194-.143.286-.067.05.042.698.58 1.346.58.58 0 .95-.353.95-.782 0-.505-.437-.824-1.27-1.169-.858-.361-1.53-.807-1.53-1.783 0-.655.504-1.555 1.841-1.555.841 0 1.472.437 1.556.496a.2.2 0 0 1 .05.286 19.976 19.976 0 0 0-.21.32c-.067.109-.176.16-.294.084l-.025-.015c-.13-.08-.663-.406-1.11-.406-.707 0-.95.446-.95.757 0 .48.37.773 1.067 1.06.976.395 1.808.857 1.808 1.883 0 .874-.782 1.59-1.875 1.59Z" clip-rule="evenodd"/></svg>