<svg xmlns="http://www.w3.org/2000/svg" width="128" height="64" fill="none" viewBox="0 0 128 64"><path fill="currentColor" d="M42.414 21.54h-3.042c-.364 0-.598.156-.598.416v.104c0 .624 1.118.884 1.118 1.976V35.32l-8.32-11.258c-.806-1.066.494-1.508.494-2.002v-.104c0-.26-.208-.416-.546-.416h-5.356c-.364 0-.598.156-.598.416v.104c0 .65 1.04.884 1.04 2.002v13.39c0 1.092-1.04 1.378-1.04 2.028v.078c0 .286.234.442.598.442h3.016c.364 0 .598-.156.598-.442v-.078c0-.65-1.17-.936-1.17-2.028v-11.44l9.854 13.182c.39.546.702.806 1.196.806h1.222c.624 0 1.014-.39 1.014-1.04V24.036c0-1.092 1.118-1.352 1.118-1.976v-.104c0-.26-.234-.416-.598-.416ZM54.512 36.048c-.494.806-1.586 1.508-3.094 1.508-1.742 0-3.068-1.066-3.744-2.73.936.078 2.054.078 3.198-.156 2.444-.442 4.16-1.898 4.16-3.77 0-2.288-2.054-3.666-4.966-3.64-3.51.026-6.37 2.574-6.37 6.396 0 3.952 2.704 6.604 6.526 6.604 3.484 0 5.044-2.418 5.174-3.926.052-.546-.572-.676-.884-.286Zm-4.94-7.592c1.118 0 1.898 1.04 1.924 2.288 0 1.794-.702 2.496-1.794 2.704-.676.156-1.586.182-2.392.13a8.338 8.338 0 0 1-.156-1.638c0-2.002.962-3.484 2.418-3.484ZM62.729 40.26c3.38 0 5.148-2.106 5.304-4.238.052-.572-.598-.676-.91-.26-.546.936-1.534 1.82-3.12 1.82-2.652 0-4.42-2.262-4.42-5.72 0-1.924.936-3.458 2.418-3.458 2.262-.026 2.106 3.666 4.342 3.796 1.196.052 1.612-.624 1.612-1.3 0-2.028-2.392-3.666-5.382-3.64-3.51.026-6.552 2.47-6.552 6.474 0 3.51 2.782 6.526 6.708 6.526ZM74.01 40.26c2.6 0 4.003-1.924 4.003-3.796 0-.494-.624-.598-.936-.156-.208.598-.728 1.17-1.768 1.17-.754 0-1.326-.624-1.326-1.664v-6.786h2.99c.286 0 .52-.208.52-.52v-.442a.528.528 0 0 0-.52-.546h-2.99l-.026-2.574c0-.39-.208-.624-.572-.624h-.52c-.286 0-.52.234-.598.624-.286 1.534-1.3 2.574-2.756 2.574h-.65c-.338 0-.52.208-.52.546v.442c0 .312.208.52.52.52h1.222v6.734c0 2.964 1.56 4.498 3.926 4.498ZM92.178 28.612v-.078c0-.364-.182-.572-.546-.65l-2.73-.468c-.676-.13-1.118.156-1.118.65v.52c-.806-.806-1.924-1.326-3.406-1.326-3.328 0-6.136 2.626-6.136 6.474 0 4.186 2.938 6.526 6.11 6.526 1.352 0 2.626-.494 3.432-1.456v.624c0 .338.26.572.598.572h3.198c.338 0 .52-.156.52-.442v-.078c0-.624-1.014-.884-1.014-1.976v-6.812c0-1.274 1.092-1.586 1.092-2.08Zm-6.968 10.53c-2.158-.078-3.354-4.082-3.25-6.942.052-2.418 1.04-3.822 2.626-3.822 1.534 0 2.834 1.586 2.834 3.406v4.576c0 1.846-1.144 2.782-2.21 2.782ZM101.219 27.26c-1.742 0-2.964.91-3.536 2.574v-1.95c0-.494-.234-.806-.832-.52l-3.12 1.456c-.338.156-.546.364-.546.624v.104c0 .65 1.196.728 1.196 1.872v6.084c0 1.092-1.014 1.3-1.014 1.95v.104c0 .286.234.442.598.442h4.81c.338 0 .572-.156.572-.442v-.104c0-.65-1.3-.858-1.3-1.95v-5.2c0-1.43.364-2.86 1.378-2.86 1.404 0 .494 2.236 2.522 2.236 1.248 0 1.664-.962 1.664-2.054 0-1.326-.858-2.366-2.392-2.366Z"/></svg>