<svg xmlns="http://www.w3.org/2000/svg" width="128" height="64" fill="none" viewBox="0 0 128 64"><path fill="currentColor" fill-rule="evenodd" d="M18.407 25.9c0 .476.126.98.378 1.511h.23a4.422 4.422 0 0 1-.147-1.112c0-1.147.434-2.091 1.301-2.833.616-.517 1.42-.776 2.414-.776.895 0 1.706.28 2.434.84.727.545 1.28 1.328 1.657 2.35.392 1.007.588 2.14.588 3.399 0 2.084-.525 3.763-1.574 5.036-1.035 1.26-2.406 1.889-4.113 1.889-1.692 0-3.063-.672-4.113-2.015-1.049-1.343-1.573-3.147-1.573-5.414 0-1.343.182-2.595.545-3.756.364-1.16.903-2.042 1.616-2.644l-.126-.189c-1.678.462-3.014 1.336-4.008 2.623-.979 1.273-1.469 2.777-1.469 4.512 0 2.322.847 4.197 2.54 5.623a8.53 8.53 0 0 0 1.866 1.187c-.546.569-1.538 1.734-1.538 3.064 0 1.53 4.372 1.968 6.557 1.968 2.186 0 6.558-.438 6.558-1.968 0-1.497-1.257-2.786-1.72-3.25a8.249 8.249 0 0 0 1.475-1c1.693-1.427 2.54-3.309 2.54-5.645a7.39 7.39 0 0 0-.525-2.79c-.616-1.582-1.714-2.82-3.295-3.715a7.599 7.599 0 0 0-3.819-1.028c-1.021 0-1.895.189-2.623.566-.531.266-.944.602-1.238 1.008a3.89 3.89 0 0 0-.63 1.217 4.515 4.515 0 0 0-.188 1.343Zm7.529 10.409c-1.26.517-2.706.776-4.34.776-1.443 0-2.745-.204-3.904-.612-.466.665-.628 1.094-.628 1.848 0 .874 1.967 1.312 4.808 1.312 2.842 0 4.81-.438 4.81-1.312 0-.814-.19-1.25-.746-2.012Z" clip-rule="evenodd"/><path fill="currentColor" d="M24.616 29.646c-1.516 0-3.031 1.516-3.031 3.031 0-1.515-1.515-3.03-3.03-3.03 1.515 0 3.03-1.516 3.03-3.031 0 1.515 1.515 3.03 3.03 3.03ZM80.134 39.706c1.456 0 2.632-.287 3.528-.86l.147.168c-1.204 1.665-2.702 2.59-4.494 2.771a9.094 9.094 0 0 1-.987.064c-.266 0-.581-.014-.945-.042-.35-.015-.847-.105-1.491-.274a17.913 17.913 0 0 1-1.701-.525 19.09 19.09 0 0 1-1.701-.693 22.754 22.754 0 0 1-1.596-.755c-.42-.21-.924-.47-1.512-.778a75.677 75.677 0 0 0-1.512-.755c-.434-.21-.854-.392-1.26-.547a9.37 9.37 0 0 0-3.528-.692v-.21h.273c.364 0 .672-.127.924-.379a1.32 1.32 0 0 0 .42-.944V23.62a1.32 1.32 0 0 0-.42-.945 1.257 1.257 0 0 0-.924-.378h-.273v-.21h6.384l-.021.21h-.21c-.532 0-.931.218-1.197.651-.126.197-.19.42-.19.672V35.8c0 .463.092.785.274.967.182.167.385.286.609.356 5.264 1.723 9.065 2.584 11.403 2.584Z"/><path fill="currentColor" fill-rule="evenodd" d="M37.783 23.313h-6.468v.21h.273c.294 0 .546.105.756.314.179.157.29.355.336.592v10.34a1.174 1.174 0 0 1-.336.619c-.21.21-.47.315-.777.315h-.252v.21h5.775v-.21h-.21a1.28 1.28 0 0 1-.798-.295c-.238-.196-.357-.468-.357-.819V24.177c.11.012.264.019.462.019.224-.015.469-.015.735 0 .182 0 .392.035.63.104.252.056.497.169.735.337.238.154.434.392.588.713.168.308.266.721.294 1.24a2.11 2.11 0 0 1-.021.524 1.661 1.661 0 0 1-.063.358c-.112.587-.287 1.035-.525 1.343-.238.294-.504.497-.798.61a2.59 2.59 0 0 1-.861.146h-.525v.19c.196 0 .406.104.63.314.238.196.448.518.63.966.042.169.112.379.21.63.112.252.238.511.378.777l.42.798c.14.253.273.47.399.652.322.517.672.93 1.05 1.239.392.293.847.496 1.365.608.532.112 1.176.169 1.932.169h7.732c.7 0 1.365-.063 1.995-.19a5.555 5.555 0 0 0 1.7-.608c.49-.294.876-.666 1.156-1.114.28-.462.42-1.021.42-1.68 0-.643-.154-1.196-.462-1.658a3.262 3.262 0 0 0-1.176-1.134 3.82 3.82 0 0 0-1.66-.483 2.481 2.481 0 0 0 1.975-1.24c.224-.378.336-.832.336-1.364 0-.659-.14-1.19-.42-1.596a2.818 2.818 0 0 0-1.113-.945 5.291 5.291 0 0 0-1.533-.462 11.172 11.172 0 0 0-1.66-.127h-5.648v.21h.23c.337 0 .61.106.82.316a.92.92 0 0 1 .315.682v10.177a1.018 1.018 0 0 1-.315.69c-.21.21-.483.316-.82.316h-.108c-.294 0-.553-.043-.777-.127a1.982 1.982 0 0 1-.651-.42 8.076 8.076 0 0 1-.735-.881 95.223 95.223 0 0 0-.693-.966c-.21-.322-.385-.602-.525-.84-.14-.252-.238-.434-.294-.547a6.09 6.09 0 0 0-.882-1.029c-.364-.364-.75-.608-1.155-.735.686-.111 1.239-.343 1.659-.693.434-.35.749-.762.945-1.238.21-.49.315-.98.315-1.47 0-.659-.133-1.205-.4-1.639a2.747 2.747 0 0 0-1.028-1.05 4.53 4.53 0 0 0-1.47-.567 7.447 7.447 0 0 0-1.68-.189Zm11.596.819v10.94h.86c.505 0 .96-.09 1.366-.273.42-.196.756-.51 1.008-.944.252-.434.378-1.008.378-1.722 0-.49-.077-.918-.231-1.282a2.108 2.108 0 0 0-.61-.902 2.499 2.499 0 0 0-.944-.526 4.055 4.055 0 0 0-1.197-.167v-.19c.308 0 .602-.041.882-.125a2.01 2.01 0 0 0 .714-.42c.21-.197.37-.448.483-.756.126-.309.189-.68.189-1.114 0-.938-.217-1.588-.651-1.953-.434-.378-.98-.567-1.638-.567h-.61ZM83.572 34.526l-5.606-11.78h-.168c-.014.14-.07.335-.168.588-.098.238-.203.497-.315.776-.112.267-.217.512-.315.736-.098.21-.161.357-.19.44l-4.298 9.24h-.006c-.196.434-.448.742-.756.924-.308.168-.602.252-.882.252H70.7v.21h4.2v-.21h-.168c-.238 0-.455-.097-.651-.294-.186-.198-.215-.472-.087-.821l.85-1.972h4.436l.895 2.113c.073.282.03.51-.13.68-.196.197-.413.294-.651.294h-.168v.21h11.351v-.21h-.357c-.308 0-.574-.097-.798-.294a1.095 1.095 0 0 1-.357-.776v-6.934l9.64 8.487h.188l-.063-.294c-.028-.21-.063-.496-.105-.86a17.835 17.835 0 0 1-.042-1.303v-9.135c0-.308.112-.56.336-.756.238-.21.511-.314.82-.314h.363c.322 0 .595.105.819.314.238.21.364.477.378.799v9.933c0 .307-.119.573-.357.797a1.114 1.114 0 0 1-.819.337h-.273v.21h7.098c1.498 0 2.786-.252 3.864-.756 1.078-.504 1.904-1.225 2.478-2.163.574-.938.861-2.066.861-3.381 0-1.316-.287-2.444-.861-3.381-.574-.953-1.4-1.674-2.478-2.163-1.078-.505-2.366-.756-3.864-.756H94.294v.21h.357c.322 0 .588.105.798.314.224.197.343.448.357.756v6.899l-9.639-8.474h-.189l.105.672c.07.434.105 1.008.105 1.723v9.219c0 .308-.112.567-.336.776-.2.176-.44.273-.718.291-.25-.017-.512-.1-.784-.248-.308-.182-.567-.49-.777-.925Zm20.851-10.395v10.941h2.373c1.316 0 2.352-.483 3.108-1.449.756-.965 1.134-2.302 1.134-4.01 0-1.709-.378-3.046-1.134-4.011-.756-.98-1.792-1.47-3.108-1.47h-2.373Zm-25.49 7.666L77.08 27.42l-1.883 4.376h3.737Z" clip-rule="evenodd"/></svg>