<svg xmlns="http://www.w3.org/2000/svg" width="128" height="64" fill="none" viewBox="0 0 128 64"><path fill="currentColor" fill-rule="evenodd" d="M33.1 26.26a9.412 9.412 0 0 1 6.9-1.02 9.467 9.467 0 0 1-4.33 5.483 9.418 9.418 0 0 1-6.9 1.02 9.458 9.458 0 0 1 4.33-5.483ZM15 25.24a9.418 9.418 0 0 1 6.9 1.02 9.461 9.461 0 0 1 4.329 5.482 9.411 9.411 0 0 1-6.898-1.02A9.464 9.464 0 0 1 15 25.24ZM27.5 18a9.485 9.485 0 0 1 2.568 6.503 9.487 9.487 0 0 1-2.568 6.504 9.49 9.49 0 0 1-2.568-6.504c0-2.516.977-4.802 2.568-6.503Zm0 15.95a9.485 9.485 0 0 1 2.568 6.505 9.486 9.486 0 0 1-2.568 6.503 9.489 9.489 0 0 1-2.568-6.503c0-2.518.977-4.804 2.568-6.504Zm1.27-.735a9.415 9.415 0 0 1 6.9 1.02A9.466 9.466 0 0 1 40 39.72a9.42 9.42 0 0 1-6.9-1.02 9.463 9.463 0 0 1-4.33-5.484Zm-2.54 0a9.463 9.463 0 0 1-4.33 5.483 9.414 9.414 0 0 1-6.9 1.02 9.466 9.466 0 0 1 11.23-6.503Z" clip-rule="evenodd"/><path fill="currentColor" d="M47.7 29.82c0 4.28 6.42 1.68 6.42 4.18 0 1.04-.96 1.54-2.22 1.54-1.74 0-3.26-.54-3.3-2.12-.56.68-.78 1.24-.78 1.74 0 1.4 1.72 2.08 4.08 2.08 2.94 0 4.36-1.22 4.36-3.14 0-4.72-6.42-2.24-6.42-4.34 0-1 .58-1.44 2.16-1.44 1.84 0 3.08.66 3.08 1.96.48-.66.68-1.24.68-1.72 0-1.36-1.58-1.98-3.86-1.98-2.74 0-4.2 1.1-4.2 3.24ZM64.48 36c0 1.1 2.1 1.14 2.1 1.14v-7.38c0-2.48-2.06-3.14-4-3.14-1.1 0-2 .42-2.98.42-.7 0-1.32-.26-1.54-.38V36c0 1.14 2.1 1.14 2.1 1.14V28.6s.9-.34 2.14-.34c1.6 0 2.18.66 2.18 1.8V36Zm4.494 0c0 1.14 2.1 1.14 2.1 1.14v-9.28c0-1.14-2.02-1.14-2.1-1.14V36Zm0-11.44c0 .26.3.48.6.48h1.48v-1.52c0-.24-.34-.5-.58-.5h-1.5v1.54Zm12.107 8.9c-.02 1.3-1.42 2.08-3.34 2.08-1.68 0-2.36-.66-2.36-1.96v-1.1c.54.3 1.38.42 2.04.42 3.04 0 4.1-1.46 4.1-3.12 0-1.9-1.38-3.16-4.08-3.16s-4.16 1.26-4.16 3.36v3.9c0 2.1 1.68 3.36 4.46 3.36 2.14 0 3.9-.84 3.9-2.26 0-.46-.18-.96-.56-1.52Zm-5.7-3.18c0-1.3.42-2.06 2.02-2.06 1.48 0 2.02.64 2.02 1.56 0 .9-.58 1.42-2.26 1.42-.72 0-1.68-.24-1.78-.28v-.64Zm16.292-3.62c-.6.26-1.1.36-1.56.36-.94 0-1.9-.4-3-.4-1.92 0-3.78.84-3.78 3.1v1.04c0 .78.26 1.64.74 2.16-.58.68-1 1.26-1 2.06 0 2.06 1.8 2.26 3.72 2.26h.98c1.3 0 2.2.12 2.2 1.22 0 1.02-.6 1.78-2.56 1.78s-3.42-.6-3.52-2.1c-.42.58-.6 1.1-.6 1.56 0 1.36 1.72 2.14 4.22 2.14 3.12 0 4.54-1.42 4.54-3.48 0-2.7-2.22-2.74-4.22-2.74h-.66c-1.52 0-2.36-.14-2.36-1.14 0-.26.08-.6.14-.92 0 0 .92.58 2.56.58 2.7 0 4.16-1.26 4.16-3.38v-4.1Zm-2.08 3.8c0 1.32-.42 2.08-2.08 2.08-1.68 0-2.08-.76-2.08-2.08v-.44c0-1.3.48-1.84 2.06-1.84 1.16 0 2 .38 2.1.42v1.86Zm9.974 4.78s-.84.46-2.1.46c-1.44 0-2.1-.62-2.1-1.5 0-2.08 3.78-1.36 4.2-2.56v3.6Zm-6.28-1.04c0 2.28 1.94 3.04 3.88 3.04 1.12 0 2.04-.36 3-.36.46 0 .94.06 1.44.28v-7.22c0-2.1-1.48-3.32-4.22-3.32-1.78 0-3.82.6-3.82 2.16 0 .48.18 1.04.66 1.7 0-1.54 1.38-2.2 3.16-2.2 1.7 0 2.12.68 2.12 1.56-.76 1.74-6.22.56-6.22 4.36Zm10.01-4.38c0 4.28 6.42 1.68 6.42 4.18 0 1.04-.96 1.54-2.22 1.54-1.74 0-3.26-.54-3.3-2.12-.56.68-.78 1.24-.78 1.74 0 1.4 1.72 2.08 4.08 2.08 2.94 0 4.36-1.22 4.36-3.14 0-4.72-6.42-2.24-6.42-4.34 0-1 .58-1.44 2.16-1.44 1.84 0 3.08.66 3.08 1.96.48-.66.68-1.24.68-1.72 0-1.36-1.58-1.98-3.86-1.98-2.74 0-4.2 1.1-4.2 3.24Z"/></svg>