<svg xmlns="http://www.w3.org/2000/svg" width="128" height="64" fill="none" viewBox="0 0 128 64"><path fill="currentColor" d="M43.73 35.425c-1.493 0-2.807-.497-3.962-1.194l-.557 2.09c1.174.717 2.827 1.155 4.48 1.155 2.926 0 4.737-1.613 4.737-3.882 0-2.37-1.93-3.226-3.802-3.743-1.712-.458-2.827-.856-2.827-1.871 0-.857.637-1.474 2.09-1.474 1.175 0 2.568.418 3.663 1.075l.598-2.05c-1.195-.677-2.588-1.095-4.28-1.095-2.768 0-4.46 1.473-4.46 3.683 0 2.449 2.07 3.245 3.862 3.743 1.832.497 2.767.876 2.767 1.91 0 .996-.955 1.653-2.31 1.653ZM59.34 32.578c0-3.026-1.93-4.897-4.638-4.897-2.707 0-4.758 1.891-4.758 4.917 0 3.046 1.951 4.878 4.639 4.878 2.687 0 4.758-1.892 4.758-4.898Zm-2.329.02c0 1.772-.836 2.967-2.349 2.967-1.533 0-2.409-1.235-2.409-2.987 0-1.772.837-3.006 2.37-3.006 1.513 0 2.389 1.254 2.389 3.026ZM68.717 36.72l-.379-1.912c-.716.458-1.592.717-2.548.717-1.553 0-2.608-1.095-2.608-2.967 0-1.771.916-2.926 2.608-2.926.856 0 1.732.259 2.489.736l.497-1.89c-.836-.498-1.91-.777-3.165-.777-2.887 0-4.838 1.93-4.838 4.917 0 3.006 1.772 4.858 4.758 4.858 1.234 0 2.39-.279 3.186-.757ZM73.29 24.914c0-.837-.518-1.414-1.453-1.414-.916 0-1.434.577-1.434 1.414 0 .856.518 1.413 1.434 1.413.935 0 1.453-.557 1.453-1.413Zm-.279 12.263v-9.456l-2.349.338v9.118h2.35ZM77.872 37.177V23.56l-2.35.318v13.3h2.35ZM88.605 28h-2.508l-2.19 6.57-2.29-6.57H79.09l3.584 9.058-.399 1.055c-.497 1.254-.856 1.553-1.533 1.553-.477 0-.915-.18-1.453-.438l-.697 1.93c.737.34 1.493.538 2.33.538 1.692 0 2.727-.756 3.643-3.265l.537-1.433 3.504-8.999ZM96.76 37.177v-2.01h-4.817l4.817-5.595V28h-7.625v1.991h4.62l-4.799 5.575v1.612h7.804ZM100.119 33.036l6.013-.08c.119-.398.199-1.035.199-1.532 0-2.25-1.354-3.723-3.783-3.723-2.747 0-4.738 1.99-4.738 4.977 0 2.926 1.95 4.798 4.897 4.798 1.235 0 2.449-.279 3.325-.757l-.299-1.95c-.836.517-1.891.835-2.866.835-1.633 0-2.648-1.015-2.748-2.508v-.06Zm.06-1.373c.119-1.135.896-2.19 2.19-2.19 1.214 0 1.752.776 1.752 2.01v.16l-3.942.02ZM110.631 31.503c.617-1.115 1.374-1.632 2.19-1.632.438 0 .876.12 1.314.358l.518-2.11c-.498-.299-1.075-.418-1.633-.418-1.075 0-1.811.537-2.389 1.513V27.72l-2.349.338v9.118h2.349v-5.674Z"/><path fill="currentColor" fill-rule="evenodd" d="M23.666 25.345c-2.023.594-2.737 3.123-1.313 4.647 1.786 1.911 4.939.693 4.939-1.907 0-1.88-1.834-3.266-3.626-2.74Zm-7.415 2.57c-2.148.533-2.962 2.968-1.542 4.615.812.942 1.898 1.192 3.402.783 1.883-.512 2.979.19 3.449 2.212.213.915.396 1.309.814 1.748a2.861 2.861 0 0 0 4.548-.509c.186-.315.277-.597.493-1.528.4-1.722 1.59-2.403 3.363-1.921 1.598.434 2.845.087 3.592-.999 1.713-2.49-1.016-5.539-3.695-4.127-.785.413-1.257 1.108-1.503 2.213-.471 2.118-1.617 2.855-3.558 2.288a4.138 4.138 0 0 0-2.318 0c-1.888.549-3.095-.173-3.512-2.1-.437-2.024-1.848-3.092-3.533-2.674Z" clip-rule="evenodd"/></svg>