<svg xmlns="http://www.w3.org/2000/svg" width="128" height="64" fill="none" viewBox="0 0 128 64"><path fill="currentColor" fill-rule="evenodd" d="m108.571 23.19-2.857.286v15.716l2.857-.002v-16Zm-5.714 0-2.857.286v15.716l2.857-.002v-16ZM66.853 35.155v-9.281h-.25l-4.494 4.1v.073H64v5.982c0 2.206 1.23 3.37 3.082 3.37 1.436 0 2.56-.686 3.33-1.913v-.146c-.479.166-.895.25-1.332.25-1.394 0-2.227-.916-2.227-2.435Zm-42.853 0v-9.281h-.131l-4.44 4.1v.073h1.714v5.982c0 2.206 1.352 3.37 3.204 3.37 1.416 0 2.54-.686 3.33-1.913v-.146c-.479.166-.916.25-1.353.25-1.373 0-2.324-.916-2.324-2.435Zm33.143-6.243V39.19H60V28.6l-2.857.312ZM32.57 28.6l-2.857.333v10.259l2.857-.002V28.6Zm59.254 6.055a4.79 4.79 0 0 0 1.394.209c2.289 0 4.203-1.54 4.203-3.372 0-1.602-1.519-2.871-3.725-2.892v.145c.708.375.874 1.27.874 2.06 0 2.04-1.269 3.58-2.746 3.705v.145Zm-49.943 0c.395.125.874.209 1.394.209 2.29 0 4.183-1.54 4.183-3.372 0-1.602-1.52-2.871-3.725-2.892v.145c.707.375.874 1.27.874 2.06 0 2.04-1.27 3.58-2.726 3.705v.145ZM93.115 28.6c-3.06 0-5.328 2.31-5.328 5.473S89.953 39.4 92.97 39.4c2.019 0 3.663-1.02 4.474-2.83v-.187c-.624.561-1.665.853-2.705.853-2.372 0-3.85-1.498-3.85-4.017 0-1.852.812-3.808 2.227-4.474V28.6Zm-49.943 0c-3.059 0-5.348 2.31-5.348 5.473s2.164 5.327 5.182 5.327c2.039 0 3.683-1.02 4.474-2.83v-.187c-.625.561-1.665.853-2.705.853-2.352 0-3.85-1.52-3.85-4.017 0-1.852.832-3.808 2.247-4.474V28.6Zm10.26 10.8c1.414 0 2.475-.853 3.141-2.164v-.125c-.353.187-.79.312-1.248.312-1.623-.02-2.81-1.436-2.81-3.6 0-2.83 1.728-4.745 3.996-4.745v-.166c-.479-.208-1.103-.312-1.748-.312-3.059 0-5.39 2.434-5.39 5.785 0 2.872 1.644 5.015 4.058 5.015Zm14.282-9.353h2.857v-1.135h-2.857v1.135Zm-42.857.029h2.857v-1.143h-2.857v1.143Zm56.286-1.164h-3.429l4.392 10.425h.209l1.602-3.35-2.774-7.075Zm-6 0H72l4.3 10.425h.209l1.602-3.35-2.968-7.075Zm8.857 0c.52 1.02.957 2.913.957 3.912h.146l2.04-3.92-3.143.008Zm-50.857 2.85c.645-.666 1.643-.852 2.538-.852.582 0 .906.125 1.176.25v-2.415a1.972 1.972 0 0 0-.718-.145c-1.644 0-2.642 1.122-2.996 3.058v.104Z" clip-rule="evenodd"/></svg>