<svg xmlns="http://www.w3.org/2000/svg" width="128" height="64" fill="none" viewBox="0 0 128 64"><path fill="currentColor" d="m46.73 8.407.223-.223h2.01l.224.223v2.235L44.27 23.606l-.223.224h-2.905l-.225-.224L36 10.642V8.407l.224-.223h2.012l.223.223 4.023 10.953h.223L46.73 8.407Z"/><path fill="currentColor" fill-rule="evenodd" d="M91.696 23.606v-2.234l-5.14-12.965-.224-.223h-2.906l-.224.223-5.14 12.965v2.234l.223.223h2.012l.222-.223 1.12-2.906.445-.222h5.59l.446.222 1.118 2.906.222.223h2.012l.224-.223Zm-4.694-6.035-.223.223h-3.8l-.224-.223 2.012-5.365h.223l2.012 5.366ZM70.443 55.489v-2.234l-5.14-12.965-.224-.224h-2.906l-.224.224-5.14 12.965v2.233l.223.224h2.012l.224-.224 1.118-2.905.445-.223h5.59l.446.223 1.118 2.906.222.223h2.012l.224-.224Zm-4.694-6.035-.223.222h-3.8l-.224-.222 2.012-5.365h.223l2.012 5.365Z" clip-rule="evenodd"/></svg>