<svg width="128" height="64" viewBox="0 0 128 64" fill="none" xmlns="http://www.w3.org/2000/svg">
<path d="M46.7292 8.40726L46.9525 8.18359H48.9632L49.1868 8.40726V10.6416L44.2699 23.6061L44.0466 23.8297H41.1416L40.9166 23.6061L36 10.6416V8.40726L36.2237 8.18359H38.2356L38.459 8.40726L42.4816 19.3601H42.7052L46.7292 8.40726Z" fill="currentColor"/>
<path fill-rule="evenodd" clip-rule="evenodd" d="M91.6957 23.6061V21.3718L86.5554 8.40726L86.3318 8.18359H83.4255L83.2021 8.40726L78.0615 21.3718V23.6061L78.2852 23.8294H80.2972L80.5195 23.6061L81.6385 20.6998L82.0841 20.4778H87.6731L88.1201 20.6998L89.2381 23.6061L89.46 23.8294H91.472L91.6957 23.6061ZM87.0024 17.5715L86.7787 17.7935H82.9798L82.7548 17.5715L84.7668 12.2062H84.9904L87.0024 17.5715Z" fill="currentColor"/>
<path fill-rule="evenodd" clip-rule="evenodd" d="M70.4427 55.4885V53.2546L65.3022 40.2897L65.0788 40.0664H62.1725L61.9489 40.2897L56.8086 53.2546V55.4885L57.0323 55.7122H59.0442L59.2679 55.4885L60.3856 52.5826L60.8312 52.3603H66.4201L66.8671 52.5826L67.9848 55.4885L68.2071 55.7122H70.2191L70.4427 55.4885ZM65.7495 49.454L65.5258 49.6763H61.7269L61.5019 49.454L63.5138 44.0887H63.7375L65.7495 49.454Z" fill="currentColor"/>
</svg>
