<svg xmlns="http://www.w3.org/2000/svg" width="128" height="64" fill="none" viewBox="0 0 128 64"><path fill="currentColor" fill-rule="evenodd" d="M62.542 10.054c0 .03.108.396.24.814.285.905.38 1.385.273 1.385-.159 0-1.537-.425-1.771-.546l-.242-.126v1.473c0 1.364.01 1.468.145 1.423.08-.026.41-.142.733-.256.323-.114.75-.234.95-.266l.361-.058-.057.409c-.244 1.749-1.991 2.68-3.34 1.782-3.552-2.366-8.4-.4-9.469 3.84-.81 3.211 1.425 6.871 4.596 7.527l.497.103v2.537c0 2.383.009 2.534.146 2.481 4.64-1.794 11.334-1.865 16.265-.173.34.116.65.212.688.212.037 0 .068-1.14.068-2.532V27.55l.465-.104c2.645-.593 4.7-3.26 4.701-6.105.004-4.939-5.53-7.944-9.651-5.24-1.381.905-3.075-.035-3.314-1.84l-.053-.404.442.08c.373.068.874.234 1.598.527.135.055.145-.044.145-1.412v-1.47l-.312.158c-.373.19-1.39.512-1.617.512-.214 0-.133-.428.402-2.107.043-.135-.06-.146-1.421-.146-.808 0-1.468.024-1.468.054ZM64.5 17.01l.41.417-.41.418-.41.417-.441-.436-.44-.435.392-.4c.477-.484.403-.486.899.019Zm8.163-.04c3.289.858 4.41 5.015 2.004 7.425-1.14 1.141-1.73 1.294-5.018 1.294h-2.524V23.16c0-2 .027-2.63.128-3.018.608-2.339 3.07-3.783 5.41-3.172Zm-15.083.084c2.524.658 3.295 2.12 3.295 6.242v2.579l-2.563-.04c-3.237-.051-3.868-.222-4.978-1.346-3.151-3.192-.084-8.564 4.246-7.435Zm13.038 1.199c-1.718.55-2.19 1.45-2.228 4.244l-.028 2.023h1.843c2.383 0 3.08-.21 3.83-1.16 1.982-2.505-.405-6.072-3.417-5.107Zm-14.931.01c-2.686.68-3.333 4.19-1.064 5.778.727.508 1.03.563 3.142.563h1.86v-1.821c0-3.459-1.469-5.144-3.938-4.52Zm8.726 2.587-.335.335-.327-.335-.326-.335.326-.335.327-.336.335.335.335.336-.335.335Zm-.063 1.934.275.267-.224.234c-.282.294-.355.293-.651-.017l-.24-.25.24-.25c.294-.307.266-.308.6.016Zm-.079 2.963-.225.225-.211-.199-.212-.199.227-.236.226-.237.21.21.21.21-.225.226Zm-7.152 2.748c.139.178.172.34.172.835v.615H56.209v-.668c0-.946.467-1.347.91-.782Zm2.423-.053c.139.14.166.279.166.835v.668h-1.1l.03-.66c.041-.926.445-1.302.904-.843Zm2.398-.037c.166.117.185.201.185.835v.705h-1v-.705c0-.736.118-.964.5-.964.071 0 .213.058.315.13Zm2.484.046c.121.133.166.333.189.834l.03.66h-1.101v-.668c0-.917.433-1.323.882-.826Zm2.451-.009c.139.14.167.279.167.835v.668h-1.084v-.615c0-.92.45-1.356.917-.888Zm2.417 0c.139.14.166.279.166.835v.668h-1v-.705c0-.903.373-1.26.834-.798Zm2.43-.028c.125.112.153.265.153.834v.697h-1v-.668c0-.897.382-1.286.848-.863Zm-12.764 6.714c-.206.046-1.294.325-2.416.62-12.89 3.383-20.13 3.476-24.983.32-.38-.247-.75-.449-.823-.449-.143 0-.148-.034.127.966.323 1.172.45 4.327.213 5.314l-.055.23H96.98l-.055-.23c-.236-.987-.11-4.142.213-5.314.276-1.005.271-.966.12-.966-.076 0-.41.183-.74.406-4.708 3.182-12.124 3.112-24.892-.233-3.404-.892-4.053-.953-5.036-.471-.897.439-2.04 1.747-2.437 2.786l-.14.37-.193-.435c-.995-2.26-2.841-3.366-4.86-2.914Zm-1.21 8.006c-.113.357.37.554.572.232.063-.1.056-.176-.023-.271-.158-.191-.483-.168-.548.039Zm-14.017.763c-.152.19-.573 1.088-.814 1.736-.128.344-.284.685-.346.758-.21.243-.131.327.303.327.426 0 .486-.058.327-.314-.222-.36.032-.604.627-.604.549 0 .88.333.618.622-.192.212-.064.296.456.296.642 0 .667-.021.477-.405a17.125 17.125 0 0 1-.413-.972c-.537-1.363-.93-1.822-1.235-1.444Zm5.894-.006c-1.055.42-.86 1.514.311 1.739.615.118.73.185.73.426 0 .491-.843.532-1.281.062-.157-.168-.29-.241-.376-.208-.39.15.107.75.703.85 1.752.297 2.432-1.447.717-1.837-.618-.141-.804-.238-.804-.42 0-.407.792-.514 1.126-.154.238.257.483.217.442-.072-.054-.38-.998-.613-1.568-.386Zm25.557-.009c-1.236.372-1.47 2.046-.373 2.671.456.26 1.323.285 1.92.054l.396-.153v-1.238h-.666c-.729 0-1.053.286-.396.35.246.023.273.053.296.33.07.833-1.122.706-1.404-.149-.375-1.138.775-2.113 1.562-1.324.36.361.525.376.525.048 0-.54-.985-.852-1.86-.589Zm12.295-.03c-.134.056-.494.772-.853 1.698-.152.39-.326.768-.387.84-.206.245-.129.328.305.328.426 0 .486-.058.327-.314-.222-.36.032-.604.627-.604.563 0 .864.317.61.643-.144.185.026.275.52.275.526 0 .669-.094.482-.318-.064-.078-.256-.498-.427-.934-.562-1.442-.812-1.777-1.204-1.614Zm9.24.185c-.098.137-.362.707-.586 1.267-.225.56-.45 1.057-.499 1.107-.202.203-.092.307.327.307.425 0 .486-.058.327-.314-.221-.358.032-.604.623-.604.59 0 .723.157.587.699l-.055.219h.537c.617 0 .683-.035.524-.28-.064-.099-.232-.498-.374-.888-.591-1.629-1.01-2.077-1.411-1.513Zm-66.298-.079c-.026.043-.01.1.034.129.046.028.162.321.26.652.762 2.592 1.434 2.669 2.249.256.133-.394.283-.767.334-.829.154-.185.007-.285-.422-.285-.47 0-.581.1-.317.285.217.153.154.523-.24 1.405-.264.589-.306.592-.511.041-.38-1.019-.448-1.346-.3-1.455.074-.054.11-.138.08-.187-.067-.11-1.1-.12-1.167-.012Zm3.205.048c0 .069.038.125.084.125.05 0 .083.43.083 1.122 0 .657-.035 1.143-.083 1.173-.265.164-.064.292.458.292s.723-.128.458-.292c-.048-.03-.083-.5-.083-1.127 0-.626.035-1.096.083-1.126.265-.164.064-.292-.458-.292-.426 0-.542.026-.542.125Zm1.5-.005c0 .066.038.143.084.172.143.089.106 2.171-.041 2.294-.24.2-.022.25 1.079.25h1.112l.09-.259c.149-.426-.017-.53-.384-.24-.139.108-.338.166-.576.166h-.364v-1.087c0-.89.023-1.096.125-1.136.361-.139.109-.28-.5-.28-.488 0-.625.026-.625.12Zm2.5-.055c0 .035.075.129.167.207.149.128.167.247.167 1.104 0 .849-.02.98-.167 1.127-.267.267-.2.334.333.334.508 0 .631-.094.372-.284-.104-.076-.124-.254-.104-.927l.024-.834.78 1.002c.702.9.807 1.001 1.042 1.001h.261l.023-1.234c.019-.995.047-1.244.146-1.282.305-.117.118-.28-.321-.28-.537 0-.61.057-.386.296.148.158.168.271.146.84l-.024.659-.514-.668c-.855-1.11-.876-1.126-1.448-1.126-.273 0-.497.029-.497.065Zm3.5.055c0 .066.038.143.084.172.048.03.083.5.083 1.126 0 .627-.035 1.097-.083 1.127-.265.164-.064.292.458.292s.723-.128.458-.292c-.048-.03-.083-.516-.083-1.173 0-.693.032-1.122.083-1.122.046 0 .084-.056.084-.125 0-.099-.116-.125-.542-.125-.416 0-.542.027-.542.12Zm4.465-.046c-.025.04.012.122.084.181.108.09.12.238.073.908-.095 1.335.2 1.711 1.337 1.711 1.136 0 1.428-.374 1.348-1.724-.03-.482-.017-.831.03-.86.244-.151.062-.29-.378-.29-.513 0-.526.013-.292.31.241.307.246 1.743.008 2.038-.732.905-1.846-1.037-1.136-1.978.236-.31.163-.37-.45-.37-.318 0-.6.033-.624.074Zm9.536.042c0 .064.057.138.127.165.107.041.124.225.104 1.157l-.023 1.107h-.25c-.314 0-.423-.357-.131-.433.297-.078.148-.443-.181-.443-.816 0-.63 1.134.2 1.228.988.111 1.237-.21 1.237-1.595 0-.55.036-.98.084-1.01.28-.174.06-.292-.542-.292-.479 0-.625.027-.625.116Zm1.63-.041c-.027.044-.011.103.035.132.113.07.115 2.38.002 2.38-.046 0-.084.057-.084.127 0 .11.177.124 1.271.104l1.27-.023.028-.24c.04-.354-.097-.44-.366-.23-.172.136-.342.178-.714.178h-.489V45.36l.584.042.583.042v-.54l-.584.042-.583.042v-.378c0-.267.039-.392.132-.428.183-.07.793.034.991.17.25.171.307.138.278-.158l-.026-.272-1.14-.023c-.663-.013-1.16.01-1.188.057Zm2.837.057c-.15.392.028.641.29.404.15-.137 1.076-.289 1.076-.177 0 .026-.227.333-.505.683-1.35 1.7-1.343 1.795.127 1.795 1.025 0 1.13-.014 1.209-.162.205-.384-.032-.651-.335-.377-.184.167-1.08.284-1.08.141 0-.046.177-.323.392-.615 1.378-1.869 1.379-1.824-.049-1.824-.903 0-1.082.02-1.125.132Zm2.483-.036c-.032.053-.006.137.06.188.089.07.117.323.116 1.065-.001 1.315.372 1.684 1.562 1.543.907-.108 1.177-.548 1.097-1.787-.039-.608-.028-.855.038-.855.052 0 .094-.056.094-.125 0-.096-.107-.125-.459-.125-.474 0-.582.099-.317.293.373.273.222 2.01-.192 2.2-.85.387-1.614-1.378-.925-2.14.26-.288.178-.353-.436-.353-.346 0-.602.038-.638.096Zm3.303-.034c.001.035.057.136.125.225.174.23.174 2.021 0 2.27-.168.24-.097.28.511.28.509 0 .706-.13.444-.292-.048-.03-.083-.514-.083-1.169 0-.654.035-1.138.083-1.168.215-.133.034-.208-.5-.208-.32 0-.582.028-.58.062Zm1.47 0c-.272.463-.018.811.319.438a.544.544 0 0 1 .346-.167c.247 0 .312 2.053.071 2.253-.21.174-.056.25.5.25.555 0 .708-.076.499-.25-.099-.082-.124-.328-.124-1.178 0-1.19.051-1.279.522-.908.35.276.52.093.344-.368-.055-.142-2.396-.207-2.477-.07Zm2.644.034c-.032.053 0 .139.07.19.109.08.123.241.088.969-.06 1.242.252 1.64 1.3 1.659.35.006.361.013.23.159-.31.343-.04.767.387.605.298-.114.356-.333.083-.314-.36.025-.314-.183.13-.595.555-.516.623-.717.554-1.654-.038-.516-.027-.781.034-.819.253-.157.08-.296-.368-.296-.475 0-.582.099-.318.293.595.435.121 2.294-.584 2.294-.632 0-1.04-1.817-.508-2.26.065-.053.118-.15.118-.212 0-.148-1.125-.166-1.216-.02Zm8.133-.018c0 .043.038.102.084.13.049.03.083.514.083 1.169 0 .654-.034 1.138-.083 1.168-.262.162-.065.292.444.292.608 0 .68-.04.511-.28-.173-.248-.173-2.03 0-2.278.067-.095.099-.198.07-.227-.085-.084-1.109-.06-1.109.026Zm1.463-.001c-.029.046.024.132.118.19.254.16.258 2.046.005 2.276-.242.22-.136.294.42.294.536 0 .627-.1.328-.356-.145-.125-.167-.246-.167-.95 0-.445.015-.792.034-.773.019.019.172.372.341.785.365.892.487 1.054.658.874.064-.068.261-.46.438-.874l.32-.75.025.782c.019.612-.004.813-.104.924-.245.271-.156.338.45.338.618 0 .769-.088.555-.325-.19-.21-.197-2.136-.008-2.209.37-.142.117-.31-.432-.286l-.556.024-.307.693-.306.693-.298-.693-.298-.693-.582-.024c-.33-.014-.605.012-.634.06Zm3.788.039c0 .064.056.138.124.164.103.04.126.246.126 1.138 0 .892-.023 1.099-.126 1.138-.325.125-.116.28.376.28.507 0 .63-.093.371-.283-.103-.076-.123-.254-.104-.927l.024-.833.792 1.025c.73.945.811 1.024 1.042 1.001l.25-.024.023-1.222c.018-.955.05-1.245.145-1.325.219-.181.132-.248-.321-.248-.514 0-.607.055-.427.254.098.108.123.297.104.794l-.024.65-.373-.494c-.816-1.086-.965-1.204-1.513-1.204-.363 0-.49.03-.49.116Zm6.55.016c-.169.442 0 .598.396.364.2-.118.402-.165.639-.147l.345.026-.642.835c-1.202 1.563-1.19 1.627.29 1.627.985 0 1.09-.015 1.169-.162.205-.384-.032-.651-.335-.377-.187.17-1.079.284-1.079.138 0-.048.277-.46.616-.916 1.135-1.529 1.137-1.52-.274-1.52-.903 0-1.082.02-1.125.132Zm2.58-.058c-.025.04.01.12.079.177.098.081.124.326.124 1.167s-.026 1.086-.124 1.168c-.21.174-.056.25.504.25.517 0 .717-.128.454-.291-.05-.03-.084-.514-.084-1.169 0-.654.035-1.138.084-1.168.045-.028.083-.087.083-.13 0-.1-1.058-.104-1.12-.004Zm2.203-.01c0 .036.075.13.167.208.347.298.209 2.315-.16 2.315-.289 0-.403-.249-.192-.42.396-.32-.004-.667-.44-.38-.452.296-.193.983.412 1.096 1.002.188 1.297-.151 1.297-1.492 0-.817.026-1.06.124-1.14.068-.057.103-.137.078-.177-.056-.091-1.286-.1-1.286-.01Zm-50.006 1.459c.002.034-.164.062-.37.062-.431 0-.436-.014-.198-.556l.177-.403.193.417c.106.23.195.445.198.48Zm43.668 0c.002.034-.164.062-.37.062-.431 0-.436-.014-.198-.556l.177-.403.193.417c.106.23.195.445.198.48Zm9.296-.274.118.336h-.371c-.428 0-.442-.044-.197-.584.189-.416.222-.398.45.248Zm-68.81 3.07c-.07.08-.3.446-.51.813l-.383.667 16.2.022 16.2.02.05.397c.464 3.68 4.588 5.181 7.037 2.56.716-.767.937-1.28 1.136-2.644l.046-.313 16.201-.02 16.202-.022-.383-.667c-.21-.367-.44-.734-.51-.814-.12-.138-1.011-.146-16.53-.146H66.708l-.004.188c-.074 3.13-.792 4.263-2.704 4.263-1.684 0-2.524-1.008-2.633-3.157a83.237 83.237 0 0 0-.07-1.273c-.037-.127-32.83-.002-32.94.125Z" clip-rule="evenodd"/></svg>