<svg width="128" height="64" viewBox="0 0 128 64" fill="none" xmlns="http://www.w3.org/2000/svg">
<path fill-rule="evenodd" clip-rule="evenodd" d="M62.5417 10.054C62.5417 10.0836 62.6496 10.4498 62.7815 10.8676C63.0672 11.7727 63.162 12.2531 63.0547 12.2531C62.8962 12.2531 61.5176 11.8278 61.2838 11.7067L61.0416 11.5813V13.0535C61.0416 14.4185 61.0523 14.5222 61.1874 14.4772C61.2676 14.4506 61.5975 14.3353 61.9205 14.2209C62.2434 14.1066 62.6704 13.987 62.8693 13.9551L63.231 13.8972L63.174 14.306C62.9303 16.0549 61.1829 16.9868 59.8332 16.0878C56.2822 13.7224 51.4338 15.6889 50.3651 19.9279C49.5555 23.1391 51.7905 26.7993 54.9614 27.4551L55.4581 27.5578V30.0953C55.4581 32.4778 55.467 32.6293 55.604 32.5763C60.2448 30.7824 66.9384 30.7109 71.869 32.4026C72.2093 32.5193 72.5187 32.6149 72.5565 32.6149C72.5943 32.6149 72.6253 31.4756 72.6253 30.0829V27.551L73.0899 27.4469C75.7349 26.8542 77.7894 24.1863 77.7915 21.3417C77.7951 16.4033 72.2605 13.3983 68.1396 16.1013C66.7586 17.007 65.0655 16.067 64.8263 14.2619L64.7728 13.8581L65.2146 13.9384C65.5877 14.0063 66.0892 14.1716 66.8126 14.465C66.9482 14.52 66.9584 14.421 66.9584 13.0532V11.5821L66.6459 11.7413C66.2726 11.9315 65.2566 12.2531 65.0291 12.2531C64.8147 12.2531 64.8964 11.8253 65.4313 10.146C65.4744 10.0107 65.3701 10 64.0098 10C63.2023 10 62.5417 10.0243 62.5417 10.054ZM64.5 17.0098L64.9105 17.427L64.4998 17.8445L64.0891 18.262L63.6488 17.8265L63.2083 17.3911L63.6011 16.9918C64.0781 16.5067 64.0038 16.5052 64.5 17.0098ZM72.6634 16.9706C75.952 17.8284 77.0737 21.9851 74.667 24.3951C73.5273 25.5363 72.9366 25.6886 69.6493 25.6886H67.1251V23.1609C67.1251 21.1604 67.1517 20.5309 67.2527 20.1427C67.861 17.8042 70.3238 16.3605 72.6634 16.9706ZM57.5797 17.0541C60.1037 17.7124 60.8749 19.1732 60.8749 23.2956V25.8746L58.3124 25.8343C55.0751 25.7837 54.4435 25.613 53.334 24.4891C50.1826 21.2968 53.2503 15.9249 57.5797 17.0541ZM70.6176 18.2528C68.9004 18.803 68.4276 19.7037 68.3896 22.4966L68.3621 24.5203H70.2046C72.5882 24.5203 73.2847 24.3095 74.0349 23.3609C76.0167 20.8552 73.6301 17.2878 70.6176 18.2528ZM55.687 18.2634C53.0005 18.943 52.3541 22.4534 54.6231 24.0408C55.3499 24.5492 55.6539 24.6037 57.765 24.6037H59.6249V22.783C59.6249 19.3245 58.1561 17.6387 55.687 18.2634ZM64.4129 20.8498L64.0782 21.185L63.7514 20.8498L63.4245 20.5147L63.7514 20.1795L64.0782 19.8443L64.4129 20.1795L64.7476 20.5147L64.4129 20.8498ZM64.3502 22.7842L64.625 23.0508L64.401 23.2849C64.1192 23.5794 64.0458 23.5776 63.75 23.2685L63.5105 23.0182L63.75 22.7678C64.0436 22.461 64.0164 22.4602 64.3502 22.7842ZM64.2713 25.747L64.0463 25.9723L63.8348 25.7733L63.6233 25.5744L63.8497 25.3377L64.0762 25.101L64.2862 25.3113L64.4963 25.5217L64.2713 25.747ZM57.1188 28.4954C57.258 28.6726 57.2915 28.8344 57.2915 29.3299V29.9445H56.7498H56.2081V29.2769C56.2081 28.3312 56.6751 27.9305 57.1188 28.4954ZM59.5416 28.4424C59.6805 28.5815 59.7082 28.7205 59.7082 29.2769V29.9445H59.1577H58.6072L58.6371 29.2854C58.6791 28.3586 59.0825 27.9827 59.5416 28.4424ZM61.9397 28.4054C62.1063 28.5222 62.125 28.6064 62.125 29.2399V29.9445H61.625H61.1249V29.2399C61.1249 28.5038 61.2434 28.2755 61.625 28.2755C61.6962 28.2755 61.8379 28.334 61.9397 28.4054ZM64.4244 28.4509C64.545 28.5843 64.59 28.7841 64.6128 29.2854L64.6427 29.9445H64.0922H63.5417V29.2769C63.5417 28.36 63.9754 27.9541 64.4244 28.4509ZM66.8751 28.4424C67.014 28.5815 67.0418 28.7205 67.0418 29.2769V29.9445H66.5001H65.9584V29.3299C65.9584 28.4094 66.4078 27.9744 66.8751 28.4424ZM69.2918 28.4424C69.4308 28.5815 69.4585 28.7205 69.4585 29.2769V29.9445H68.9585H68.4585V29.2399C68.4585 28.3365 68.8305 27.9804 69.2918 28.4424ZM71.7228 28.4136C71.8473 28.5264 71.8752 28.6794 71.8752 29.2481V29.9445H71.3752H70.8752V29.2769C70.8752 28.3804 71.2571 27.9915 71.7228 28.4136ZM58.9582 35.1276C58.752 35.1738 57.6644 35.4528 56.5415 35.7476C43.6528 39.1313 36.4126 39.2242 31.5588 36.068C31.179 35.8211 30.809 35.6191 30.7365 35.6191C30.5929 35.6191 30.5884 35.5851 30.8634 36.585C31.1859 37.7571 31.3122 40.9121 31.0762 41.8987L31.0214 42.1282H64H96.9787L96.9238 41.8987C96.6878 40.9121 96.8142 37.7571 97.1366 36.585C97.4131 35.5798 97.4082 35.6191 97.2569 35.6191C97.1807 35.6191 96.8479 35.8018 96.5173 36.0252C91.8089 39.2068 84.3927 39.1372 71.6252 35.7917C68.2214 34.8998 67.5719 34.8391 66.5888 35.3207C65.6924 35.7599 64.5486 37.0677 64.1524 38.1066L64.0113 38.4768L63.8195 38.0418C62.8237 35.7824 60.9779 34.6758 58.9582 35.1276ZM57.7486 43.1336C57.6352 43.4912 58.1184 43.6879 58.3199 43.3661C58.3828 43.2656 58.3765 43.1904 58.2974 43.0948C58.1389 42.9037 57.8142 42.9267 57.7486 43.1336ZM43.7312 43.8972C43.579 44.0865 43.1576 44.9847 42.9169 45.6331C42.789 45.9773 42.6334 46.3182 42.5711 46.3907C42.3618 46.6339 42.4398 46.7179 42.8744 46.7179C43.2997 46.7179 43.36 46.66 43.2014 46.4038C42.9791 46.0448 43.2334 45.8 43.8284 45.8C44.3768 45.8 44.7077 46.1328 44.4462 46.4217C44.2537 46.6344 44.3823 46.7179 44.9023 46.7179C45.5444 46.7179 45.569 46.697 45.3793 46.3133C45.2965 46.1457 45.1103 45.7082 44.9657 45.341C44.4287 43.9782 44.0357 43.5187 43.7312 43.8972ZM49.6246 43.8907C48.5697 44.3107 48.7658 45.4047 49.9363 45.6297C50.5507 45.7479 50.6663 45.8154 50.6663 46.0562C50.6663 46.5472 49.8231 46.5877 49.3845 46.1177C49.2284 45.9504 49.0951 45.8769 49.0086 45.9101C48.6196 46.0596 49.1157 46.6594 49.7118 46.7603C51.4638 47.0567 52.144 45.3134 50.4289 44.9228C49.8108 44.782 49.6246 44.6847 49.6246 44.5022C49.6246 44.0961 50.4175 43.9885 50.7514 44.3493C50.9891 44.6062 51.234 44.5662 51.193 44.2773C51.139 43.8965 50.1947 43.6637 49.6246 43.8907ZM75.1824 43.882C73.9463 44.2535 73.712 45.9277 74.8087 46.5531C75.2651 46.8133 76.1321 46.8375 76.7295 46.6067L77.1254 46.4538V45.8348V45.2158H76.4587C75.7302 45.2158 75.4062 45.5018 76.0629 45.5652C76.3087 45.5889 76.336 45.6195 76.3591 45.8963C76.4285 46.7293 75.2369 46.6025 74.9549 45.747C74.5798 44.6088 75.7295 43.6344 76.517 44.423C76.8779 44.7844 77.0421 44.7992 77.0421 44.4707C77.0421 43.9312 76.0567 43.6192 75.1824 43.882ZM87.4771 43.8518C87.3432 43.9076 86.9829 44.6241 86.6235 45.5496C86.472 45.9397 86.298 46.3182 86.2368 46.3907C86.0307 46.6349 86.1083 46.7179 86.5423 46.7179C86.9676 46.7179 87.0279 46.66 86.8692 46.4038C86.647 46.0448 86.9012 45.8 87.4963 45.8C88.0594 45.8 88.3599 46.1168 88.1063 46.443C87.9622 46.6283 88.1315 46.7179 88.6257 46.7179C89.1523 46.7179 89.2948 46.6239 89.1081 46.3997C89.0437 46.3223 88.8517 45.9022 88.6815 45.4662C88.1186 44.0237 87.8686 43.6887 87.4771 43.8518ZM96.7166 44.0372C96.619 44.1744 96.3554 44.7444 96.1307 45.3038C95.9062 45.8632 95.6819 46.3614 95.6325 46.4109C95.4296 46.6141 95.54 46.7179 95.9592 46.7179C96.3845 46.7179 96.4448 46.66 96.2862 46.4038C96.0646 46.046 96.3183 45.8 96.9089 45.8C97.4994 45.8 97.6318 45.9574 97.4962 46.4986L97.4412 46.7179H97.978C98.5952 46.7179 98.661 46.6827 98.5017 46.4371C98.4382 46.3391 98.2702 45.9397 98.1284 45.5496C97.5366 43.9213 97.1179 43.4729 96.7166 44.0372ZM30.4194 43.9583C30.3929 44.001 30.4084 44.0589 30.4535 44.0868C30.4988 44.1148 30.6154 44.4084 30.7128 44.7393C31.4755 47.3313 32.1472 47.4077 32.9616 44.9952C33.0948 44.6006 33.2453 44.2277 33.2961 44.1663C33.4501 43.9805 33.3026 43.8806 32.8742 43.8806C32.404 43.8806 32.2926 43.9808 32.5569 44.1663C32.7741 44.3186 32.7105 44.6892 32.3162 45.5705C32.0525 46.1595 32.0115 46.1629 31.806 45.6122C31.4258 44.5933 31.3582 44.2656 31.5058 44.1575C31.5801 44.1031 31.6161 44.0186 31.5859 43.9697C31.5185 43.8603 30.4859 43.8503 30.4194 43.9583ZM33.6242 44.0058C33.6242 44.0746 33.6617 44.131 33.7075 44.131C33.7589 44.131 33.7909 44.5605 33.7909 45.2526C33.7909 45.9104 33.7564 46.3956 33.7075 46.4258C33.4427 46.5897 33.6438 46.7179 34.1659 46.7179C34.688 46.7179 34.8891 46.5897 34.6242 46.4258C34.5756 46.3958 34.5409 45.9259 34.5409 45.2993C34.5409 44.6726 34.5756 44.2027 34.6242 44.1727C34.8891 44.0088 34.688 43.8806 34.1659 43.8806C33.7399 43.8806 33.6242 43.9074 33.6242 44.0058ZM35.1242 44.0009C35.1242 44.067 35.1617 44.1443 35.2076 44.1727C35.3514 44.2617 35.3144 46.3441 35.1668 46.4668C34.9261 46.6668 35.1455 46.7179 36.246 46.7179H37.358L37.4485 46.458C37.5969 46.0318 37.431 45.928 37.0637 46.2172C36.9253 46.3262 36.7256 46.3841 36.488 46.3841H36.1243V45.2967C36.1243 44.407 36.147 44.2005 36.2493 44.1612C36.6104 44.0224 36.3576 43.8806 35.7492 43.8806C35.2607 43.8806 35.1242 43.9068 35.1242 44.0009ZM37.6243 43.9455C37.6243 43.9813 37.6993 44.0747 37.791 44.1533C37.9397 44.2808 37.9576 44.3995 37.9576 45.2567C37.9576 46.106 37.9383 46.2366 37.791 46.3841C37.5242 46.6512 37.5908 46.7179 38.1243 46.7179C38.6322 46.7179 38.7555 46.6237 38.4961 46.4338C38.3924 46.3579 38.3724 46.1801 38.3919 45.5066L38.416 44.6734L39.1965 45.6748C39.8982 46.5751 40.0034 46.6762 40.2382 46.6762H40.4994L40.5225 45.4418C40.541 44.4467 40.5694 44.1983 40.6683 44.1603C40.973 44.0432 40.786 43.8806 40.3466 43.8806C39.8097 43.8806 39.7364 43.9368 39.9606 44.1759C40.1087 44.3337 40.1285 44.4472 40.1073 45.0165L40.0827 45.6748L39.5688 45.0072C38.7143 43.8973 38.6929 43.8806 38.121 43.8806C37.8478 43.8806 37.6243 43.9098 37.6243 43.9455ZM41.1244 44.0009C41.1244 44.067 41.1619 44.1443 41.2077 44.1727C41.2563 44.2027 41.2911 44.6726 41.2911 45.2993C41.2911 45.9259 41.2563 46.3958 41.2077 46.4258C40.9429 46.5897 41.144 46.7179 41.6661 46.7179C42.1882 46.7179 42.3893 46.5897 42.1244 46.4258C42.0756 46.3956 42.0411 45.9104 42.0411 45.2526C42.0411 44.5605 42.073 44.131 42.1244 44.131C42.1703 44.131 42.2078 44.0746 42.2078 44.0058C42.2078 43.9074 42.092 43.8806 41.6661 43.8806C41.25 43.8806 41.1244 43.9085 41.1244 44.0009ZM45.5887 43.9546C45.5636 43.9953 45.6014 44.0771 45.6728 44.1364C45.7814 44.2267 45.7932 44.3743 45.7458 45.0441C45.6514 46.3785 45.9457 46.7552 47.0829 46.7552C48.2192 46.7552 48.5115 46.3811 48.4305 45.0307C48.4016 44.5486 48.4142 44.1997 48.4616 44.1704C48.7046 44.02 48.5225 43.8806 48.0829 43.8806C47.5696 43.8806 47.5572 43.8937 47.7912 44.1916C48.0322 44.4984 48.0374 45.9336 47.7986 46.2288C47.067 47.1336 45.9528 45.1923 46.6635 44.2512C46.8985 43.9402 46.8261 43.8806 46.2128 43.8806C45.8946 43.8806 45.6138 43.9139 45.5887 43.9546ZM55.1248 43.9969C55.1248 44.0608 55.1821 44.1351 55.2522 44.1621C55.3594 44.2032 55.376 44.3872 55.3564 45.3185L55.3331 46.4258H55.0831C54.7686 46.4258 54.6602 46.0691 54.9515 45.9927C55.249 45.9149 55.1002 45.5496 54.771 45.5496C53.9549 45.5496 54.1404 46.6838 54.9718 46.7776C55.9586 46.889 56.2081 46.5672 56.2081 45.1832C56.2081 44.6339 56.2437 44.2022 56.2915 44.1727C56.5721 43.999 56.3526 43.8806 55.7498 43.8806C55.2711 43.8806 55.1248 43.9078 55.1248 43.9969ZM56.7548 43.956C56.7277 43.9999 56.7436 44.0595 56.7902 44.0884C56.9034 44.1585 56.9047 46.4676 56.7915 46.4676C56.7457 46.4676 56.7082 46.5249 56.7082 46.5949C56.7082 46.7045 56.8852 46.7191 57.979 46.6992L59.2499 46.6762L59.2772 46.4365C59.3177 46.082 59.1796 45.9951 58.9112 46.2064C58.7394 46.3418 58.5694 46.3841 58.1969 46.3841H57.7082V45.8722V45.3603L58.2915 45.4021L58.8749 45.4439V45.1741V44.9043L58.2915 44.9461L57.7082 44.9879V44.61C57.7082 44.3428 57.7467 44.2175 57.8398 44.1817C58.023 44.1113 58.633 44.216 58.831 44.3519C59.0804 44.5232 59.1379 44.4904 59.1093 44.1935L59.0832 43.9223L57.9437 43.8991C57.2798 43.8856 56.7836 43.9094 56.7548 43.956ZM59.5922 44.0126C59.4416 44.4054 59.6197 44.6544 59.8815 44.4171C60.0325 44.2802 60.9583 44.1282 60.9583 44.2404C60.9583 44.266 60.7309 44.5733 60.4532 44.9235C59.1036 46.6239 59.1103 46.7179 60.5803 46.7179C61.6045 46.7179 61.71 46.7038 61.7887 46.5565C61.9941 46.1723 61.7567 45.905 61.4539 46.1795C61.2699 46.3462 60.3749 46.4629 60.3749 46.3202C60.3749 46.2736 60.5509 45.9967 60.7661 45.7048C62.1436 43.836 62.1448 43.8806 60.7172 43.8806C59.8143 43.8806 59.6347 43.9017 59.5922 44.0126ZM62.0755 43.9767C62.0429 44.0296 62.0692 44.1141 62.1341 44.1645C62.2239 44.2343 62.2517 44.4883 62.251 45.2296C62.2496 46.5453 62.6227 46.9138 63.8133 46.7726C64.7197 46.6651 64.9901 46.2248 64.9103 44.9863C64.871 44.378 64.8821 44.131 64.9485 44.131C64.9997 44.131 65.0417 44.0746 65.0417 44.0058C65.0417 43.9097 64.9352 43.8806 64.5834 43.8806C64.1086 43.8806 64.0009 43.9799 64.2655 44.1737C64.639 44.4472 64.4876 46.1845 64.0738 46.3733C63.2233 46.7613 62.4602 44.9961 63.149 44.2339C63.4088 43.9465 63.3275 43.8806 62.7132 43.8806C62.3667 43.8806 62.1111 43.9192 62.0755 43.9767ZM65.3777 43.9432C65.3791 43.9777 65.4354 44.0787 65.5027 44.1678C65.6767 44.3981 65.6769 46.1894 65.503 46.438C65.3346 46.6787 65.4061 46.7179 66.014 46.7179C66.5227 46.7179 66.7204 46.588 66.4584 46.4258C66.4096 46.3956 66.3751 45.912 66.3751 45.2575C66.3751 44.603 66.4096 44.1194 66.4584 44.0892C66.6732 43.9563 66.4917 43.8806 65.9584 43.8806C65.6376 43.8806 65.3762 43.9087 65.3777 43.9432ZM66.8482 43.9432C66.5763 44.4057 66.8299 44.7542 67.1668 44.3813C67.2497 44.2895 67.4055 44.2144 67.513 44.2144C67.7604 44.2144 67.8254 46.2665 67.5844 46.4668C67.3749 46.6409 67.5279 46.7179 68.0835 46.7179C68.6391 46.7179 68.7921 46.6409 68.5826 46.4668C68.4844 46.3853 68.4585 46.1389 68.4585 45.2891C68.4585 44.0999 68.5101 44.0102 68.9812 44.3813C69.331 44.6569 69.5013 44.4739 69.3246 44.0126C69.2705 43.8714 66.9289 43.8058 66.8482 43.9432ZM69.4923 43.9767C69.4598 44.0296 69.4914 44.1155 69.5627 44.1678C69.6707 44.2469 69.6853 44.4083 69.6499 45.1356C69.5897 46.3782 69.9022 46.7769 70.9506 46.795C71.3009 46.8011 71.3114 46.8084 71.1798 46.954C70.8696 47.2973 71.1406 47.7211 71.5667 47.5588C71.8649 47.4453 71.9233 47.2262 71.6503 47.2453C71.2908 47.2704 71.3361 47.062 71.7793 46.6502C72.3353 46.134 72.4025 45.9333 72.3337 44.9957C72.2959 44.4803 72.3071 44.2149 72.3682 44.1771C72.6212 44.0205 72.4475 43.8806 72.0002 43.8806C71.5255 43.8806 71.4177 43.9799 71.6824 44.1737C72.2768 44.6089 71.8033 46.4676 71.0981 46.4676C70.466 46.4676 70.0576 44.6514 70.5902 44.2089C70.6553 44.1547 70.7085 44.0588 70.7085 43.9956C70.7085 43.8478 69.5827 43.8304 69.4923 43.9767ZM77.6254 43.9591C77.6254 44.0024 77.6629 44.0609 77.7087 44.0892C77.7576 44.1194 77.7921 44.603 77.7921 45.2575C77.7921 45.912 77.7576 46.3956 77.7087 46.4258C77.4467 46.588 77.6445 46.7179 78.1532 46.7179C78.761 46.7179 78.8325 46.6787 78.6642 46.438C78.4908 46.1902 78.4908 44.4083 78.6642 44.1605C78.7313 44.0645 78.7625 43.9623 78.7336 43.9333C78.6492 43.8488 77.6254 43.8727 77.6254 43.9591ZM79.0876 43.9578C79.059 44.0041 79.1121 44.0899 79.2055 44.1483C79.4602 44.3075 79.4645 46.1941 79.2108 46.4241C78.9689 46.6433 79.0754 46.7179 79.6304 46.7179C80.1671 46.7179 80.2585 46.6187 79.9588 46.3617C79.8135 46.2371 79.7921 46.1156 79.7921 45.4113C79.7921 44.9672 79.8074 44.6195 79.826 44.6386C79.8447 44.6578 79.9982 45.0114 80.1671 45.4244C80.5317 46.3157 80.6537 46.4776 80.8254 46.2976C80.8895 46.2305 81.0863 45.8375 81.2629 45.4244L81.5838 44.6734L81.6079 45.456C81.6268 46.0685 81.6042 46.2694 81.5038 46.3805C81.2592 46.6511 81.3483 46.7179 81.9539 46.7179C82.572 46.7179 82.7225 46.6298 82.5087 46.3931C82.3187 46.1829 82.3116 44.2568 82.5005 44.1842C82.8711 44.0418 82.6175 43.8734 82.0692 43.8976L81.5128 43.9223L81.2062 44.6151L80.8995 45.308L80.6019 44.6151L80.3042 43.9223L79.722 43.898C79.3924 43.8842 79.117 43.9102 79.0876 43.9578ZM82.8755 43.9969C82.8755 44.0608 82.9318 44.1347 83.0005 44.1612C83.1028 44.2005 83.1256 44.4073 83.1256 45.2993C83.1256 46.1913 83.1028 46.398 83.0005 46.4373C82.6755 46.5623 82.8836 46.7179 83.3756 46.7179C83.8835 46.7179 84.0067 46.6237 83.7473 46.4338C83.6437 46.3579 83.6236 46.1801 83.6432 45.507L83.6672 44.6741L84.4589 45.6993C85.1881 46.6436 85.2704 46.7227 85.5006 46.7004L85.7506 46.6762L85.7736 45.4537C85.7916 44.4995 85.8236 44.2088 85.9195 44.1291C86.138 43.9475 86.0514 43.8806 85.5979 43.8806C85.0842 43.8806 84.9911 43.936 85.1708 44.1349C85.269 44.2435 85.2939 44.4321 85.2751 44.9285L85.2506 45.5796L84.8784 45.0848C84.0616 43.9988 83.9132 43.8806 83.365 43.8806C83.0022 43.8806 82.8755 43.9107 82.8755 43.9969ZM89.4263 44.0126C89.257 44.4545 89.4268 44.6109 89.8223 44.3772C90.0227 44.2588 90.2239 44.2125 90.4607 44.2302L90.8063 44.2561L90.1643 45.0906C88.962 46.6536 88.9734 46.7179 90.4535 46.7179C91.439 46.7179 91.5444 46.7034 91.6229 46.5565C91.8282 46.1723 91.5909 45.905 91.288 46.1795C91.1009 46.3491 90.2091 46.4628 90.2091 46.3169C90.2091 46.2686 90.4861 45.8564 90.8247 45.4008C91.9605 43.8725 91.962 43.8806 90.5513 43.8806C89.6485 43.8806 89.4688 43.9017 89.4263 44.0126ZM92.0066 43.9546C91.9815 43.9953 92.0168 44.075 92.085 44.1317C92.1831 44.2132 92.2091 44.4584 92.2091 45.2993C92.2091 46.1401 92.1831 46.3854 92.085 46.4668C91.8751 46.6413 92.0289 46.7179 92.5891 46.7179C93.1064 46.7179 93.3063 46.5891 93.0425 46.4258C92.9937 46.3956 92.9592 45.912 92.9592 45.2575C92.9592 44.603 92.9937 44.1194 93.0425 44.0892C93.0883 44.0609 93.1258 44.0024 93.1258 43.9591C93.1258 43.8594 92.068 43.8552 92.0066 43.9546ZM94.2092 43.9455C94.2092 43.9813 94.2842 44.0747 94.3759 44.1533C94.7235 44.4514 94.5846 46.4676 94.2164 46.4676C93.9272 46.4676 93.8134 46.2193 94.0244 46.0482C94.4201 45.7274 94.0196 45.3814 93.5836 45.6675C93.1325 45.9635 93.391 46.6506 93.9962 46.7643C94.9975 46.9524 95.2926 46.6126 95.2926 45.2716C95.2926 44.4552 95.319 44.2129 95.4166 44.1317C95.4849 44.075 95.5201 43.9953 95.4951 43.9546C95.439 43.8637 94.2092 43.855 94.2092 43.9455ZM44.2027 45.4036C44.2055 45.438 44.0391 45.4662 43.8328 45.4662C43.402 45.4662 43.3969 45.4516 43.635 44.9098L43.8123 44.5065L44.0049 44.9237C44.1109 45.1532 44.1999 45.3691 44.2027 45.4036ZM87.8706 45.4036C87.8734 45.438 87.7069 45.4662 87.5007 45.4662C87.0699 45.4662 87.0647 45.4516 87.3029 44.9098L87.4802 44.5065L87.6728 44.9237C87.7788 45.1532 87.8678 45.3691 87.8706 45.4036ZM97.1669 45.1302L97.2852 45.4662H96.9139C96.4864 45.4662 96.4716 45.4221 96.7166 44.882C96.9055 44.4657 96.9393 44.4842 97.1669 45.1302ZM28.3564 48.1991C28.2866 48.2794 28.0575 48.6456 27.847 49.0128L27.4644 49.6804L43.6646 49.7015L59.8647 49.7225L59.9147 50.1187C60.3783 53.7998 64.5025 55.3003 66.9514 52.6789C67.6674 51.9124 67.888 51.3988 68.087 50.0353L68.1326 49.7225L84.3342 49.7015L100.536 49.6804L100.153 49.0128C99.9426 48.6456 99.7134 48.2794 99.6437 48.1991C99.5237 48.0609 98.6318 48.0531 83.1126 48.0531H66.7084L66.704 48.2409C66.6303 51.3705 65.9116 52.5037 64 52.5037C62.3164 52.5037 61.4761 51.4961 61.3673 49.3466C61.3325 48.6581 61.3011 48.0854 61.2978 48.074C61.2604 47.9471 28.467 48.0718 28.3564 48.1991Z" fill="currentColor"/>
</svg>
