<svg xmlns="http://www.w3.org/2000/svg" width="128" height="64" fill="none" viewBox="0 0 128 64"><path fill="currentColor" fill-rule="evenodd" d="M33.746 17.752 47.03 30.587l-14.964 14.66L26 39.435l8.495-8.797-6.99-6.807 6.24-6.078Zm14.183 11.96-6.242-6.077 6.041-5.883 6.242 6.078-6.041 5.882Zm18.215-3.011 1.193 1.104-3.727 3.456 1.623 3.416-1.669.707-1.25-2.89-2.962 2.945-1.26-1.005 3.549-3.368-1.734-3.447 1.611-.862 1.407 3.064 3.22-3.12Zm30.6 6.042 3.385-5.993.091.585 1.603 7.752-1.797.023-.763-3.858-2.616 4.42-2.278-4.45-1.141 3.961h-1.745l2.461-8.355 2.8 5.915Zm-8.015-5.902v.003l.008-.011 2.207 8.319h-1.766l-.307-1.305h-3.446l-.994 1.314h-1.873l6.171-8.32Zm-17.718.49 6.543.016-.47 1.581-2.403-.005-1.852 6.215-1.737-.004 1.852-6.216-2.403-.005.47-1.582Zm11.61 4.653-3.666-.009-.494 1.65 3.778-.02-.456 1.526-5.493.015 2.321-7.797 5.9.014-.456 1.526-4.174-.01-.47 1.593 3.666.008-.456 1.504Zm5.431-1.61-1.482 1.96h1.944l-.462-1.96Zm-18.12 1.604-3.475-.007.493-1.472 3.475.007-.493 1.472ZM41.636 37.59l6.092 5.932 6.242-6.078-6.092-5.932-6.242 6.078Z" clip-rule="evenodd"/></svg>