<?xml version="1.0" encoding="UTF-8"?>
<svg width="218px" height="120px" viewBox="0 0 218 120" version="1.1" xmlns="http://www.w3.org/2000/svg" xmlns:xlink="http://www.w3.org/1999/xlink">
    <!-- Generator: Sketch 52.4 (67378) - http://www.bohemiancoding.com/sketch -->
    <title>barclays</title>
    <desc>Created with Sketch.</desc>
    <g id="Page-1" stroke="none" stroke-width="1" fill="none" fill-rule="evenodd">
        <g id="Rectangle-1-+-path21" fill="#808080">
            <path d="M204.210858,53.3703765 C203.18424,51.5025757 200.971241,50.0859446 198.567554,50.0859446 C196.453506,50.0859446 194.59405,50.9551704 194.59405,53.2089488 C194.59405,55.1067585 196.934861,56.3940406 199.371532,57.9720994 C202.030842,59.6453591 204.789103,61.7035616 204.789103,65.2777354 C204.789103,69.9446503 200.269307,72.8079215 195.043453,72.8079215 C192.89539,72.8079215 190.652499,72.3898653 188.11997,71.4244038 L188.535358,65.2125435 C189.754724,67.6919067 192.031629,69.6538735 195.394935,69.6538735 C197.992401,69.6538735 199.914732,68.3997048 199.914732,66.2100836 C199.914732,64.3433177 198.342853,63.1853847 196.421553,62.0274517 C192.38105,59.5822367 189.81863,57.6171655 189.81863,54.0781746 C189.81863,48.766584 194.241537,46.9970886 198.825239,46.9970886 C201.48455,46.9970886 203.153318,47.4803367 204.850948,47.4803367 L204.210858,53.3703765 M181.804623,58.9365261 C181.225347,59.9030224 180.49146,61.2203135 180.039996,62.1878446 C179.65656,64.0214972 179.463812,66.4687818 179.463812,69.1706254 C179.463812,70.2975146 179.65656,71.8093466 180.168838,72.3246734 L173.470056,72.3246734 C174.654377,71.198819 175.136764,64.2812301 175.073888,62.0916089 C174.176114,58.9706743 172.955717,55.9770191 171.097292,52.339723 C169.914002,50.0559356 168.533841,47.8973582 167.668019,47.4803367 C169.17393,47.3530572 171.097292,47.2557867 172.028051,47.2557867 C173.693727,47.2557867 174.144161,47.4803367 175.170778,49.7341151 C176.770487,53.3714113 177.956869,56.1042986 178.662926,58.133527 C180.362617,55.4616924 181.547969,53.6280398 183.086864,51.1176329 C183.47133,50.5060704 183.791891,49.7341151 183.791891,48.9932036 C183.791891,48.4126849 183.695001,47.7700787 183.439377,47.4803367 L190.075284,47.4803367 C188.793043,47.7700787 183.021928,56.8783235 181.804623,58.9365261 M158.499583,53.3072541 L154.526079,61.9622598 L161.000159,61.9622598 L158.499583,53.3072541 M166.289919,72.5492234 C164.172778,72.5492234 164.014044,72.486101 162.314353,66.6291746 L161.706216,64.4726668 C160.68166,64.9548801 158.852096,65.1804649 155.936132,65.1804649 L152.987183,65.1804649 L152.473875,66.2742408 C151.736895,67.9174915 150.743261,69.8453102 150.743261,71.1998537 C150.743261,71.5216743 150.775214,71.8745386 150.904057,72.3257081 L133.401054,72.3257081 C134.395719,71.1998537 134.716279,67.5635924 135.196604,60.9647197 L135.292463,59.3887305 C135.549117,55.6231201 135.743927,52.7267354 135.709913,50.7006114 C135.67796,49.0273517 135.517164,47.9646197 135.068792,47.4824063 L141.833541,47.4824063 C140.87083,48.2233178 140.517286,52.2124435 140.069945,58.8113162 L139.941102,60.3873054 C139.780307,62.8335552 139.460777,65.3429274 139.460777,67.7891772 C139.460777,68.9139968 139.909149,69.1716602 141.064609,69.1716602 C145.165925,69.1716602 146.193573,69.0754244 148.050968,67.820221 C149.204366,65.6957917 150.520622,63.0239571 151.800801,60.2569215 L153.534506,56.556503 C155.16823,53.0806345 156.770001,49.5395741 156.770001,48.8648893 C156.770001,48.3806063 156.642189,47.9315063 156.451502,47.4803367 L161.83609,47.4803367 C161.83609,47.4803367 164.015075,55.5910415 164.496431,57.3274235 L165.552939,61.2544616 C167.379411,67.8522995 168.534871,71.0694699 170.073767,72.3246734 C168.789464,72.486101 166.962992,72.5492234 166.289919,72.5492234 M122.663832,72.8079215 C116.284579,72.8079215 112.597621,67.530479 112.597621,61.6093955 C112.597621,53.3714113 117.052481,46.9970886 125.547843,46.9970886 C128.208184,46.9970886 129.459503,47.4803367 131.605505,47.4803367 L130.965415,53.8205113 C129.74708,51.5998463 127.758781,50.0869794 125.099471,50.0869794 C119.810742,50.0869794 117.662679,55.8166263 117.662679,60.7401697 C117.662679,66.0817693 120.644611,69.0091977 124.618115,69.0091977 C126.766178,69.0091977 128.656556,68.4297138 131.831237,66.2100836 C130.548996,70.3306279 127.567064,72.8079215 122.663832,72.8079215 M100.546204,50.5060704 C99.9370367,50.5060704 99.1979958,50.5060704 98.6228427,50.5702276 C98.4300942,51.6319248 98.2692987,53.4666122 98.0445973,56.4261191 L97.9157548,58.1656056 C98.2383765,58.2307975 98.6537649,58.2639109 99.0392618,58.2639109 C102.114991,58.2639109 104.232132,56.3950754 104.232132,53.5649175 C104.232132,51.6319248 102.885985,50.5060704 100.546204,50.5060704 M109.487877,73.3874054 C107.661405,73.3874054 107.212002,73.0966287 106.603866,72.2594814 L99.6793516,62.604866 C99.1340899,61.8649893 98.7176708,61.2534268 97.8528796,61.2534268 L97.6920841,61.2534268 L97.565303,63.1201928 C97.4034768,65.6626783 97.3076179,67.6919067 97.3076179,69.2037387 C97.3395709,70.8769984 97.5323193,71.9055823 97.9817221,72.3246734 L91.2819096,72.3246734 C92.2425596,71.4554475 92.5940421,68.5590629 93.1403345,60.9636849 L93.2372241,59.3876957 C93.4938785,55.6551986 93.6866269,52.7577792 93.6536432,50.7316552 C93.6206595,48.961125 93.4299726,47.8663144 92.9475861,47.4803367 L102.083038,47.4803367 C105.063939,47.4803367 109.167317,47.9966983 109.167317,52.8550497 C109.167317,56.8441754 106.505945,59.0337966 103.205514,60.0623805 C103.526075,60.3531572 104.102259,61.093034 104.455803,61.5442036 L109.487877,68.2382772 C112.629574,72.3898653 112.885197,72.5823367 114.008705,73.1618206 C112.597621,73.3222135 110.707243,73.3874054 109.487877,73.3874054 M78.2688121,53.3072541 L74.259232,61.9622598 L80.7662961,61.9622598 L78.2688121,53.3072541 M86.0560558,72.5492234 C83.9420072,72.5492234 83.7812117,72.486101 82.0825516,66.6291746 L81.473384,64.4726668 C80.4457358,64.9548801 78.6192638,65.1804649 75.7022685,65.1804649 L72.7533203,65.1804649 L72.2410423,66.2742408 C71.7277336,67.4342433 70.4774455,69.816336 70.5093984,71.1998537 C70.5093984,71.5216743 70.5413514,71.8434948 70.6701939,72.3257081 L64.7403444,72.3257081 C66.4390046,70.6203699 68.5870676,66.662288 71.5679688,60.2579563 L73.2996127,56.5575378 C74.8694303,53.2110184 76.5371682,49.4133294 76.5371682,48.8659241 C76.5371682,48.3816411 76.4103872,47.9325411 76.216608,47.4813715 L81.6032573,47.4813715 C81.6032573,47.4813715 83.0112487,52.8560845 84.2625675,57.3284583 L85.3201071,61.2554964 C87.1476099,67.8533343 88.3010084,71.0705047 89.8399038,72.3257081 C88.4618039,72.486101 86.73016,72.5492234 86.0560558,72.5492234 M55.5389249,50.4739919 C55.0575692,50.4739919 54.4174794,50.4739919 53.8083118,50.5391838 C53.5516575,52.2766006 53.390862,53.9498603 53.2640809,55.7835129 C53.2640809,55.7835129 53.1671913,57.3595021 53.1671913,57.295345 L53.8083118,57.295345 C56.9500085,57.295345 59.8360816,56.2015691 59.8360816,53.3072541 C59.8360816,51.6319248 58.456951,50.4739919 55.5389249,50.4739919 M54.7390704,60.3210787 L52.9765043,60.3210787 L52.71985,63.9894186 C52.5920382,65.599556 52.5271015,66.9499604 52.4951486,68.5590629 C52.4951486,68.7856825 53.200175,69.2678959 54.8658515,69.2678959 C58.3281084,69.2678959 60.605014,67.530479 60.605014,64.6651382 C60.605014,61.4790116 58.0075482,60.3210787 54.7390704,60.3210787 M55.1235366,72.3246734 L46.4684095,72.3246734 C47.5589328,71.358177 47.8475401,67.5936014 48.3278651,60.9636849 L48.423724,59.4197743 C48.6814091,55.6541638 48.8731268,52.7577792 48.8411739,50.7316552 C48.8092209,48.9932036 48.6164725,47.8663144 48.1351167,47.4803367 L57.8158305,47.4803367 C60.1236582,47.4803367 64.7403444,47.6096858 64.7403444,52.4359587 C64.7403444,55.6541638 61.7584125,57.6492441 59.0341656,58.3591118 C62.8808888,58.7450895 65.7659311,60.6108206 65.7659311,64.600981 C65.7649004,68.912962 61.7264595,72.3246734 55.1235366,72.3246734 Z M26.9878386,44.0020696 C27.0507138,44.0020696 27.1177119,44.0020696 27.192956,44 C28.2185427,44.0403569 29.0410735,44.2442111 29.7162085,44.8516343 C30.3934049,45.4435357 30.5315241,46.894315 30.5614156,47.5410604 C30.599553,48.1784927 30.5779074,50.0897547 31.2375813,51.0179637 C31.9178699,51.9823905 32.6558801,52.2617845 33.5320094,52.2617845 C33.7340345,52.2617845 33.9453363,52.249367 34.1628225,52.2224624 C35.3275592,52.0817306 35.6543039,51.3904891 35.6543039,51.3904891 C35.6543039,51.3904891 34.677162,51.1255822 34.677162,49.8869354 C34.6709775,49.0528925 35.3986802,48.2747284 36.4613736,47.9539427 C36.8025487,47.8556374 37.1756767,47.8049326 37.5663273,47.8049326 C38.8176461,47.8049326 40.223576,48.3306072 41.1584576,49.5671844 C43.2941517,52.3963075 43.4662853,56.5096083 42.9447307,60.3517934 C42.4252375,64.2001872 39.9937209,67.7526304 39.9164154,67.8561096 C39.8731243,67.919232 39.8236488,67.9554497 39.7772654,67.9554497 C39.7463432,67.9554497 39.7143903,67.9409626 39.6865603,67.9119884 C38.6352051,66.9051352 37.6426021,65.5019564 37.2138141,64.5685734 C36.7479194,64.9266117 36.9973586,65.7047757 37.2375211,66.5460622 C37.487991,67.4039053 38.0775745,68.5256205 38.2713537,68.8877979 C38.4795633,69.2396274 38.7434328,69.6597532 38.3888581,69.8760249 C38.34969,69.8987903 38.3022759,69.9112078 38.242493,69.9112078 C37.7704139,69.9112078 36.6747369,69.0906173 35.4347562,67.4370186 C34.053564,65.588879 33.3454454,63.9290716 33.3454454,63.9290716 C33.2485558,63.9683937 33.0898218,64.1246474 33.1094058,64.5975476 C33.116621,65.0663087 33.6216838,66.8451172 34.565842,68.4790548 C35.5213384,70.1233403 36.4088058,71.1570982 36.5768165,71.3806134 C36.6840135,71.5296235 36.5933084,71.6061982 36.5221873,71.6548334 C36.4593121,71.7086427 34.7585905,73.3032581 32.2992439,74.646419 C29.3843101,76.2048167 28.0948538,76.478002 28.0948538,76.478002 C28.0948538,76.478002 26.8023054,76.1975732 23.8873715,74.6381406 C21.4269942,73.2970494 19.7334877,71.7096775 19.6633974,71.662077 C19.5922763,71.607233 19.4984789,71.52238 19.6087682,71.3868222 C19.7870862,71.152959 20.6714615,70.1243751 21.6290193,68.4800896 C22.5762697,66.8347693 23.0627792,65.0673435 23.0813325,64.5923736 C23.1091625,64.1246474 22.9401211,63.9528718 22.8391085,63.9301063 C22.8391085,63.9301063 22.1382051,65.5795658 20.757013,67.4380534 C19.5232167,69.0895825 18.4172323,69.9122426 17.9472146,69.9122426 C17.8905239,69.9122426 17.8431099,69.8998251 17.8060032,69.8770597 C17.4400904,69.660788 17.7122058,69.246871 17.9152617,68.8909023 C18.1255327,68.5266553 18.7068703,67.3976965 18.9460021,66.5470969 C19.1975027,65.7151237 19.4366345,64.9359248 18.9789858,64.5696082 C18.5512285,65.5029912 17.5514103,66.8989264 16.5031473,67.9202668 C16.4742866,67.944067 16.4464566,67.9564845 16.4196574,67.9564845 C16.3670896,67.9564845 16.3207063,67.919232 16.2691693,67.8509357 C16.1980482,67.7536652 13.7706546,64.1950133 13.2470384,60.3528282 C12.7265145,56.5189214 12.8996789,52.3963075 15.0333115,49.5682192 C15.9743775,48.3347464 17.37,47.8121761 18.6130729,47.8121761 C19.0078465,47.8121761 19.387159,47.8618462 19.732457,47.9632558 C20.7869044,48.2747284 21.5176994,49.0456489 21.5259453,49.8879702 C21.5176994,51.1266169 20.5457112,51.3915239 20.5457112,51.3915239 C20.5457112,51.3915239 20.8992551,52.1003568 22.0237929,52.2234972 C22.3556913,52.2545409 22.6669749,52.2545409 22.6669749,52.2545409 C25.0830304,52.2338451 25.6736446,50.4705584 25.7643498,48.8893952 C25.8663931,47.3071973 25.0273704,46.7080524 23.893556,46.5735293 C23.7574982,46.5621466 23.6296864,46.5497291 23.5142435,46.5497291 C22.6937742,46.5497291 22.444335,46.9170805 22.444335,46.9170805 C22.0722377,46.3179355 22.4041361,45.4994145 23.1019473,45.0368622 C23.8244964,44.5515445 24.671765,44.454274 25.3314388,44.454274 C25.4510047,44.454274 25.5654169,44.4563436 25.6746754,44.4635871 C25.9529753,44.1521145 26.1302626,44.0020696 26.9878386,44.0020696 Z" id="path21"></path>
        </g>
    </g>
</svg>