<?xml version="1.0" encoding="UTF-8"?>
<svg width="218px" height="120px" viewBox="0 0 218 120" version="1.1" xmlns="http://www.w3.org/2000/svg" xmlns:xlink="http://www.w3.org/1999/xlink">
    <!-- Generator: Sketch 52.4 (67378) - http://www.bohemiancoding.com/sketch -->
    <title>cocacola</title>
    <desc>Created with Sketch.</desc>
    <g id="Page-1" stroke="none" stroke-width="1" fill="none" fill-rule="evenodd">
        <g id="Rectangle-1" fill="#808080">
            <path d="M89.2818726,80.5582982 C92.484884,82.6269849 96.3243326,85.6285463 97.6785946,87.6651456 C93.6136836,84.6797342 88.0319481,83.2026472 84.1627495,83.5596471 C79.4565136,83.6376346 77.5733393,87.2932707 77.5733393,87.2932707 C71.9102163,76.9817119 54.67456,82.9064223 51.3074987,83.715622 C47.9404374,84.5235467 42.9341517,85.8616588 38.7940157,86.2966461 C32.8909803,86.7941084 27.9431321,84.4151718 25.5599455,79.9365234 C22.4791216,73.4818382 24.5344208,65.551341 26.8071075,60.0150805 C30.7489811,50.8393338 37.7153661,42.4566368 46.424038,36.4069765 C50.4060741,33.9653524 54.720885,31.7568407 59.3538084,32.0216156 C60.7067954,32.270453 61.796495,33.0012402 62.4271947,34.0586398 C63.9319067,37.0293888 62.0189824,40.2168876 60.7246454,41.8813995 C59.5238083,43.3584865 56.7396343,43.9184238 56.8505593,41.2281748 C56.9274842,39.4708004 58.3595212,38.1643509 58.8812085,37.759751 C59.5240208,37.3402762 60.3557455,37.2622887 60.8508703,37.2622887 C61.3200701,36.8264514 61.682595,33.7789899 57.8048964,34.7741271 C52.7452732,36.360439 48.9136871,40.3108126 44.7829011,44.9139859 C37.3825912,53.7629078 33.2163177,61.7403674 31.6746308,70.0299894 C31.009931,75.1151126 31.9000932,78.6453738 34.3829423,80.8379481 C40.8457025,85.3012965 45.7667757,83.0779098 60.5263829,79.609486 C74.3713905,75.7683374 82.9561749,76.4833996 89.2818726,80.5582982 Z M62.2839698,45.9558731 C65.5702811,48.3505347 62.4463197,54.7421074 62.0674324,55.7533946 C63.2240695,56.049407 66.9224181,53.4059079 69.0788674,51.0261213 C70.7918292,49.1284969 73.7264532,46.6870853 75.5803025,45.9875356 C76.9651645,45.3183733 79.1050388,45.1009859 80.5077508,45.9403606 C81.4489129,46.4852104 82.0796127,47.60466 82.1459127,48.7867971 C82.3314251,52.0837334 78.495589,57.4958939 76.5722522,54.7588949 C76.1763648,53.5767578 76.6090147,52.3168458 77.8542642,51.0103963 C78.4864515,50.3571715 79.2639887,50.0622216 80.2344759,50.0932466 C80.6169757,49.4865593 80.5194383,48.6008596 79.914876,48.2425848 C79.2803512,47.8537099 78.0017392,48.1189098 76.8253396,49.035847 C72.6582161,52.3487208 68.9962049,57.8390813 66.8709932,63.8887416 C66.4946558,65.0237037 66.2893809,66.7519656 66.9566306,67.9341027 C68.782005,70.7476017 73.0538909,66.8316531 73.0538909,66.8316531 C75.9375149,64.2657165 78.7185014,60.7108053 80.9027881,57.5534814 C86.5763236,49.3424844 94.1122084,42.2619869 97.4399572,46.8651602 C97.4996697,46.9433602 97.5857321,47.1065602 97.6218571,47.1375852 C97.6696696,47.0753227 98.2563819,46.1260855 98.2563819,46.1260855 L103.62753,46.1260855 C103.62753,46.1260855 92.2517715,65.8562784 92.2368966,65.8877284 C92.0003841,66.3688283 91.8492967,67.047978 92.2322216,67.3748029 C92.5416214,67.5928278 93.0783963,67.3172154 93.0830712,67.3172154 C96.0332077,65.8860284 100.576456,59.3010808 100.598344,59.3010808 L102.448368,59.3010808 C99.5479564,63.5510793 95.9571327,68.46769 91.4999468,71.6090764 C90.2625598,72.4333636 88.6345978,73.3112008 87.0259734,72.735326 C85.321724,71.6622014 85.6417489,70.3247268 85.7511864,68.7080274 C85.7375864,68.7080274 81.5171254,73.8405381 77.9843142,72.8135259 C76.8153521,72.4401636 74.9466278,71.4286639 76.3329773,66.6074657 C76.3329773,66.6074657 76.4390147,66.1729033 76.5204022,65.8471409 C76.1988898,66.1576033 75.6304525,66.7013906 75.6304525,66.7013906 C72.2946287,69.967302 68.5134051,73.6380256 63.7780568,72.8443384 C60.225058,71.7404013 60.3200455,68.1013401 60.1957331,67.1051405 C59.7964457,63.8398667 63.7102693,57.261294 63.7249318,57.214969 C62.6981322,57.5105564 61.7869325,57.7283689 61.0304328,57.8677688 C60.9719953,57.9612688 59.7479957,59.982993 59.7479957,59.982993 C58.4162587,62.1915047 57.0403217,64.4933039 55.2593598,66.4062282 L54.9214849,66.7642906 C52.3026359,69.827477 46.1443881,75.5503125 42.8270518,71.6158764 C40.5970776,68.2721901 42.6462143,61.0414552 47.3917626,54.8200949 C52.5812233,47.8843099 59.060346,43.8408613 62.2839698,45.9558731 Z M88.179423,55.4112697 C89.2242851,53.9652077 92.2653715,50.0926091 93.0067838,49.4395968 C95.5002579,47.2459601 96.4968825,48.2111348 96.5831575,48.8949595 C94.2560708,53.0627205 91.5095093,57.8373813 88.9272102,62.1298798 C88.9325227,62.1145798 88.119073,63.3583418 88.119073,63.3583418 C86.9785859,65.0997787 85.8302364,66.5928032 83.9570495,67.6346903 C83.6899371,67.7128903 83.2496373,67.7441278 82.9565999,67.5256778 C82.60385,67.2923529 82.4646626,66.9034781 82.5044,66.4988782 C82.6166,65.1618287 83.978087,61.0724802 88.179423,55.4112697 L88.179423,55.4112697 L88.179423,55.4112697 Z M58.959621,57.9149438 C58.959621,57.9149438 58.912871,58.0554062 58.8897085,58.1013062 C58.8837585,58.1013062 56.5479594,61.9110048 56.5479594,61.9110048 C55.1382349,63.7931167 53.378098,66.1576033 51.1778738,67.2923529 C50.5257115,67.5101653 49.6242868,67.6504153 49.164862,67.0753905 C48.1909749,65.9087659 48.6928997,64.291429 49.100687,62.985192 L49.2449745,62.5185421 C50.4141491,59.3463433 52.2692734,56.5464443 54.0748852,53.9492702 C54.0974102,53.9339702 54.1479852,53.9184577 54.1662602,53.9184577 C54.1705102,53.9339702 54.1777352,53.9339702 54.1809227,53.9652077 C55.3139723,56.1420569 57.4385465,57.1524941 59.0274085,57.6197814 C59.036971,57.6197814 59.047171,57.6352939 59.047171,57.6665314 C59.0473835,57.7128564 59.0214585,57.7755438 58.959621,57.9149438 L58.959621,57.9149438 L58.959621,57.9149438 Z M61.1725952,53.4209954 C61.1623952,53.4520204 60.1321956,55.815657 60.1321956,55.815657 C59.9832331,55.9399695 59.7477832,55.8779195 59.4779083,55.815657 L59.0155085,55.7374571 C57.5634965,55.2867447 56.4682719,54.3224201 56.1306095,53.171733 C55.6648097,50.9321963 57.5779465,49.1748219 58.4209337,48.5375346 C59.2297084,47.9771723 60.4870704,47.6817975 61.2172202,48.2574597 C61.6675075,48.7863721 61.838145,49.4704093 61.838145,50.2173465 C61.8383575,51.2279962 61.5264076,52.3631708 61.1725952,53.4209954 Z M129.074821,60.6364303 C130.21467,63.0317294 129.479846,66.1731158 128.817908,68.396715 C126.074534,75.8771373 120.568874,82.3781475 114.443139,85.3952214 C111.615827,86.5301835 107.612116,87.2137958 104.592705,84.0577469 C101.041406,80.3406982 101.483618,74.0732255 102.938605,69.8123895 C104.826242,63.4830793 108.367766,57.0755691 114.077214,49.6571967 C121.843023,40.1858626 129.086508,34.7273771 136.888231,32.4880529 C139.057642,31.9589281 142.001829,31.7727782 143.797028,33.73224 C143.797028,33.73224 144.66594,33.4366526 145.616665,33.0947402 C148.035764,32.223703 152.78875,31.1042534 158.628035,34.2919648 C161.199284,35.7070018 163.811546,37.1379762 166.28292,38.6465132 L167.826519,39.5953254 C166.760195,40.6064 164.866395,42.6279118 163.714008,43.9651738 C161.351434,42.9392242 154.347649,37.5736011 151.058363,36.484539 C151.058363,36.484539 146.849164,34.5565272 144.796415,35.6447393 C144.828078,36.0183141 144.847415,36.5157765 144.847415,36.8889263 C144.847415,39.9682627 143.678666,42.7364992 142.363716,45.5202482 C140.095704,49.1901219 137.319818,53.202333 133.023282,54.1978951 C132.090407,54.2601576 130.931645,54.1666576 130.279058,52.9849456 C129.030196,50.7141714 130.270345,48.1488723 131.161995,46.251248 C134.667181,38.7706132 142.020529,34.7271646 142.020529,34.7271646 C140.741492,34.2294898 139.261855,34.4160647 137.664068,35.2246269 C129.830683,39.0976505 124.015835,46.3602604 118.740737,53.4362954 C113.624801,61.0565427 110.049915,67.7439153 109.222015,75.5972749 C109.035228,78.3655114 109.919015,80.5121857 111.65174,81.5381353 C114.402764,83.2175222 117.547125,81.0404605 119.672337,79.2363361 C122.076136,77.0907244 124.451885,73.979513 126.004409,70.8687266 C128.102634,66.6395532 128.657471,62.2694922 127.078809,61.7403674 C125.271922,61.2273926 123.66266,63.1556169 122.858561,64.353479 C120.733561,67.2462404 120.316849,70.4964268 120.316849,70.4964268 C117.2543,71.8651388 114.555551,74.3688129 113.232527,75.8924373 C113.642864,72.5022135 114.268676,70.3719018 115.415326,67.7900277 C117.600462,62.767167 121.762273,59.2681433 126.017159,58.8790559 C127.327434,58.8014935 128.556959,59.5169807 129.074821,60.6364303 Z M143.160591,37.2002387 C142.349691,46.5002979 135.120656,51.9594209 133.332044,52.3941958 C132.248082,52.6115832 130.398483,52.1298459 132.049607,48.2268598 C134.481244,42.9698241 138.632642,38.5069007 143.086853,36.2206141 C143.195228,36.6094889 143.192466,36.8576888 143.160591,37.2002387 Z M186.042863,38.3817383 C190.789049,35.6917018 193.999923,32.0218281 193.999923,32.0218281 C193.999923,32.0218281 191.803311,36.7025639 187.519737,40.4196126 C183.470551,44.1049987 176.209854,47.9773848 169.361194,46.235523 C170.574781,44.6183986 171.89143,43.0478116 173.24378,41.5233372 C178.123416,42.0207995 182.154327,40.5904625 186.042863,38.3817383 Z M112.554864,46.126298 L109.676553,50.8012963 L104.576767,50.8012963 L107.454016,46.126298 L112.554864,46.126298 Z M173.22338,80.9911605 C176.374541,79.1396487 178.879703,75.2387876 180.848302,72.2635761 L182.664114,72.2635761 C181.279252,74.6010753 175.945292,82.6860599 171.489381,85.112384 C170.247106,85.7813338 169.173556,86.5616335 167.738969,86.2964336 C165.646058,86.0322962 165.542145,83.3881596 165.92422,81.9110727 C164.734433,83.1703472 162.170621,85.6281213 159.869885,86.2498961 C157.867073,86.638346 155.239511,85.8448713 155.963711,80.7750481 C152.58985,85.0059216 148.442489,88.2093579 145.937327,85.1142965 C144.184203,82.9219348 145.04249,79.2201861 146.898464,73.7774256 C146.898464,73.7774256 147.523427,71.9106138 147.592702,71.6783513 C147.565927,71.6619889 147.559127,71.6619889 147.542977,71.6619889 C146.33364,71.9735137 144.73479,72.0198387 144.61834,72.0351387 C141.689879,77.1676494 137.974955,82.7814724 132.657995,85.5807339 C131.875782,85.9846962 129.884658,86.8247084 128.302596,86.0165712 C126.764309,85.1453215 126.161659,83.4034596 126.457672,80.6979106 C126.877997,77.2447868 128.395884,74.2292004 129.918233,71.4135764 C132.748732,66.9818905 136.671268,61.6005425 141.919591,59.4232682 C143.091103,58.8947809 144.828715,58.567956 146.234615,59.2679308 C147.433752,60.138543 147.755052,61.3978175 147.755052,62.7363546 C147.755052,63.3583418 147.681527,63.9956291 147.602477,64.6178289 C147.145602,66.7951031 146.232702,68.8017399 145.507652,70.2943393 C145.857215,70.5278768 147.913152,70.0452894 148.445251,69.6415396 C155.787336,54.3073326 164.185333,43.0788366 174.130542,35.2873144 L174.208742,35.2409894 C176.143341,33.9186024 178.547778,32.286178 180.753952,32.7060778 C181.430765,32.8306028 181.948627,33.3748151 182.069114,34.0903023 C182.429939,36.313689 181.450952,38.1805009 180.566952,39.8437378 C179.80514,40.0932127 178.645103,40.3110251 178.645103,40.3110251 L179.464078,38.6312132 C180.048453,37.4805261 180.557815,36.4694515 180.493002,35.1011645 C180.322365,34.7428896 180.12474,34.7273771 179.971315,34.7428896 C178.518241,35.038477 176.653554,36.8423888 174.854104,38.5997632 L173.690242,39.7198503 C166.294607,47.1067727 157.603998,62.5493546 156.258874,65.784666 C159.295285,64.307579 169.310831,54.3851076 174.20513,47.55791 C175.207067,47.5270975 176.055579,47.3558226 176.055579,47.3558226 C175.271667,48.8953845 169.908381,55.7848445 163.546558,61.8661674 C160.615122,64.6809414 157.389373,67.2468779 154.562912,69.2063397 C153.173162,72.2079012 151.793825,75.5201375 151.199888,79.0042862 C151.133375,79.4864485 150.97485,81.5557728 152.511012,81.4312478 C154.478762,80.9954105 158.023473,75.1346626 158.023473,75.1346626 C161.390747,69.862327 165.660508,63.1016419 171.512543,59.6797557 C172.858518,58.9179434 174.809692,58.5205686 176.139516,59.3610058 C176.449554,59.5624557 177.202654,60.4953304 177.454466,60.9148052 C177.454466,60.9148052 178.007816,59.9387931 178.266428,59.5137932 L183.709826,59.5137932 L175.763179,73.6080632 C175.763179,73.6080632 172.910155,78.0450616 172.192543,80.2223358 C171.904393,81.0774355 172.674918,81.3643104 173.22338,80.9911605 Z M133.227069,80.4497107 C132.944444,80.0298108 132.850732,79.5705985 132.841382,79.0741987 C132.787195,76.0248248 136.067981,70.5637892 138.383805,67.5887903 L138.388692,67.5887903 C139.35918,69.7137895 141.556854,71.0797391 142.883491,71.6554014 C141.235766,75.3259125 135.584756,83.1867097 133.227069,80.4497107 L133.227069,80.4497107 L133.227069,80.4497107 Z M143.813391,70.0144769 C143.656353,70.1239144 140.885142,69.1904022 140.349642,66.6244657 C139.895317,64.4153165 141.416604,62.6891796 142.888378,61.8189924 C143.520141,61.3211051 144.471715,61.1504676 145.169778,61.3982425 C145.81769,61.8342924 145.993215,62.6124671 145.993215,63.4509918 C145.993215,63.9652416 145.925002,64.4935164 145.864865,64.9754663 C145.864865,64.9754663 145.85339,65.0691787 145.851477,65.0846912 C145.389715,66.8104031 144.683153,68.5057275 143.813391,70.0144769 L143.813391,70.0144769 L143.813391,70.0144769 Z M166.040033,79.470086 C166.037695,79.470086 165.514308,79.9365234 165.514308,79.9365234 C164.766733,80.6048356 163.997483,81.3203229 163.068859,80.962473 C162.812371,80.8691855 162.631959,80.5274857 162.588609,80.2622858 C162.546321,78.3493615 163.407796,76.5768996 164.243133,74.8509752 L164.457333,74.3996254 C166.860282,70.3874143 169.653381,65.659716 173.75548,62.3787172 C174.446742,61.8799799 175.196867,61.46093 175.988641,61.7877549 C176.170754,61.9583923 176.382829,62.2541922 176.382829,62.5493546 C176.382829,62.6430671 176.299741,62.891692 176.251716,62.969042 C175.106129,64.8205538 174.014942,66.7642906 172.95393,68.6302524 C170.880356,72.3162761 168.729219,76.1259747 166.040033,79.470086 L166.040033,79.470086 L166.040033,79.470086 Z" id="path5"></path>
        </g>
    </g>
</svg>