<?xml version="1.0" encoding="UTF-8"?>
<svg width="560px" height="246px" viewBox="0 0 560 246" version="1.1" xmlns="http://www.w3.org/2000/svg" xmlns:xlink="http://www.w3.org/1999/xlink">
    <!-- Generator: Sketch 52.4 (67378) - http://www.bohemiancoding.com/sketch -->
    <title>tinder</title>
    <desc>Created with Sketch.</desc>
    <g id="Page-1" stroke="none" stroke-width="1" fill="none" fill-rule="evenodd">
        <g id="Sliding-Screens-Pattern" transform="translate(0.000000, -226.000000)">
            <g id="Group-2" transform="translate(0.000000, 226.000000)">
                <rect id="Rectangle-1" stroke="#E6E6E6" stroke-width="1.37931034" fill="#FFFFFF" x="0.689655172" y="0.689655172" width="136.551724" height="244.62069"></rect>
                <rect id="Rectangle-22" fill="#E6E6E6" opacity="0.5" x="1.37931034" y="27.6404494" width="135.172414" height="49.752809"></rect>
                <rect id="Rectangle-1" stroke="#E6E6E6" stroke-width="1.37931034" fill="#FFFFFF" x="141.37931" y="0.689655172" width="136.551724" height="244.62069"></rect>
                <rect id="Rectangle-26" fill="#E6E6E6" opacity="0.5" x="146.206897" y="44.2247191" width="126.896552" height="138.202247" rx="5.51724138"></rect>
                <ellipse id="Oval-31" fill="#E6E6E6" opacity="0.5" cx="190.344828" cy="212.831461" rx="16.5517241" ry="16.5842697"></ellipse>
                <ellipse id="Oval-32" fill="#E6E6E6" opacity="0.5" cx="228.965517" cy="212.831461" rx="16.5517241" ry="16.5842697"></ellipse>
                <rect id="Rectangle-1" stroke="#E6E6E6" stroke-width="1.37931034" fill="#FFFFFF" x="282.068966" y="0.689655172" width="136.551724" height="244.62069"></rect>
                <rect id="Rectangle-1" stroke="#E6E6E6" stroke-width="1.37931034" fill="#FFFFFF" x="422.758621" y="0.689655172" width="136.551724" height="244.62069"></rect>
                <g id="Rectangle-19-+-Rectangle-20-+-Rectangle-21" transform="translate(427.586207, 33.168539)" fill="#E6E6E6" opacity="0.5">
                    <rect id="Rectangle-19" x="0" y="0" width="38.6206897" height="38.6966292" rx="5.51724138"></rect>
                    <rect id="Rectangle-20" x="44.137931" y="0" width="38.6206897" height="38.6966292" rx="5.51724138"></rect>
                    <rect id="Rectangle-21" x="88.2758621" y="0" width="38.6206897" height="38.6966292" rx="5.51724138"></rect>
                    <rect id="Rectangle-24" x="0" y="44.2247191" width="38.6206897" height="38.6966292" rx="5.51724138"></rect>
                    <rect id="Rectangle-23" x="44.137931" y="44.2247191" width="38.6206897" height="38.6966292" rx="5.51724138"></rect>
                </g>
                <rect id="Rectangle-3" stroke="#E6E6E6" stroke-width="1.37931034" x="0.689655172" y="0.689655172" width="136.551724" height="26.2611391"></rect>
                <rect id="Rectangle-4" stroke="#E6E6E6" stroke-width="1.37931034" x="141.37931" y="0.689655172" width="136.551724" height="26.2611391"></rect>
                <rect id="Rectangle-5" stroke="#E6E6E6" stroke-width="1.37931034" x="282.068966" y="0.689655172" width="136.551724" height="26.2611391"></rect>
                <rect id="Rectangle-6" stroke="#E6E6E6" stroke-width="1.37931034" x="422.758621" y="0.689655172" width="136.551724" height="26.2611391"></rect>
                <path d="M43.0095172,144.146067 L43.0095172,131.079401 L48.1241839,131.079401 C50.8681839,131.079401 52.5668506,132.871401 52.5668506,135.223401 C52.5668506,137.575401 50.8681839,139.404734 48.1241839,139.404734 L44.4655172,139.404734 L44.4655172,144.146067 L43.0095172,144.146067 Z M44.4655172,138.191401 L47.9935172,138.191401 C50.1401839,138.191401 51.1108506,136.810067 51.1108506,135.223401 C51.1108506,133.636734 50.1401839,132.292734 47.9935172,132.292734 L44.4655172,132.292734 L44.4655172,138.191401 Z M54.7508506,144.146067 L54.7508506,134.588734 L56.0761839,134.588734 L56.0761839,136.791401 C56.4308506,135.316734 57.4575172,134.532734 59.1935172,134.532734 L59.4175172,134.532734 L59.4175172,135.858067 L59.1375172,135.858067 C57.3268506,135.858067 56.1695172,137.052734 56.1695172,139.460734 L56.1695172,144.146067 L54.7508506,144.146067 Z M65.1481839,144.370067 C62.4228506,144.370067 60.8735172,142.503401 60.8735172,140.151401 L60.8735172,138.583401 C60.8735172,136.231401 62.4415172,134.364734 65.1481839,134.364734 C67.8548506,134.364734 69.4041839,136.231401 69.4041839,138.583401 L69.4041839,140.151401 C69.4041839,142.503401 67.8548506,144.370067 65.1481839,144.370067 Z M68.0415172,138.602067 C68.0415172,136.791401 67.0335172,135.503401 65.1481839,135.503401 C63.2628506,135.503401 62.2548506,136.791401 62.2548506,138.602067 L62.2548506,140.132734 C62.2548506,141.943401 63.2628506,143.231401 65.1481839,143.231401 C67.0335172,143.231401 68.0415172,141.943401 68.0415172,140.132734 L68.0415172,138.602067 Z M72.6335172,144.146067 L72.6335172,135.746067 L71.2335172,135.746067 L71.2335172,134.588734 L72.6335172,134.588734 L72.6335172,133.319401 C72.6335172,131.471401 73.4548506,130.519401 75.3961839,130.519401 L76.7401839,130.519401 L76.7401839,131.676734 L75.5081839,131.676734 C74.5001839,131.676734 74.0521839,132.143401 74.0521839,133.207401 L74.0521839,134.588734 L76.4041839,134.588734 L76.4041839,135.746067 L74.0521839,135.746067 L74.0521839,144.146067 L72.6335172,144.146067 Z M78.6255172,144.146067 L78.6255172,134.588734 L80.0441839,134.588734 L80.0441839,144.146067 L78.6255172,144.146067 Z M78.4388506,132.068734 C78.4388506,131.564734 78.7935172,131.210067 79.3348506,131.210067 C79.8761839,131.210067 80.2308506,131.564734 80.2308506,132.068734 C80.2308506,132.572734 79.8761839,132.927401 79.3348506,132.927401 C78.7935172,132.927401 78.4388506,132.572734 78.4388506,132.068734 Z M83.2548506,144.146067 L83.2548506,130.519401 L84.6735172,130.519401 L84.6735172,144.146067 L83.2548506,144.146067 Z M91.5428506,144.370067 C89.0601839,144.370067 87.3241839,142.783401 87.3241839,140.207401 L87.3241839,138.676734 C87.3241839,136.082067 88.7988506,134.364734 91.4868506,134.364734 C94.2121839,134.364734 95.5375172,136.175401 95.5375172,138.527401 L95.5375172,139.946067 L88.6868506,139.946067 L88.6868506,140.282067 C88.6868506,141.943401 89.5455172,143.287401 91.5428506,143.287401 C92.9801839,143.287401 93.8575172,142.522067 94.1748506,141.439401 L95.4441839,141.439401 C95.1268506,143.156734 93.5401839,144.370067 91.5428506,144.370067 Z M88.6868506,138.564734 L88.6868506,138.863401 L94.2121839,138.863401 L94.2121839,138.415401 C94.2121839,136.716734 93.3535172,135.447401 91.4868506,135.447401 C89.4335172,135.447401 88.6868506,136.810067 88.6868506,138.564734 Z" id="Profile" fill="#666666"></path>
                <path d="M181.421839,144.407401 C178.640506,144.407401 176.549839,142.914067 176.549839,140.524734 L176.549839,140.188734 L177.931172,140.188734 L177.931172,140.487401 C177.931172,142.130067 179.256506,143.250067 181.421839,143.250067 C183.568506,143.250067 184.875172,142.316734 184.875172,140.655401 C184.875172,139.591401 184.221839,138.844734 183.008506,138.527401 L179.312506,137.556734 C177.427172,137.071401 176.717839,135.970067 176.717839,134.476734 C176.717839,132.162067 178.547172,130.818067 181.235172,130.818067 C183.923172,130.818067 185.808506,132.330067 185.808506,134.551401 L185.808506,134.868734 L184.445839,134.868734 L184.445839,134.588734 C184.445839,133.039401 183.251172,131.975401 181.235172,131.975401 C179.405839,131.975401 178.117839,132.815401 178.117839,134.364734 C178.117839,135.447401 178.621839,136.063401 179.741839,136.362067 L183.531172,137.370067 C185.136506,137.799401 186.275172,138.863401 186.275172,140.543401 C186.275172,142.932734 184.203172,144.407401 181.421839,144.407401 Z M201.003172,134.588734 L198.389839,144.146067 L197.045839,144.146067 L194.507172,136.082067 L191.968506,144.146067 L190.624506,144.146067 L188.011172,134.588734 L189.355172,134.588734 L191.371172,142.447401 L193.835172,134.588734 L195.179172,134.588734 L197.643172,142.447401 L199.659172,134.588734 L201.003172,134.588734 Z M203.205839,144.146067 L203.205839,134.588734 L204.624506,134.588734 L204.624506,144.146067 L203.205839,144.146067 Z M203.019172,132.068734 C203.019172,131.564734 203.373839,131.210067 203.915172,131.210067 C204.456506,131.210067 204.811172,131.564734 204.811172,132.068734 C204.811172,132.572734 204.456506,132.927401 203.915172,132.927401 C203.373839,132.927401 203.019172,132.572734 203.019172,132.068734 Z M209.160506,147.394067 L207.741839,147.394067 L207.741839,134.588734 L209.085839,134.588734 L209.085839,136.082067 C209.496506,135.204734 210.728506,134.364734 212.315172,134.364734 C214.872506,134.364734 216.309839,136.212734 216.309839,138.639401 L216.309839,140.095401 C216.309839,142.578067 214.760506,144.370067 212.352506,144.370067 C210.859172,144.370067 209.739172,143.698067 209.160506,142.727401 L209.160506,147.394067 Z M214.891172,140.039401 L214.891172,138.695401 C214.891172,136.940734 214.051172,135.522067 212.072506,135.522067 C210.187172,135.522067 209.160506,136.959401 209.160506,138.807401 L209.160506,140.039401 C209.160506,141.999401 210.504506,143.212734 212.091172,143.212734 C213.901839,143.212734 214.891172,141.794067 214.891172,140.039401 Z M218.960506,144.146067 L218.960506,134.588734 L220.379172,134.588734 L220.379172,144.146067 L218.960506,144.146067 Z M218.773839,132.068734 C218.773839,131.564734 219.128506,131.210067 219.669839,131.210067 C220.211172,131.210067 220.565839,131.564734 220.565839,132.068734 C220.565839,132.572734 220.211172,132.927401 219.669839,132.927401 C219.128506,132.927401 218.773839,132.572734 218.773839,132.068734 Z M223.496506,144.146067 L223.496506,134.588734 L224.840506,134.588734 L224.840506,136.212734 C225.288506,135.130067 226.371172,134.364734 228.032506,134.364734 C230.179172,134.364734 231.541839,135.820734 231.541839,138.116734 L231.541839,144.146067 L230.123172,144.146067 L230.123172,138.322067 C230.123172,136.698067 229.395172,135.596734 227.677839,135.596734 C226.109839,135.596734 224.915172,136.548734 224.915172,138.527401 L224.915172,144.146067 L223.496506,144.146067 Z M238.317839,147.618067 C236.413839,147.618067 234.696506,146.740734 234.173839,145.172734 L235.573839,145.172734 C236.096506,146.087401 237.011172,146.498067 238.317839,146.498067 C239.979172,146.498067 241.117839,145.564734 241.117839,144.108734 L241.117839,141.943401 C240.819172,142.820734 239.512506,143.754067 237.907172,143.754067 C235.424506,143.754067 234.005839,141.980734 234.005839,139.852734 L234.005839,138.266067 C234.005839,136.100734 235.405839,134.364734 237.925839,134.364734 C239.717839,134.364734 240.781839,135.335401 241.173839,136.175401 L241.173839,134.588734 L242.536506,134.588734 L242.536506,144.146067 C242.536506,146.124734 240.744506,147.618067 238.317839,147.618067 Z M238.187172,142.596734 C239.811172,142.596734 241.117839,141.514067 241.117839,139.703401 L241.117839,138.471401 C241.117839,136.847401 239.885839,135.522067 238.243172,135.522067 C236.376506,135.522067 235.405839,136.548734 235.405839,138.378067 L235.405839,139.740734 C235.405839,141.532734 236.357839,142.596734 238.187172,142.596734 Z" id="Swiping" fill="#666666"></path>
                <path d="M326.367494,131.079401 L326.367494,144.146067 L324.986161,144.146067 L324.986161,133.879401 L321.383494,140.991401 L320.002161,140.991401 L316.399494,133.879401 L316.399494,144.146067 L315.018161,144.146067 L315.018161,131.079401 L316.380828,131.079401 L320.692828,139.703401 L325.004828,131.079401 L326.367494,131.079401 Z M337.418161,144.146067 L336.055494,144.146067 L336.055494,142.951401 C335.644828,143.623401 334.356828,144.370067 332.770161,144.370067 C330.511494,144.370067 329.148828,143.100734 329.148828,141.364734 C329.148828,139.516734 330.660828,138.378067 332.938161,138.378067 C334.450161,138.378067 335.458161,139.012734 335.999494,139.572734 L335.999494,137.799401 C335.999494,136.492734 335.140828,135.484734 333.610161,135.484734 C332.396828,135.484734 331.612828,136.044734 331.220828,136.922067 L329.914161,136.922067 C330.399494,135.335401 331.743494,134.364734 333.628828,134.364734 C335.999494,134.364734 337.418161,135.914067 337.418161,137.799401 L337.418161,144.146067 Z M333.068828,143.455401 C334.562161,143.455401 335.999494,142.578067 335.999494,141.346067 C335.999494,140.151401 334.580828,139.311401 333.143494,139.311401 C331.556828,139.311401 330.492828,140.058067 330.492828,141.383401 C330.492828,142.708734 331.594161,143.455401 333.068828,143.455401 Z M344.903494,144.146067 L343.708828,144.146067 C341.879494,144.146067 341.114161,143.231401 341.114161,141.607401 L341.114161,135.746067 L339.490161,135.746067 L339.490161,134.588734 L341.114161,134.588734 L341.114161,131.844734 L342.532828,131.844734 L342.532828,134.588734 L344.978161,134.588734 L344.978161,135.746067 L342.532828,135.746067 L342.532828,141.607401 C342.532828,142.578067 342.887494,142.988734 343.951494,142.988734 L344.903494,142.988734 L344.903494,144.146067 Z M351.063494,144.370067 C348.412828,144.370067 346.826161,142.578067 346.826161,140.170067 L346.826161,138.564734 C346.826161,136.156734 348.412828,134.364734 351.063494,134.364734 C353.471494,134.364734 355.039494,135.932734 355.151494,137.948734 L353.882161,137.948734 C353.695494,136.660734 352.892828,135.484734 351.082161,135.484734 C349.122161,135.484734 348.207494,136.754067 348.207494,138.546067 L348.207494,140.188734 C348.207494,141.980734 349.122161,143.250067 351.082161,143.250067 C352.892828,143.250067 353.695494,142.074067 353.882161,140.786067 L355.151494,140.786067 C355.039494,142.802067 353.471494,144.370067 351.063494,144.370067 Z M357.746161,144.146067 L357.746161,130.519401 L359.164828,130.519401 L359.164828,136.063401 C359.706161,135.074067 360.695494,134.364734 362.282161,134.364734 C364.428828,134.364734 365.791494,135.820734 365.791494,138.116734 L365.791494,144.146067 L364.372828,144.146067 L364.372828,138.322067 C364.372828,136.698067 363.644828,135.596734 361.927494,135.596734 C360.359494,135.596734 359.164828,136.548734 359.164828,138.527401 L359.164828,144.146067 L357.746161,144.146067 Z M372.474161,144.370067 C369.991494,144.370067 368.255494,142.783401 368.255494,140.207401 L368.255494,138.676734 C368.255494,136.082067 369.730161,134.364734 372.418161,134.364734 C375.143494,134.364734 376.468828,136.175401 376.468828,138.527401 L376.468828,139.946067 L369.618161,139.946067 L369.618161,140.282067 C369.618161,141.943401 370.476828,143.287401 372.474161,143.287401 C373.911494,143.287401 374.788828,142.522067 375.106161,141.439401 L376.375494,141.439401 C376.058161,143.156734 374.471494,144.370067 372.474161,144.370067 Z M369.618161,138.564734 L369.618161,138.863401 L375.143494,138.863401 L375.143494,138.415401 C375.143494,136.716734 374.284828,135.447401 372.418161,135.447401 C370.364828,135.447401 369.618161,136.810067 369.618161,138.564734 Z M382.572828,144.370067 C380.258161,144.370067 378.615494,143.212734 378.615494,141.364734 L378.615494,141.271401 L379.903494,141.271401 L379.903494,141.327401 C379.903494,142.522067 381.023494,143.306067 382.591494,143.306067 C384.066161,143.306067 385.130161,142.727401 385.130161,141.495401 C385.130161,140.823401 384.700828,140.338067 383.935494,140.170067 L381.098161,139.516734 C379.679494,139.199401 378.858161,138.340734 378.858161,137.090067 C378.858161,135.298067 380.370161,134.364734 382.479494,134.364734 C384.476828,134.364734 386.026161,135.578067 386.026161,137.351401 L386.026161,137.444734 L384.738161,137.444734 L384.738161,137.388734 C384.738161,136.212734 383.879494,135.428734 382.460828,135.428734 C381.135494,135.428734 380.164828,135.988734 380.164828,137.052734 C380.164828,137.706067 380.482161,138.116734 381.172828,138.284734 L384.103494,138.975401 C385.578161,139.330067 386.455494,140.058067 386.455494,141.439401 C386.455494,143.138067 384.812828,144.370067 382.572828,144.370067 Z" id="Matches" fill="#666666"></path>
                <path d="M463.659816,131.079401 L463.659816,144.146067 L462.278483,144.146067 L462.278483,133.879401 L458.675816,140.991401 L457.294483,140.991401 L453.691816,133.879401 L453.691816,144.146067 L452.310483,144.146067 L452.310483,131.079401 L453.673149,131.079401 L457.985149,139.703401 L462.297149,131.079401 L463.659816,131.079401 Z M470.678483,144.370067 C467.953149,144.370067 466.403816,142.503401 466.403816,140.151401 L466.403816,138.583401 C466.403816,136.231401 467.971816,134.364734 470.678483,134.364734 C473.385149,134.364734 474.934483,136.231401 474.934483,138.583401 L474.934483,140.151401 C474.934483,142.503401 473.385149,144.370067 470.678483,144.370067 Z M473.571816,138.602067 C473.571816,136.791401 472.563816,135.503401 470.678483,135.503401 C468.793149,135.503401 467.785149,136.791401 467.785149,138.602067 L467.785149,140.132734 C467.785149,141.943401 468.793149,143.231401 470.678483,143.231401 C472.563816,143.231401 473.571816,141.943401 473.571816,140.132734 L473.571816,138.602067 Z M477.491816,144.146067 L477.491816,134.588734 L478.835816,134.588734 L478.835816,136.212734 C479.283816,135.130067 480.329149,134.364734 481.990483,134.364734 C483.409149,134.364734 484.491816,135.074067 485.033149,136.231401 C485.686483,135.111401 486.843816,134.364734 488.505149,134.364734 C490.595816,134.364734 491.939816,135.858067 491.939816,138.116734 L491.939816,144.146067 L490.521149,144.146067 L490.521149,138.322067 C490.521149,136.698067 489.718483,135.596734 488.150483,135.596734 C486.582483,135.596734 485.425149,136.548734 485.425149,138.527401 L485.425149,144.146067 L484.006483,144.146067 L484.006483,138.322067 C484.006483,136.698067 483.203816,135.596734 481.635816,135.596734 C480.067816,135.596734 478.910483,136.548734 478.910483,138.527401 L478.910483,144.146067 L477.491816,144.146067 Z M498.622483,144.370067 C496.139816,144.370067 494.403816,142.783401 494.403816,140.207401 L494.403816,138.676734 C494.403816,136.082067 495.878483,134.364734 498.566483,134.364734 C501.291816,134.364734 502.617149,136.175401 502.617149,138.527401 L502.617149,139.946067 L495.766483,139.946067 L495.766483,140.282067 C495.766483,141.943401 496.625149,143.287401 498.622483,143.287401 C500.059816,143.287401 500.937149,142.522067 501.254483,141.439401 L502.523816,141.439401 C502.206483,143.156734 500.619816,144.370067 498.622483,144.370067 Z M495.766483,138.564734 L495.766483,138.863401 L501.291816,138.863401 L501.291816,138.415401 C501.291816,136.716734 500.433149,135.447401 498.566483,135.447401 C496.513149,135.447401 495.766483,136.810067 495.766483,138.564734 Z M505.211816,144.146067 L505.211816,134.588734 L506.555816,134.588734 L506.555816,136.212734 C507.003816,135.130067 508.086483,134.364734 509.747816,134.364734 C511.894483,134.364734 513.257149,135.820734 513.257149,138.116734 L513.257149,144.146067 L511.838483,144.146067 L511.838483,138.322067 C511.838483,136.698067 511.110483,135.596734 509.393149,135.596734 C507.825149,135.596734 506.630483,136.548734 506.630483,138.527401 L506.630483,144.146067 L505.211816,144.146067 Z M520.761149,144.146067 L519.566483,144.146067 C517.737149,144.146067 516.971816,143.231401 516.971816,141.607401 L516.971816,135.746067 L515.347816,135.746067 L515.347816,134.588734 L516.971816,134.588734 L516.971816,131.844734 L518.390483,131.844734 L518.390483,134.588734 L520.835816,134.588734 L520.835816,135.746067 L518.390483,135.746067 L518.390483,141.607401 C518.390483,142.578067 518.745149,142.988734 519.809149,142.988734 L520.761149,142.988734 L520.761149,144.146067 Z M526.659816,144.370067 C524.345149,144.370067 522.702483,143.212734 522.702483,141.364734 L522.702483,141.271401 L523.990483,141.271401 L523.990483,141.327401 C523.990483,142.522067 525.110483,143.306067 526.678483,143.306067 C528.153149,143.306067 529.217149,142.727401 529.217149,141.495401 C529.217149,140.823401 528.787816,140.338067 528.022483,140.170067 L525.185149,139.516734 C523.766483,139.199401 522.945149,138.340734 522.945149,137.090067 C522.945149,135.298067 524.457149,134.364734 526.566483,134.364734 C528.563816,134.364734 530.113149,135.578067 530.113149,137.351401 L530.113149,137.444734 L528.825149,137.444734 L528.825149,137.388734 C528.825149,136.212734 527.966483,135.428734 526.547816,135.428734 C525.222483,135.428734 524.251816,135.988734 524.251816,137.052734 C524.251816,137.706067 524.569149,138.116734 525.259816,138.284734 L528.190483,138.975401 C529.665149,139.330067 530.542483,140.058067 530.542483,141.439401 C530.542483,143.138067 528.899816,144.370067 526.659816,144.370067 Z" id="Moments" fill="#666666"></path>
                <ellipse id="Oval-1" fill="#FF6A4F" cx="154.482759" cy="13.8202247" rx="8.27586207" ry="8.29213483"></ellipse>
                <ellipse id="Oval-10" fill="#E6E6E6" opacity="0.5" cx="491.034483" cy="223.88764" rx="16.5517241" ry="16.5842697"></ellipse>
                <ellipse id="Oval-1" fill="#FF6A4F" cx="264.827586" cy="13.8202247" rx="8.27586207" ry="8.29213483"></ellipse>
                <g id="Group" opacity="0.5" transform="translate(286.896552, 33.168539)" fill="#E6E6E6">
                    <ellipse id="Oval-17" cx="8.27586207" cy="88.4494382" rx="8.27586207" ry="8.29213483"></ellipse>
                    <ellipse id="Oval-18" cx="8.27586207" cy="60.8089888" rx="8.27586207" ry="8.29213483"></ellipse>
                    <ellipse id="Oval-16" cx="8.27586207" cy="116.089888" rx="8.27586207" ry="8.29213483"></ellipse>
                    <ellipse id="Oval-15" cx="8.27586207" cy="143.730337" rx="8.27586207" ry="8.29213483"></ellipse>
                    <ellipse id="Oval-14" cx="8.27586207" cy="171.370787" rx="8.27586207" ry="8.29213483"></ellipse>
                    <ellipse id="Oval-13" cx="8.27586207" cy="199.011236" rx="8.27586207" ry="8.29213483"></ellipse>
                    <rect id="Rectangle-25" x="0" y="0" width="126.896552" height="38.6966292" rx="5.51724138"></rect>
                </g>
                <g id="Path-1-+-Path-2" transform="translate(124.137931, 8.292135)" stroke="#FF6A4F" stroke-width="1.37931034">
                    <polyline id="Path-1" points="5.51724138 9.81986028e-15 0 5.52808989 5.51724138 11.0561798"></polyline>
                    <path d="M-1.96011789e-14,5.52808989 L30.3448276,5.52808989" id="Path-2"></path>
                </g>
                <g id="Path-1-+-Path-5" transform="translate(280.000000, 13.820225) scale(-1, 1) translate(-280.000000, -13.820225) translate(264.827586, 8.292135)" stroke="#FF6A4F" stroke-width="1.37931034">
                    <polyline id="Path-1" points="5.51724138 9.81986028e-15 0 5.52808989 5.51724138 11.0561798"></polyline>
                    <path d="M-1.96011789e-14,5.52808989 L30.3448276,5.52808989" id="Path-2"></path>
                </g>
                <ellipse id="Oval-9" fill="#FF6A4F" cx="405.517241" cy="13.8202247" rx="8.27586207" ry="8.29213483"></ellipse>
                <g id="Path-1-+-Path-7" transform="translate(420.689655, 13.820225) scale(-1, 1) translate(-420.689655, -13.820225) translate(405.517241, 8.292135)" stroke="#FF6A4F" stroke-width="1.37931034">
                    <polyline id="Path-1" points="5.51724138 9.81986028e-15 0 5.52808989 5.51724138 11.0561798"></polyline>
                    <path d="M-1.96011789e-14,5.52808989 L30.3448276,5.52808989" id="Path-2"></path>
                </g>
            </g>
        </g>
    </g>
</svg>