<?xml version="1.0" encoding="UTF-8" standalone="no"?>
<svg width="218px" height="120px" viewBox="0 0 218 120" version="1.1" xmlns="http://www.w3.org/2000/svg" xmlns:xlink="http://www.w3.org/1999/xlink">
    <!-- Generator: Sketch 3.8.3 (29802) - http://www.bohemiancoding.com/sketch -->
    <title>akropolis</title>
    <desc>Created with Sketch.</desc>
    <defs></defs>
    <g id="Page-1" stroke="none" stroke-width="1" fill="none" fill-rule="evenodd">
        <g id="Rectangle-1">
            <rect x="0" y="0" width="218" height="120"></rect>
            <path d="M205.571,63.3780273 C205.571,64.988972 205.097059,66.3948459 204.140518,67.595649 C203.187167,68.7987307 201.890208,69.6267608 200.257389,70.0838407 C198.899365,70.4812223 197.440173,70.6812802 195.884369,70.6812802 C194.664882,70.6812802 193.508739,70.5463892 192.41594,70.2770629 C191.32314,70.0091038 190.323762,69.5670624 189.41735,68.9518502 C188.513671,68.3361823 187.799113,67.5446092 187.276411,66.5816881 C186.755531,65.6196785 186.436077,64.5514877 186.317136,63.3780273 L192.963706,63.3780273 C193.121383,63.9740996 193.338758,64.4266224 193.61173,64.7342285 C193.886525,65.0422904 194.267501,65.2605768 194.748733,65.3909106 C195.230422,65.5189659 195.738086,65.5841329 196.269447,65.5841329 C197.156719,65.5841329 197.855327,65.3950121 198.364814,65.0185933 C198.739866,64.7602042 198.928531,64.3910768 198.928531,63.9144013 C198.928531,63.5375268 198.789538,63.2499721 198.513832,63.0490027 C198.121008,62.7331938 197.402349,62.445639 196.358311,62.1872499 C195.569472,62.0081548 194.792937,61.819034 194.025517,61.6203432 C192.512095,61.1828589 191.465323,60.8552015 190.895682,60.6369151 C189.772805,60.1789237 188.89647,59.6425498 188.26713,59.0259704 C187.497887,58.2530816 187.016655,57.2691977 186.820242,56.0770531 L186.731378,54.9154413 C186.731378,53.4639961 187.1479,52.1861775 187.986411,51.0833526 C188.820822,49.9805277 189.969673,49.172549 191.427043,48.6562264 C192.688,48.2182864 194.084304,48 195.621423,48 C196.89833,48 198.081361,48.1339796 199.16459,48.4028501 C200.248731,48.6698978 201.225779,49.1032806 202.101203,49.6993529 C202.97845,50.2940581 203.632398,50.9999572 204.065325,51.8129487 C204.499619,52.6291303 204.794921,53.6239513 204.953965,54.7960445 L198.484211,54.7960445 C198.247696,53.7606651 197.599672,53.1545671 196.53695,52.9768391 L195.529825,52.8875194 C195.116493,52.8875194 194.75329,52.9321793 194.438849,53.0224104 C194.123951,53.1112744 193.867385,53.275331 193.670972,53.5141245 C193.47456,53.7520066 193.375671,54.0208771 193.375671,54.3175461 C193.375671,54.6356336 193.485497,54.9245555 193.700594,55.1824889 C194.016858,55.499665 194.956994,55.8537538 196.520544,56.2401983 C198.088196,56.6289213 199.006913,56.849942 199.283075,56.9110075 C200.915894,57.308389 202.234271,57.87484 203.238662,58.6089932 C204.520126,59.5445715 205.26704,60.725779 205.485782,62.1567171 L205.571,63.3780273 L205.571,63.3780273 Z M176.071801,48.6256936 L183.040561,48.6256936 L183.040561,70.0546751 L176.071801,70.0546751 L176.071801,48.6256936 Z M172.999386,70.0546751 L156.285664,70.0546751 L156.285664,48.6256936 L163.105861,48.6256936 L163.105861,64.3614555 L172.999386,64.3614555 L172.999386,70.0546751 L172.999386,70.0546751 Z M146.126459,59.354995 C146.126459,57.5863738 145.850297,56.224704 145.298429,55.2727201 C144.58934,54.059157 143.42864,53.4544261 141.81405,53.4544261 C140.199915,53.4544261 139.048329,54.0491313 138.358835,55.2403645 C137.807879,56.1969056 137.530805,57.5667781 137.530805,59.354995 C137.530805,61.1427562 137.797853,62.5030588 138.330581,63.4390929 C139.01734,64.649466 140.179408,65.2560197 141.81405,65.2560197 C143.448235,65.2560197 144.61167,64.6604031 145.298429,63.4668913 C145.850297,62.5126288 146.126459,61.1427562 146.126459,59.354995 L146.126459,59.354995 Z M153.004988,59.354995 C153.004988,62.8516791 152.004243,65.6046399 149.993182,67.6097761 C147.985312,69.6162794 145.259694,70.6202147 141.81405,70.6202147 C138.388457,70.6202147 135.671497,69.6162794 133.663627,67.6097761 C131.655756,65.6046399 130.651365,62.8516791 130.651365,59.354995 C130.651365,55.9175536 131.664415,53.1741628 133.694615,51.1289239 C135.720258,49.0814064 138.428559,48.0587869 141.81405,48.0587869 C145.240554,48.0587869 147.960248,49.0791278 149.979967,51.1138853 C151.996951,53.1504657 153.004988,55.8970466 153.004988,59.354995 L153.004988,59.354995 Z M122.325037,56.0770531 C122.325037,55.1824889 122.027913,54.557251 121.437309,54.1990608 C120.983875,53.9201646 120.285267,53.7811722 119.34103,53.7811722 L116.978159,53.8714033 L116.978159,58.2530816 L119.193379,58.3127799 C120.137616,58.3127799 120.855364,58.1833575 121.351635,57.9249684 C121.996924,57.5863738 122.325037,56.9707058 122.325037,56.0770531 L122.325037,56.0770531 Z M128.821223,56.0770531 C128.821223,58.5210407 128.082968,60.3871845 126.604636,61.6800416 C125.206509,62.8926933 123.268363,63.4987912 120.787462,63.4987912 L116.978159,63.4987912 L116.978159,70.0546751 L110.157506,70.0546751 L110.157506,48.6256936 L118.720349,48.6256936 C120.374587,48.6256936 121.613214,48.6840249 122.4417,48.8034216 C123.839371,49.0034795 125.016021,49.4245581 125.969828,50.0693917 C126.925002,50.7174152 127.638192,51.5609396 128.110767,52.6031547 C128.583341,53.6476483 128.821223,54.804703 128.821223,56.0770531 L128.821223,56.0770531 Z M100.205195,59.354995 C100.205195,57.5863738 99.9313119,56.224704 99.3780766,55.2727201 C98.6694432,54.059157 97.5087428,53.4544261 95.8941525,53.4544261 C94.278195,53.4544261 93.127976,54.0491313 92.4384825,55.2403645 C91.8875258,56.1969056 91.6113639,57.5667781 91.6113639,59.354995 C91.6113639,61.1427562 91.8779558,62.5030588 92.4093169,63.4390929 C93.0983546,64.649466 94.2599665,65.2560197 95.8941525,65.2560197 C97.5278827,65.2560197 98.6890389,64.6604031 99.3780766,63.4668913 C99.9313119,62.5126288 100.205195,61.1427562 100.205195,59.354995 L100.205195,59.354995 Z M107.086458,59.354995 C107.086458,62.8516791 106.082067,65.6046399 104.075108,67.6097761 C102.065415,69.6162794 99.339341,70.6202147 95.8941525,70.6202147 C92.4690153,70.6202147 89.7506886,69.6162794 87.7437296,67.6097761 C85.734492,65.6046399 84.7314682,62.8516791 84.7314682,59.354995 C84.7314682,55.9175536 85.7449734,53.1741628 87.7724395,51.1289239 C89.7999056,49.0814064 92.5077509,48.0587869 95.8941525,48.0587869 C99.3188339,48.0587869 102.041262,49.0791278 104.058247,51.1138853 C106.077966,53.1504657 107.086458,55.8970466 107.086458,59.354995 L107.086458,59.354995 Z M75.7530153,55.8687924 L75.7530153,55.7188629 C75.7530153,54.8839971 75.3998379,54.3271161 74.6898374,54.0491313 C74.2774173,53.8919104 73.559214,53.8103378 72.534316,53.8103378 L69.4044807,53.8103378 L69.4044807,57.8338258 L72.7111325,57.8338258 C73.6581037,57.8338258 74.3457742,57.7363033 74.7787014,57.5362454 C75.4280921,57.2377535 75.7530153,56.6808725 75.7530153,55.8687924 L75.7530153,55.8687924 Z M82.8712487,70.0546751 L75.9603646,70.0546751 C75.842335,69.5793667 75.7580281,69.0612213 75.707444,68.5043403 C75.6595941,67.9474593 75.6354414,67.3928568 75.6354414,66.8346087 C75.6354414,65.3257437 75.5087532,64.3322899 75.2521869,63.8547029 C74.8383997,63.061307 73.9137585,62.6639254 72.4750733,62.6639254 L69.4044807,62.6639254 L69.4044807,70.0546751 L62.7000345,70.0546751 L62.7000345,48.6256936 L73.0369672,48.6256936 C75.4189778,48.6256936 77.2204104,48.8339544 78.4417206,49.251843 C80.3903484,49.9262979 81.542846,51.1972808 81.8960234,53.0666146 C82.014053,53.7223852 82.0732956,54.3271161 82.0732956,54.8839971 C82.0732956,57.2691977 80.9125952,59.0063748 78.5889158,60.0982626 C79.9068371,60.4578199 80.8228198,60.9941939 81.335041,61.7096629 C81.8472621,62.4260434 82.102917,63.4791956 82.102917,64.8695752 L82.1908695,67.8499367 C82.1908695,68.3056495 82.2255037,68.6392313 82.294772,68.8465806 C82.3626732,69.0548413 82.554984,69.1915551 82.8712487,69.2480635 L82.8712487,70.0546751 L82.8712487,70.0546751 Z M61.4012531,70.0546751 L53.014771,70.0546751 L47.1670648,61.4726923 L44.8930581,63.229465 L44.8930581,70.0546751 L38.1316477,70.0546751 L38.1316477,48.6256936 L44.8930581,48.6256936 L44.8930581,55.7188629 L52.1575753,48.6256936 L60.3681522,48.6256936 L52.0395457,56.5236516 L61.4012531,70.0546751 L61.4012531,70.0546751 Z M27.115703,62.7236238 L24.5463944,55.3000628 L21.9182989,62.7236238 L27.115703,62.7236238 L27.115703,62.7236238 Z M36.1219544,70.0546751 L29.3295556,70.0546751 L28.4732713,67.2224203 L20.5593634,67.2224203 L19.6743692,70.0546751 L13,70.0546751 L21.0620146,48.6256936 L28.0016086,48.6256936 L36.1219544,70.0546751 L36.1219544,70.0546751 Z" id="Fill-26" fill="#9B9B9B"></path>
        </g>
    </g>
</svg>