<?xml version="1.0" encoding="UTF-8" standalone="no"?>
<svg width="218px" height="120px" viewBox="0 0 218 120" version="1.1" xmlns="http://www.w3.org/2000/svg" xmlns:xlink="http://www.w3.org/1999/xlink">
    <!-- Generator: Sketch 3.8.3 (29802) - http://www.bohemiancoding.com/sketch -->
    <title>brusselsairlines</title>
    <desc>Created with Sketch.</desc>
    <defs></defs>
    <g id="Page-1" stroke="none" stroke-width="1" fill="none" fill-rule="evenodd">
        <g id="Rectangle-1-+-Shape">
            <rect id="Rectangle-1" x="0" y="0" width="218" height="120"></rect>
            <path d="M11.806367,72.9819497 C11.806367,74.3710903 10.2863346,75.490003 8.39896117,75.490003 C6.51792117,75.490003 5,74.3710903 5,72.9819497 C5,71.5991425 6.52003232,70.4675629 8.40318348,70.4675629 C10.2863346,70.4633405 11.806367,71.5949202 11.806367,72.9819497 Z M14.1835286,66.9904889 C14.1835286,68.1537359 12.8535003,69.0910891 11.2025763,69.1016449 C9.54743004,69.0910891 8.21317944,68.1537359 8.21317944,66.9904889 C8.21317944,65.8272419 9.54743004,64.9046668 11.2025763,64.9046668 C12.8535003,64.8983333 14.1835286,65.8272419 14.1835286,66.9904889 Z M16.1363479,61.9912715 C16.1363479,62.9222913 15.000546,63.6801963 13.5966273,63.6844186 C12.1884862,63.6844186 11.0463508,62.9265136 11.0463508,61.9912715 C11.0463508,61.0623628 12.1905974,60.3023467 13.5966273,60.3023467 C15.000546,60.3023467 16.1363479,61.0665852 16.1363479,61.9912715 Z M21.3319029,48.3447591 C21.3276806,48.7121002 20.738668,49.0118844 20.0060969,49.0118844 C19.2735258,49.0118844 18.6760686,48.7121002 18.6760686,48.3447591 C18.6760686,47.9710844 19.2735258,47.6776338 20.0060969,47.6776338 C20.738668,47.6776338 21.3276806,47.9689733 21.3319029,48.3447591 Z M22.8667133,44.4834547 C22.8667133,44.7494604 22.4212594,44.960576 21.8702476,44.960576 C21.3150136,44.960576 20.873782,44.7494604 20.8695597,44.4834547 C20.8695597,44.2216714 21.3150136,44 21.8702476,44 C22.4212594,44 22.8667133,44.2216714 22.8667133,44.4834547 Z M22.1425868,46.313827 C22.1425868,46.6241669 21.631687,46.8669499 20.9877844,46.8711722 C20.3565488,46.8711722 19.8414267,46.6241669 19.8414267,46.313827 C19.8414267,46.0098205 20.3565488,45.7628153 20.9877844,45.7628153 C21.6295759,45.7628153 22.1425868,46.0098205 22.1425868,46.313827 Z M17.7851608,57.600067 C17.7851608,58.3537497 16.8161402,58.9617626 15.6191147,58.9617626 C14.4305339,58.9617626 13.4594021,58.3537497 13.4594021,57.600067 C13.4594021,56.8506066 14.4284227,56.2362602 15.6191147,56.2362602 C16.8161402,56.2383714 17.7851608,56.8506066 17.7851608,57.600067 Z M19.2144134,53.9414336 C19.2144134,54.5367796 18.3889514,55.028679 17.3608184,55.028679 C16.3411301,55.028679 15.5156681,54.5367796 15.5156681,53.9414336 C15.5156681,53.3334207 16.3411301,52.8436325 17.3608184,52.8436325 C18.3889514,52.8436325 19.2144134,53.3334207 19.2144134,53.9414336 Z M19.7464247,72.5639408 C19.7464247,73.8158563 18.3636175,74.8186554 16.6578035,74.8186554 C14.9519894,74.8186554 13.5649599,73.811634 13.5649599,72.5639408 C13.5649599,71.3162476 14.9519894,70.3007815 16.6535812,70.3007815 C18.3636175,70.3007815 19.7464247,71.3141364 19.7464247,72.5639408 Z M26.5422359,70.6892342 C26.5422359,71.7891465 25.2945427,72.675832 23.75551,72.675832 C22.2206995,72.675832 20.9730063,71.7891465 20.9730063,70.6892342 C20.9730063,69.589322 22.2206995,68.6899695 23.75551,68.6899695 C25.2924315,68.6878583 26.5422359,69.5872108 26.5422359,70.6892342 Z M30.0108652,66.8574861 C30.0108652,67.7188377 28.9911769,68.4239638 27.7244833,68.4239638 C26.4725677,68.4239638 25.4528794,67.7188377 25.4528794,66.8574861 C25.4528794,65.9813563 26.4725677,65.2762302 27.7244833,65.2762302 C28.9869545,65.2762302 30.0108652,65.9813563 30.0108652,66.8574861 Z M26.692128,60.0257852 C26.692128,60.604242 25.9468899,61.0665852 25.0369817,61.0665852 C24.1144065,61.0665852 23.3691684,60.604242 23.3691684,60.0257852 C23.3691684,59.4515508 24.1144065,58.9765407 25.0369817,58.9765407 C25.9490011,58.9765407 26.692128,59.4494397 26.692128,60.0257852 Z M20.4367727,50.8823686 C20.4367727,51.3637121 19.7358689,51.7563872 18.8660726,51.7563872 C18.0026098,51.7563872 17.2995949,51.361601 17.2995949,50.8823686 C17.2995949,50.4031362 18.0026098,50.0146835 18.8660726,50.0146835 C19.7337578,50.0146835 20.4367727,50.4052473 20.4367727,50.8823686 Z M29.4028523,62.8821793 C29.4028523,63.5873054 28.5393895,64.1552064 27.4648111,64.1552064 C26.3986773,64.1552064 25.5331033,63.5830831 25.5331033,62.8821793 C25.5331033,62.1897202 26.3986773,61.6133746 27.4711445,61.6133746 C28.5372783,61.6175969 29.4028523,62.1897202 29.4028523,62.8821793 Z M40.2309714,72.4562718 L40.2309714,53.8738766 L43.1950345,53.8738766 L43.1950345,60.7372448 C44.1450547,60.4036822 45.0486294,60.2369008 45.8973142,60.2369008 C47.7509091,60.2369008 49.1822729,60.8512472 50.2019613,62.0841623 C51.0844245,63.1545184 51.5298784,64.5584372 51.5298784,66.2769182 C51.5298784,68.5316328 50.7783068,70.2311134 49.2709415,71.3500261 C47.9641359,72.3443805 46.1464306,72.8341687 43.824159,72.8341687 C42.8340268,72.8341687 41.632779,72.7138328 40.2309714,72.4562718 Z M43.1950345,63.0109598 L43.1950345,70.3577827 C43.6172657,70.4232286 44.0014961,70.4633405 44.3413922,70.4633405 C47.1091177,70.4633405 48.494036,69.1290899 48.494036,66.4690334 C48.494036,65.1748947 48.1478065,64.1974295 47.4701254,63.5429712 C46.8684459,62.9645144 46.0704289,62.6689526 45.0486294,62.6689526 C44.4659504,62.6731749 43.8494928,62.782955 43.1950345,63.0109598 Z M54.5762765,72.675832 L54.5762765,61.3135904 C56.301091,60.6105755 58.0427947,60.2580124 59.8098322,60.2580124 C60.6542946,60.2580124 61.4523116,60.3720148 62.1933274,60.6063531 L62.1933274,63.108073 C61.5642029,62.8758459 60.8675214,62.7681769 60.1159499,62.7681769 C59.2440424,62.7681769 58.3911354,62.9222913 57.546673,63.2389647 L57.546673,72.6821655 L54.5762765,72.675832 Z M64.1588136,60.4564611 L67.1292101,60.4564611 L67.1292101,67.7505051 C67.1292101,68.7701934 67.3466592,69.4647637 67.7688904,69.8215491 C68.1383427,70.144556 68.7738006,70.3050038 69.6604862,70.3050038 C70.2579433,70.3050038 70.916624,70.2226688 71.6449728,70.0791101 L71.6449728,60.4564611 L74.6217028,60.4564611 L74.6217028,72.2514897 C72.6329938,72.6399424 70.8997347,72.8320576 69.4071474,72.8320576 C67.5261074,72.8320576 66.1580783,72.4520495 65.3051713,71.700478 C64.8597174,71.267691 64.5578221,70.7483466 64.380485,70.1192221 C64.2327041,69.5576546 64.1588136,68.8166389 64.1588136,67.8729521 L64.1588136,60.4564611 Z M77.8792165,72.2536008 L77.8792165,69.5470988 C79.0466858,70.27967 80.1508204,70.6470111 81.1895091,70.6470111 C82.5110928,70.6470111 83.1739958,70.2332245 83.1739958,69.4035402 C83.1739958,68.8377504 82.7813207,68.3880742 82.0065265,68.0270665 L80.8052787,67.4570544 C79.6969218,66.9440435 78.928461,66.3761425 78.4724513,65.7660184 C78.0776652,65.2340071 77.8792165,64.5922157 77.8792165,63.8638669 C77.8792165,62.6773972 78.3521154,61.7611555 79.306358,61.0982525 C80.1402646,60.5261292 81.2085095,60.2347897 82.527982,60.2347897 C83.6131162,60.2347897 84.6708054,60.4585722 85.6757156,60.9061373 L85.6757156,63.4627472 C84.6750277,62.8462897 83.6954513,62.5338386 82.7369865,62.5338386 C81.4154028,62.5338386 80.7588333,62.9286248 80.7588333,63.7160859 C80.7588333,64.0306482 80.8918361,64.3029873 81.1620641,64.5119918 C81.4111805,64.704107 81.9790815,64.9933353 82.8552112,65.4176777 C84.0733482,66.0362464 84.8945879,66.5893693 85.3062633,67.0538236 C85.8340523,67.6660588 86.1042803,68.4028523 86.1042803,69.2810932 C86.1042803,70.5140083 85.6123809,71.4661396 84.6475826,72.1353761 C83.8031202,72.7243886 82.6926522,73.0199505 81.3056227,73.0199505 C80.119153,73.013617 78.9749065,72.7581671 77.8792165,72.2536008 Z M88.4793308,72.2536008 L88.4793308,69.5470988 C89.6573559,70.27967 90.7636016,70.6470111 91.798068,70.6470111 C93.1196517,70.6470111 93.7825547,70.2332245 93.7825547,69.4035402 C93.7825547,68.8377504 93.3877685,68.3880742 92.6045296,68.0270665 L91.4138377,67.4570544 C90.3012584,66.9440435 89.5306865,66.3761425 89.0810103,65.7660184 C88.6820018,65.2340071 88.4793308,64.5922157 88.4793308,63.8638669 C88.4793308,62.6773972 88.9606744,61.7611555 89.9128057,61.0982525 C90.7382677,60.5261292 91.8044015,60.2347897 93.1344298,60.2347897 C94.2237863,60.2347897 95.2666974,60.4585722 96.2863857,60.9061373 L96.2863857,63.4627472 C95.2793643,62.8462897 94.3061214,62.5338386 93.3392119,62.5338386 C92.0218506,62.5338386 91.3652811,62.9286248 91.3652811,63.7160859 C91.3652811,64.0306482 91.4982839,64.3029873 91.7685119,64.5119918 C92.0218506,64.704107 92.5791958,64.9933353 93.4637701,65.4176777 C94.6819071,66.0362464 95.4989245,66.5893693 95.9105999,67.0538236 C96.4447224,67.6660588 96.7043946,68.4028523 96.7043946,69.2810932 C96.7043946,70.5140083 96.2167176,71.4661396 95.2498081,72.1353761 C94.409568,72.7243886 93.2927665,73.0199505 91.9120705,73.0199505 C90.7277119,73.013617 89.5813542,72.7581671 88.4793308,72.2536008 Z M110.220015,67.1298252 L101.838726,67.1298252 C101.963284,69.3887621 103.227867,70.5308975 105.621918,70.5308975 C107.08706,70.5308975 108.417088,70.1065552 109.599335,69.2346477 L109.599335,71.727923 C108.227084,72.5576073 106.749275,72.9692827 105.168019,72.9692827 C103.086419,72.9692827 101.492496,72.3549363 100.392584,71.0987985 C99.4383416,70.0242201 98.9612204,68.5590778 98.9612204,66.735039 C98.9612204,64.6449946 99.5713445,62.9919594 100.806371,61.7696001 C101.885171,60.7140221 103.257423,60.1820108 104.91468,60.1820108 C106.08215,60.1820108 107.097616,60.4754615 107.956856,61.0349178 C108.71265,61.5289283 109.272106,62.1918313 109.639447,63.0172933 C110.032122,63.8955342 110.217904,65.2487852 110.217904,67.0791575 L110.220015,67.1298252 Z M102.030841,65.0038911 L107.350954,65.0038911 C107.217952,63.2980771 106.39249,62.44517 104.870346,62.44517 C104.063884,62.44517 103.413648,62.7048422 102.90486,63.2115197 C102.450961,63.6590847 102.163844,64.2502084 102.030841,65.0038911 Z M113.276969,53.8738766 L116.251588,53.8738766 L116.251588,72.6800543 L113.276969,72.6800543 L113.276969,53.8738766 Z M119.538658,72.2536008 L119.538658,69.5470988 C120.706127,70.27967 121.814484,70.6470111 122.855284,70.6470111 C124.170534,70.6470111 124.833437,70.2332245 124.833437,69.4035402 C124.833437,68.8377504 124.442873,68.3880742 123.659634,68.0270665 L122.466831,67.4570544 C121.360586,66.9440435 120.585791,66.3761425 120.136115,65.7660184 C119.732884,65.2340071 119.538658,64.5922157 119.538658,63.8638669 C119.538658,62.6773972 120.013668,61.7611555 120.974244,61.0982525 C121.801817,60.5261292 122.867951,60.2347897 124.189535,60.2347897 C125.278891,60.2347897 126.326025,60.4585722 127.330935,60.9061373 L127.330935,63.4627472 C126.33658,62.8462897 125.352782,62.5338386 124.402761,62.5338386 C123.070622,62.5338386 122.422497,62.9286248 122.422497,63.7160859 C122.422497,64.0306482 122.553389,64.3029873 122.823617,64.5119918 C123.062177,64.704107 123.636412,64.9933353 124.514653,65.4176777 C125.734901,66.0362464 126.554029,66.5893693 126.967816,67.0538236 C127.495605,67.6660588 127.767944,68.4028523 127.767944,69.2810932 C127.767944,70.5140083 127.280267,71.4661396 126.307024,72.1353761 C125.460451,72.7243886 124.347871,73.0199505 122.969286,73.0199505 C121.776483,73.013617 120.642793,72.7581671 119.538658,72.2536008 Z M135.853672,64.0433151 L135.853672,61.4867052 C137.405371,60.6506874 138.995072,60.2369008 140.59955,60.2369008 C142.356032,60.2369008 143.498167,60.7520229 144.025956,61.7843782 C144.289851,62.3058337 144.429187,63.2685209 144.429187,64.6872177 L144.429187,72.4330491 C142.328587,72.7391667 140.618551,72.8827253 139.299078,72.8827253 C137.757934,72.8827253 136.664355,72.5744965 135.999341,71.9390386 C135.420885,71.3774711 135.140101,70.5435645 135.140101,69.4330964 C135.140101,67.7652832 135.836782,66.5935916 137.23859,65.9159105 C138.163276,65.462012 139.569306,65.1390051 141.446124,64.9278895 L141.693129,64.9067779 L141.693129,64.4697686 C141.693129,63.743531 141.555904,63.2600762 141.25612,63.0109598 C140.992225,62.7850661 140.559438,62.6731749 139.938758,62.6731749 C138.655176,62.6731749 137.285035,63.1312957 135.853672,64.0433151 Z M141.75013,70.3978947 L141.75013,67.1446033 C140.223765,67.2712727 139.180853,67.4971664 138.606619,67.8476182 C138.110497,68.1537359 137.869826,68.6013009 137.869826,69.211425 C137.869826,70.1361114 138.401837,70.5921211 139.491193,70.5921211 C140.094984,70.5984545 140.844444,70.5308975 141.75013,70.3978947 Z M148.060376,54.9716778 L151.11733,54.9716778 L151.11733,58.1510787 L148.060376,58.1510787 L148.060376,54.9716778 Z M148.111043,60.4839061 L151.08144,60.4839061 L151.08144,72.6800543 L148.111043,72.6800543 L148.111043,60.4839061 Z M154.911077,72.675832 L154.911077,61.3135904 C156.635891,60.6105755 158.377595,60.2580124 160.155188,60.2580124 C160.991206,60.2580124 161.785001,60.3720148 162.53235,60.6063531 L162.53235,63.108073 C161.896892,62.8758459 161.202322,62.7681769 160.454973,62.7681769 C159.57462,62.7681769 158.723825,62.9222913 157.885696,63.2389647 L157.885696,72.6821655 L154.911077,72.675832 Z M164.920067,53.8738766 L167.896797,53.8738766 L167.896797,72.6800543 L164.920067,72.6800543 L164.920067,53.8738766 Z M171.705323,54.9716778 L174.766499,54.9716778 L174.766499,58.1510787 L171.705323,58.1510787 L171.705323,54.9716778 Z M171.751768,60.4839061 L174.724276,60.4839061 L174.724276,72.6800543 L171.751768,72.6800543 L171.751768,60.4839061 Z M178.562358,72.675832 L178.562358,61.0771409 C180.481398,60.5240181 182.322326,60.2559012 184.097809,60.2559012 C186.016849,60.2559012 187.3701,60.6654655 188.15545,61.5014833 C188.807798,62.2044982 189.137138,63.3149663 189.137138,64.8413321 L189.137138,72.675832 L186.160408,72.675832 L186.160408,65.0440031 C186.160408,64.1193167 185.953515,63.4944146 185.533395,63.1439627 C185.155498,62.8357339 184.551707,62.6731749 183.728356,62.6731749 C183.027453,62.6731749 182.29277,62.7892885 181.539088,63.0109598 L181.539088,72.675832 L178.562358,72.675832 Z M203.324106,67.1298252 L194.940706,67.1298252 C195.065264,69.3887621 196.323513,70.5308975 198.711231,70.5308975 C200.18904,70.5308975 201.514846,70.1065552 202.697093,69.2346477 L202.697093,71.727923 C201.329064,72.5576073 199.84281,72.9692827 198.269999,72.9692827 C196.19051,72.9692827 194.594476,72.3549363 193.490342,71.0987985 C192.544544,70.0242201 192.056867,68.5590778 192.056867,66.735039 C192.056867,64.6449946 192.675435,62.9919594 193.899906,61.7696001 C194.978707,60.7140221 196.353069,60.1820108 198.006104,60.1820108 C199.177796,60.1820108 200.191151,60.4754615 201.052503,61.0349178 C201.810408,61.5289283 202.365642,62.1918313 202.743538,63.0172933 C203.123547,63.8955342 203.315662,65.2487852 203.315662,67.0791575 L203.324106,67.1298252 Z M195.137043,65.0038911 L200.457157,65.0038911 C200.324154,63.2980771 199.498692,62.44517 197.970215,62.44517 C197.170087,62.44517 196.513517,62.7048422 196.00684,63.2115197 C195.552941,63.6590847 195.270046,64.2502084 195.137043,65.0038911 Z M205.785714,72.2536008 L205.785714,69.5470988 C206.957406,70.27967 208.06154,70.6470111 209.100229,70.6470111 C210.419702,70.6470111 211.080494,70.2332245 211.080494,69.4035402 C211.080494,68.8377504 210.683596,68.3880742 209.902469,68.0270665 L208.707554,67.4570544 C207.607642,66.9440435 206.826514,66.3761425 206.374727,65.7660184 C205.982052,65.2340071 205.785714,64.5922157 205.785714,63.8617557 C205.785714,62.675286 206.254391,61.7590443 207.212856,61.0961413 C208.04254,60.5240181 209.108674,60.2326785 210.432369,60.2326785 C211.519614,60.2326785 212.573081,60.4564611 213.573769,60.9040261 L213.573769,63.4606361 C212.581525,62.8441785 211.593504,62.5317274 210.628706,62.5317274 C209.321901,62.5317274 208.661109,62.9265136 208.661109,63.7139748 C208.661109,64.028537 208.794112,64.3008762 209.058006,64.5098806 C209.307123,64.7019958 209.879246,64.9912242 210.755376,65.4155665 C211.975624,66.0341352 212.796863,66.5872581 213.208539,67.0517124 C213.736328,67.6639477 213.996,68.4007411 213.996,69.278982 C213.996,70.5118971 213.512545,71.4640285 212.547747,72.1332649 C211.696951,72.7222775 210.588594,73.0178393 209.207898,73.0178393 C208.027762,73.013617 206.879293,72.7581671 205.785714,72.2536008 Z" id="Shape" fill="#9B9B9B"></path>
        </g>
    </g>
</svg>