<?xml version="1.0" encoding="UTF-8" standalone="no"?>
<svg width="218px" height="120px" viewBox="0 0 218 120" version="1.1" xmlns="http://www.w3.org/2000/svg" xmlns:xlink="http://www.w3.org/1999/xlink">
    <!-- Generator: Sketch 3.8.3 (29802) - http://www.bohemiancoding.com/sketch -->
    <title>cocacola</title>
    <desc>Created with Sketch.</desc>
    <defs></defs>
    <g id="Page-1" stroke="none" stroke-width="1" fill="none" fill-rule="evenodd">
        <g id="Rectangle-1">
            <rect x="0" y="0" width="218" height="120"></rect>
            <path d="M89.2818726,80.5582982 C82.9561749,76.4833996 74.3713905,75.7683374 60.5263829,79.609486 C45.7667757,83.0779098 40.8457025,85.3012965 34.3829423,80.8379481 C31.9000932,78.6453738 31.009931,75.1151126 31.6746308,70.0299894 C33.2163177,61.7403674 37.3825912,53.7629078 44.7829011,44.9139859 C48.9136871,40.3108126 52.7452732,36.360439 57.8048964,34.7741271 C61.682595,33.7789899 61.3200701,36.8264514 60.8508703,37.2622887 C60.3557455,37.2622887 59.5240208,37.3402762 58.8812085,37.759751 C58.3595212,38.1643509 56.9274842,39.4708004 56.8505593,41.2281748 C56.7396343,43.9184238 59.5238083,43.3584865 60.7246454,41.8813995 C62.0189824,40.2168876 63.9319067,37.0293888 62.4271947,34.0586398 C61.796495,33.0012402 60.7067954,32.270453 59.3538084,32.0216156 C54.720885,31.7568407 50.4060741,33.9653524 46.424038,36.4069765 C37.7153661,42.4566368 30.7489811,50.8393338 26.8071075,60.0150805 C24.5344208,65.551341 22.4791216,73.4818382 25.5599455,79.9365234 C27.9431321,84.4151718 32.8909803,86.7941084 38.7940157,86.2966461 C42.9341517,85.8616588 47.9404374,84.5235467 51.3074987,83.715622 C54.67456,82.9064223 71.9102163,76.9817119 77.5733393,87.2932707 C77.5733393,87.2932707 79.4565136,83.6376346 84.1627495,83.5596471 C88.0319481,83.2026472 93.6136836,84.6797342 97.6785946,87.6651456 C96.3243326,85.6285463 92.484884,82.6269849 89.2818726,80.5582982 Z M62.2839698,45.9558731 C59.060346,43.8408613 52.5812233,47.8843099 47.3917626,54.8200949 C42.6462143,61.0414552 40.5970776,68.2721901 42.8270518,71.6158764 C46.1443881,75.5503125 52.3026359,69.827477 54.9214849,66.7642906 L55.2593598,66.4062282 C57.0403217,64.4933039 58.4162587,62.1915047 59.7479957,59.982993 C59.7479957,59.982993 60.9719953,57.9612688 61.0304328,57.8677688 C61.7869325,57.7283689 62.6981322,57.5105564 63.7249318,57.214969 C63.7102693,57.261294 59.7964457,63.8398667 60.1957331,67.1051405 C60.3200455,68.1013401 60.225058,71.7404013 63.7780568,72.8443384 C68.5134051,73.6380256 72.2946287,69.967302 75.6304525,66.7013906 C75.6304525,66.7013906 76.1988898,66.1576033 76.5204022,65.8471409 C76.4390147,66.1729033 76.3329773,66.6074657 76.3329773,66.6074657 C74.9466278,71.4286639 76.8153521,72.4401636 77.9843142,72.8135259 C81.5171254,73.8405381 85.7375864,68.7080274 85.7511864,68.7080274 C85.6417489,70.3247268 85.321724,71.6622014 87.0259734,72.735326 C88.6345978,73.3112008 90.2625598,72.4333636 91.4999468,71.6090764 C95.9571327,68.46769 99.5479564,63.5510793 102.448368,59.3010808 L100.598344,59.3010808 C100.576456,59.3010808 96.0332077,65.8860284 93.0830712,67.3172154 C93.0783963,67.3172154 92.5416214,67.5928278 92.2322216,67.3748029 C91.8492967,67.047978 92.0003841,66.3688283 92.2368966,65.8877284 C92.2517715,65.8562784 103.62753,46.1260855 103.62753,46.1260855 L98.2563819,46.1260855 C98.2563819,46.1260855 97.6696696,47.0753227 97.6218571,47.1375852 C97.5857321,47.1065602 97.4996697,46.9433602 97.4399572,46.8651602 C94.1122084,42.2619869 86.5763236,49.3424844 80.9027881,57.5534814 C78.7185014,60.7108053 75.9375149,64.2657165 73.0538909,66.8316531 C73.0538909,66.8316531 68.782005,70.7476017 66.9566306,67.9341027 C66.2893809,66.7519656 66.4946558,65.0237037 66.8709932,63.8887416 C68.9962049,57.8390813 72.6582161,52.3487208 76.8253396,49.035847 C78.0017392,48.1189098 79.2803512,47.8537099 79.914876,48.2425848 C80.5194383,48.6008596 80.6169757,49.4865593 80.2344759,50.0932466 C79.2639887,50.0622216 78.4864515,50.3571715 77.8542642,51.0103963 C76.6090147,52.3168458 76.1763648,53.5767578 76.5722522,54.7588949 C78.495589,57.4958939 82.3314251,52.0837334 82.1459127,48.7867971 C82.0796127,47.60466 81.4489129,46.4852104 80.5077508,45.9403606 C79.1050388,45.1009859 76.9651645,45.3183733 75.5803025,45.9875356 C73.7264532,46.6870853 70.7918292,49.1284969 69.0788674,51.0261213 C66.9224181,53.4059079 63.2240695,56.049407 62.0674324,55.7533946 C62.4463197,54.7421074 65.5702811,48.3505347 62.2839698,45.9558731 Z M88.179423,55.4112697 C89.2242851,53.9652077 92.2653715,50.0926091 93.0067838,49.4395968 C95.5002579,47.2459601 96.4968825,48.2111348 96.5831575,48.8949595 C94.2560708,53.0627205 91.5095093,57.8373813 88.9272102,62.1298798 C88.9325227,62.1145798 88.119073,63.3583418 88.119073,63.3583418 C86.9785859,65.0997787 85.8302364,66.5928032 83.9570495,67.6346903 C83.6899371,67.7128903 83.2496373,67.7441278 82.9565999,67.5256778 C82.60385,67.2923529 82.4646626,66.9034781 82.5044,66.4988782 C82.6166,65.1618287 83.978087,61.0724802 88.179423,55.4112697 L88.179423,55.4112697 L88.179423,55.4112697 Z M58.959621,57.9149438 C58.959621,57.9149438 58.912871,58.0554062 58.8897085,58.1013062 C58.8837585,58.1013062 56.5479594,61.9110048 56.5479594,61.9110048 C55.1382349,63.7931167 53.378098,66.1576033 51.1778738,67.2923529 C50.5257115,67.5101653 49.6242868,67.6504153 49.164862,67.0753905 C48.1909749,65.9087659 48.6928997,64.291429 49.100687,62.985192 L49.2449745,62.5185421 C50.4141491,59.3463433 52.2692734,56.5464443 54.0748852,53.9492702 C54.0974102,53.9339702 54.1479852,53.9184577 54.1662602,53.9184577 C54.1705102,53.9339702 54.1777352,53.9339702 54.1809227,53.9652077 C55.3139723,56.1420569 57.4385465,57.1524941 59.0274085,57.6197814 C59.036971,57.6197814 59.047171,57.6352939 59.047171,57.6665314 C59.0473835,57.7128564 59.0214585,57.7755438 58.959621,57.9149438 L58.959621,57.9149438 L58.959621,57.9149438 Z M61.1725952,53.4209954 C61.1623952,53.4520204 60.1321956,55.815657 60.1321956,55.815657 C59.9832331,55.9399695 59.7477832,55.8779195 59.4779083,55.815657 L59.0155085,55.7374571 C57.5634965,55.2867447 56.4682719,54.3224201 56.1306095,53.171733 C55.6648097,50.9321963 57.5779465,49.1748219 58.4209337,48.5375346 C59.2297084,47.9771723 60.4870704,47.6817975 61.2172202,48.2574597 C61.6675075,48.7863721 61.838145,49.4704093 61.838145,50.2173465 C61.8383575,51.2279962 61.5264076,52.3631708 61.1725952,53.4209954 Z M129.074821,60.6364303 C128.556959,59.5169807 127.327434,58.8014935 126.017159,58.8790559 C121.762273,59.2681433 117.600462,62.767167 115.415326,67.7900277 C114.268676,70.3719018 113.642864,72.5022135 113.232527,75.8924373 C114.555551,74.3688129 117.2543,71.8651388 120.316849,70.4964268 C120.316849,70.4964268 120.733561,67.2462404 122.858561,64.353479 C123.66266,63.1556169 125.271922,61.2273926 127.078809,61.7403674 C128.657471,62.2694922 128.102634,66.6395532 126.004409,70.8687266 C124.451885,73.979513 122.076136,77.0907244 119.672337,79.2363361 C117.547125,81.0404605 114.402764,83.2175222 111.65174,81.5381353 C109.919015,80.5121857 109.035228,78.3655114 109.222015,75.5972749 C110.049915,67.7439153 113.624801,61.0565427 118.740737,53.4362954 C124.015835,46.3602604 129.830683,39.0976505 137.664068,35.2246269 C139.261855,34.4160647 140.741492,34.2294898 142.020529,34.7271646 C142.020529,34.7271646 134.667181,38.7706132 131.161995,46.251248 C130.270345,48.1488723 129.030196,50.7141714 130.279058,52.9849456 C130.931645,54.1666576 132.090407,54.2601576 133.023282,54.1978951 C137.319818,53.202333 140.095704,49.1901219 142.363716,45.5202482 C143.678666,42.7364992 144.847415,39.9682627 144.847415,36.8889263 C144.847415,36.5157765 144.828078,36.0183141 144.796415,35.6447393 C146.849164,34.5565272 151.058363,36.484539 151.058363,36.484539 C154.347649,37.5736011 161.351434,42.9392242 163.714008,43.9651738 C164.866395,42.6279118 166.760195,40.6064 167.826519,39.5953254 L166.28292,38.6465132 C163.811546,37.1379762 161.199284,35.7070018 158.628035,34.2919648 C152.78875,31.1042534 148.035764,32.223703 145.616665,33.0947402 C144.66594,33.4366526 143.797028,33.73224 143.797028,33.73224 C142.001829,31.7727782 139.057642,31.9589281 136.888231,32.4880529 C129.086508,34.7273771 121.843023,40.1858626 114.077214,49.6571967 C108.367766,57.0755691 104.826242,63.4830793 102.938605,69.8123895 C101.483618,74.0732255 101.041406,80.3406982 104.592705,84.0577469 C107.612116,87.2137958 111.615827,86.5301835 114.443139,85.3952214 C120.568874,82.3781475 126.074534,75.8771373 128.817908,68.396715 C129.479846,66.1731158 130.21467,63.0317294 129.074821,60.6364303 Z M143.160591,37.2002387 C142.349691,46.5002979 135.120656,51.9594209 133.332044,52.3941958 C132.248082,52.6115832 130.398483,52.1298459 132.049607,48.2268598 C134.481244,42.9698241 138.632642,38.5069007 143.086853,36.2206141 C143.195228,36.6094889 143.192466,36.8576888 143.160591,37.2002387 Z M186.042863,38.3817383 C182.154327,40.5904625 178.123416,42.0207995 173.24378,41.5233372 C171.89143,43.0478116 170.574781,44.6183986 169.361194,46.235523 C176.209854,47.9773848 183.470551,44.1049987 187.519737,40.4196126 C191.803311,36.7025639 193.999923,32.0218281 193.999923,32.0218281 C193.999923,32.0218281 190.789049,35.6917018 186.042863,38.3817383 Z M112.554864,46.126298 L107.454016,46.126298 L104.576767,50.8012963 L109.676553,50.8012963 L112.554864,46.126298 Z M173.22338,80.9911605 C172.674918,81.3643104 171.904393,81.0774355 172.192543,80.2223358 C172.910155,78.0450616 175.763179,73.6080632 175.763179,73.6080632 L183.709826,59.5137932 L178.266428,59.5137932 C178.007816,59.9387931 177.454466,60.9148052 177.454466,60.9148052 C177.202654,60.4953304 176.449554,59.5624557 176.139516,59.3610058 C174.809692,58.5205686 172.858518,58.9179434 171.512543,59.6797557 C165.660508,63.1016419 161.390747,69.862327 158.023473,75.1346626 C158.023473,75.1346626 154.478762,80.9954105 152.511012,81.4312478 C150.97485,81.5557728 151.133375,79.4864485 151.199888,79.0042862 C151.793825,75.5201375 153.173162,72.2079012 154.562912,69.2063397 C157.389373,67.2468779 160.615122,64.6809414 163.546558,61.8661674 C169.908381,55.7848445 175.271667,48.8953845 176.055579,47.3558226 C176.055579,47.3558226 175.207067,47.5270975 174.20513,47.55791 C169.310831,54.3851076 159.295285,64.307579 156.258874,65.784666 C157.603998,62.5493546 166.294607,47.1067727 173.690242,39.7198503 L174.854104,38.5997632 C176.653554,36.8423888 178.518241,35.038477 179.971315,34.7428896 C180.12474,34.7273771 180.322365,34.7428896 180.493002,35.1011645 C180.557815,36.4694515 180.048453,37.4805261 179.464078,38.6312132 L178.645103,40.3110251 C178.645103,40.3110251 179.80514,40.0932127 180.566952,39.8437378 C181.450952,38.1805009 182.429939,36.313689 182.069114,34.0903023 C181.948627,33.3748151 181.430765,32.8306028 180.753952,32.7060778 C178.547778,32.286178 176.143341,33.9186024 174.208742,35.2409894 L174.130542,35.2873144 C164.185333,43.0788366 155.787336,54.3073326 148.445251,69.6415396 C147.913152,70.0452894 145.857215,70.5278768 145.507652,70.2943393 C146.232702,68.8017399 147.145602,66.7951031 147.602477,64.6178289 C147.681527,63.9956291 147.755052,63.3583418 147.755052,62.7363546 C147.755052,61.3978175 147.433752,60.138543 146.234615,59.2679308 C144.828715,58.567956 143.091103,58.8947809 141.919591,59.4232682 C136.671268,61.6005425 132.748732,66.9818905 129.918233,71.4135764 C128.395884,74.2292004 126.877997,77.2447868 126.457672,80.6979106 C126.161659,83.4034596 126.764309,85.1453215 128.302596,86.0165712 C129.884658,86.8247084 131.875782,85.9846962 132.657995,85.5807339 C137.974955,82.7814724 141.689879,77.1676494 144.61834,72.0351387 C144.73479,72.0198387 146.33364,71.9735137 147.542977,71.6619889 C147.559127,71.6619889 147.565927,71.6619889 147.592702,71.6783513 C147.523427,71.9106138 146.898464,73.7774256 146.898464,73.7774256 C145.04249,79.2201861 144.184203,82.9219348 145.937327,85.1142965 C148.442489,88.2093579 152.58985,85.0059216 155.963711,80.7750481 C155.239511,85.8448713 157.867073,86.638346 159.869885,86.2498961 C162.170621,85.6281213 164.734433,83.1703472 165.92422,81.9110727 C165.542145,83.3881596 165.646058,86.0322962 167.738969,86.2964336 C169.173556,86.5616335 170.247106,85.7813338 171.489381,85.112384 C175.945292,82.6860599 181.279252,74.6010753 182.664114,72.2635761 L180.848302,72.2635761 C178.879703,75.2387876 176.374541,79.1396487 173.22338,80.9911605 Z M133.227069,80.4497107 C132.944444,80.0298108 132.850732,79.5705985 132.841382,79.0741987 C132.787195,76.0248248 136.067981,70.5637892 138.383805,67.5887903 L138.388692,67.5887903 C139.35918,69.7137895 141.556854,71.0797391 142.883491,71.6554014 C141.235766,75.3259125 135.584756,83.1867097 133.227069,80.4497107 L133.227069,80.4497107 L133.227069,80.4497107 Z M143.813391,70.0144769 C143.656353,70.1239144 140.885142,69.1904022 140.349642,66.6244657 C139.895317,64.4153165 141.416604,62.6891796 142.888378,61.8189924 C143.520141,61.3211051 144.471715,61.1504676 145.169778,61.3982425 C145.81769,61.8342924 145.993215,62.6124671 145.993215,63.4509918 C145.993215,63.9652416 145.925002,64.4935164 145.864865,64.9754663 C145.864865,64.9754663 145.85339,65.0691787 145.851477,65.0846912 C145.389715,66.8104031 144.683153,68.5057275 143.813391,70.0144769 L143.813391,70.0144769 L143.813391,70.0144769 Z M166.040033,79.470086 C166.037695,79.470086 165.514308,79.9365234 165.514308,79.9365234 C164.766733,80.6048356 163.997483,81.3203229 163.068859,80.962473 C162.812371,80.8691855 162.631959,80.5274857 162.588609,80.2622858 C162.546321,78.3493615 163.407796,76.5768996 164.243133,74.8509752 L164.457333,74.3996254 C166.860282,70.3874143 169.653381,65.659716 173.75548,62.3787172 C174.446742,61.8799799 175.196867,61.46093 175.988641,61.7877549 C176.170754,61.9583923 176.382829,62.2541922 176.382829,62.5493546 C176.382829,62.6430671 176.299741,62.891692 176.251716,62.969042 C175.106129,64.8205538 174.014942,66.7642906 172.95393,68.6302524 C170.880356,72.3162761 168.729219,76.1259747 166.040033,79.470086 L166.040033,79.470086 L166.040033,79.470086 Z" id="path5" fill="#9B9B9B"></path>
        </g>
    </g>
</svg>