<?xml version="1.0" encoding="UTF-8" standalone="no"?>
<svg width="218px" height="120px" viewBox="0 0 218 120" version="1.1" xmlns="http://www.w3.org/2000/svg" xmlns:xlink="http://www.w3.org/1999/xlink">
    <!-- Generator: Sketch 3.8.3 (29802) - http://www.bohemiancoding.com/sketch -->
    <title>coffeeinn</title>
    <desc>Created with Sketch.</desc>
    <defs></defs>
    <g id="Page-1" stroke="none" stroke-width="1" fill="none" fill-rule="evenodd">
        <g id="Rectangle-1-+-Group">
            <rect id="Rectangle-1" x="0" y="0" width="218" height="120"></rect>
            <g id="Group" transform="translate(64.000000, 15.000000)" fill="#9B9B9B">
                <path d="M45.6847826,89.7921739 C45.356087,89.7913043 45.0269565,89.7908696 44.6978261,89.7904348 C42.4278261,89.7286957 40.296087,89.1404348 38.296087,88.0773913 C37.0008696,87.3891304 35.8486957,86.5034783 34.8113043,85.4656522 C24.7582609,75.4082609 14.7013043,65.3552174 4.65086957,55.2956522 C2.52695652,53.1695652 1.18913043,50.6147826 0.617826087,47.666087 C0.478695652,46.9469565 0.38826087,46.216087 0.389130435,45.4786957 C0.416521739,45.1530435 0.415217391,44.8278261 0.389130435,44.5030435 C0.453478261,42.2886957 1.01217391,40.2021739 2.0326087,38.2395652 C2.69869565,36.9582609 3.53826087,35.7965217 4.55782609,34.7756522 C14.6321739,24.6921739 24.7134783,14.6152174 34.7891304,4.5326087 C36.7017391,2.61869565 38.9552174,1.30217391 41.5743478,0.624782609 C42.5986957,0.36 43.6426087,0.2 44.7052174,0.186956522 C45.0308696,0.212608696 45.356087,0.213043478 45.6804348,0.186956522 C47.8921739,0.256086957 49.9773913,0.80826087 51.9404348,1.8273913 C53.2243478,2.49391304 54.3821739,3.33695652 55.403913,4.35608696 C60.7634783,9.70304348 66.1143478,15.0586957 71.4686957,20.4108696 C76.21,25.1508696 80.9513043,29.8904348 85.6943478,34.6286957 C87.8391304,36.7713043 89.186087,39.3382609 89.7643478,42.3069565 C89.9043478,43.0265217 89.9956522,43.7573913 89.9930435,44.4952174 C89.9930435,44.8243478 89.9934783,45.1530435 89.993913,45.4817391 C89.9208696,47.8995652 89.2691304,50.156087 88.0752174,52.2543478 C87.4434783,53.3652174 86.6717391,54.373913 85.7665217,55.2786957 C78.1830435,62.8582609 70.6004348,70.4386957 63.0173913,78.0186957 C60.5282609,80.5069565 58.0382609,82.9947826 55.5486957,85.4830435 C53.4056522,87.6252174 50.8456522,88.9882609 47.8717391,89.5613043 C47.1521739,89.7 46.4217391,89.7904348 45.6847826,89.7921739 L45.6847826,89.7921739 Z M88.1521739,44.9282609 C88.1221739,44.4969565 88.1026087,44.0013043 88.0404348,43.5073913 C87.7865217,41.4991304 87.0547826,39.6804348 85.9130435,38.0156522 C85.1926087,36.9647826 84.2786957,36.0982609 83.3786957,35.2073913 C79.3834783,31.25 75.4156522,27.2656522 71.44,23.2891304 C65.756087,17.6047826 60.073913,11.9195652 54.3913043,6.23391304 C53.0491304,4.89086957 51.5191304,3.82608696 49.7547826,3.11217391 C47.4543478,2.18086957 45.08,1.93304348 42.646087,2.42130435 C40.7008696,2.81173913 38.9578261,3.65347826 37.4017391,4.88956522 C36.6182609,5.51173913 35.9678261,6.26434783 35.2656522,6.9673913 C27.1434783,15.1008696 19.0147826,23.2269565 10.8869565,31.353913 C9.4773913,32.7634783 8.08652174,34.1926087 6.64478261,35.5682609 C5.50086957,36.66 4.51565217,37.8613043 3.78652174,39.2617391 C2.5973913,41.5465217 2.15956522,43.973913 2.49043478,46.5317391 C2.74826087,48.5230435 3.47956522,50.3373913 4.59217391,52.0017391 C5.28695652,53.0408696 6.16695652,53.9156522 7.04782609,54.7943478 C13,60.7313043 18.9417391,66.6786957 24.8852174,72.6243478 C28.4847826,76.2252174 32.0926087,79.8182609 35.6730435,83.4382609 C36.6591304,84.4352174 37.6878261,85.3621739 38.9021739,86.066087 C41.0043478,87.2847826 43.2613043,87.8808696 45.7026087,87.7786957 C46.9226087,87.7273913 48.1034783,87.5052174 49.2482609,87.1021739 C51.3534783,86.3608696 53.0886957,85.0826087 54.653913,83.4986957 C59.1917391,78.9056522 63.7678261,74.3508696 68.3404348,69.7930435 C73.7030435,64.4482609 79.0330435,59.0717391 84.4213043,53.7526087 C86.8395652,51.3656522 88.0869565,48.4134783 88.1521739,44.9282609 L88.1521739,44.9282609 Z" id="Fill-58"></path>
                <path d="M85.6813043,43.0873913 C85.3230435,40.9747826 84.4352174,39.0917391 82.9404348,37.5652174 C79.8413043,34.3995652 76.683913,31.2904348 73.5513043,28.1569565 C69.453913,24.0582609 65.3626087,19.953913 61.2591304,15.8617391 C58.4213043,13.0317391 55.6352174,10.1491304 52.7521739,7.36521739 C50.6473913,5.3326087 48.0930435,4.37652174 45.0156522,4.30521739 C44.7221739,4.33304348 44.2586957,4.36695652 43.7978261,4.4226087 C41.336087,4.72086957 39.2291304,5.77434783 37.4847826,7.51434783 C29.753913,15.2256522 22.0386957,22.9530435 14.3156522,30.6726087 C12.193913,32.7934783 10.0695652,34.9126087 7.93826087,37.0243478 C6.65782609,38.2930435 5.67782609,39.7530435 5.10565217,41.4652174 C4.56391304,43.086087 4.3873913,44.7482609 4.62652174,46.4521739 C4.95086957,48.7608696 5.89913043,50.7682609 7.48565217,52.4717391 C8.2973913,53.343913 9.16347826,54.1630435 10.0082609,55.0034783 C12.5417391,57.5243478 15.066087,60.0556522 17.5934783,62.5826087 C22.9252174,67.913913 28.253913,73.2473913 33.5895652,78.5743478 C35.0373913,80.02 36.4330435,81.5213043 37.9534783,82.8913043 C40.1991304,84.9152174 42.8604348,85.79 45.876087,85.6269565 C47.3778261,85.5452174 48.7934783,85.1526087 50.136087,84.4965217 C51.3647826,83.896087 52.3908696,83.0208696 53.3469565,82.0547826 C55.13,80.253913 56.9186957,78.4586957 58.7104348,76.6665217 C66.5526087,68.8208696 74.393913,60.9747826 82.243913,53.1369565 C83.1530435,52.2291304 83.9786957,51.2669565 84.5765217,50.1247826 C85.7391304,47.9047826 86.0995652,45.5534783 85.6813043,43.0873913 L85.6813043,43.0873913 Z M43.696087,12.5586957 C43.7043478,12.4778261 43.716087,12.3965217 43.7308696,12.3152174 C43.7608696,12.1526087 43.803913,11.9895652 43.8608696,11.8269565 C43.9317391,11.623913 44.023913,11.4213043 44.1378261,11.2204348 C44.1404348,11.2913043 44.1352174,11.3591304 44.126087,11.4247826 C44.1217391,11.4578261 44.116087,11.49 44.11,11.5221739 C44.0791304,11.6821739 44.0343478,11.8326087 44.0317391,11.9895652 C44.0304348,12.0865217 44.0343478,12.1808696 44.0434783,12.2730435 C44.07,12.5495652 44.1417391,12.8065217 44.2495652,13.0478261 C44.3213043,13.2086957 44.4091304,13.3626087 44.51,13.5113043 C44.586087,13.6226087 44.6691304,13.7308696 44.7591304,13.8365217 C44.7886957,13.8717391 44.8195652,13.9065217 44.8508696,13.9413043 C45.6534783,14.8304348 46.67,15.4282609 47.6973913,16.0056522 C47.9117391,16.126087 48.1252174,16.2465217 48.3356522,16.3708696 C48.3882609,16.4017391 48.4408696,16.4330435 48.4930435,16.4647826 C48.5973913,16.5278261 48.7008696,16.5926087 48.8030435,16.6586957 C48.9052174,16.7247826 49.0065217,16.7930435 49.1056522,16.8634783 C49.453913,17.1095652 49.7830435,17.3834783 50.08,17.7069565 C50.3334783,17.9834783 50.5382609,18.2773913 50.6952174,18.5826087 C50.9047826,18.9895652 51.0295652,19.416087 51.0717391,19.8456522 C51.0821739,19.9530435 51.0878261,20.0604348 51.0878261,20.1682609 C51.0878261,20.2217391 51.0869565,20.2756522 51.0843478,20.3295652 C51.0673913,20.7052174 50.9878261,21.0786957 50.8469565,21.4391304 C50.8265217,21.4904348 50.8052174,21.5417391 50.7826087,21.5921739 C50.6921739,21.7956522 50.5817391,21.9943478 50.4517391,22.186087 C50.353913,22.3295652 50.2452174,22.4695652 50.1256522,22.6043478 C48.6865217,24.2295652 47.2395652,25.8482609 45.796087,27.4695652 C45.79,27.4765217 45.7834783,27.4834783 45.7773913,27.4908696 C45.7643478,27.5052174 45.7513043,27.52 45.7365217,27.536087 C45.7152174,27.56 45.6908696,27.5873913 45.6613043,27.62 C45.6413043,27.6421739 45.6195652,27.6665217 45.5943478,27.6943478 C45.563913,27.2530435 45.5378261,26.8747826 45.6821739,26.5156522 C45.693913,26.486087 45.7073913,26.456087 45.7217391,26.4265217 C45.7652174,26.3373913 45.82,26.2491304 45.8891304,26.1617391 C46.1717391,25.8021739 46.4452174,25.4356522 46.7143478,25.0656522 C46.9834783,24.6952174 47.2473913,24.3213043 47.5104348,23.9469565 C47.686087,23.6973913 47.8613043,23.4473913 48.0369565,23.1982609 C48.1830435,22.9913043 48.3134783,22.7817391 48.4265217,22.5695652 C48.4491304,22.5269565 48.4708696,22.4843478 48.4921739,22.4417391 C48.79,21.8447826 48.9534783,21.2278261 48.9630435,20.5904348 C48.9634783,20.5447826 48.9634783,20.4991304 48.9626087,20.4534783 C48.9534783,19.996087 48.8652174,19.5282609 48.69,19.05 C48.6726087,19.0021739 48.6543478,18.9543478 48.6347826,18.9065217 C48.5313043,18.6482609 48.4017391,18.41 48.2504348,18.1891304 C48.0691304,17.9243478 47.856087,17.6843478 47.6186957,17.4656522 C47.5395652,17.3926087 47.4578261,17.3217391 47.373913,17.2530435 C47.2473913,17.1504348 47.116087,17.0526087 46.98,16.9586957 C46.816087,16.846087 46.6526087,16.7343478 46.4895652,16.6213043 C45.9456522,16.2447826 45.4117391,15.8569565 44.933913,15.3986957 C44.8382609,15.3069565 44.7447826,15.2126087 44.6543478,15.1147826 C44.6086957,15.0656522 44.563913,15.016087 44.52,14.9652174 C44.43,14.8621739 44.3473913,14.7569565 44.2717391,14.6495652 C43.9947826,14.2556522 43.813913,13.8347826 43.7317391,13.4004348 C43.6943478,13.2030435 43.6773913,13.0030435 43.6817391,12.8013043 C43.6830435,12.7208696 43.6878261,12.64 43.696087,12.5586957 L43.696087,12.5586957 Z M40.5182609,25.6130435 C40.6882609,25.4452174 40.8673913,25.2917391 41.0526087,25.1482609 C41.1456522,25.0765217 41.2395652,25.0073913 41.3356522,24.9404348 C41.3834783,24.9069565 41.4313043,24.873913 41.48,24.8413043 C41.673913,24.7117391 41.8726087,24.5891304 42.0743478,24.4708696 C42.326087,24.3226087 42.5821739,24.1804348 42.8382609,24.0365217 C43.2252174,23.8191304 43.61,23.596087 43.9813043,23.3543478 C44.4591304,23.0434783 44.9152174,22.7017391 45.3282609,22.3026087 C45.5513043,22.0869565 45.7473913,21.8626087 45.9078261,21.6265217 C45.9882609,21.5086957 46.06,21.3878261 46.1217391,21.2634783 C46.4308696,20.6426087 46.4943478,19.9386957 46.1852174,19.1065217 C46.2791304,19.2526087 46.3556522,19.3926087 46.4195652,19.5304348 C46.526087,19.7595652 46.596087,19.9813043 46.6513043,20.2143478 C46.8017391,20.8534783 46.7669565,21.4008696 46.6052174,21.8852174 C46.5908696,21.9295652 46.5752174,21.9730435 46.5582609,22.016087 C46.4747826,22.2308696 46.366087,22.433913 46.2378261,22.6265217 C46.1865217,22.703913 46.1321739,22.7795652 46.0747826,22.853913 C45.9891304,22.9652174 45.8969565,23.0734783 45.7995652,23.1791304 C45.7673913,23.2143478 45.7343478,23.2495652 45.7008696,23.283913 C45.4,23.5965217 45.0565217,23.8882609 44.7034783,24.1747826 C44.586087,24.2704348 44.4652174,24.3613043 44.3421739,24.45 C44.0147826,24.686087 43.6743478,24.903913 43.3482609,25.1430435 C43.1443478,25.2926087 42.9465217,25.45 42.7608696,25.6252174 C42.4591304,25.9104348 42.2130435,26.2247826 42.0204348,26.5586957 C41.9565217,26.67 41.8978261,26.7834783 41.8456522,26.8986957 C41.2165217,28.2808696 41.4273913,29.9165217 42.303913,31.1530435 C42.623913,31.6047826 42.9452174,32.0556522 43.2665217,32.5069565 C43.6682609,33.0713043 44.0695652,33.6352174 44.4713043,34.1991304 C44.7121739,34.5373913 44.9534783,34.8756522 45.1943478,35.213913 C45.2,35.2221739 45.2056522,35.23 45.2104348,35.2386957 C45.2152174,35.2473913 45.22,35.256087 45.223913,35.2656522 C45.2317391,35.2847826 45.2369565,35.3056522 45.2391304,35.3295652 C45.1647826,35.2817391 45.0934783,35.23 45.0252174,35.176087 C44.9908696,35.1486957 44.9573913,35.1208696 44.923913,35.0926087 C44.7578261,34.9513043 44.6034783,34.7973913 44.4426087,34.6504348 C43.4308696,33.7269565 42.4221739,32.8008696 41.4426087,31.8434783 C41.2795652,31.683913 41.1169565,31.5234783 40.9556522,31.3621739 C40.793913,31.2004348 40.6334783,31.0382609 40.473913,30.8743478 C40.0482609,30.4382609 39.7434783,29.9513043 39.56,29.4430435 C39.5395652,29.3865217 39.5204348,29.3295652 39.5034783,29.2730435 C39.4682609,29.1586957 39.4395652,29.0443478 39.4165217,28.9286957 C39.3708696,28.6978261 39.3486957,28.4647826 39.3508696,28.2321739 C39.3582609,27.3004348 39.7478261,26.3730435 40.5182609,25.6130435 L40.5182609,25.6130435 Z M30.4313043,35.1386957 C30.4804348,34.7656522 30.6882609,34.4473913 30.9708696,34.1643478 C31.0495652,34.0856522 31.1304348,34.0117391 31.213913,33.9413043 C31.3808696,33.8004348 31.5565217,33.6756522 31.7395652,33.5634783 C31.7852174,33.5352174 31.8313043,33.5078261 31.8778261,33.4813043 C32.0178261,33.4013043 32.1608696,33.3282609 32.3069565,33.2595652 C32.3556522,33.2369565 32.4047826,33.2147826 32.453913,33.1930435 C32.7004348,33.0843478 32.9534783,32.9882609 33.2095652,32.8982609 C33.5017391,32.7956522 33.7952174,32.7013043 34.0908696,32.6143478 C34.2878261,32.5565217 34.4856522,32.5021739 34.683913,32.4508696 C35.0808696,32.3482609 35.4804348,32.2586957 35.8826087,32.1791304 C36.183913,32.1195652 36.4869565,32.066087 36.7908696,32.0178261 C36.9934783,31.9852174 37.1965217,31.9552174 37.4004348,31.9273913 C37.603913,31.8995652 37.8078261,31.8734783 38.0121739,31.8491304 C38.0713043,31.8421739 38.1304348,31.8356522 38.1895652,31.8291304 C38.3082609,31.8156522 38.4269565,31.8013043 38.5434783,31.78 C38.6021739,31.7691304 38.66,31.7569565 38.7169565,31.7421739 C38.8321739,31.7121739 38.9430435,31.6969565 39.0504348,31.6947826 C39.086087,31.693913 39.1213043,31.6943478 39.1565217,31.696087 C39.2617391,31.7021739 39.363913,31.7195652 39.463913,31.7473913 C39.6973913,31.8117391 39.9204348,31.9295652 40.1469565,32.0752174 C40.1795652,32.096087 40.2121739,32.1173913 40.2443478,32.1395652 C40.2769565,32.1613043 40.3095652,32.1834783 40.3426087,32.2065217 C39.5347826,32.38 38.7765217,32.5256522 38.0265217,32.7069565 C37.2343478,32.8986957 36.4382609,33.08 35.656087,33.306087 C35.3626087,33.3908696 35.0713043,33.4821739 34.7830435,33.5821739 C34.5908696,33.6491304 34.3995652,33.72 34.2104348,33.796087 C34.0213043,33.8721739 33.8330435,33.9530435 33.6473913,34.0395652 C33.5543478,34.0830435 33.4617391,34.1278261 33.3695652,34.1743478 C33.1408696,34.2895652 32.9243478,34.426087 32.7317391,34.5952174 C32.7043478,34.6195652 32.6773913,34.6443478 32.6513043,34.67 C32.3526087,34.9586957 32.2665217,35.2430435 32.3926087,35.516087 C32.4043478,35.5413043 32.4173913,35.566087 32.4321739,35.5904348 C32.4921739,35.6891304 32.5804348,35.786087 32.6965217,35.8817391 C32.8569565,36.0134783 33.0252174,36.1291304 33.1991304,36.2326087 C33.4169565,36.3617391 33.6443478,36.4713043 33.8773913,36.5682609 C33.9704348,36.6069565 34.0647826,36.643913 34.1595652,36.6786957 C34.2543478,36.713913 34.35,36.7473913 34.446087,36.7795652 C34.59,36.8282609 34.7352174,36.873913 34.8808696,36.9182609 C35.1495652,37.0004348 35.4186957,37.0773913 35.6891304,37.1495652 C35.9595652,37.2217391 36.2308696,37.2891304 36.5030435,37.3521739 C38.1352174,37.7313043 39.796087,37.9543478 41.47,38.1078261 C41.8395652,38.1417391 42.2091304,38.1713043 42.5786957,38.1965217 C42.7634783,38.2091304 42.9482609,38.2204348 43.1334783,38.2304348 C43.5030435,38.2508696 43.8730435,38.2656522 44.2434783,38.2752174 C44.4282609,38.28 44.6134783,38.2830435 44.7986957,38.2847826 C44.983913,38.2865217 45.1686957,38.2865217 45.353913,38.2852174 C45.5391304,38.2834783 45.7247826,38.2804348 45.91,38.2756522 C46.3556522,38.2643478 46.8013043,38.2486957 47.2465217,38.2278261 C47.9143478,38.196087 48.5813043,38.1521739 49.2469565,38.0930435 C49.9130435,38.033913 50.5778261,37.9595652 51.2417391,37.8656522 C51.7804348,37.79 52.3173913,37.7073913 52.8517391,37.6121739 C53.0295652,37.5804348 53.2073913,37.5469565 53.3847826,37.5121739 C54.093913,37.3730435 54.7978261,37.2078261 55.4934783,37.0017391 C55.6756522,36.9478261 55.8565217,36.8921739 56.0356522,36.8308696 C56.1252174,36.8004348 56.213913,36.7686957 56.3021739,36.7352174 C56.3904348,36.7017391 56.4778261,36.6665217 56.5647826,36.6295652 C56.6078261,36.6108696 56.6508696,36.5917391 56.693913,36.5721739 C56.8652174,36.493913 57.0326087,36.4073913 57.1943478,36.3086957 C57.316087,36.2352174 57.4343478,36.1547826 57.5491304,36.0669565 C57.586087,36.0386957 57.6208696,36.0104348 57.6534783,35.9821739 C57.7182609,35.9256522 57.7743478,35.8695652 57.8217391,35.8130435 C57.916087,35.7004348 57.9747826,35.5882609 57.9973913,35.4743478 C58.0486957,35.2186957 57.9182609,34.9578261 57.6043478,34.68 C57.4721739,34.5630435 57.3326087,34.4595652 57.1869565,34.366087 C57.0778261,34.2965217 56.9656522,34.2326087 56.8504348,34.1734783 C56.506087,33.9956522 56.1386957,33.8604348 55.7695652,33.736087 C55.3317391,33.5886957 54.8926087,33.4495652 54.4513043,33.3191304 C53.5691304,33.0586957 52.6786957,32.8334783 51.7795652,32.6486957 C50.7308696,32.4330435 49.6695652,32.2726087 48.593913,32.1752174 C47.5852174,32.0834783 46.5765217,31.9904348 45.566087,31.9269565 C45.2291304,31.9056522 44.8917391,31.8878261 44.5543478,31.8743478 C44.5082609,31.8726087 44.4704348,31.8652174 44.44,31.8534783 C44.3995652,31.8378261 44.3713043,31.8147826 44.3513043,31.7865217 C44.3308696,31.7582609 44.3186957,31.7247826 44.3104348,31.6891304 C44.303913,31.6626087 44.2995652,31.6343478 44.2956522,31.606087 C44.2930435,31.5873913 44.29,31.5686957 44.2869565,31.55 C44.2769565,31.4886957 44.2847826,31.4465217 44.3043478,31.4169565 C44.3204348,31.3930435 44.343913,31.3778261 44.3717391,31.3678261 C44.3786957,31.3652174 44.3856522,31.3630435 44.3930435,31.3613043 C44.4082609,31.3573913 44.423913,31.3547826 44.44,31.3530435 C44.4643478,31.35 44.49,31.3491304 44.5152174,31.3486957 C44.5234783,31.3486957 44.5317391,31.3486957 44.54,31.3482609 C44.6956522,31.3469565 44.8508696,31.346087 45.0065217,31.3465217 C46.0947826,31.3469565 47.1817391,31.3847826 48.2691304,31.4447826 C48.9008696,31.48 49.5313043,31.5256522 50.1608696,31.5830435 C50.6330435,31.6256522 51.1043478,31.6747826 51.5752174,31.73 C51.7321739,31.7486957 51.8891304,31.7678261 52.046087,31.7873913 C52.2930435,31.8186957 52.54,31.8517391 52.7865217,31.886087 C52.9095652,31.9034783 53.0326087,31.9213043 53.1556522,31.94 C53.4017391,31.9765217 53.6469565,32.016087 53.8917391,32.0582609 C55.2369565,32.2913043 56.5608696,32.6169565 57.8356522,33.1513043 C57.8986957,33.1773913 57.9608696,33.2047826 58.0221739,33.2330435 C58.3917391,33.4030435 58.7395652,33.6091304 59.063913,33.8534783 C59.1182609,33.8943478 59.1713043,33.936087 59.2243478,33.9786957 C59.2678261,34.013913 59.3086957,34.05 59.3478261,34.0865217 C59.8926087,34.5973913 60.0047826,35.2291304 59.9008696,35.956087 C59.8934783,36.0082609 59.8852174,36.0604348 59.8756522,36.1134783 C59.8417391,36.3013043 59.8073913,36.4886957 59.7726087,36.6765217 C59.633913,37.4265217 59.4878261,38.1743478 59.33,38.9195652 C59.2904348,39.1056522 59.2504348,39.2917391 59.2095652,39.4778261 C59.1273913,39.8495652 59.0426087,40.2204348 58.953913,40.5904348 C58.8652174,40.9608696 58.7730435,41.33 58.6765217,41.6982609 C58.3873913,42.8026087 58.0613043,43.8982609 57.6847826,44.9808696 C57.6530435,45.0717391 57.6217391,45.1621739 57.59,45.2526087 C57.4304348,45.7052174 57.2656522,46.1552174 57.0834783,46.5986957 C57.0104348,46.776087 56.9343478,46.9521739 56.8552174,47.1269565 C56.8382609,47.163913 56.8269565,47.2065217 56.8043478,47.246087 C56.7813043,47.2856522 56.7469565,47.3217391 56.683913,47.3456522 C56.9208696,45.7304348 57.1578261,44.12 57.3947826,42.5086957 C57.6313043,40.8978261 57.8682609,39.2865217 58.1056522,37.6704348 C58.0621739,37.673913 58.0208696,37.6795652 57.9813043,37.6873913 C57.9413043,37.6952174 57.9030435,37.7052174 57.866087,37.7165217 C57.8108696,37.733913 57.7582609,37.7543478 57.7078261,37.7769565 C57.6908696,37.7843478 57.6743478,37.7921739 57.6578261,37.8 C57.5917391,37.8317391 57.5286957,37.8656522 57.466087,37.8986957 C57.4191304,37.9230435 57.3726087,37.9469565 57.3252174,37.9686957 C57.3095652,37.9756522 57.2934783,37.9826087 57.2778261,37.9891304 C57.0373913,38.0882609 56.7952174,38.1813043 56.5517391,38.2691304 C55.0917391,38.7965217 53.5830435,39.1321739 52.0565217,39.3921739 C51.8021739,39.4356522 51.5469565,39.4769565 51.2917391,39.5165217 C50.4913043,39.6408696 49.6895652,39.7452174 48.886087,39.8256522 C48.5643478,39.8578261 48.2426087,39.886087 47.9208696,39.9104348 C47.5991304,39.9343478 47.2769565,39.9547826 46.9547826,39.9704348 C46.4713043,39.9943478 45.9869565,40.0082609 45.5026087,40.0121739 C44.8565217,40.0165217 44.21,40.0026087 43.5621739,39.9678261 C43.3613043,39.9569565 43.1608696,39.9452174 42.96,39.9326087 C39.9517391,39.7395652 36.9795652,39.306087 34.0986957,38.356087 C33.6365217,38.203913 33.1878261,38.0186957 32.7147826,37.8008696 C32.5573913,37.7282609 32.3969565,37.6521739 32.2326087,37.5721739 C32.2943478,37.9843478 32.3556522,38.3956522 32.4173913,38.8056522 C32.54,39.626087 32.6621739,40.4430435 32.783913,41.2569565 C32.9056522,42.0713043 33.0269565,42.8826087 33.1478261,43.6926087 C33.3295652,44.9073913 33.5108696,46.1186957 33.6917391,47.33 C33.3178261,46.7226087 33.0778261,46.066087 32.8404348,45.4091304 C32.7934783,45.2795652 32.7473913,45.1495652 32.7017391,45.0191304 C32.4743478,44.3678261 32.2652174,43.7113043 32.0717391,43.0504348 C31.7617391,41.9930435 31.4908696,40.9247826 31.2473913,39.8491304 C31.1865217,39.5804348 31.1273913,39.3108696 31.0695652,39.0408696 C30.9452174,38.4595652 30.833913,37.8756522 30.73,37.2904348 C30.6526087,36.8513043 30.5791304,36.4113043 30.5082609,35.9713043 C30.4843478,35.8247826 30.4608696,35.6778261 30.4378261,35.5313043 C30.416087,35.393913 30.4147826,35.2634783 30.4313043,35.1386957 L30.4313043,35.1386957 Z M29.1443478,59.3126087 C29.1052174,59.6517391 28.8852174,59.8204348 28.5795652,59.9021739 C27.6347826,60.1552174 26.6756522,60.3008696 25.6947826,60.276087 C25.0456522,60.26 24.3991304,60.2243478 23.7634783,60.0734783 C22.5152174,59.7769565 21.8017391,58.8852174 21.7986957,57.6052174 C21.7969565,56.7708696 21.8243478,55.9356522 21.7921739,55.1030435 C21.7317391,53.5382609 22.5030435,52.7547826 23.8952174,52.4226087 C25.0595652,52.1443478 26.253913,52.1469565 27.4395652,52.3491304 C27.7695652,52.4052174 28.0991304,52.4686957 28.4243478,52.5486957 C28.9973913,52.6904348 29.2413043,53.0413043 29.1217391,53.5230435 C29.016087,53.9495652 28.6252174,54.1265217 28.0743478,53.9969565 C27.4208696,53.8434783 26.7652174,53.7134783 26.0908696,53.6904348 C25.8017391,53.6804348 25.523913,53.7417391 25.2652174,53.8413043 C24.9330435,53.9686957 24.7747826,54.2482609 24.7747826,54.6095652 C24.7752174,55.1621739 24.7752174,55.7147826 24.7752174,56.2669565 L24.7726087,56.2669565 C24.7726087,56.7330435 24.7986957,57.2008696 24.7669565,57.6643478 C24.7052174,58.576087 25.3356522,58.8104348 26.0873913,58.8052174 C26.85,58.8 27.5847826,58.6208696 28.3308696,58.5030435 C28.8695652,58.4178261 29.206087,58.7782609 29.1443478,59.3126087 L29.1443478,59.3126087 Z M30.9643478,59.5421739 C30.453913,59.1243478 30.1321739,58.5891304 30.1226087,57.9269565 C30.1004348,56.3895652 30.1095652,54.8517391 30.1134783,53.313913 C30.1143478,52.9604348 30.3534783,52.6713043 30.6973913,52.5904348 C32.1934783,52.2391304 33.7078261,52.0904348 35.23,52.3469565 C36.4086957,52.5456522 37.5743478,53.3956522 37.4608696,54.9234783 C37.4313043,55.3221739 37.4565217,55.7247826 37.4569565,56.1252174 L37.4569565,56.8726087 C37.4556522,57.6304348 37.4582609,58.3886957 37.4552174,59.1465217 C37.4530435,59.6086957 37.23,59.8413043 36.7721739,59.946087 C35.8413043,60.1591304 34.8969565,60.2991304 33.9478261,60.3047826 C32.8991304,60.3113043 31.8391304,60.2582609 30.9643478,59.5421739 L30.9643478,59.5421739 Z M35.3869565,64.7043478 C35.3717391,64.6952174 35.3582609,64.6852174 35.3456522,64.6743478 C35.2578261,64.5991304 35.2286957,64.4882609 35.236087,64.3669565 C35.3291304,63.7573913 35.6265217,63.0908696 36.17,62.6073913 C36.2317391,62.5526087 36.296087,62.5008696 36.3643478,62.4508696 C36.4134783,62.4152174 36.463913,62.38 36.5169565,62.3469565 C36.5473913,62.3278261 36.5786957,62.3091304 36.6104348,62.2908696 C36.6743478,62.2543478 36.74,62.2204348 36.8086957,62.1886957 C36.9452174,62.1252174 37.0917391,62.0713043 37.2473913,62.0286957 C37.4130435,61.983913 37.586087,61.9573913 37.7569565,61.9465217 C37.8769565,61.9386957 38.0386957,61.8878261 38.1,62.0456522 C38.1547826,62.1869565 38.0452174,62.3004348 37.9517391,62.3817391 C37.3173913,62.9365217 36.8208696,63.6230435 36.2078261,64.1969565 C36.0434783,64.3508696 35.8526087,64.4769565 35.6708696,64.6121739 C35.5873913,64.6734783 35.5047826,64.7769565 35.3869565,64.7043478 L35.3869565,64.7043478 Z M38.5556522,72.5813043 C38.5534783,73.0517391 38.2426087,73.3373913 37.773913,73.3408696 C37.3086957,73.3443478 36.8430435,73.3486957 36.3773913,73.3426087 C35.9021739,73.336087 35.6386957,73.0665217 35.6373913,72.5891304 C35.6347826,71.6152174 35.6365217,70.6408696 35.6365217,69.6669565 C35.636087,68.7252174 35.633913,67.7834783 35.6369565,66.8417391 C35.6386957,66.2208696 35.8604348,65.9978261 36.473913,65.993913 C36.8852174,65.9917391 37.2965217,65.9913043 37.7078261,65.9934783 C38.2452174,65.9969565 38.5547826,66.273913 38.5569565,66.8013043 C38.5647826,68.7278261 38.563913,70.6543478 38.5556522,72.5813043 L38.5556522,72.5813043 Z M38.4195652,64.2882609 C37.8021739,64.8330435 37.0626087,65.1182609 36.2478261,65.2113043 C36.1582609,65.2217391 36.0326087,65.2608696 35.9895652,65.1491304 C35.9517391,65.0504348 36.0473913,64.9721739 36.1134783,64.9034783 C36.4617391,64.5430435 36.8786957,64.2669565 37.29,63.9908696 C37.7147826,63.7056522 38.0086957,63.346087 38.1443478,62.8543478 C38.1643478,62.7821739 38.1995652,62.7134783 38.2295652,62.6443478 C38.2930435,62.4978261 38.326087,62.2526087 38.4704348,62.2547826 C38.6547826,62.2578261 38.7117391,62.5017391 38.7843478,62.6652174 C38.863913,62.8430435 38.9108696,63.0334783 38.8969565,63.2452174 C38.9308696,63.6713043 38.726087,64.0173913 38.4195652,64.2882609 L38.4195652,64.2882609 Z M39.1847826,54.0347826 C39.0686957,54.0526087 38.9465217,54.0421739 38.8282609,54.0313043 C38.3417391,53.9869565 38.1391304,53.74 38.1591304,53.2234783 C38.1743478,52.83 38.4282609,52.6056522 38.8708696,52.593913 C39.5695652,52.5752174 39.5704348,52.5752174 39.5891304,51.8573913 C39.6108696,51.0447826 39.8247826,50.3204348 40.5208696,49.8165217 C40.9008696,49.5413043 41.3434783,49.436087 41.796087,49.3834783 C42.8286957,49.2630435 43.8621739,49.1482609 44.8565217,49.6078261 C45.3765217,49.8478261 45.5995652,50.1869565 45.4469565,50.5678261 C45.2491304,51.0604348 44.8947826,51.2069565 44.3330435,51.0230435 C43.9826087,50.9082609 43.6217391,50.8386957 43.2582609,50.7869565 C42.8882609,50.7343478 42.6773913,50.8852174 42.6017391,51.2508696 C42.5243478,51.623913 42.5378261,52.003913 42.5395652,52.3826087 C42.54,52.5330435 42.6056522,52.5982609 42.7565217,52.5934783 C42.9295652,52.5882609 43.1030435,52.5891304 43.276087,52.5943478 C43.7065217,52.6069565 44.0078261,52.8913043 44.0204348,53.2930435 C44.0321739,53.6852174 43.73,53.9913043 43.3152174,54.0356522 C43.0643478,54.0621739 42.7226087,53.9091304 42.5852174,54.1282609 C42.4665217,54.3169565 42.5430435,54.6313043 42.5417391,54.8904348 C42.5391304,55.5073913 42.5408696,56.1247826 42.5408696,56.7417391 L42.5395652,56.7417391 C42.5395652,57.5213043 42.5447826,58.3008696 42.5378261,59.0804348 C42.5330435,59.6352174 42.2182609,59.9386957 41.6669565,59.94 C41.2773913,59.9413043 40.8873913,59.9413043 40.4978261,59.9404348 C39.8682609,59.9391304 39.5930435,59.6682609 39.5913043,59.0282609 C39.5873913,57.5017391 39.58,55.9747826 39.5965217,54.4486957 C39.6004348,54.123913 39.5221739,53.9821739 39.1847826,54.0347826 L39.1847826,54.0347826 Z M46.8786957,72.5843478 C46.8765217,73.0643478 46.5847826,73.3378261 46.0991304,73.3408696 C45.6443478,73.343913 45.1891304,73.3426087 44.7343478,73.3413043 C44.1747826,73.3391304 43.9473913,73.1213043 43.9447826,72.553913 C43.9391304,71.2543478 43.9421739,69.9547826 43.9430435,68.6552174 C43.9430435,68.3521739 43.9395652,68.0508696 43.8986957,67.7486957 C43.8391304,67.3104348 43.5417391,67.0595652 43.093913,67.1043478 C42.9978261,67.113913 42.903913,67.1504348 42.8078261,67.1591304 C42.5491304,67.1813043 42.4521739,67.2930435 42.4547826,67.573913 C42.4708696,69.1226087 42.4626087,70.6713043 42.4626087,72.22 C42.4626087,72.3608696 42.4678261,72.5021739 42.4573913,72.6421739 C42.4252174,73.0773913 42.156087,73.3356522 41.7208696,73.3408696 C41.2334783,73.3465217 40.746087,73.3434783 40.2586957,73.34 C39.7895652,73.3365217 39.5404348,73.0908696 39.5382609,72.6195652 C39.5343478,71.6447826 39.5373913,70.67 39.5373913,69.6956522 L39.536087,69.6956522 C39.536087,68.7426087 39.5347826,67.7895652 39.5365217,66.8365217 C39.5373913,66.3543478 39.7226087,66.0956522 40.1804348,66.0004348 C41.5508696,65.7156522 42.9291304,65.5265217 44.3334783,65.7221739 C45.1156522,65.8308696 45.8143478,66.0969565 46.353913,66.706087 C46.6930435,67.0891304 46.8730435,67.5347826 46.8769565,68.0356522 C46.8882609,69.5517391 46.8847826,71.0682609 46.8786957,72.5843478 L46.8786957,72.5843478 Z M46.8269565,59.1126087 C46.8221739,58.3221739 46.8256522,57.5317391 46.8256522,56.7413043 C46.8256522,55.9404348 46.8195652,55.1391304 46.8295652,54.3378261 C46.8326087,54.113913 46.7595652,54.0204348 46.5321739,54.0343478 C46.36,54.0447826 46.1852174,54.0404348 46.0134783,54.0234783 C45.6086957,53.9843478 45.3634783,53.7043478 45.376087,53.3108696 C45.3895652,52.8773913 45.6369565,52.6204348 46.0513043,52.5934783 C46.296087,52.5773913 46.6091304,52.7043478 46.7686957,52.5352174 C46.9243478,52.3708696 46.8147826,52.0604348 46.8252174,51.8147826 C46.8891304,50.3069565 47.733913,49.4404348 49.243913,49.3482609 C49.9969565,49.3021739 50.7530435,49.1804348 51.5,49.403913 C51.7486957,49.4782609 51.9956522,49.553913 52.2282609,49.6726087 C52.643913,49.8847826 52.8134783,50.2130435 52.6804348,50.5578261 C52.5047826,51.0130435 52.1343478,51.2052174 51.6691304,51.0565217 C51.3278261,50.9473913 50.9821739,50.8647826 50.6313043,50.8008696 C50.1317391,50.71 49.8969565,50.8773913 49.8230435,51.3795652 C49.8069565,51.4865217 49.8026087,51.5956522 49.8030435,51.7034783 C49.803913,51.9734783 49.7186957,52.3 49.84,52.4986957 C49.9808696,52.73 50.3343478,52.566087 50.593913,52.59 C50.9526087,52.6234783 51.2321739,52.9026087 51.2491304,53.2730435 C51.266087,53.6556522 51.0321739,53.9686957 50.6734783,54.0178261 C50.5030435,54.0413043 50.326087,54.0513043 50.1552174,54.0326087 C49.8608696,54.0008696 49.7908696,54.1243478 49.7930435,54.4034783 C49.8047826,55.9082609 49.7986957,57.4130435 49.7973913,58.9182609 C49.7969565,59.6669565 49.5269565,59.9404348 48.793913,59.9404348 C48.4147826,59.9404348 48.036087,59.9434783 47.6569565,59.94 C47.1334783,59.9347826 46.83,59.6352174 46.8269565,59.1126087 L46.8269565,59.1126087 Z M55.1991304,72.5178261 C55.1969565,73.0717391 54.9091304,73.3395652 54.3478261,73.3417391 C53.8821739,73.3434783 53.4165217,73.3469565 52.9508696,73.3413043 C52.5734783,73.3365217 52.3408696,73.1443478 52.2686957,72.7778261 C52.2373913,72.62 52.2208696,72.4565217 52.2204348,72.2956522 C52.2169565,70.9313043 52.2186957,69.5669565 52.2191304,68.2026087 C52.2191304,68.1486957 52.2178261,68.0943478 52.22,68.0404348 C52.2621739,67.0091304 51.623913,67.0104348 50.9065217,67.2152174 C50.7217391,67.2678261 50.7773913,67.4195652 50.7769565,67.5382609 C50.773913,69.1730435 50.7747826,70.8078261 50.773913,72.4426087 C50.773913,72.54 50.7791304,72.6391304 50.7630435,72.7343478 C50.7021739,73.1021739 50.4234783,73.3373913 50.0369565,73.3413043 C49.5608696,73.3456522 49.0843478,73.3430435 48.6078261,73.3404348 C48.07,73.3373913 47.8469565,73.1147826 47.8443478,72.5656522 C47.84,71.6130435 47.8430435,70.66 47.8430435,69.7073913 C47.8434783,68.7434783 47.8413043,67.78 47.8443478,66.8165217 C47.846087,66.3995652 48.0126087,66.1313043 48.3965217,66.0413043 C49.9108696,65.6865217 51.4378261,65.486087 52.9895652,65.7856522 C53.3843478,65.8617391 53.7565217,65.9965217 54.0986957,66.2191304 C54.8182609,66.6865217 55.1921739,67.3430435 55.1969565,68.1978261 C55.2052174,69.6378261 55.2052174,71.0778261 55.1991304,72.5178261 L55.1991304,72.5178261 Z M55.5434783,57.69 C55.5991304,58.6134783 56.0982609,58.8056522 56.9469565,58.7917391 C57.6904348,58.7795652 58.4069565,58.6543478 59.1221739,58.4743478 C59.4491304,58.3921739 59.8286957,58.6591304 59.9356522,59.0182609 C60.0413043,59.3747826 59.8521739,59.7443478 59.4804348,59.8734783 C59.0295652,60.0304348 58.5578261,60.1082609 58.0878261,60.173913 C56.9230435,60.3365217 55.7578261,60.3273913 54.6030435,60.0826087 C53.3478261,59.8169565 52.6056522,58.8956522 52.6008696,57.6165217 C52.5986957,56.9556522 52.6004348,56.2952174 52.6004348,55.6343478 L52.6017391,55.6343478 C52.6017391,54.8869565 52.5991304,54.1395652 52.6026087,53.3921739 C52.6047826,52.9878261 52.8182609,52.6721739 53.1795652,52.5904348 C54.6543478,52.256087 56.143913,52.0930435 57.6491304,52.3382609 C58.526087,52.4813043 59.3143478,52.8534783 59.7091304,53.6913043 C60.3134783,54.973913 59.9604348,56.7056522 57.8934783,57.1521739 C57.226087,57.2965217 56.5421739,57.33 55.8613043,57.3252174 C55.5691304,57.3230435 55.5278261,57.4317391 55.5434783,57.69 L55.5434783,57.69 Z M65.4495652,58.8047826 C66.2204348,58.8026087 66.9743478,58.6743478 67.7204348,58.4856522 C68.0447826,58.4034783 68.3695652,58.6043478 68.5195652,58.9443478 C68.6513043,59.2434783 68.5556522,59.5834783 68.2730435,59.77 C68.166087,59.8408696 68.046087,59.9056522 67.9230435,59.9347826 C66.3482609,60.3086957 64.7630435,60.4247826 63.1695652,60.0691304 C61.986087,59.8047826 61.1804348,58.8565217 61.2286957,57.6947826 C61.2391304,57.4395652 61.2426087,57.183913 61.2426087,56.9282609 C61.2426087,56.5021739 61.2334783,56.0756522 61.2334783,55.6491304 C61.233913,54.8808696 61.2304348,54.1121739 61.2352174,53.343913 C61.2373913,52.9586957 61.443913,52.6643478 61.8152174,52.5830435 C63.3978261,52.236087 65.0026087,52.0178261 66.5965217,52.4178261 C68.2704348,52.8378261 68.9382609,54.1686957 68.4017391,55.7186957 C68.1882609,56.336087 67.706087,56.7152174 67.1095652,56.9586957 C66.2786957,57.2982609 65.3991304,57.3030435 64.526087,57.3243478 C64.2426087,57.3308696 64.1713043,57.3973913 64.1626087,57.6843478 C64.1365217,58.5521739 64.7013043,58.8069565 65.4495652,58.8047826 L65.4495652,58.8047826 Z" id="Fill-59"></path>
                <path d="M34.5382609,56.4669565 L34.5282609,56.4669565 C34.5282609,55.796087 34.5373913,55.1252174 34.5247826,54.4547826 C34.5169565,54.0095652 34.2747826,53.7143478 33.9286957,53.6969565 C33.7786957,53.6895652 33.6273913,53.7126087 33.4765217,53.7195652 C33.1504348,53.7352174 33.03,53.8791304 33.0417391,54.2282609 C33.0708696,55.0930435 33.0469565,55.9591304 33.0517391,56.8247826 C33.053913,57.2886957 33.0252174,57.7534783 33.1030435,58.216087 C33.1747826,58.6426087 33.363913,58.826087 33.7930435,58.8304348 C33.9108696,58.8317391 34.0282609,58.8017391 34.1465217,58.7943478 C34.4504348,58.7756522 34.5626087,58.6391304 34.5469565,58.3169565 C34.5169565,57.7017391 34.5382609,57.083913 34.5382609,56.4669565" id="Fill-60"></path>
                <path d="M55.5417391,55.1356522 C55.5421739,55.8473913 55.5421739,55.8473913 56.2673913,55.8804348 C56.2995652,55.8817391 56.3317391,55.8773913 56.363913,55.8756522 C56.6982609,55.8578261 56.896087,55.6982609 56.9630435,55.3556522 C57.0130435,55.0978261 57.0313043,54.8430435 57.0226087,54.5830435 C56.9973913,53.8443478 56.6547826,53.5743478 55.9321739,53.706087 C55.646087,53.7582609 55.4856522,53.8691304 55.536087,54.1956522 C55.5656522,54.3856522 55.5417391,54.583913 55.5417391,54.7786957 L55.5417391,55.1356522" id="Fill-61"></path>
                <path d="M64.7852174,55.8556522 C65.2886957,55.8691304 65.493913,55.7491304 65.5752174,55.3413043 C65.6317391,55.0595652 65.6504348,54.7752174 65.6273913,54.4773913 C65.5682609,53.6982609 65.1226087,53.596087 64.41,53.743913 C64.2291304,53.7817391 64.1652174,53.8773913 64.17,54.06 C64.1804348,54.4482609 64.1726087,54.8369565 64.1734783,55.2252174 C64.1743478,55.8395652 64.1747826,55.8395652 64.7852174,55.8556522" id="Fill-62"></path>
            </g>
        </g>
    </g>
</svg>