<?xml version="1.0" encoding="UTF-8" standalone="no"?>
<svg width="218px" height="120px" viewBox="0 0 218 120" version="1.1" xmlns="http://www.w3.org/2000/svg" xmlns:xlink="http://www.w3.org/1999/xlink">
    <!-- Generator: Sketch 3.8.3 (29802) - http://www.bohemiancoding.com/sketch -->
    <title>hitachi</title>
    <desc>Created with Sketch.</desc>
    <defs></defs>
    <g id="Page-1" stroke="none" stroke-width="1" fill="none" fill-rule="evenodd">
        <g id="Rectangle-1-+-path3621">
            <rect id="Rectangle-1" x="0" y="0" width="218" height="120"></rect>
            <path d="M166.624373,45.7236696 L166.624373,57.3299347 L182.25733,57.3299347 C182.25733,57.3713843 182.243433,45.7219367 182.25733,45.7236696 C182.243433,45.7219367 189.919941,45.7236696 189.999912,45.7236696 C189.999912,45.7236696 190.025991,74.718625 189.999912,74.7479793 C189.98948,74.7497121 182.266029,74.7497121 182.25733,74.7479793 L182.25733,61.9759099 C182.25733,62.0121783 166.624373,61.9759099 166.624373,61.9759099 C166.636555,62.0242562 166.624373,74.7566262 166.624373,74.7479793 L158.887007,74.7479793 C158.887007,74.7479793 158.928734,45.7236696 158.887007,45.7236696 L166.624373,45.7236696 Z M93.1646174,45.7236696 C93.1663503,45.8083016 93.1646174,50.6615074 93.1646174,50.6615074 L81.3307955,50.6615074 L81.3307955,74.7479793 L73.5899468,74.7479793 L73.5899468,50.6615074 L61.7596078,50.6615074 C61.7596078,50.6615074 61.7735052,45.7305836 61.7596078,45.7236696 C61.7735052,45.7305836 93.1646174,45.7236696 93.1646174,45.7236696 Z M123.251662,74.7479793 C123.276008,74.7497121 114.577123,74.7479793 114.632765,74.7479793 C114.644929,74.7479793 112.101169,68.5078759 112.101169,68.5078759 L97.5949058,68.5078759 C97.5949058,68.5078759 95.099821,74.7566262 95.06331,74.7479793 C95.0702587,74.7566262 86.4461456,74.7479793 86.4461456,74.7479793 L100.100422,45.7236696 C100.100422,45.740946 109.592169,45.7236696 109.592169,45.7236696 L123.251662,74.7479793 Z M104.845429,50.6615074 L99.4605703,63.861918 L110.23897,63.861918 L104.845429,50.6615074 Z M196.128957,45.7236696 L203.875005,45.7236696 L203.875005,74.7479793 L196.128957,74.7479793 L196.128957,45.7236696 Z M21.7426323,45.7236696 C21.7426323,45.7236696 21.7339508,57.4128339 21.7426323,57.3299347 L37.366908,57.3299347 C37.366908,57.3713843 37.3582091,45.7219367 37.366908,45.7236696 C37.3582091,45.7219367 45.0295015,45.7236696 45.1094895,45.7236696 C45.1094895,45.7236696 45.1355688,74.718625 45.1094895,74.7479793 C45.1025235,74.7497121 37.3738567,74.7497121 37.366908,74.7479793 L37.366908,61.9759099 C37.366908,62.0121783 21.7426323,61.9759099 21.7426323,61.9759099 C21.7478655,62.0242562 21.7339508,74.7566262 21.7426323,74.7479793 L14.0000508,74.7479793 C13.9983179,74.7479793 14.0417949,45.7236696 14.0000508,45.7236696 L21.7426323,45.7236696 Z M51.2472166,45.7236696 L58.9845823,45.7236696 L58.9845823,74.7479793 L51.2472166,74.7479793 L51.2472166,45.7236696 Z M122.975204,66.7030341 C122.295358,64.7565671 121.935447,62.6978466 121.935447,60.5233896 C121.935447,57.4767411 122.477931,54.5216386 123.947156,52.0725781 C125.46159,49.5423339 127.784535,47.5906857 130.589122,46.5457819 C133.266762,45.5544055 136.147855,45 139.169776,45 C142.645493,45 145.936923,45.7582051 148.936248,47.0466426 C151.726903,48.2366373 153.834247,50.7375098 154.458452,53.7530711 C154.585383,54.3541075 154.679285,54.9689545 154.733177,55.5924485 L146.611553,55.5924485 C146.583724,54.8186998 146.458543,54.0535806 146.190784,53.3592828 C145.577012,51.7547749 144.231217,50.5026231 142.560307,50.001745 C141.485771,49.6753296 140.346895,49.4991515 139.169776,49.4991515 C137.823998,49.4991515 136.535596,49.7340556 135.337595,50.1554655 C133.353699,50.8497634 131.807969,52.4439089 131.110743,54.414549 C130.43438,56.3212992 130.053587,58.3852183 130.053587,60.5233896 C130.053587,62.2954114 130.337011,64.0000949 130.790808,65.6235947 C131.376768,67.7358601 132.976407,69.4336295 135.019411,70.2056454 C136.311297,70.6875141 137.705749,70.9707645 139.169776,70.9707645 C140.416452,70.9707645 141.6179,70.7825086 142.746345,70.4180918 C144.260779,69.9414043 145.491808,68.8343087 146.13166,67.404246 C146.555912,66.4560694 146.768046,65.4025187 146.768046,64.2937077 L154.922698,64.2937077 C154.874022,65.2349875 154.743608,66.1693534 154.531491,67.0450105 C153.834247,69.9154983 151.810374,72.3248248 149.120553,73.4474639 C146.056888,74.7272545 142.701135,75.4664677 139.169776,75.4664677 C136.431261,75.4664677 133.790132,75.0364109 131.315911,74.264395 C127.542855,73.0795815 124.274039,70.3852718 122.975204,66.7030341 Z" id="path3621" fill="#9B9B9B"></path>
        </g>
    </g>
</svg>