<?xml version="1.0" encoding="UTF-8" standalone="no"?>
<svg width="218px" height="120px" viewBox="0 0 218 120" version="1.1" xmlns="http://www.w3.org/2000/svg" xmlns:xlink="http://www.w3.org/1999/xlink">
    <!-- Generator: Sketch 3.8.3 (29802) - http://www.bohemiancoding.com/sketch -->
    <title>login</title>
    <desc>Created with Sketch.</desc>
    <defs></defs>
    <g id="Page-1" stroke="none" stroke-width="1" fill="none" fill-rule="evenodd">
        <g id="Rectangle-1">
            <rect x="0" y="0" width="218" height="120"></rect>
            <g id="Group" transform="translate(34.000000, 37.000000)" fill="#9B9B9B">
                <polyline id="Fill-195" points="0 0.319887755 7.98949843 4.98967347 7.98949843 32.9618673 15.7918495 37.5362143 23.6877743 32.9618673 23.6877743 42.1585204 15.7918495 46.8762653 0 37.6791327 0 0.319887755"></polyline>
                <path d="M45.7401254,0.319887755 L29.8081505,9.46906122 L29.8081505,37.5841735 L45.7401254,46.8762653 L61.3452978,37.5841735 L61.3452978,9.46906122 L45.7401254,0.319887755 L45.7401254,0.319887755 Z M53.5424765,32.6774694 L45.6592476,37.4412551 L37.6105016,32.6774694 L37.6105016,14.4333163 L45.6592476,9.75489796 L53.5424765,14.4333163 L53.5424765,32.6774694 L53.5424765,32.6774694 Z" id="Fill-196"></path>
                <polyline id="Fill-197" points="149.803918 9.46906122 134.199216 0.319887755 118.267241 9.46906122 118.267241 37.5841735 126.069592 42.1345408 126.069592 14.4333163 134.118339 9.75489796 142.001567 14.4333163 142.001567 42.2299796 149.803918 37.5841735 149.803918 9.46906122"></polyline>
                <polyline id="Fill-198" points="112.45815 42.1110408 112.45815 4.98967347 104.655799 9.46906122 104.655799 37.5841735 112.45815 42.1110408"></polyline>
                <polyline id="Fill-199" points="91.2 32.6774694 83.3167712 37.4412551 75.2680251 32.6774694 75.2680251 14.4333163 83.3167712 9.75489796 91.2 14.4333163 99.0023511 9.46906122 83.3976489 0.319887755 67.465674 9.46906122 67.465674 37.5841735 83.3976489 46.8762653 99.0023511 37.5841735 99.0023511 28.1966429 83.2340125 18.9040714 83.2340125 28.2441224 91.2 32.6774694"></polyline>
            </g>
        </g>
    </g>
</svg>