<?xml version="1.0" encoding="UTF-8" standalone="no"?>
<svg width="218px" height="120px" viewBox="0 0 218 120" version="1.1" xmlns="http://www.w3.org/2000/svg" xmlns:xlink="http://www.w3.org/1999/xlink">
    <!-- Generator: Sketch 3.8.3 (29802) - http://www.bohemiancoding.com/sketch -->
    <title>martini</title>
    <desc>Created with Sketch.</desc>
    <defs></defs>
    <g id="Page-1" stroke="none" stroke-width="1" fill="none" fill-rule="evenodd">
        <g id="Rectangle-1">
            <rect x="0" y="0" width="218" height="120"></rect>
            <g id="Shape-+-Oval-+-Rectangle-path" transform="translate(36.000000, 27.000000)" fill="#9B9B9B">
                <path d="M99.4900582,50.1803518 L99.4900582,50.1803518 L99.4900582,50.1803518 L144.320096,50.1803518 L144.320096,16.6215613 L99.4797747,16.6215613 C93.9999988,7.59646472 84.2335399,1.58893281 73.0979363,1.58893281 C61.9623327,1.58893281 52.1958738,7.59646472 46.7160979,16.6215613 L1.77163894,16.6215613 L1.77163894,50.1803518 L46.7058143,50.1803518 C52.1836496,59.214875 61.9553634,65.2299289 73.0979363,65.2299289 C84.2405091,65.2299289 94.0122229,59.214875 99.4900582,50.1803518 L99.4900582,50.1803518 Z M100.806972,51.0189633 L100.806972,51.0189633 C94.8976014,60.7652121 84.5046736,66.8188617 73.0979363,66.8188617 C61.6911989,66.8188617 51.2982711,60.7652121 45.3889006,51.0189633 L46.7058143,51.7692846 L1.77163894,51.7692846 L0.22119646,51.7692846 L0.22119646,50.1803518 L0.22119646,16.6215613 L0.22119646,15.0326285 L1.77163894,15.0326285 L46.7160979,15.0326285 L45.3996974,15.7821037 C51.3112378,6.0458984 61.6984654,0 73.0979363,0 C84.4974072,0 94.8846347,6.0458984 100.796175,15.7821037 L99.4797747,15.0326285 L144.320096,15.0326285 L145.870538,15.0326285 L145.870538,16.6215613 L145.870538,50.1803518 L145.870538,51.7692846 L144.320096,51.7692846 L99.4900582,51.7692846 L100.806972,51.0189633 Z" id="Shape"></path>
                <path d="M96.9716522,50.1181186 C91.7648452,57.9166389 83.0145287,63.0340237 73.0979363,63.0340237 C63.1813438,63.0340237 54.4310274,57.9166389 49.2242204,50.1181186 L96.9716522,50.1181186 Z M96.8766473,16.5593281 C91.6587983,8.84041683 82.9544624,3.78483794 73.0979363,3.78483794 C63.2414102,3.78483794 54.5370743,8.84041683 49.3192253,16.5593281 L96.8766473,16.5593281 Z" id="Oval"></path>
                <path d="M11.2430336,23.8067154 L15.3586832,23.8067154 L20.2932248,31.8461858 L20.3449062,31.8461858 L25.4698938,23.8067154 L30.1573982,23.8067154 L30.1573982,42.7894308 L25.5241593,42.7894308 L25.5241593,34.3259802 L25.4724779,34.1305415 L20.5392283,41.4213597 L20.4795363,41.4213597 L15.9282124,34.1305415 L15.876531,34.1305415 L15.876531,42.7894308 L11.2430336,42.7894308 L11.2430336,23.8067154 Z M41.4658088,23.8067154 L47.0432673,23.8067154 L54.5510265,42.7894308 L49.780315,42.7894308 L49.0022513,40.8594071 L40.2531044,40.8594071 L39.4231009,42.7894308 L34.6433451,42.7894308 L41.4658088,23.8067154 Z M58.4919929,23.8067154 L67.8365097,23.8067154 C73.7488637,23.9754071 74.6437274,27.7909644 74.6437274,31.3800988 C74.6437274,33.3477273 72.9121416,36.0714229 71.2958053,37.311585 C71.5175186,37.1410395 74.4514726,42.7894308 74.4514726,42.7894308 L69.1254442,42.7894308 L66.0907115,38.1237945 L63.245908,38.1237945 L63.245908,42.7894308 L58.4919929,42.7894308 L58.4919929,23.8067154 Z M82.3848283,28.6725573 L77.8141239,28.6725573 L77.8141239,23.8067154 L92.5637416,23.8067154 L92.5637416,28.6722925 L87.3749274,28.6722925 L87.3749274,42.7894308 L82.3848283,42.7894308 L82.3848283,28.6725573 L82.3848283,28.6725573 Z M107.711048,23.8067154 L112.594683,23.8067154 L119.134966,32.5093004 L118.996202,32.5093004 L118.996202,23.8067154 L123.820145,23.8067154 L123.820145,42.7894308 L119.221791,42.7894308 L112.586931,33.2026047 L112.53525,33.2026047 L112.53525,42.7894308 L107.711048,42.7894308 L107.711048,23.8067154 L107.711048,23.8067154 Z M130.232517,23.8067154 L134.986173,23.8067154 L134.986173,42.7894308 L130.232517,42.7894308 L130.232517,23.8067154 Z M96.8623434,23.8067154 L101.616,23.8067154 L101.616,42.7894308 L96.8623434,42.7894308 L96.8623434,23.8067154 Z M46.8667752,36.010249 L44.4439504,29.1839289 L44.3920106,28.9884901 L41.8389487,36.010249 L46.8667752,36.010249 Z M63.245908,33.8604229 L66.8010726,33.8604229 C67.8646761,33.8604229 70.2365947,33.2788735 70.0802584,31.1915455 C69.9174619,29.0181502 68.6690973,28.3266996 66.4894336,28.3266996 L63.2456496,28.3266996 L63.2456496,33.8604229 L63.245908,33.8604229 Z" id="Rectangle-path"></path>
            </g>
        </g>
    </g>
</svg>