<?xml version="1.0" encoding="UTF-8" standalone="no"?>
<svg width="218px" height="120px" viewBox="0 0 218 120" version="1.1" xmlns="http://www.w3.org/2000/svg" xmlns:xlink="http://www.w3.org/1999/xlink">
    <!-- Generator: Sketch 3.8.3 (29802) - http://www.bohemiancoding.com/sketch -->
    <title>memorado</title>
    <desc>Created with Sketch.</desc>
    <defs></defs>
    <g id="Page-1" stroke="none" stroke-width="1" fill="none" fill-rule="evenodd">
        <g id="Rectangle-1">
            <rect x="0" y="0" width="218" height="120"></rect>
            <path d="M209.778,62.9559795 C209.778,60.6121942 209.469156,58.4841963 207.927962,56.9113106 C206.879304,55.8627538 205.429956,55.1843056 203.579918,55.1843056 C201.728871,55.1843056 200.279523,55.8627538 199.230865,56.9113106 C197.689671,58.4841963 197.380827,60.6121942 197.380827,62.9559795 C197.380827,65.2998658 197.689671,67.4278638 199.230865,69.0007494 C200.279523,70.0493062 201.728871,70.7277544 203.579918,70.7277544 C205.429956,70.7277544 206.879304,70.0493062 207.927962,69.0007494 C209.469156,67.4278638 209.778,65.2998658 209.778,62.9559795 L209.778,62.9559795 Z M147.72855,62.9559795 C147.72855,60.6121942 147.420715,58.4841963 145.878512,56.9113106 C144.829854,55.8627538 143.380506,55.1843056 141.530468,55.1843056 C139.68043,55.1843056 138.230073,55.8627538 137.182424,56.9113106 C135.640221,58.4841963 135.331377,60.6121942 135.331377,62.9559795 C135.331377,65.2998658 135.640221,67.4278638 137.182424,69.0007494 C138.230073,70.0493062 139.68043,70.7277544 141.530468,70.7277544 C143.380506,70.7277544 144.829854,70.0493062 145.878512,69.0007494 C147.420715,67.4278638 147.72855,65.2998658 147.72855,62.9559795 L147.72855,62.9559795 Z M192.631084,70.5427506 L192.631084,48.5844335 L190.410634,48.5844335 L190.410634,57.1271989 C189.177276,55.5543132 187.789495,55.1843056 186.124158,55.1843056 C184.581955,55.1843056 183.225462,55.7085335 182.423072,56.5104186 C180.881879,58.0524198 180.573034,60.5813098 180.573034,62.9559795 C180.573034,65.3307502 180.881879,67.8596403 182.423072,69.4016415 C183.225462,70.2035265 184.581955,70.7277544 186.124158,70.7277544 C187.789495,70.7277544 189.207555,70.3268624 190.441923,68.7231932 L190.441923,70.5427506 L192.631084,70.5427506 L192.631084,70.5427506 Z M87.2824663,70.5427506 L87.2824663,60.8279816 C87.2824663,59.0700921 86.7273539,57.6515277 85.6480136,56.60287 C84.7228936,55.7085335 83.3659972,55.1843056 81.7315445,55.1843056 C79.6036475,55.1843056 77.9075269,56.0477576 76.7356342,57.7131957 C75.8105143,56.0477576 74.1760616,55.1843056 72.079049,55.1843056 C70.3829284,55.1843056 68.8718117,55.8010859 67.7924714,57.0346465 L67.7924714,55.3693094 L65.5721229,55.3693094 L65.5721229,70.5427506 L67.7924714,70.5427506 L67.7924714,61.1980901 C67.7924714,58.5458642 69.3035881,57.1580833 71.5856046,57.1580833 C73.867621,57.1580833 75.3170698,58.5149798 75.3170698,61.1980901 L75.3170698,70.5427506 L77.5374184,70.5427506 L77.5374184,60.9514184 C77.5374184,58.5458642 79.1102031,57.1580833 81.3306525,57.1580833 C83.6126689,57.1580833 85.0621178,58.5149798 85.0621178,61.1980901 L85.0621178,70.5427506 L87.2824663,70.5427506 L87.2824663,70.5427506 Z M130.736056,70.5427506 L130.736056,60.8279816 C130.736056,59.0700921 130.180944,57.6515277 129.100998,56.60287 C128.176483,55.7085335 126.818981,55.1843056 125.184932,55.1843056 C123.057338,55.1843056 121.360713,56.0477576 120.188921,57.7131957 C119.263398,56.0477576 117.629349,55.1843056 115.532033,55.1843056 C113.836417,55.1843056 112.325099,55.8010859 111.245758,57.0346465 L111.245758,55.3693094 L109.02541,55.3693094 L109.02541,70.5427506 L111.245758,70.5427506 L111.245758,61.1980901 C111.245758,58.5458642 112.756875,57.1580833 115.038488,57.1580833 C117.320504,57.1580833 118.770861,58.5149798 118.770861,61.1980901 L118.770861,70.5427506 L120.990302,70.5427506 L120.990302,60.9514184 C120.990302,58.5458642 122.563793,57.1580833 124.784242,57.1580833 C127.066259,57.1580833 128.515607,58.5149798 128.515607,61.1980901 L128.515607,70.5427506 L130.736056,70.5427506 L130.736056,70.5427506 Z M162.59345,56.60287 C161.514513,55.5235297 160.404288,55.1843056 158.95494,55.1843056 C157.196748,55.1843056 155.531411,55.9553062 154.698743,57.2197512 L154.698743,55.3693094 L152.478293,55.3693094 L152.478293,70.5427506 L154.698743,70.5427506 L154.698743,61.2289745 C154.698743,58.9159727 156.117812,57.1580833 158.338261,57.1580833 C159.510053,57.1580833 160.126732,57.4356395 160.959401,58.268308 L162.59345,56.60287 L162.59345,56.60287 Z M173.757264,65.1765299 C173.757264,66.4409749 173.510996,67.3045279 172.987172,67.7979723 C172.03036,68.7231932 170.889856,68.8156447 169.59493,68.8156447 C167.188771,68.8156447 166.109834,67.9829761 166.109834,66.2250867 C166.109834,64.4671972 167.220059,63.5419763 169.502075,63.5419763 L173.757264,63.5419763 L173.757264,65.1765299 L173.757264,65.1765299 Z M104.30645,63.5419763 L104.30645,62.5242031 C104.30645,58.0215353 101.993549,55.1843056 98.0769793,55.1843056 C94.2221782,55.1843056 91.8476094,58.0524198 91.8476094,62.9559795 C91.8476094,68.3222002 94.4688499,70.7277544 98.4778714,70.7277544 C101.068328,70.7277544 102.486994,69.9258694 104.028894,68.3838682 L102.517777,67.0577552 C101.315101,68.2605323 100.297429,68.7848612 98.5396402,68.7848612 C95.6407426,68.7848612 94.0679579,66.8727514 94.0679579,63.5419763 L104.30645,63.5419763 L104.30645,63.5419763 Z M207.557551,62.9559795 C207.557551,64.6522011 207.464695,66.5335273 206.354471,67.643752 C205.645945,68.3530847 204.658855,68.7539767 203.579918,68.7539767 C202.499972,68.7539767 201.54417,68.3530847 200.834635,67.643752 C199.724411,66.5335273 199.601277,64.6522011 199.601277,62.9559795 C199.601277,61.259758 199.724411,59.3785327 200.834635,58.268308 C201.54417,57.5589753 202.499972,57.1580833 203.579918,57.1580833 C204.658855,57.1580833 205.645945,57.5589753 206.354471,58.268308 C207.464695,59.3785327 207.557551,61.259758 207.557551,62.9559795 L207.557551,62.9559795 Z M145.508101,62.9559795 C145.508101,64.6522011 145.416255,66.5335273 144.30603,67.643752 C143.596495,68.3530847 142.609405,68.7539767 141.530468,68.7539767 C140.450522,68.7539767 139.49472,68.3530847 138.785185,67.643752 C137.67597,66.5335273 137.551826,64.6522011 137.551826,62.9559795 C137.551826,61.259758 137.67597,59.3785327 138.785185,58.268308 C139.49472,57.5589753 140.450522,57.1580833 141.530468,57.1580833 C142.609405,57.1580833 143.596495,57.5589753 144.30603,58.268308 C145.416255,59.3785327 145.508101,61.259758 145.508101,62.9559795 L145.508101,62.9559795 Z M190.410634,62.9559795 C190.410634,65.9166461 189.917089,68.7539767 186.617703,68.7539767 C183.318317,68.7539767 182.793484,65.9166461 182.793484,62.9559795 C182.793484,59.995313 183.318317,57.1580833 186.617703,57.1580833 C189.917089,57.1580833 190.410634,59.995313 190.410634,62.9559795 L190.410634,62.9559795 Z M102.086001,61.8766393 L94.0679579,61.8766393 C94.1296258,60.6429777 94.1913947,60.1804178 94.5306188,59.3476483 C95.1165146,57.9598674 96.4734111,57.0655309 98.0769793,57.0655309 C99.6806484,57.0655309 101.037545,57.9598674 101.623441,59.3476483 C101.962665,60.1804178 102.024333,60.6429777 102.086001,61.8766393 L102.086001,61.8766393 Z M175.977713,70.5427506 L175.977713,60.2420857 C175.977713,56.9421951 173.973253,55.1843056 169.902765,55.1843056 C167.436048,55.1843056 165.893845,55.67775 164.537352,57.4356395 L166.048267,58.8234204 C166.942503,57.5589753 167.929593,57.0963144 169.872487,57.0963144 C172.647039,57.0963144 173.757264,58.2066401 173.757264,60.4270895 L173.757264,61.8766393 L169.193231,61.8766393 C165.80099,61.8766393 163.950952,63.6036443 163.950952,66.2559711 C163.950952,67.4586473 164.351642,68.5997564 165.092465,69.3399735 C166.048267,70.3268624 167.281626,70.7277544 169.378941,70.7277544 C171.41368,70.7277544 172.523905,70.3268624 173.757264,69.0932008 L173.757264,70.5427506 L175.977713,70.5427506 Z M35.5287466,78.862346 L25.9722055,80.2082831 C25.5558318,80.2669333 25.2651681,80.6531194 25.3236027,81.0703555 C25.3824686,81.4878073 25.7675765,81.7789023 26.1839502,81.7202521 L35.7404913,80.374315 C36.1575119,80.3156648 36.44796,79.92991 36.3890941,79.5122426 C36.3306595,79.0950064 35.9451203,78.8039114 35.5287466,78.862346 Z M35.5287466,76.3178954 L25.9722055,77.6638324 C25.5558318,77.7224827 25.2651681,78.1082375 25.3236027,78.5259049 C25.3824686,78.9433567 25.7675765,79.2344517 26.1839502,79.1758014 L35.7404913,77.8298644 C36.1575119,77.7712142 36.44796,77.3850281 36.3890941,76.9677919 C36.3306595,76.5505558 35.9451203,76.2594608 35.5287466,76.3178954 Z M35.5287466,73.7734448 L25.9722055,75.1193818 C25.5558318,75.178032 25.2651681,75.5642181 25.3236027,75.9814543 C25.3820373,76.3989061 25.7671452,76.6900011 26.1839502,76.6309196 L35.7411382,75.2854138 C36.1575119,75.2263323 36.44796,74.8410087 36.3890941,74.4233413 C36.3306595,74.0061051 35.9457672,73.7150101 35.5287466,73.7734448 Z M35.4835299,81.4368334 L26.3908001,82.7167889 C25.8899011,82.7875142 25.7818725,83.481614 26.2465464,83.6825774 C27.2796102,84.1297856 27.8232032,84.362446 29.8405993,84.362446 C31.9677491,84.362446 35.3006791,83.185344 35.9188786,82.3030027 C36.1991923,81.9023697 35.9669632,81.3686956 35.4835299,81.4368334 Z M42.7081629,69.0550104 C42.5095714,68.8566345 42.1885044,68.8566345 41.9899129,69.0550104 C41.7913214,69.2540331 41.7913214,69.5761782 41.9899129,69.7749853 L46.2996283,74.0931102 C46.3992475,74.1922981 46.5288387,74.2421077 46.6588611,74.2421077 C46.7888836,74.2421077 46.918906,74.1922981 47.0183096,74.0931102 C47.2164698,73.8940875 47.2164698,73.5719423 47.0183096,73.3733508 L42.7081629,69.0550104 Z M53.2048115,57.3912217 L47.1097134,57.3912217 C46.8293997,57.3912217 46.6019143,57.6191383 46.6019143,57.9000989 C46.6019143,58.1810595 46.8293997,58.4089761 47.1097134,58.4089761 L53.2048115,58.4089761 C53.4857721,58.4089761 53.7128262,58.1810595 53.7128262,57.9000989 C53.7128262,57.6191383 53.4857721,57.3912217 53.2048115,57.3912217 Z M42.349081,46.8943143 C42.4791034,46.8943143 42.6091259,46.8445047 42.7080982,46.7453168 L47.0184605,42.4267607 C47.2164051,42.2283849 47.2164051,41.9062397 47.0184605,41.707217 C46.819869,41.5086255 46.4981551,41.5086255 46.2997793,41.707217 L41.9900638,46.0251262 C41.7914724,46.224149 41.7914724,46.5462941 41.9900638,46.7453168 C42.0890361,46.8445047 42.2190586,46.8943143 42.349081,46.8943143 Z M30.8563915,42.1244963 C31.1373521,42.1244963 31.3644062,41.8965797 31.3644062,41.6156191 L31.3644062,35.5088772 C31.3644062,35.2279166 31.1373521,35 30.8563915,35 C30.5754309,35 30.3483768,35.2279166 30.3483768,35.5088772 L30.3483768,41.6156191 C30.3483768,41.8965797 30.5754309,42.1244963 30.8563915,42.1244963 Z M19.0046202,46.7452306 C19.1042394,46.8444185 19.2342618,46.8942281 19.3636374,46.8942281 C19.4936598,46.8942281 19.6236822,46.8444185 19.7228702,46.7452306 C19.9214616,46.5462078 19.9214616,46.2240627 19.7228702,46.0252556 L15.4131547,41.7071308 C15.2145632,41.5087549 14.893065,41.5087549 14.6949048,41.7071308 C14.4963133,41.9061535 14.4963133,42.2282986 14.6949048,42.4266745 L19.0046202,46.7452306 Z M15.1109119,57.9001205 C15.1109119,57.6191599 14.8838578,57.3912433 14.6028972,57.3912433 L8.50801469,57.3912433 C8.2270541,57.3912433 8,57.6191599 8,57.9001205 C8,58.1810811 8.2270541,58.4089977 8.50801469,58.4089977 L14.6028972,58.4089977 C14.8838578,58.4089977 15.1109119,58.1810811 15.1109119,57.9001205 Z M19.0046202,69.0550104 L14.6949048,73.3733508 C14.4963133,73.5719423 14.4963133,73.8940875 14.6949048,74.0931102 C14.7938771,74.1922981 14.9241151,74.2421077 15.0541376,74.2421077 C15.1839444,74.2421077 15.3141824,74.1922981 15.4131547,74.0931102 L19.7228702,69.7749853 C19.9214616,69.5761782 19.9214616,69.2540331 19.7228702,69.0550104 C19.5242787,68.8566345 19.2032117,68.8566345 19.0046202,69.0550104 Z M27.1683903,53.1760798 C27.2181999,53.1165671 27.2897877,53.0859482 27.3618068,53.0859482 C27.4202414,53.0859482 27.4782448,53.1053545 27.5254669,53.1461078 C27.6330642,53.2362395 27.6468643,53.3968808 27.556517,53.5038312 C26.5816722,54.6595862 26.3781213,56.4141344 26.9971834,58.3178957 C27.0403085,58.4511525 26.9682895,58.5947594 26.8352483,58.6389627 L26.7558979,58.6512534 C26.6487319,58.6512534 26.5497596,58.5831156 26.5141813,58.475087 C25.8392721,56.4003343 26.0773231,54.4691885 27.1683903,53.1760798 Z M29.0408859,56.5370412 C29.3589341,56.0743079 29.8389175,55.8336694 30.3508134,55.8336694 C30.700343,55.8336694 31.0645352,55.9455792 31.4022054,56.1752209 C31.5184278,56.2545712 31.5483998,56.4128406 31.4703432,56.5284161 C31.4209649,56.6015133 31.3407521,56.640326 31.2590298,56.640326 C31.2096515,56.640326 31.1598419,56.6260947 31.1167167,56.5965539 C30.866375,56.4259938 30.601802,56.3425466 30.3518915,56.3425466 C30.0004213,56.3425466 29.6774136,56.5068535 29.4594158,56.8249018 C29.4106844,56.8967052 29.3309028,56.9355179 29.2506899,56.9355179 C29.2004491,56.9355179 29.1499926,56.9212866 29.1064362,56.8906677 C28.9910763,56.8106705 28.9617512,56.6519698 29.0408859,56.5370412 M30.6725273,52.5552928 C30.7223369,52.5022488 30.7893966,52.4759424 30.8564562,52.4759424 C30.919419,52.4759424 30.9823818,52.49923 31.0315445,52.5455896 C31.064104,52.577071 31.7040817,53.1700423 32.5711136,53.1700423 C32.812399,53.1700423 33.0709345,53.124114 33.3385263,53.0081072 C33.371517,52.9938759 33.4055859,52.9867603 33.4392236,52.9867603 C33.5377646,52.9867603 33.6311307,53.0443324 33.6733933,53.1405015 C33.7281623,53.2696615 33.6692965,53.4193059 33.5401365,53.4753686 C33.2009569,53.6224255 32.8742837,53.6804289 32.572623,53.6804289 C31.4994527,53.6804289 30.7227681,52.9537695 30.6815836,52.9145256 C30.5806707,52.8179252 30.5759269,52.6570682 30.6725273,52.5552928 M35.8762278,58.5783718 C36.4349146,59.1286492 36.646228,59.9779997 36.5060712,61.1039983 C36.4903305,61.2329426 36.37993,61.3269555 36.2544357,61.3269555 L36.2225231,61.3250149 C36.0834444,61.307118 35.9842564,61.1803299 36.0025846,61.0410356 C36.1220414,60.0821471 35.9609688,59.3768346 35.5226013,58.944289 C35.0818619,58.5082934 34.4494311,58.4375681 34.0927858,58.4375681 C34.0369387,58.4375681 33.987776,58.4395087 33.9476695,58.441665 C33.2171289,59.713858 32.1556024,60.1427379 31.2090046,60.1427379 C30.6699398,60.1427379 30.1681783,60.0038748 29.7852266,59.8029115 C29.6608104,59.7377924 29.612079,59.5836199 29.6774136,59.4587725 C29.7237732,59.3723065 29.8126111,59.3224969 29.9029584,59.3224969 C29.9426335,59.3224969 29.98274,59.3322001 30.0198276,59.3520377 C30.3363665,59.5174227 30.7492901,59.6312732 31.1936952,59.6312732 C32.0154456,59.6312732 32.9439308,59.2431466 33.5677366,58.0798447 C33.6056868,58.0080412 33.675334,57.959741 33.7555468,57.9478816 C33.7708563,57.9455097 33.8989381,57.928044 34.0919233,57.928044 C34.530722,57.928044 35.3067598,58.0181757 35.8762278,58.5783718 M25.2301289,58.1596263 C25.2016662,58.1712701 25.0554719,58.2269016 24.8238896,58.2269016 C24.7270736,58.2269016 24.6123606,58.2137484 24.4881601,58.1870108 C24.514682,58.2639892 24.5450853,58.3416146 24.5808792,58.4194555 C24.786802,58.8658012 25.1102409,59.2269746 25.582246,59.4568319 C25.9143099,59.6191982 26.2588802,59.7007048 26.6077629,59.7007048 C26.8634953,59.7007048 27.1041338,59.6569327 27.3214848,59.5842668 C27.3958757,59.5592542 27.461426,59.5329478 27.5170575,59.5072883 C27.5481076,59.4928414 27.5694546,59.4816288 27.5713952,59.4803351 C27.6833051,59.4158629 27.8105244,59.3865378 27.935803,59.3908503 C28.1302976,58.7249975 28.5876402,58.0039444 29.620704,57.6298334 C29.7759547,57.5739863 30.047859,57.5317236 30.3551259,57.5317236 C30.7385088,57.5317236 31.1764451,57.5972739 31.5121747,57.7820653 C31.6801473,57.4349075 32.02558,56.8915302 32.6508952,56.5413537 C33.1470505,56.2640587 33.7484312,56.1963522 34.2178488,56.1963522 C34.6460819,56.1963522 34.9634833,56.2528462 34.9904365,56.2580212 C35.1280059,56.2828182 35.2194313,56.4145656 35.1944186,56.5529975 C35.1722092,56.6746105 35.0676306,56.7628015 34.9477426,56.7628015 C34.9320019,56.7628015 34.9156143,56.7612921 34.8994424,56.7582734 C34.8938361,56.7571952 34.6023098,56.7063075 34.2141832,56.7063075 C33.8098846,56.7063075 33.3005761,56.7612921 32.8986494,56.98619 C32.1251992,57.4183043 31.8681731,58.2471704 31.8660168,58.2564423 C31.8392792,58.3433396 31.7681226,58.4106149 31.6792848,58.4308837 C31.6605253,58.4349806 31.6415502,58.4369212 31.6234376,58.4369212 C31.5527123,58.4369212 31.4847902,58.4084586 31.4354118,58.3556302 C31.2236672,58.1244792 30.7512308,58.0354257 30.3469322,58.0354257 C30.1228968,58.0354257 29.9202084,58.062379 29.7938516,58.1087386 C29.0469234,58.3789178 28.5917371,58.8714075 28.4047894,59.6038887 C28.4461896,59.6474452 28.4839241,59.6946673 28.5123868,59.7483581 C28.6529749,60.0107749 29.6590854,60.6567902 30.5190016,61.0507387 C30.606977,61.0917076 30.8282092,61.1270703 31.2107296,61.1270703 C31.2797299,61.1270703 31.351749,61.1257765 31.4261399,61.1234047 C31.6818723,61.1149952 31.9576578,61.093217 32.2379715,61.0619513 C32.3421189,61.0503075 32.4954289,61.0304699 32.616395,61.0142979 C32.7612957,60.659162 33.0545469,60.3710858 33.4137797,60.2593916 C33.5250427,60.2253227 33.6371682,60.2089351 33.7495093,60.2089351 C34.1872299,60.2089351 34.6296943,60.4607862 35.0055303,60.9336538 C35.0928588,61.0425449 35.0762556,61.2034019 34.966502,61.290946 C34.91928,61.3284649 34.8634328,61.3467931 34.8075857,61.3467931 C34.7334104,61.3467931 34.6596663,61.3138024 34.6094255,61.2512708 C34.3299743,60.9010943 34.0319793,60.7178123 33.7510187,60.7178123 C33.6876247,60.7178123 33.6250931,60.7270842 33.564071,60.7458437 C33.398039,60.7971626 33.2529228,60.9176975 33.1552442,61.0714388 C33.2893636,61.1389297 33.3976078,61.2465271 33.4616487,61.3912121 C33.6548495,61.8209545 34.7890419,62.3697225 35.9021029,62.3697225 C36.7928537,62.3697225 37.5615601,62.0510274 38.0958811,61.2816741 C38.7015744,60.4086047 38.813053,59.4993102 38.5650832,58.5833312 C38.475814,58.2532079 38.3444978,57.9440003 38.1890315,57.6649804 C38.1196,57.5403486 38.0546966,57.4385732 38.0033776,57.3650447 C37.5671664,57.8139779 37.4125626,58.2646361 37.9041897,59.1814776 C37.9708181,59.3052468 37.9240273,59.4594194 37.8006892,59.5256165 L37.68037,59.5566667 C37.590454,59.5566667 37.5024786,59.5081508 37.4567659,59.4221161 C36.7533941,58.1100323 37.1805491,57.4310263 37.8080205,56.8473269 C37.8099612,56.7975173 37.8164299,56.7479233 37.8291519,56.6989762 C38.0730248,55.7661785 38.0337809,55.1115382 37.5600507,54.3445567 C37.3761218,54.0463461 37.0224953,53.834817 36.5453151,53.7086759 C36.2080761,53.6194067 35.8671715,53.5855535 35.6004423,53.5855535 L35.545242,53.5859847 C35.4859449,53.5894347 35.4298822,53.5831816 35.3753288,53.5730472 C35.2653596,53.7666792 35.1027776,54.0163741 34.8796048,54.267147 C35.6064798,54.4284352 36.5233212,54.9989814 36.8715571,56.4482033 C36.9047635,56.5846945 36.820885,56.7224795 36.6848251,56.755039 L36.6248811,56.7628015 C36.5099524,56.7628015 36.4068832,56.6838824 36.3779894,56.5678757 C35.9624782,54.8422214 34.6989103,54.7288021 34.3858214,54.7272927 C34.1482016,54.9073404 33.8719848,55.0645317 33.5528585,55.1714822 C33.2680166,55.2665732 32.9708841,55.3144422 32.6640484,55.3144422 C31.9772798,55.3144422 31.2372516,55.0757442 30.4551764,54.6005047 C30.3352884,54.5271919 30.2966913,54.3708631 30.3697885,54.2514063 C30.4180887,54.172056 30.5023984,54.1287152 30.5877863,54.1287152 C30.6328521,54.1287152 30.6774867,54.1410058 30.71824,54.1653716 C31.4192399,54.5908015 32.0712927,54.8044868 32.6662046,54.8044868 C32.9174088,54.8044868 33.158263,54.766321 33.3883359,54.6899895 C33.6708058,54.5964078 33.91511,54.4512916 34.1234047,54.285044 C34.1294422,54.2798689 34.1354797,54.2746939 34.1421641,54.2697345 C34.5402096,53.9469425 34.8041357,53.5501908 34.9479582,53.2933803 C34.8931892,53.2116581 34.8539453,53.1185077 34.839714,53.0165166 C34.8338921,52.9841727 34.8196608,52.9330694 34.7881794,52.8558753 C34.7334104,52.721756 34.6508257,52.5803054 34.5343877,52.4373454 C34.1893862,52.0145029 33.6281119,51.6716577 32.7854458,51.4696162 C32.5256165,51.407516 32.263631,51.3762502 32.0057424,51.3762502 C31.3506708,51.3762502 30.7344119,51.5750573 30.1752939,51.9092775 C29.9775649,52.0274405 29.8011829,52.1544442 29.6495979,52.2810166 C29.5605444,52.3556232 29.4975816,52.4147047 29.4732159,52.4403642 C29.4667471,52.4472642 29.4589846,52.4522236 29.4520845,52.458908 C29.7731516,53.7194572 28.6747531,55.6365873 27.9601688,56.4234063 C27.9103592,56.4781753 27.8413589,56.5062067 27.7723586,56.5062067 C27.7113364,56.5062067 27.6494518,56.4844284 27.6011516,56.4400095 C27.4974355,56.3455653 27.4898886,56.1847084 27.5843328,56.0807767 C28.3463548,55.2419918 29.169399,53.6086254 28.9770606,52.6510307 C28.8522132,52.6508151 28.7271502,52.6178243 28.6178278,52.547099 C28.5891496,52.529202 28.5697433,52.5177739 28.5227368,52.4927613 C28.4420927,52.4500673 28.3493736,52.4069421 28.2467356,52.3664045 C27.9526218,52.2503977 27.641258,52.1813974 27.3298942,52.1813974 C27.147259,52.1813974 26.9697989,52.2053319 26.8033356,52.2527696 C26.4240496,52.3599357 26.0775388,52.6553432 25.7801906,53.0788325 C25.6706526,53.2345144 25.5762085,53.3960183 25.4977206,53.5532096 C25.4530861,53.6420475 25.4220359,53.7125571 25.4088828,53.7457635 C25.7926969,54.586489 25.3446262,55.6603061 24.6358638,56.1642239 C24.5912292,56.1959209 24.5403415,56.2110148 24.4890226,56.2110148 C24.4094566,56.2110148 24.3316156,56.1734958 24.2813748,56.1042799 C24.2011619,55.9891357 24.2281152,55.830435 24.3423969,55.7489284 C24.8139708,55.4140613 25.1415066,54.7111208 25.0108373,54.1433777 C24.8851274,54.1910311 24.7451862,54.2039686 24.6050293,54.1692528 C23.976911,54.0114147 22.9835223,54.9301967 22.9682129,55.7426752 C22.9602347,56.1553833 23.1333823,56.504266 23.441943,56.8018298 C23.5564404,56.9122303 23.6821503,57.0077526 23.809154,57.0868873 C23.886995,57.1356187 23.9493109,57.1683939 23.9833798,57.1837033 C24.1640743,57.2658568 24.2943123,57.4239106 24.3512376,57.6130145 C24.5448697,57.6930118 24.7074516,57.7173775 24.8247521,57.7173775 C24.9573621,57.7173775 25.0345562,57.689993 25.0416718,57.6874055 C25.0707813,57.6766242 25.1007533,57.6716648 25.1305097,57.6716648 C25.2327164,57.6716648 25.3293168,57.7326869 25.3683451,57.832953 C25.4185859,57.9621129 25.3586419,58.1067979 25.2301289,58.1596263 Z M34.2863747,54.7307428 C34.2960779,54.7307428 34.3055654,54.7303115 34.3174249,54.7292334 C34.3174249,54.7292334 34.3402812,54.7272927 34.3823283,54.7272927 L34.3803876,54.7272927 C34.3402812,54.7272927 34.3152686,54.7292334 34.3152686,54.7292334 C34.3055654,54.7303115 34.2960779,54.7307428 34.2863747,54.7307428 Z M30.042188,45.2032896 C23.8470395,45.5905537 18.7537394,50.552322 18.209284,56.7470393 C17.7926947,61.4862815 19.9726728,65.744678 23.4834942,68.2575826 C24.2838976,68.8311475 24.7612934,69.7538109 24.7612934,70.739437 L24.7612934,73.0136437 C24.7612934,73.6320588 25.3074739,74.1077296 25.918989,74.0216949 L27.8089503,73.7556125 L27.8089503,60.4445927 C27.8089503,60.4351051 27.8124003,60.4266957 27.8128316,60.4174238 C27.5655086,60.5194149 27.1409412,60.6539655 26.6076982,60.6539655 C26.1152086,60.6539655 25.6306972,60.5394681 25.1683952,60.3143546 C23.8629958,59.6784738 23.5348131,58.4213746 23.4584816,57.9838696 C23.0694924,57.7693218 21.9945971,57.0556 22.0191785,55.7238942 C22.0459161,54.4113792 23.4056532,53.0785953 24.6112178,53.2047365 C24.8300781,52.7437283 25.4534526,51.6433892 26.5475386,51.3350441 C26.7983116,51.2645344 27.0618064,51.2285249 27.3298295,51.2285249 C28.0519607,51.2285249 28.6507539,51.4859822 28.9399083,51.6364891 C29.33321,51.2835095 30.4486429,50.4229464 32.0058934,50.4229464 C32.3377417,50.4229464 32.6739025,50.4636997 33.0053195,50.5432657 C34.9713967,51.0141927 35.5525086,52.1460132 35.7159531,52.6350528 C36.2992212,52.6512247 37.7236461,52.8017316 38.3655645,53.8416955 C39.0674269,54.9789066 38.982039,55.9796266 38.7769788,56.8175489 C39.1271553,57.335698 40.440964,59.567642 38.8735792,61.8267549 C38.0160349,63.0627227 36.7843796,63.3223363 35.9022539,63.3223363 C35.2107415,63.3223363 34.4976666,63.1532856 33.9038328,62.8844001 L33.9038328,72.8972057 L36.0766953,72.5912325 C36.5780255,72.5205072 36.9514896,72.0905491 36.9514896,71.5836125 L36.9514896,70.7398683 C36.9514896,69.7680422 37.4060291,68.8438695 38.1973763,68.2810858 C41.4388808,65.9762602 43.5543868,62.1859877 43.5543868,57.9002067 C43.5543868,50.6036409 37.4243573,44.7416344 30.042188,45.2032896 Z M31.2106649,62.0792528 C30.7164503,62.0792528 30.3604519,62.0266401 30.1224009,61.9164553 C30.1111883,61.9114959 29.461723,61.6109133 28.8251953,61.2098491 L28.8251953,73.6124369 L32.888019,73.0403813 L32.888019,62.4801014 C32.888019,62.3990261 32.9087191,62.3237726 32.9425724,62.2556348 C32.8470501,62.1620532 32.7640341,62.0648059 32.6980526,61.9647555 C32.3991951,62.0057244 31.7863862,62.0792528 31.2106649,62.0792528 Z" id="memorado" fill="#9B9B9B"></path>
        </g>
    </g>
</svg>