<?xml version="1.0" encoding="UTF-8" standalone="no"?>
<svg width="218px" height="120px" viewBox="0 0 218 120" version="1.1" xmlns="http://www.w3.org/2000/svg" xmlns:xlink="http://www.w3.org/1999/xlink">
    <!-- Generator: Sketch 3.8.3 (29802) - http://www.bohemiancoding.com/sketch -->
    <title>teo</title>
    <desc>Created with Sketch.</desc>
    <defs></defs>
    <g id="Page-1" stroke="none" stroke-width="1" fill="none" fill-rule="evenodd">
        <g id="Rectangle-1">
            <rect x="0" y="0" width="218" height="120"></rect>
            <path d="M69,22 L144.039,22 L144.039,96.911051 L69,96.911051 L69,22 Z M120.822875,47.6789231 C120.617274,47.4600862 120.36667,47.2597798 120.094006,47.0744743 C119.817813,46.8926985 119.520442,46.7303357 119.208952,46.5926802 C118.894816,46.4550247 118.577149,46.3456063 118.260365,46.2679544 C117.938286,46.1850082 117.626797,46.1417703 117.336485,46.1400054 C117.039996,46.1400054 116.790275,46.1779489 116.60144,46.2538359 C116.400251,46.3350174 116.259949,46.4479655 116.183179,46.5926802 C116.09935,46.7365125 116.083467,46.9129939 116.134647,47.1150651 C116.184062,47.314489 116.306716,47.5350907 116.503493,47.774223 C116.703799,48.0133553 116.963227,48.2401339 117.257951,48.4483819 C117.558851,48.6566299 117.891519,48.8437002 118.24007,48.9963566 C118.593915,49.1516602 118.952172,49.2707851 119.301605,49.3475545 C119.648391,49.4260887 119.987235,49.461385 120.286371,49.4446193 C120.590802,49.4260887 120.827287,49.3607906 120.998474,49.2584314 C121.167013,49.1604842 121.275549,49.021064 121.31614,48.8578187 C121.359378,48.6972206 121.339083,48.5145624 121.257019,48.3116088 C121.174073,48.1121849 121.031123,47.9012896 120.822875,47.6789231 Z M126.825624,54.0311056 C126.559137,53.7434409 126.243235,53.4760717 125.907921,53.2466459 C125.574371,53.0198673 125.218761,52.8213257 124.862269,52.6633749 C124.504011,52.5054241 124.143989,52.3889464 123.797203,52.3174714 C123.443358,52.245114 123.110691,52.2257011 122.807143,52.2583501 C122.50183,52.2936464 122.255639,52.3854167 122.07651,52.5239546 C121.894734,52.6633749 121.775609,52.8504452 121.728842,53.0745765 C121.681192,53.3004727 121.710311,53.5616651 121.81267,53.847565 C121.921206,54.1369944 122.105629,54.4528961 122.379176,54.7776218 C122.656251,55.1067596 122.988919,55.4076603 123.355118,55.6741472 C123.728376,55.946811 124.129871,56.1735895 124.537543,56.3571302 C124.947862,56.5327291 125.361711,56.662443 125.747323,56.7268587 C126.13117,56.7930392 126.491192,56.7930392 126.800034,56.7215642 C127.107994,56.6527365 127.333008,56.5203754 127.482135,56.3412468 C127.62332,56.1682951 127.690383,55.946811 127.690383,55.699737 C127.683323,55.4535455 127.609201,55.1844114 127.460957,54.899394 C127.318889,54.619671 127.111524,54.3240647 126.825624,54.0311056 Z M135.042244,62.708695 C134.658397,62.3071999 134.244548,61.9462954 133.82364,61.6436299 C133.402732,61.3436115 132.968588,61.0991848 132.546797,60.9156442 C132.130301,60.7268091 131.716452,60.6041546 131.331723,60.5520925 C130.950523,60.4973833 130.595796,60.5167963 130.287836,60.6226851 C129.986053,60.7250443 129.761039,60.9103497 129.615442,61.1485996 C129.467197,61.4000856 129.402782,61.7124576 129.424842,62.0654204 C129.452196,62.428972 129.564262,62.8392912 129.767216,63.2716706 C129.975464,63.7190509 130.272835,64.1849617 130.665506,64.6535198 C131.063471,65.1300195 131.52497,65.5588693 132.002352,65.9224209 C132.487676,66.2921494 132.992413,66.5895205 133.488325,66.807475 C133.977179,67.0236647 134.458091,67.1533785 134.88694,67.1886748 C135.31579,67.2169118 135.688166,67.1569082 135.985537,66.987486 C136.275849,66.8145343 136.461154,66.5630483 136.544983,66.2462642 C136.632341,65.9383042 136.62087,65.5773998 136.526452,65.1794343 C136.43027,64.7947049 136.256436,64.3808561 136.002303,63.9590656 C135.751699,63.5408047 135.430503,63.1190142 135.042244,62.708695 Z M113.18882,47.8448156 C112.999102,47.5933296 112.751146,47.3568446 112.451127,47.1477141 C112.16258,46.9394661 111.829031,46.7488662 111.471656,46.5926802 C111.109869,46.4338469 110.723375,46.3032507 110.341293,46.2123628 C109.953916,46.1267693 109.549774,46.0755897 109.167691,46.0711777 C108.772373,46.0650009 108.427352,46.1135332 108.138805,46.2008915 C107.848493,46.2891322 107.612008,46.4232581 107.443468,46.5891506 C107.274046,46.7603375 107.177864,46.9632911 107.162863,47.1944817 C107.146097,47.4318491 107.219337,47.6921592 107.387877,47.9692349 C107.561711,48.2498403 107.819374,48.5163272 108.13704,48.7589891 C108.453824,49.001651 108.830612,49.2213703 109.238284,49.404911 C109.644191,49.5840396 110.086277,49.721695 110.528363,49.8134654 C110.964272,49.8999412 111.40371,49.9378847 111.815794,49.9184718 C112.219937,49.8955292 112.563193,49.8152302 112.832327,49.6908108 C113.096167,49.5716859 113.291179,49.4075582 113.406774,49.2160759 C113.519722,49.029888 113.563842,48.8092863 113.529429,48.5763309 C113.497662,48.3460227 113.383831,48.1007136 113.18882,47.8448156 Z M118.882285,55.3590397 C118.612269,55.0087242 118.284896,54.6910577 117.923109,54.418394 C117.559557,54.1448478 117.152768,53.9083628 116.732742,53.7248222 C116.313599,53.5421639 115.868866,53.4018612 115.432074,53.323327 C114.990871,53.2447928 114.546138,53.2227326 114.122583,53.2721474 C113.699027,53.3197974 113.333711,53.4389223 113.033692,53.6109917 C112.733674,53.7892379 112.503366,54.0195461 112.355122,54.2930922 C112.205995,54.5807568 112.137167,54.9054826 112.171581,55.2610926 C112.198053,55.621997 112.333944,56.0146681 112.580135,56.4152808 C112.827209,56.821188 113.169583,57.1970933 113.57902,57.5271135 C113.979633,57.8553688 114.445543,58.1403863 114.938809,58.356576 C115.435604,58.5718832 115.954459,58.7236572 116.463608,58.7916026 C116.96305,58.8630775 117.451021,58.8480766 117.901049,58.7457174 C118.338723,58.6468878 118.690803,58.4712888 118.95376,58.2383334 C119.208776,58.0106724 119.373786,57.7283022 119.454085,57.4150478 C119.530854,57.1106174 119.527325,56.7717732 119.425848,56.417928 C119.33143,56.0755541 119.146125,55.7172969 118.882285,55.3590397 Z M127.113465,66.2314398 C126.7155,65.7108197 126.265472,65.2510858 125.783678,64.8734156 C125.310708,64.4983927 124.803324,64.1895503 124.290645,63.9663013 C123.780614,63.7412876 123.258229,63.5956904 122.757022,63.5462756 C122.251403,63.4968608 121.759902,63.5409812 121.312522,63.6962848 C120.851023,63.8489412 120.477765,64.1057216 120.19363,64.4410362 C119.905966,64.7834101 119.707424,65.2087302 119.617419,65.6949364 C119.521236,66.1890843 119.530943,66.7432358 119.660656,67.333566 C119.7939,67.9353675 120.048915,68.5689357 120.440704,69.2025038 C120.837787,69.8466609 121.329288,70.4211078 121.87638,70.9055491 C122.434944,71.395285 123.049981,71.783544 123.668549,72.0553253 C124.29241,72.3279891 124.920684,72.4788806 125.514544,72.4912343 C126.102227,72.503588 126.646672,72.3835807 127.1117,72.1135642 C127.567905,71.8497245 127.902337,71.471172 128.110585,71.0229093 C128.317068,70.5808234 128.415015,70.0716746 128.395602,69.5272296 C128.381484,68.9995502 128.260594,68.4383395 128.039992,67.873599 C127.829097,67.3220947 127.517607,66.7688256 127.113465,66.2314398 Z M102.835186,48.0628583 C102.687825,47.7698992 102.445163,47.4892938 102.137203,47.2413375 C101.826595,46.9960284 101.45069,46.7727794 101.030664,46.5865916 C100.611521,46.4039333 100.136786,46.2539242 99.6426383,46.1489178 C99.1440784,46.0430289 98.6155167,45.9768484 98.0772485,45.9750836 C97.5354507,45.971554 97.0298315,46.0244984 96.5850984,46.1268576 C96.1253645,46.2300992 95.7309286,46.3898148 95.4114973,46.5865916 C95.0876539,46.79131 94.8467569,47.0313246 94.708219,47.3092828 C94.5635042,47.5934178 94.5352672,47.9066723 94.6349792,48.2402221 C94.7399856,48.5781839 94.9676466,48.9046745 95.2994316,49.1993984 C95.6285694,49.4941223 96.0583015,49.7597268 96.5498022,49.9750341 C97.0430676,50.1929886 97.5981016,50.3562338 98.1849021,50.4621227 C98.7619963,50.5644819 99.3637978,50.6112494 99.9594224,50.5759531 C100.542693,50.5433041 101.060666,50.4427097 101.493928,50.2874061 C101.919248,50.1409266 102.266034,49.937973 102.51399,49.7032527 C102.761947,49.478239 102.919898,49.2161641 102.974607,48.9364411 C103.031081,48.6602478 102.983431,48.3655239 102.835186,48.0628583 Z M107.466587,57.2660975 C107.242456,56.8257765 106.915083,56.4286934 106.522412,56.0872019 C106.127976,55.7501225 105.662948,55.4624578 105.152034,55.2374441 C104.642003,55.0150775 104.078145,54.8518322 103.489579,54.7627091 C102.902779,54.669174 102.282447,54.6559379 101.658585,54.7274129 C101.025899,54.8024175 100.439099,54.9647803 99.9281852,55.1915589 C99.4049179,55.4245143 98.9557728,55.7324743 98.6054573,56.0951436 C98.2401408,56.4639896 97.9815956,56.8901922 97.8483522,57.3578678 C97.7080495,57.8334851 97.7071671,58.3461636 97.8660003,58.8738429 C98.0292456,59.407699 98.3469121,59.9000821 98.7775266,60.3280494 C99.2134356,60.7621936 99.7614103,61.1213332 100.38439,61.3957618 C101.010016,61.6675431 101.701823,61.8449069 102.409513,61.9154994 C103.121616,61.9843272 103.843425,61.9463837 104.543173,61.786668 C105.229686,61.630482 105.813839,61.3763488 106.303575,61.0516231 C106.771251,60.734839 107.136567,60.3545216 107.388053,59.9327311 C107.634245,59.526824 107.764841,59.0829733 107.780724,58.6232393 C107.792195,58.1767414 107.693366,57.7178898 107.466587,57.2660975 Z M89.8070664,68.4581936 C88.6016985,69.6679735 87.9919554,71.2686596 87.9919554,73.2178964 C87.9919554,75.2024295 88.5478717,76.7660545 89.6455859,77.870828 C90.734476,78.9720718 92.2504511,79.534165 94.1379194,79.534165 C96.127747,79.534165 97.643722,79.126493 98.6558427,78.330562 C98.5931918,78.2008481 97.6869599,76.4139742 97.6013665,76.2374928 C96.8892641,76.9054748 95.8780258,77.2478487 94.5702988,77.2478487 C93.4752318,77.2478487 92.5884129,76.9619489 91.9407262,76.3910316 C91.2877451,75.8218792 90.9312527,75.0153593 90.8765435,73.9908848 L90.8721315,73.8955849 L99.9097429,73.8955849 C100.062399,73.2152492 100.144463,72.6893347 100.144463,72.3504904 C100.144463,70.6968599 99.5938412,69.3150107 98.5093632,68.2481808 C97.4257675,67.1813508 95.9662665,66.6369058 94.1679212,66.6369058 C92.4825241,66.6369058 91.0124342,67.251061 89.8070664,68.4581936 Z M103.962814,68.4202501 C102.830686,69.6044402 102.260651,71.1636532 102.260651,73.0537687 C102.260651,75.0100648 102.806861,76.5939852 103.888692,77.7684688 C104.968758,78.9394227 106.506793,79.534165 108.452501,79.534165 C110.358499,79.534165 111.882416,78.9473644 112.981013,77.7861169 C114.076962,76.6231046 114.630231,75.027713 114.630231,73.0537687 C114.630231,71.0710004 114.082257,69.4888449 113.008367,68.3487752 C111.930066,67.2122351 110.400855,66.6369058 108.452501,66.6369058 C106.598564,66.6369058 105.09053,67.2360601 103.962814,68.4202501 Z M83.8445547,77.1322534 C83.1306875,77.1322534 82.6383045,76.9469479 82.3541695,76.5736898 C82.0726817,76.1995493 81.932379,75.5633339 81.932379,74.6650437 L81.932379,69.1517654 L85.7743786,69.1517654 L85.7743786,66.7745613 L82.6930137,66.7745613 L82.6930137,66.7798557 L78.1168516,66.7798557 L78.1168516,66.7745613 L76.2276184,66.7745613 L76.2276184,69.1517654 L78.9877872,69.1517654 L78.9877872,75.5253904 C78.9877872,76.8392943 79.3275138,77.8478854 79.9999079,78.5555757 C80.6749492,79.2659133 81.6403023,79.6215232 82.9012618,79.6215232 C84.163986,79.6215232 85.1416929,79.5041631 85.8220286,79.2676781 L85.8220286,76.5604537 C85.2087558,76.9416535 84.5513626,77.1322534 83.8445547,77.1322534 Z M105.247599,73.0537687 C105.247599,71.7469241 105.535263,70.710096 106.105298,69.9803455 C106.68504,69.2355941 107.468617,68.8641008 108.452501,68.8641008 C110.572924,68.8641008 111.647696,70.2715398 111.647696,73.0537687 C111.647696,74.4029689 111.360031,75.4556803 110.791761,76.1907252 C110.218197,76.9310646 109.434619,77.3104996 108.452501,77.3104996 C106.324135,77.3104996 105.247599,75.8765884 105.247599,73.0537687 Z M90.9894916,71.7663371 C91.4059877,69.8735743 92.4931129,68.9170452 94.2164536,68.9170452 C96.1012747,68.9170452 97.1663399,69.8753391 97.3754703,71.7725139 L97.3851768,71.8704611 L90.9718435,71.8704611 L90.9894916,71.7663371 Z" id="Rectangle-path" fill="#9B9B9B"></path>
        </g>
    </g>
</svg>