<?xml version="1.0" encoding="UTF-8" standalone="no"?>
<svg width="218px" height="120px" viewBox="0 0 218 120" version="1.1" xmlns="http://www.w3.org/2000/svg" xmlns:xlink="http://www.w3.org/1999/xlink">
    <!-- Generator: Sketch 3.8.3 (29802) - http://www.bohemiancoding.com/sketch -->
    <title>trafi</title>
    <desc>Created with Sketch.</desc>
    <defs></defs>
    <g id="Page-1" stroke="none" stroke-width="1" fill="none" fill-rule="evenodd">
        <g id="Rectangle-1">
            <rect x="0" y="0" width="218" height="120"></rect>
            <path d="M54.6227492,60.1037573 C52.4443339,60.7462798 50.6883992,62.7574632 50.4309501,65.0260956 C50.1558977,68.2365076 53.5313411,71.202673 56.6801414,70.3973195 C59.1864191,69.7657991 61.3758365,67.2309159 60.896145,64.5552059 C60.3724452,61.806882 57.4942966,59.3292097 54.6227492,60.1037573 L54.6227492,60.1037573 Z M55.7009547,32 L56.3698822,32 C57.2654529,32.0814155 58.1390195,32.3872738 58.8673583,32.9219758 C66.6040331,38.5330454 74.3341067,44.1507162 82.0707815,49.7639863 C82.8695337,50.3470974 83.7431003,50.8928015 84.2866039,51.7465642 C85.1007591,52.9567949 85.3075985,54.5388965 84.8367087,55.9207599 C81.7605223,65.3825636 78.6821355,74.8465677 75.6037487,84.3083713 C75.0426417,86.1941308 73.2206944,87.5979984 71.2535194,87.6552093 C69.7704367,87.6948169 68.287354,87.6574097 66.8064717,87.6706123 C66.3971937,83.5096191 65.5390301,79.4014359 65.0945454,75.2448436 C65.0043282,74.3954817 64.8789043,73.4977105 64.3199977,72.8155805 C63.670874,71.8297926 62.4870483,71.2620844 61.3186256,71.2906898 C58.0928107,71.3412995 54.8647953,71.3060928 51.6389804,71.3016919 C51.2363036,71.3390991 50.8754348,71.1608651 50.556374,70.9386227 C49.3901517,70.1640751 48.221729,69.3895274 47.0511058,68.621581 C47.6100124,65.9370693 48.179921,63.2569584 48.7542305,60.5768475 C49.4011538,60.5680458 50.052478,60.6230563 50.6950004,60.5306387 C51.1526877,60.3964131 51.3463246,59.7934982 51.0734726,59.4106252 C49.9094507,57.2146066 48.6200049,55.0801997 47.497791,52.8665777 C47.414175,47.6163769 47.4889893,42.355174 47.4603838,37.1005723 C49.3879513,35.7077068 51.3045166,34.2994383 53.2386853,32.9153745 C53.9582225,32.3916747 54.8163861,32.0836159 55.7009547,32 Z M28.9922633,50.5121289 C34.6319384,46.410547 40.2782147,42.3177668 45.9200902,38.2183854 C45.9266915,42.8986776 45.913489,47.5789698 45.9288919,52.2592619 C45.9288919,52.5827236 45.9244911,52.9215882 45.7418562,53.2032419 C44.6042394,55.276037 43.4358167,57.3334292 42.3092019,59.415026 C42.0385503,59.797899 42.2321872,60.3942127 42.6854736,60.5284383 C43.2641839,60.616455 43.8494955,60.5724466 44.4326067,60.5768475 C43.862698,63.2987664 43.2795869,66.0184848 42.7052774,68.7404037 C42.4126216,69.9660373 43.2377789,71.1014537 44.1025438,71.8826027 C46.0829213,73.7419571 48.0941046,75.5727061 50.0964864,77.4122568 C50.1118893,80.8317086 50.120691,84.2511604 50.1162901,87.6706123 C47.0995151,87.6662114 44.08274,87.6772135 41.0681653,87.6662114 C39.0217752,87.7014181 37.0722036,86.2777467 36.486892,84.317173 C33.5317287,75.2382423 30.5831666,66.1571112 27.6280033,57.0781806 C27.3551513,56.220017 27.0030842,55.3640538 27.0008837,54.4486793 C26.9700779,52.9127865 27.7468259,51.4054992 28.9922633,50.5121289 Z M46.690237,54.5719028 C47.5285968,56.0725889 48.358155,57.5754753 49.1877131,59.0805623 C48.8840552,59.0783618 48.5803973,59.0761614 48.274539,59.0717606 C47.3283587,58.2444029 45.8056684,58.1585865 44.8836927,59.0717606 C44.7120599,59.073961 44.3687945,59.0783618 44.1971618,59.0805623 C45.0245195,57.5754753 45.8606789,56.0747893 46.690237,54.5719028 Z M61.9215405,80.2023886 C62.537658,82.6492551 62.6916873,85.1907395 63.1603767,87.6706123 L61.7785132,87.6706123 C61.7763128,85.6880343 61.81372,83.7054564 61.7785132,81.7228785 C61.7609099,81.2123812 61.8181208,80.7018838 61.9215405,80.2023886 Z M98.5027289,50.2902727 C104.078243,50.2902727 109.658442,50.2855874 115.238641,50.2949581 L115.238641,54.9708931 C113.364518,54.9755784 111.495081,54.9755784 109.620959,54.9802637 C109.611589,61.0664757 109.620959,67.157373 109.616274,73.2482703 L104.059501,73.2482703 L104.059501,54.9802637 C102.20412,54.9755784 100.353425,54.9755784 98.5027289,54.9755784 C98.4933583,53.4106863 98.4933583,51.8504795 98.5027289,50.2902727 Z M125.550998,54.9802637 C125.546313,56.6950855 125.546313,58.4099074 125.550998,60.1247293 C126.811345,60.1106733 128.081063,60.1950088 129.336725,60.0872468 C131.702805,59.5062689 131.70749,55.6080946 129.346096,55.0224314 C128.085749,54.9052988 126.816031,54.9896343 125.550998,54.9802637 Z M119.98954,50.2949581 C123.480093,50.3511817 126.980016,50.1590842 130.461199,50.3886642 C134.045457,50.7588033 136.851955,54.1931323 136.68797,57.7633352 C136.84727,60.3449386 135.127763,62.5657735 133.028746,63.8636031 C134.69203,66.9746461 136.233495,70.1512833 137.92489,73.2482703 L131.454483,73.2482703 C130.067633,70.4651988 128.788544,67.6305889 127.453232,64.8240908 C126.820716,64.8194055 126.183514,64.8147202 125.550998,64.8147202 C125.541628,67.6259036 125.550998,70.4370869 125.546313,73.2482703 L119.98954,73.2482703 C119.98954,65.5971662 119.984855,57.9460621 119.98954,50.2949581 Z M148.227877,65.2645095 C149.549134,65.2832507 150.87039,65.2879361 152.191646,65.2832507 C151.531018,63.2451428 150.893816,61.1976642 150.251929,59.1501857 C149.595987,61.1929789 148.897876,63.2217163 148.227877,65.2645095 Z M147.942074,50.3136993 C149.385148,50.2855874 150.828222,50.2809021 152.275982,50.2949581 C155.016885,57.9507474 157.729677,65.6159074 160.536175,73.2482703 L154.698285,73.2482703 C154.318775,72.17065 153.995489,71.0742885 153.648776,69.9872976 C151.320179,69.9498151 148.991582,69.9685564 146.662985,69.9685564 C146.292846,71.0649179 145.932078,72.1659647 145.515086,73.2482703 L139.733418,73.2482703 C142.450896,65.5971662 145.229282,57.9648034 147.942074,50.3136993 Z M164.031413,50.2949581 C169.166508,50.2855874 174.296918,50.2855874 179.427328,50.2949581 L179.427328,54.9708931 C176.147614,54.984949 172.872585,54.9662078 169.592871,54.9802637 C169.583501,56.5357851 169.588186,58.0959919 169.592871,59.6561987 C172.404054,59.6702546 175.210553,59.6515134 178.021736,59.6655693 L178.021736,64.3415043 C175.210553,64.3555602 172.404054,64.336819 169.592871,64.3508749 C169.583501,67.3166734 169.592871,70.2824718 169.588186,73.2482703 L164.031413,73.2482703 C164.031413,65.5971662 164.026728,57.9460621 164.031413,50.2949581 Z M184.178228,50.2949581 C186.033609,50.2855874 187.884304,50.2855874 189.735,50.2949581 L189.735,73.2482703 L184.178228,73.2482703 C184.178228,65.5971662 184.173542,57.9460621 184.178228,50.2949581 Z" id="Fill-1" fill="#9B9B9B"></path>
        </g>
    </g>
</svg>