<?xml version="1.0" encoding="UTF-8" standalone="no"?>
<svg width="218px" height="120px" viewBox="0 0 218 120" version="1.1" xmlns="http://www.w3.org/2000/svg" xmlns:xlink="http://www.w3.org/1999/xlink">
    <!-- Generator: Sketch 3.8.3 (29802) - http://www.bohemiancoding.com/sketch -->
    <title>vinted</title>
    <desc>Created with Sketch.</desc>
    <defs></defs>
    <g id="Page-1" stroke="none" stroke-width="1" fill="none" fill-rule="evenodd">
        <g id="Rectangle-1-+-Fill-204">
            <rect id="Rectangle-1" x="0" y="0" width="218" height="120"></rect>
            <path d="M76.0027846,45.9559283 C75.2155342,32.5762146 68.5403591,27.2578442 36.1856313,33.7775942 C22.1011891,36.6152397 24.1257644,44.8385896 24.0736186,52.2215306 C25.9113801,71.4390482 26.9127829,76.494158 42.9124459,78.4093789 L54.6639941,79.8152918 L66.1720263,88.3246844 L66.1801266,79.2244742 C72.9120039,78.971339 75.7800256,74.6756348 76.1293522,68.6854436 C76.3419858,65.0787734 76.2771832,50.5624826 76.0027846,45.9559283 L76.0027846,45.9559283 Z M47.6799941,39.4073209 L48.9871843,39.0433125 C48.7127857,46.4034713 56.4966929,46.7284969 56.0613004,39.0433125 L57.38621,39.3455559 L58.2175059,46.0303501 L56.8637389,51.4555435 L48.2905562,51.4555435 L47.0147548,46.0333877 L47.6799941,39.4073209 L47.6799941,39.4073209 Z M56.5665582,52.6437601 L56.289122,53.7605926 L48.8342906,53.7479358 L48.5684987,52.6437601 L56.5665582,52.6437601 L56.5665582,52.6437601 Z M57.0161263,71.0851652 C54.860427,70.818867 53.5015973,71.942281 51.5600504,71.5332145 C49.6215411,71.1175665 47.2142254,69.6888715 46.2563618,69.2767674 C42.4385768,67.6399952 42.4254138,71.9225364 35.5588685,66.7509844 C40.5051302,62.8643467 43.3346754,56.7379687 49.0960324,54.9098264 L51.016316,54.9326085 L48.5598921,59.2931154 L48.5031898,59.3872817 L48.5988749,59.4455028 L49.3734686,59.8773514 L49.4706725,59.9294973 L49.525856,59.835331 L52.2824982,54.9457716 L52.3052804,54.9457716 L53.6848672,58.2380479 L53.7289127,58.3418333 L53.8281417,58.2998129 L54.6462746,57.9621305 L54.7515789,57.9165662 L54.7080396,57.8158184 L53.5096976,54.9584283 L55.9787783,54.987792 L55.9787783,54.9913359 C59.37484,57.4715545 65.1878366,69.4777567 65.4364154,73.1436606 C60.1408271,73.4747614 59.3049747,71.3641202 57.0161263,71.0851652 Z M98.1814777,72.1756716 C98.1814777,72.1756716 94.4927917,62.7443606 92.111802,55.8332636 C90.9443425,52.4716282 86.975689,39.4913618 86.975689,39.4913618 L89.4037617,39.4913618 C89.4037617,39.4913618 92.018142,48.9236853 94.3059779,55.3664823 L99.5823278,70.0746495 L104.858172,55.3664823 C107.146007,48.9236853 109.760388,39.4913618 109.760388,39.4913618 L112.18846,39.4913618 C112.18846,39.4913618 108.219301,52.4716282 107.052347,55.8332636 C104.670851,62.7443606 100.982672,72.1756716 100.982672,72.1756716 C100.982672,72.1756716 100.281994,72.4090623 99.5823278,72.4090623 C98.8816496,72.4090623 98.1814777,72.1756716 98.1814777,72.1756716 Z M115.500988,41.3589932 C116.435056,41.3589932 117.134722,42.0601777 117.134722,42.9937403 C117.134722,43.9273029 116.435056,44.6269686 115.500988,44.6269686 C114.566919,44.6269686 113.866747,43.9273029 113.866747,42.9937403 C113.866747,42.0601777 114.566919,41.3589932 115.500988,41.3589932 Z M114.566919,72.1756716 C114.566919,72.1756716 114.100137,62.8375144 114.100137,55.3664823 C114.100137,50.4176892 114.240374,48.829519 114.240374,48.829519 L116.435056,48.829519 L116.435056,72.1756716 L114.566919,72.1756716 Z M121.476497,72.1756716 C121.476497,72.1756716 121.009716,62.8375144 121.009716,55.3664823 C121.009716,50.4176892 121.149953,48.829519 121.149953,48.829519 L122.643956,48.829519 C122.643956,48.829519 122.971007,49.7640942 123.344128,52.5652882 C124.744979,50.2308755 126.61261,48.3627377 130.581264,48.3627377 C139.218743,48.3627377 140.152812,55.8332636 140.152812,60.5025953 C140.152812,64.0039613 139.685524,72.1756716 139.685524,72.1756716 L137.818399,72.1756716 L137.818399,60.5025953 C137.818399,55.1330916 136.88433,50.2308755 130.581264,50.2308755 C124.978876,50.2308755 123.344128,54.9002072 123.344128,59.5690327 L123.344128,72.1756716 L121.476497,72.1756716 Z M140.851465,48.829519 C140.851465,48.829519 143.652659,48.3627377 146.220968,48.3627377 C146.220968,42.7603496 146.687243,37.156949 146.687243,37.156949 L148.789278,37.156949 C148.789278,37.156949 148.555381,42.7603496 148.555381,48.3627377 C151.589966,48.3627377 154.391666,48.829519 154.391666,48.829519 L154.391666,50.2308755 L148.555381,50.2308755 L148.555381,53.0320695 C148.555381,67.7397305 148.789278,71.0077058 154.391666,71.0077058 L154.391666,72.6424529 C146.454359,72.6424529 146.220968,67.5063399 146.220968,53.0320695 L146.220968,50.2308755 L140.851465,50.2308755 L140.851465,48.829519 Z M173.8608,55.5998729 C173.8608,57.9347919 172.927238,61.9039518 165.223321,61.9039518 C163.028639,61.9039518 157.986186,61.4361579 157.986186,61.4361579 C157.986186,65.6387084 158.919748,70.7748215 165.223321,70.7748215 C169.191975,70.7748215 172.460456,69.8412589 172.460456,69.8412589 L172.460456,71.4744871 C172.460456,71.4744871 169.65825,72.6424529 165.223321,72.6424529 C156.585336,72.6424529 155.651267,65.1719271 155.651267,60.5025953 C155.651267,54.9002072 156.585336,48.3627377 165.223321,48.3627377 C172.927238,48.3627377 173.8608,53.2654602 173.8608,55.5998729 Z M157.986186,60.035814 L165.223321,60.035814 C170.592318,60.035814 171.526387,57.4680106 171.526387,55.5998729 C171.526387,53.7322415 170.592318,50.2308755 165.223321,50.2308755 C158.686358,50.2308755 157.986186,55.3664823 157.986186,60.035814 Z M191.882001,49.2497235 C191.882001,43.2271309 191.648104,37.156949 191.648104,37.156949 L193.749126,37.156949 C193.749126,37.156949 194.216414,47.8964627 194.216414,55.3664823 C194.216414,62.8375144 193.749126,72.1756716 193.749126,72.1756716 C193.749126,72.1756716 190.014369,72.6424529 185.578428,72.6424529 C176.940949,72.6424529 176.007387,65.1719271 176.007387,60.5025953 C176.007387,55.8332636 176.940949,48.3627377 185.578428,48.3627377 C188.473789,48.3627377 190.527727,48.829519 191.882001,49.2497235 Z M191.882001,50.6976568 C190.434574,50.4642661 188.380129,50.2308755 185.578428,50.2308755 C179.275362,50.2308755 178.341799,55.1330916 178.341799,60.5025953 C178.341799,65.872099 179.275362,70.7748215 185.578428,70.7748215 L191.882001,70.7748215 L191.882001,50.6976568 L191.882001,50.6976568 Z" id="Fill-204" fill="#9B9B9B"></path>
        </g>
    </g>
</svg>