<?xml version="1.0" encoding="UTF-8" standalone="no"?>
<svg width="92px" height="92px" viewBox="0 0 92 92" version="1.1" xmlns="http://www.w3.org/2000/svg" xmlns:xlink="http://www.w3.org/1999/xlink" xmlns:sketch="http://www.bohemiancoding.com/sketch/ns">
    <!-- Generator: Sketch 3.0.3 (7891) - http://www.bohemiancoding.com/sketch -->
    <title>logo</title>
    <desc>Created with Sketch.</desc>
    <defs></defs>
    <g id="Website" stroke="none" stroke-width="1" fill="none" fill-rule="evenodd" sketch:type="MSPage">
        <g id="Web" sketch:type="MSArtboardGroup" transform="translate(-59.000000, -59.000000)" stroke="#4990E2" stroke-width="2">
            <g id="logo" sketch:type="MSLayerGroup" transform="translate(60.000000, 60.000000)">
                <path d="M30,65 L30,83.9986561 C30,87.3131068 32.6887015,90 35.998845,90 L54.001155,90 C57.3142256,90 60,87.3112985 60,84.001155 L60,60 L84.001155,60 C87.3142256,60 90,57.3112985 90,54.001155 L90,35.998845 C90,32.6857744 87.314083,30 83.9991961,30 L65,30" id="L" sketch:type="MSShapeGroup"></path>
                <path d="M30,60 C46.5685425,60 60,46.5685425 60,30 L60,5.99884495 C60,2.68870147 57.3142256,0 54.001155,0 L35.998845,0 C32.6887015,0 30,2.68577436 30,5.99884493 L30,29.9999999 C19.0605109,29.9999999 11.1210217,30 5.99999999,30 C2.54370117,30 1.07115039e-10,32.8036025 2.69992362e-14,36 C-2.40373055e-10,43.1755371 11.9895024,60 30,60 Z" id="J" sketch:type="MSShapeGroup"></path>
            </g>
        </g>
    </g>
</svg>
