<svg width="24" height="24" viewBox="0 0 24 24" fill="none" xmlns="http://www.w3.org/2000/svg">
<path d="M7.10557 10.9472C7.6899 12.1159 9.06253 14 12 14C14.9375 14 16.3101 12.1159 16.8944 10.9472L15.1056 10.0528C14.6899 10.8841 13.8625 12 12 12C10.1375 12 9.3101 10.8841 8.89443 10.0528L7.10557 10.9472Z" fill="currentColor"/>
<path fill-rule="evenodd" clip-rule="evenodd" d="M2 10C2 5.58172 5.58172 2 10 2H14C18.4183 2 22 5.58172 22 10V14C22 18.4183 18.4183 22 14 22H10C5.58172 22 2 18.4183 2 14V10ZM6 8.5C6 7.11929 7.11929 6 8.5 6H15.5C16.8807 6 18 7.11929 18 8.5V15.5C18 16.8807 16.8807 18 15.5 18H8.5C7.11929 18 6 16.8807 6 15.5V8.5Z" fill="currentColor"/>
</svg>
