<svg xmlns="http://www.w3.org/2000/svg" width="24" height="24" fill="none" viewBox="0 0 24 24"><path fill="currentColor" fill-rule="evenodd" d="M21.206 14.458a13.56 13.56 0 0 0-.588-1.47c-.187.314-.385.627-.595.938.113.274.216.548.306.82.679 2.057.553 3.693-.203 4.74l-2.547-2.546a23.11 23.11 0 0 1-.653.652l2.545 2.544c-.58.416-1.342.639-2.255.639-.733 0-1.562-.143-2.474-.444a13.082 13.082 0 0 1-1.822-.767 21.391 21.391 0 0 0 3.34-2.636l.01.009c.222-.213.44-.43.653-.652l-.007-.008a21.42 21.42 0 0 0 2.647-3.347.075.075 0 0 1 .003.005c.195-.308.38-.618.55-.93L20.116 12a14.49 14.49 0 0 0 1.091-2.458c.346-1.047.504-2.032.482-2.92a11.09 11.09 0 0 1 0 10.755c.022-.889-.136-1.873-.482-2.92Zm-9.208 8.619a11.08 11.08 0 0 1-5.36-1.382c.044 0 .088.003.133.003.848 0 1.777-.165 2.764-.49.486-.16.978-.359 1.472-.589a19.927 19.927 0 0 1-.94-.594 11.97 11.97 0 0 1-.821.306c-.912.3-1.742.444-2.475.444-.904 0-1.658-.219-2.237-.626l2.545-2.543c-.118-.113-.237-.225-.353-.341-.11-.11-.214-.222-.321-.334l-2.549 2.547c-.751-1.046-.875-2.68-.198-4.731.09-.273.193-.547.307-.822-.21-.311-.408-.624-.595-.939-.23.494-.429.986-.59 1.472-.342 1.04-.5 2.018-.48 2.902a11.09 11.09 0 0 1 0-10.72c-.02.884.138 1.863.48 2.903.267.808.637 1.634 1.093 2.458l-.003.004c.172.312.356.623.55.932l.004-.007a21.438 21.438 0 0 0 2.642 3.34l-.007.007c.22.23.444.455.674.675l.008-.008a21.428 21.428 0 0 0 3.323 2.622l-.005.002c.23.145.46.282.693.415l.015.008c.074.043.148.087.223.128l.004-.002c.824.455 1.65.825 2.458 1.09.987.326 1.917.49 2.764.49.048 0 .096-.002.143-.003A11.079 11.079 0 0 1 12 23.077ZM3.853 4.527l3.21 3.208.652.652.97.97a3.72 3.72 0 0 1 1.097 2.647c0 1-.39 1.941-1.097 2.648l-.966.966A20.242 20.242 0 0 1 4.938 12 19.757 19.757 0 0 1 7.09 9.068l-.654-.654a20.94 20.94 0 0 0-2.012 2.658 13.055 13.055 0 0 1-.766-1.818c-.676-2.048-.553-3.68.195-4.726Zm13.363-2.224c-.848 0-1.777.165-2.764.49a14.54 14.54 0 0 0-2.458 1.091l-.004-.002c-.313.172-.623.356-.932.55l.006.004a21.417 21.417 0 0 0-3.35 2.646l-3.21-3.209c.583-.42 1.348-.646 2.267-.646.733 0 1.562.142 2.475.443.273.09.548.193.822.306.312-.21.626-.406.941-.593-.495-.23-.988-.43-1.474-.59-.987-.325-1.916-.49-2.763-.49-.046 0-.091.003-.136.004a11.08 11.08 0 0 1 10.726 0c-.049-.001-.097-.004-.146-.004Zm-.951 4.774a21.398 21.398 0 0 0-3.346-2.64 13.071 13.071 0 0 1 1.823-.767c.912-.3 1.742-.443 2.474-.443.916 0 1.678.223 2.26.64l-3.211 3.21Zm-4.256 7.153c1 0 1.942.39 2.65 1.097l.95.949a20.253 20.253 0 0 1-3.616 2.776 20.241 20.241 0 0 1-3.6-2.76l.966-.965a3.724 3.724 0 0 1 2.65-1.097ZM9.338 8.704l-.969-.969a20.28 20.28 0 0 1 3.623-2.787 20.264 20.264 0 0 1 3.62 2.78l-.975.976a3.753 3.753 0 0 1-5.299 0Zm1.108 1.76a4.68 4.68 0 0 0 1.542.26c.544 0 1.075-.093 1.573-.27a4.67 4.67 0 0 0-.27 1.572c0 .533.09 1.052.26 1.54a4.677 4.677 0 0 0-1.542-.26c-.545 0-1.075.093-1.574.271a4.67 4.67 0 0 0 .271-1.573 4.67 4.67 0 0 0-.26-1.54Zm9.883-1.21a13.06 13.06 0 0 1-.766 1.818 20.958 20.958 0 0 0-1.996-2.641l-.655.654c.815.927 1.54 1.912 2.138 2.916a20.244 20.244 0 0 1-2.788 3.622l-.95-.949a3.747 3.747 0 0 1 0-5.296l.975-.975h.001l.653-.652 3.206-3.205c.737 1.047.854 2.671.182 4.708Zm.16-5.74A11.932 11.932 0 0 0 11.999 0a11.926 11.926 0 0 0-8.305 3.338c-.124.108-.241.225-.35.35-4.453 4.628-4.458 11.971-.018 16.606.12.138.248.266.384.384A11.925 11.925 0 0 0 11.998 24c3.208 0 6.223-1.248 8.49-3.515 4.682-4.678 4.682-12.292 0-16.97Z" clip-rule="evenodd"/></svg>