<svg width="24" height="24" viewBox="0 0 24 24" fill="none" xmlns="http://www.w3.org/2000/svg">
<path d="M18.7197 15.1512C18.7197 13.1142 19.0288 12.5893 20.2317 12.4966V11.3866H11.5976V12.4966C14.5266 12.6206 16.0698 12.273 16.0698 14.814L16.079 18.8695C15.9354 19.3811 15.7148 19.8679 15.425 20.3132C14.7917 21.2402 13.7429 21.6712 12.3258 21.6712C8.96852 21.6712 6.98197 18.1232 6.98197 12.0134C6.98197 5.90361 8.81224 2.26877 12.4798 2.26877C15.3161 2.26877 17.0237 4.14355 17.4579 8.0924H18.722V1.3928H17.5192C17.3653 2.16449 17.2414 2.38001 16.9635 2.38001C16.4715 2.38001 15.1019 1 12.3594 1C7.21231 1 3.82031 5.61973 3.82031 12.1293C3.82031 18.7003 7.06184 22.9574 12.3872 22.9574H12.3976C15.5384 22.9574 16.541 20.8601 16.754 20.1915L17.5077 22.6804H18.7105L18.7197 15.1512Z" fill="currentColor"/>
</svg>
