<svg xmlns="http://www.w3.org/2000/svg" width="24" height="24" fill="none" viewBox="0 0 24 24"><path fill="currentColor" fill-rule="evenodd" d="M12 1C5.923 1 1 5.932 1 12.022c0 4.877 3.149 8.996 7.521 10.457.55.096.756-.234.756-.524 0-.261-.013-1.13-.013-2.052-2.764.51-3.479-.675-3.699-1.295-.124-.317-.66-1.296-1.128-1.557-.385-.207-.935-.717-.013-.73.866-.014 1.485.798 1.691 1.13.99 1.666 2.571 1.198 3.204.909.096-.717.385-1.2.701-1.475-2.447-.275-5.005-1.226-5.005-5.442 0-1.198.426-2.19 1.128-2.962-.11-.275-.495-1.405.11-2.92 0 0 .92-.29 3.024 1.13.88-.249 1.816-.373 2.75-.373.936 0 1.87.124 2.75.372 2.104-1.433 3.025-1.13 3.025-1.13.605 1.516.22 2.646.11 2.921.702.772 1.128 1.75 1.128 2.962 0 4.23-2.571 5.167-5.019 5.442.399.345.743 1.006.743 2.04 0 1.474-.014 2.658-.014 3.03 0 .29.206.634.756.524A11.037 11.037 0 0 0 23 12.022C23 5.932 18.078 1 12 1Z" clip-rule="evenodd"/></svg>