<svg xmlns="http://www.w3.org/2000/svg" width="24" height="24" fill="none" viewBox="0 0 24 24"><path fill="currentColor" fill-rule="evenodd" d="M6.794 3.58C8.168 1.796 10.009.719 11.804.719c1.179 0 2.115.363 2.747 1.098.62.722.877 1.724.877 2.87 0 2.458-1.065 4.209-2.689 6.625a.5.5 0 1 1-.83-.558c1.631-2.426 2.519-3.946 2.519-6.068 0-1.014-.23-1.745-.636-2.217-.394-.46-1.02-.75-1.989-.75-1.395 0-2.97.853-4.217 2.471C6.348 5.798 5.47 8.126 5.47 10.967c0 2.073.545 3.328 1.225 4.06a3.118 3.118 0 0 0 2.31 1.002c1.187 0 2.229-.83 3.169-2.047.685-.888 1.251-1.89 1.746-2.767.18-.32.35-.622.514-.896a.5.5 0 0 1 .93.256c0 .718.002 1.404.004 2.058.002.768.004 1.492.002 2.172a386.883 386.883 0 0 0 4.128-4.688.5.5 0 0 1 .756.654c-1.972 2.28-3.517 4.006-4.73 5.362l-.164.184c-.021 1.496-.076 2.732-.212 3.715-.142 1.02-.38 1.853-.818 2.436-.469.622-1.123.907-1.94.907-.283 0-.724-.059-1.108-.328-.415-.29-.694-.777-.694-1.48 0-1.06.59-1.96 1.901-3.506a120.25 120.25 0 0 1 1.875-2.13c.01-.973.007-2.06.003-3.271v-.209c-.408.703-.877 1.462-1.402 2.142-.98 1.27-2.282 2.436-3.96 2.436a4.118 4.118 0 0 1-3.043-1.322c-.899-.968-1.492-2.495-1.492-4.74 0-3.047.943-5.593 2.325-7.387Zm7.54 13.886c-.411.464-.77.873-1.083 1.243-1.341 1.58-1.663 2.215-1.663 2.858 0 .408.144.575.266.661a.967.967 0 0 0 .535.147c.551 0 .889-.174 1.14-.508.282-.374.492-.996.627-1.972.094-.677.147-1.483.178-2.429Z" clip-rule="evenodd"/></svg>