<svg xmlns="http://www.w3.org/2000/svg" width="24" height="24" fill="none" viewBox="0 0 24 24"><path fill="currentColor" d="M12.001 2c-2.716 0-3.057.012-4.123.06-1.065.05-1.792.218-2.428.465A4.897 4.897 0 0 0 3.68 3.678 4.909 4.909 0 0 0 2.525 5.45c-.248.636-.417 1.363-.465 2.428C2.013 8.943 2 9.284 2 12s.012 3.056.06 4.122c.05 1.065.218 1.792.465 2.428a4.9 4.9 0 0 0 1.153 1.771 4.897 4.897 0 0 0 1.771 1.154c.636.247 1.363.416 2.428.465 1.066.048 1.407.06 4.123.06s3.056-.012 4.122-.06c1.065-.049 1.792-.218 2.429-.465a4.894 4.894 0 0 0 1.77-1.154 4.91 4.91 0 0 0 1.154-1.771c.246-.636.415-1.363.465-2.427.047-1.067.06-1.407.06-4.123s-.012-3.057-.06-4.123c-.05-1.065-.22-1.792-.465-2.427a4.908 4.908 0 0 0-1.154-1.772 4.888 4.888 0 0 0-1.771-1.153c-.637-.247-1.365-.416-2.43-.465-1.066-.048-1.406-.06-4.122-.06H12Zm-.897 1.802H12c2.67 0 2.987.01 4.04.058.976.044 1.505.207 1.857.344.467.181.8.398 1.15.748.35.35.566.683.748 1.15.137.352.3.881.344 1.856.048 1.054.059 1.371.059 4.04s-.01 2.985-.059 4.04c-.044.974-.207 1.504-.344 1.856a3.093 3.093 0 0 1-.748 1.149c-.35.35-.683.566-1.15.747-.352.138-.881.3-1.856.345-1.054.048-1.371.058-4.041.058-2.67 0-2.987-.01-4.04-.058-.976-.045-1.505-.208-1.858-.345a3.097 3.097 0 0 1-1.15-.748 3.1 3.1 0 0 1-.748-1.15c-.137-.351-.3-.88-.345-1.855-.047-1.054-.057-1.371-.057-4.042 0-2.67.01-2.985.057-4.04.045-.974.208-1.503.345-1.856.181-.467.398-.8.748-1.15.35-.35.683-.567 1.15-.748.353-.138.882-.3 1.857-.345.923-.042 1.28-.054 3.144-.056v.002Zm6.235 1.66a1.2 1.2 0 1 0 0 2.401 1.2 1.2 0 0 0 0-2.4ZM12 6.866a5.136 5.136 0 1 0 .001 10.271 5.136 5.136 0 0 0-.001-10.271Zm0 1.802a3.333 3.333 0 1 1 0 6.667 3.333 3.333 0 0 1 0-6.667Z"/></svg>