<svg width="24" height="24" viewBox="0 0 24 24" fill="none" xmlns="http://www.w3.org/2000/svg">
<path fill-rule="evenodd" clip-rule="evenodd" d="M8.7929 2.16788C8.27767 2.6831 7.92214 3.34293 7.71617 4.13412C7.20463 3.84501 6.68678 3.65926 6.16736 3.57531C5.12565 3.40695 4.17855 3.66501 3.40351 4.15451C1.91247 5.09622 1 6.92309 1 8.5C1 9.47477 1.52102 10.3897 2.17228 11.1451C2.84275 11.9229 3.75848 12.6579 4.78994 13.2901C6.55713 14.3732 8.79015 15.2302 10.9599 15.4469C10.9008 15.8401 10.7716 16.3823 10.5415 16.9893C10.5163 17.0559 10.49 17.1229 10.4626 17.19C10.2921 17.5254 10.0774 17.8361 9.81334 18.0855C9.42487 18.4524 8.91403 18.7053 8.19515 18.711C7.44864 18.7169 6.40794 18.4553 5.00384 17.6362L3.99609 19.3638C5.264 20.1034 6.40623 20.5242 7.4351 20.6611C7.04642 20.8399 6.62047 20.9713 6.15346 21.0428C4.9664 21.2244 3.41863 21.033 1.42581 20.0952L0.574219 21.9048C2.8314 22.967 4.78363 23.2756 6.45595 23.0197C8.13555 22.7628 9.43658 21.9509 10.4074 20.9441C10.6203 20.7233 10.8176 20.493 11 20.2567V23H13V20.2567C13.1824 20.493 13.3797 20.7233 13.5926 20.9441C14.5634 21.9509 15.8645 22.7628 17.5441 23.0197C19.2164 23.2756 21.1686 22.967 23.4258 21.9048L22.5742 20.0952C20.5814 21.033 19.0336 21.2244 17.8465 21.0428C17.3795 20.9713 16.9536 20.8399 16.5649 20.6611C17.5938 20.5242 18.736 20.1034 20.0039 19.3638L18.9962 17.6362C17.5921 18.4553 16.5514 18.7169 15.8048 18.711C15.086 18.7053 14.5751 18.4524 14.1867 18.0855C13.9226 17.8361 13.7079 17.5254 13.5374 17.19C13.51 17.1229 13.4838 17.0559 13.4585 16.9893C13.2284 16.3823 13.0992 15.8401 13.0401 15.4469C15.2099 15.2302 17.4429 14.3732 19.2101 13.2901C20.2415 12.6579 21.1572 11.9229 21.8277 11.1451C22.479 10.3897 23 9.47477 23 8.5C23 6.92309 22.0875 5.09622 20.5965 4.15451C19.8214 3.66501 18.8743 3.40695 17.8326 3.57531C17.3132 3.65926 16.7954 3.84501 16.2838 4.13412C16.0779 3.34293 15.7223 2.6831 15.2071 2.16788C14.3284 1.2892 13.1541 1 12 1C10.8459 1 9.67158 1.2892 8.7929 2.16788ZM12 13.5C14.0207 13.5 16.3414 12.7026 18.1649 11.5849C19.071 11.0296 19.8115 10.4209 20.3129 9.83926C20.8335 9.23534 21 8.77523 21 8.5C21 7.57691 20.4125 6.40378 19.5285 5.84549C19.1161 5.58499 18.6569 5.46805 18.1517 5.54969C17.6367 5.63293 16.9748 5.93944 16.2071 6.70711L14.5 8.41421V6C14.5 4.65412 14.1642 3.95341 13.7929 3.5821C13.4216 3.21078 12.8459 3 12 3C11.1541 3 10.5784 3.21078 10.2071 3.5821C9.83579 3.95341 9.5 4.65412 9.5 6V8.41421L7.79289 6.70711C7.02523 5.93944 6.36332 5.63293 5.84827 5.54969C5.3431 5.46805 4.88395 5.58499 4.47149 5.84549C3.58753 6.40378 3 7.57691 3 8.5C3 8.77523 3.16648 9.23534 3.6871 9.83926C4.1885 10.4209 4.92902 11.0296 5.83506 11.5849C7.65858 12.7026 9.97935 13.5 12 13.5Z" fill="currentColor"/>
</svg>
