<svg xmlns="http://www.w3.org/2000/svg" width="24" height="24" fill="none" viewBox="0 0 24 24"><path fill="currentColor" d="M8.286 14.667a4.571 4.571 0 1 1 0-5.331A4.55 4.55 0 0 0 7.429 12c0 .995.317 1.916.857 2.666ZM8.286 14.667A4.566 4.566 0 0 0 12 16.573c1.53 0 2.884-.752 3.714-1.906a4.55 4.55 0 0 1-.857-2.666c0-.994.318-1.915.857-2.665A4.566 4.566 0 0 0 12 7.43c-1.53 0-2.885.752-3.714 1.906.539.75.857 1.67.857 2.665a4.55 4.55 0 0 1-.857 2.666ZM15.714 9.336c.54.75.857 1.67.857 2.665a4.55 4.55 0 0 1-.857 2.666 4.571 4.571 0 1 0 0-5.331Z"/></svg>