<svg xmlns="http://www.w3.org/2000/svg" width="24" height="24" fill="none" viewBox="0 0 24 24"><path fill="currentColor" fill-rule="evenodd" d="M19.042 19.042h-2.964v-4.641c0-1.107-.02-2.531-1.542-2.531-1.543 0-1.78 1.206-1.78 2.45v4.722H9.792V9.498h2.846v1.304h.04c.395-.75 1.363-1.542 2.806-1.542 3.004 0 3.558 1.977 3.558 4.547v5.235ZM6.45 8.193a1.72 1.72 0 1 1 0-3.44 1.72 1.72 0 0 1 0 3.44Zm-1.484 10.85h2.967V9.497H4.965v9.544ZM20.52 2H3.476C2.662 2 2 2.646 2 3.442v17.114C2 21.354 2.662 22 3.476 22H20.52c.816 0 1.48-.647 1.48-1.444V3.442C22 2.646 21.336 2 20.52 2Z" clip-rule="evenodd"/></svg>