<svg xmlns="http://www.w3.org/2000/svg" width="24" height="24" fill="none" viewBox="0 0 24 24"><path fill="currentColor" d="M13.39 12.005c0 3.723-2.998 6.741-6.695 6.741S0 15.728 0 12.006c0-3.723 2.997-6.741 6.695-6.741 3.697 0 6.695 3.018 6.695 6.74ZM20.734 12.005c0 3.505-1.499 6.346-3.347 6.346-1.85 0-3.348-2.841-3.348-6.346 0-3.504 1.499-6.346 3.347-6.346 1.85 0 3.348 2.841 3.348 6.346ZM22.56 17.69c.651 0 1.178-2.546 1.178-5.685 0-3.14-.527-5.685-1.177-5.685s-1.177 2.546-1.177 5.685c0 3.14.526 5.685 1.177 5.685Z"/></svg>