<svg width="24" height="24" viewBox="0 0 24 24" fill="none" xmlns="http://www.w3.org/2000/svg">
<path d="M8 6C8 5.44772 8.44771 5 9 5H12C12.5523 5 13 5.44772 13 6C13 6.55228 12.5523 7 12 7H9C8.44771 7 8 6.55228 8 6Z" fill="currentColor"/>
<path d="M9 9C8.44771 9 8 9.44771 8 10C8 10.5523 8.44771 11 9 11H15C15.5523 11 16 10.5523 16 10C16 9.44771 15.5523 9 15 9H9Z" fill="currentColor"/>
<path fill-rule="evenodd" clip-rule="evenodd" d="M4 10.4648V4C4 2.34315 5.34315 1 7 1H17C18.6569 1 20 2.34315 20 4V10.4648L20.4453 10.168C20.7522 9.96338 21.1467 9.94431 21.4719 10.1183C21.797 10.2923 22 10.6312 22 11V20C22 21.6569 20.6569 23 19 23H5C3.34315 23 2 21.6569 2 20V11C2 10.6312 2.20298 10.2923 2.52814 10.1183C2.8533 9.94431 3.24784 9.96338 3.5547 10.168L4 10.4648ZM6 4C6 3.44772 6.44772 3 7 3H17C17.5523 3 18 3.44772 18 4V11.7982L12.5547 15.4284C12.2188 15.6523 11.7812 15.6523 11.4453 15.4284L6 11.7982V4ZM4 20V12.8685L10.3359 17.0925C11.3436 17.7642 12.6564 17.7642 13.6641 17.0925L20 12.8685V20C20 20.5523 19.5523 21 19 21H5C4.44772 21 4 20.5523 4 20Z" fill="currentColor"/>
</svg>
