<svg xmlns="http://www.w3.org/2000/svg" width="24" height="24" fill="none" viewBox="0 0 24 24"><path fill="currentColor" d="M12.016 1C5.932 1 1 5.92 1 11.988c0 4.656 2.902 8.632 7 10.232-.096-.87-.182-2.203.038-3.152.201-.86 1.292-5.461 1.292-5.461S9 12.947 9 11.974c0-1.524.889-2.668 1.992-2.668.941 0 1.395.705 1.395 1.547 0 .944-.6 2.353-.911 3.66-.262 1.093.551 1.984 1.63 1.984 1.956 0 3.463-2.058 3.463-5.03 0-2.622-1.895-4.463-4.602-4.463-3.133 0-4.97 2.349-4.97 4.766 0 .947.362 1.964.817 2.513.09.11.103.206.078.316-.083.344-.27 1.099-.307 1.25-.049.205-.158.248-.368.15-1.374-.632-2.236-2.638-2.236-4.258 0-3.462 2.525-6.648 7.278-6.648 3.82 0 6.792 2.72 6.792 6.346 0 3.79-2.395 6.84-5.727 6.84-1.116 0-2.163-.576-2.535-1.264l-.688 2.61c-.247.959-.923 2.157-1.377 2.885 1.032.316 2.12.49 3.263.49C18.058 23 23 18.082 23 12.012 23 5.94 18.058 1.024 11.987 1.024l.03-.024Z"/></svg>