<svg xmlns="http://www.w3.org/2000/svg" width="24" height="24" fill="none" viewBox="0 0 24 24"><path fill="currentColor" d="M8.66 13.878a1.102 1.102 0 0 1-.323-.778 1.1 1.1 0 1 1 .322.778ZM14.81 15.953a.298.298 0 0 1-.09.209l.008-.037a4.23 4.23 0 0 1-2.717.847 4.245 4.245 0 0 1-2.103-.462c-.215-.11-.42-.24-.614-.385a.297.297 0 0 1 .418-.418A3.602 3.602 0 0 0 12 16.4a3.618 3.618 0 0 0 2.299-.67.36.36 0 0 1 .218-.078.297.297 0 0 1 .293.3ZM14.954 14.204a1.103 1.103 0 0 1-.435.084l.01-.044a1.1 1.1 0 1 1 1.1-1.1 1.095 1.095 0 0 1-.309.81 1.101 1.101 0 0 1-.366.25Z"/><path fill="currentColor" fill-rule="evenodd" d="M23 12c0 6.075-4.925 11-11 11S1 18.075 1 12 5.925 1 12 1s11 4.925 11 11Zm-3.72.447a1.61 1.61 0 0 0 .057-.447 1.606 1.606 0 0 0-2.717-1.1 7.836 7.836 0 0 0-4.235-1.353l.715-3.432 2.354.495a1.1 1.1 0 1 0 .143-.671L12.902 5.4a.343.343 0 0 0-.407.264l-.814 3.817a7.848 7.848 0 0 0-4.29 1.353 1.607 1.607 0 1 0-1.771 2.63 2.932 2.932 0 0 0-.007.362c.001.04.004.08.007.121 0 2.464 2.87 4.466 6.413 4.466 3.542 0 6.413-2.002 6.413-4.466a3.044 3.044 0 0 0 0-.484 1.602 1.602 0 0 0 .835-1.016Z" clip-rule="evenodd"/></svg>