<svg xmlns="http://www.w3.org/2000/svg" width="24" height="24" fill="none" viewBox="0 0 24 24"><path fill="currentColor" d="M12.531.02C13.84 0 15.141.012 16.441 0c.079 1.53.63 3.09 1.75 4.172 1.118 1.11 2.7 1.617 4.239 1.789v4.027c-1.443-.047-2.892-.348-4.2-.968-.57-.258-1.101-.59-1.621-.93-.007 2.921.012 5.84-.019 8.75a7.613 7.613 0 0 1-1.352 3.941c-1.308 1.918-3.578 3.168-5.91 3.207-1.43.082-2.86-.308-4.078-1.027-2.02-1.19-3.44-3.371-3.648-5.711-.024-.5-.032-1-.012-1.488a7.496 7.496 0 0 1 2.582-4.961c1.656-1.443 3.976-2.13 6.148-1.723.02 1.481-.039 2.961-.039 4.442-.992-.32-2.152-.23-3.019.372a3.463 3.463 0 0 0-1.364 1.75c-.207.506-.148 1.07-.136 1.608.238 1.641 1.816 3.02 3.5 2.871 1.117-.012 2.188-.66 2.77-1.609.188-.332.399-.672.41-1.063.098-1.788.06-3.57.071-5.358.008-4.031-.012-8.051.019-12.07Z"/></svg>