<svg xmlns="http://www.w3.org/2000/svg" width="24" height="24" fill="none" viewBox="0 0 24 24"><path fill="currentColor" fill-rule="evenodd" d="M23 5.116c-.81.36-1.68.602-2.592.711a4.526 4.526 0 0 0 1.984-2.497 9.037 9.037 0 0 1-2.866 1.095 4.514 4.514 0 0 0-7.691 4.117 12.814 12.814 0 0 1-9.303-4.716 4.492 4.492 0 0 0-.611 2.27c0 1.565.796 2.947 2.007 3.756a4.495 4.495 0 0 1-2.044-.564v.056a4.516 4.516 0 0 0 3.62 4.426 4.522 4.522 0 0 1-2.038.077 4.518 4.518 0 0 0 4.216 3.135 9.057 9.057 0 0 1-5.605 1.932c-.365 0-.724-.021-1.077-.063a12.776 12.776 0 0 0 6.919 2.028C16.22 20.879 20.76 14 20.76 8.037c0-.196-.005-.39-.013-.584A9.173 9.173 0 0 0 23 5.116Z" clip-rule="evenodd"/></svg>