<svg xmlns="http://www.w3.org/2000/svg" width="24" height="24" fill="none" viewBox="0 0 24 24"><path fill="currentColor" fill-rule="evenodd" d="M22.692 4.887c.372.373.64.836.778 1.345.793 3.19.61 8.23.016 11.544a3.016 3.016 0 0 1-2.124 2.124c-1.863.508-9.359.508-9.359.508s-7.496 0-9.358-.508A3.016 3.016 0 0 1 .52 17.776C-.277 14.6-.058 9.556.505 6.247A3.017 3.017 0 0 1 2.63 4.123c1.863-.508 9.359-.523 9.359-.523s7.496 0 9.358.508c.509.138.973.406 1.346.779Zm-6.872 7.117-6.218 3.602V8.402l6.218 3.602Z" clip-rule="evenodd"/></svg>