<svg width="64" height="64" viewBox="0 0 64 64" fill="none" xmlns="http://www.w3.org/2000/svg">
<path d="M35.6315 23.2642C35.6315 21.6721 36.9433 20.3379 38.5354 20.3379C40.1387 20.3379 41.4505 21.6721 41.4505 23.2642C41.4505 24.8675 40.1387 26.1681 38.5354 26.1681C36.9433 26.1681 35.6315 24.8675 35.6315 23.2642Z" fill="currentColor"/>
<path d="M21.6755 32.127L20.3077 35.1991H23.1106L21.7316 32.127H21.6755Z" fill="currentColor"/>
<path d="M27.6526 33.4276V31.0731H29.1662C29.8838 31.0731 30.3211 31.544 30.3211 32.2279C30.3211 32.9007 29.8838 33.4276 29.1662 33.4276H27.6526Z" fill="currentColor"/>
<path d="M27.6414 36.836V34.4367H29.1775C29.9062 34.4367 30.5565 34.93 30.5565 35.6139C30.5565 36.3091 30.0296 36.836 29.3456 36.836H27.6414Z" fill="currentColor"/>
<path fill-rule="evenodd" clip-rule="evenodd" d="M31.9996 61.3339C48.1999 61.3339 61.3329 48.2009 61.3329 32.0006C61.3329 15.8002 48.1999 2.66724 31.9996 2.66724C15.7992 2.66724 2.66626 15.8002 2.66626 32.0006C2.66626 48.2009 15.7992 61.3339 31.9996 61.3339ZM25.0123 27.1771C24.8554 27.1771 24.7769 27.0762 24.7993 26.9193L26.1896 19.3849C26.212 19.2952 26.3017 19.2167 26.3914 19.2167H26.5708C26.6381 19.2167 26.739 19.2728 26.7614 19.34L29.1047 25.0693H29.1495L31.4816 19.34C31.504 19.2728 31.5937 19.2167 31.6722 19.2167H31.8516C31.9413 19.2167 32.031 19.2952 32.0534 19.3849L33.4324 26.9193C33.4661 27.0762 33.3876 27.1771 33.2306 27.1771H32.5019C32.401 27.1771 32.3113 27.0986 32.2888 27.0202L31.4592 22.0085H31.4255L29.4074 27.1659C29.385 27.2332 29.3177 27.2893 29.2168 27.2893H29.015C28.9253 27.2893 28.8468 27.2332 28.8244 27.1659L26.795 22.0085H26.7502L25.9429 27.0202C25.9317 27.0986 25.8308 27.1771 25.7411 27.1771H25.0123ZM13.1402 26.9641C13.1402 27.0762 13.2299 27.1771 13.3532 27.1771H17.3447C17.468 27.1771 17.5577 27.0762 17.5577 26.9641V26.3475C17.5577 26.2353 17.468 26.1344 17.3447 26.1344H14.3063V19.5419C14.3063 19.4297 14.2053 19.3288 14.0932 19.3288H13.3532C13.2299 19.3288 13.1402 19.4297 13.1402 19.5419V26.9641ZM18.7352 26.9641C18.7352 27.0762 18.8249 27.1771 18.9482 27.1771H23.433C23.5563 27.1771 23.646 27.0762 23.646 26.9641V26.3475C23.646 26.2353 23.5563 26.1344 23.433 26.1344H19.89V23.7239H22.8836C22.9957 23.7239 23.0966 23.6342 23.0966 23.5109V22.883C23.0966 22.7709 22.9957 22.67 22.8836 22.67H19.89V20.3827H23.433C23.5563 20.3827 23.646 20.2818 23.646 20.1697V19.5419C23.646 19.4297 23.5563 19.3288 23.433 19.3288H18.9482C18.8249 19.3288 18.7352 19.4297 18.7352 19.5419V26.9641ZM34.5104 23.2642C34.5104 25.5066 36.293 27.2893 38.5354 27.2893C40.7778 27.2893 42.5717 25.5066 42.5717 23.2642C42.5717 21.0218 40.7778 19.2167 38.5354 19.2167C36.293 19.2167 34.5104 21.0218 34.5104 23.2642ZM44.3829 27.1771C44.2708 27.1771 44.1699 27.0762 44.1699 26.9641V19.4185C44.1699 19.3064 44.2708 19.2167 44.3829 19.2167H44.6632L49.5292 24.8451H49.5404V19.5419C49.5404 19.4297 49.6301 19.3288 49.7534 19.3288H50.471C50.5831 19.3288 50.684 19.4297 50.684 19.5419V27.0874C50.684 27.1996 50.5831 27.2893 50.471 27.2893H50.1794L45.3135 21.5039H45.3023V26.9641C45.3023 27.0762 45.2126 27.1771 45.0893 27.1771H44.3829ZM13.1402 37.6545C13.1402 37.7666 13.2299 37.8675 13.3532 37.8675H17.3447C17.468 37.8675 17.5577 37.7666 17.5577 37.6545V37.0378C17.5577 36.9257 17.468 36.8248 17.3447 36.8248H14.3063V30.2322C14.3063 30.1201 14.2053 30.0192 14.0932 30.0192H13.3532C13.2299 30.0192 13.1402 30.1201 13.1402 30.2322V37.6545ZM18.9286 37.8675H18.2223C18.0541 37.8675 17.9644 37.7217 18.0317 37.576L21.4737 30.0304C21.5073 29.9631 21.6082 29.9071 21.6643 29.9071H21.7764C21.8325 29.9071 21.9334 29.9631 21.967 30.0304L25.3866 37.576C25.4539 37.7217 25.3642 37.8675 25.196 37.8675H24.4897C24.3551 37.8675 24.2767 37.8002 24.2318 37.6993L23.5367 36.1633H19.8704C19.7584 36.421 19.6435 36.6759 19.5287 36.9308C19.4137 37.1859 19.2986 37.4414 19.1865 37.6993C19.1528 37.7778 19.0631 37.8675 18.9286 37.8675ZM26.509 37.6545C26.509 37.7666 26.5987 37.8675 26.7221 37.8675H29.3568C30.7695 37.8675 31.801 36.9593 31.801 35.7036C31.801 34.6721 30.9938 34.1227 30.3995 33.8761C30.9265 33.5734 31.5656 32.9567 31.5656 32.0934C31.5656 30.9162 30.5902 30.0192 29.2335 30.0192H26.7221C26.5987 30.0192 26.509 30.1201 26.509 30.2322V37.6545ZM35.4569 37.9796C34.089 37.9796 33.2257 37.2621 33.0463 37.0939C32.9454 37.0042 32.8669 36.9257 32.9791 36.7351C33.0295 36.6622 33.0772 36.5837 33.1248 36.5053C33.1725 36.4268 33.2201 36.3483 33.2706 36.2754C33.3715 36.1297 33.5284 36.0848 33.6518 36.1857C33.719 36.2418 34.5824 36.9593 35.4457 36.9593C36.2193 36.9593 36.7126 36.4884 36.7126 35.9166C36.7126 35.2439 36.1296 34.8179 35.0196 34.3582C33.876 33.8761 32.9791 33.2819 32.9791 31.9813C32.9791 31.1068 33.6518 29.9071 35.4345 29.9071C36.5556 29.9071 37.3965 30.4901 37.5087 30.5686C37.5983 30.6246 37.688 30.7816 37.5759 30.9498C37.5312 31.0168 37.4838 31.0894 37.4363 31.162L37.4356 31.163C37.388 31.2358 37.3404 31.3086 37.2956 31.3758C37.2059 31.5216 37.0602 31.5889 36.9032 31.488C36.8968 31.4843 36.8857 31.4775 36.8703 31.4681C36.6971 31.3621 35.9866 30.9274 35.3896 30.9274C34.4478 30.9274 34.1227 31.5216 34.1227 31.9364C34.1227 32.5755 34.616 32.9679 35.5466 33.3491C36.8472 33.8761 37.9571 34.4927 37.9571 35.8606C37.9571 37.0266 36.9144 37.9796 35.4569 37.9796Z" fill="currentColor"/>
</svg>
