<svg width="128" height="32" viewBox="0 0 128 32" fill="none" xmlns="http://www.w3.org/2000/svg">
<path fill-rule="evenodd" clip-rule="evenodd" d="M123.43 4.25586L119.621 4.63681V25.5913L123.43 25.5892V4.25586ZM115.811 4.25586L112.002 4.63681V25.5913L115.811 25.5892V4.25586ZM67.8059 20.2086V7.83394H67.4729L61.4798 13.2999V13.3987H64.0016V21.3739C64.0016 24.315 65.6417 25.8688 68.1111 25.8688C70.0255 25.8688 71.5238 24.9531 72.5504 23.3161V23.1219C71.9123 23.3439 71.3573 23.4549 70.7747 23.4549C68.9157 23.4549 67.8059 22.2341 67.8059 20.2086ZM10.6682 20.2086V7.83394H10.4934L4.573 13.2999V13.3987H6.85871V21.3739C6.85871 24.315 8.6622 25.8688 11.1316 25.8688C13.0183 25.8688 14.5166 24.9531 15.5709 23.3161V23.1219C14.9328 23.3439 14.3501 23.4549 13.7674 23.4549C11.9362 23.4549 10.6682 22.2341 10.6682 20.2086ZM54.8587 11.8848V25.5892H58.6682V11.4686L54.8587 11.8848ZM22.0968 11.4686L18.2873 11.9126V25.5913L22.0968 25.5892V11.4686ZM101.101 19.5427C101.628 19.7092 102.294 19.8202 102.96 19.8202C106.012 19.8202 108.565 17.767 108.565 15.3253C108.565 13.1889 106.539 11.4964 103.598 11.4686V11.6629C104.541 12.1623 104.763 13.3554 104.763 14.4097C104.763 17.1288 103.071 19.182 101.101 19.3485V19.5427ZM34.5108 19.5427C35.038 19.7092 35.6761 19.8202 36.3698 19.8202C39.4218 19.8202 41.9467 17.767 41.9467 15.3253C41.9467 13.1889 39.9213 11.4964 36.9802 11.4686V11.6629C37.9236 12.1623 38.1455 13.3554 38.1455 14.4097C38.1455 17.1288 36.453 19.182 34.5108 19.3485V19.5427ZM102.821 11.4686C98.7425 11.4686 95.7182 14.5484 95.7182 18.7658C95.7182 22.9832 98.6038 25.8688 102.627 25.8688C105.318 25.8688 107.51 24.5092 108.592 22.0953V21.8456C107.76 22.5947 106.373 22.9832 104.985 22.9832C101.822 22.9832 99.8524 20.9855 99.8524 17.6282C99.8524 15.1589 100.934 12.5507 102.821 11.6629V11.4686ZM36.2311 11.4686C32.1524 11.4686 29.1004 14.5484 29.1004 18.7658C29.1004 22.9832 31.9859 25.8688 36.0091 25.8688C38.7282 25.8688 40.9201 24.5092 41.9745 22.0953V21.8456C41.1421 22.5947 39.7548 22.9832 38.3675 22.9832C35.2322 22.9832 33.2345 20.9577 33.2345 17.6282C33.2345 15.1589 34.3443 12.5507 36.2311 11.6629V11.4686ZM49.9098 25.8688C51.7965 25.8688 53.2115 24.7312 54.0994 22.9832V22.8167C53.6277 23.0664 53.0451 23.2329 52.4347 23.2329C50.2705 23.2052 48.689 21.3184 48.689 18.4329C48.689 14.6594 50.9919 12.1068 54.0162 12.1068V11.8848C53.378 11.6074 52.5456 11.4686 51.6855 11.4686C47.6069 11.4686 44.4993 14.7149 44.4993 19.182C44.4993 23.0109 46.6913 25.8688 49.9098 25.8688ZM68.954 13.3987H72.7635V11.8848H68.954V13.3987ZM11.8111 13.4364H15.6206V11.9126H11.8111V13.4364ZM86.8587 11.8848H82.2873L88.1436 25.7855H88.4211L90.5575 21.3184L86.8587 11.8848ZM78.8587 11.8848H74.6682L80.4025 25.7855H80.68L82.8164 21.3184L78.8587 11.8848ZM90.6682 11.8848C91.3619 13.2444 91.9448 15.7693 91.9448 17.1011H92.139L94.8587 11.8749L90.6682 11.8848ZM22.8587 15.6844C23.7188 14.7966 25.0495 14.5484 26.2425 14.5484C27.0194 14.5484 27.4504 14.7149 27.8111 14.8814V11.6629C27.5891 11.5796 27.2691 11.4686 26.8529 11.4686C24.661 11.4686 23.3304 12.9653 22.8587 15.5457V15.6844Z" fill="currentColor"/>
</svg>
