<?xml version="1.0" encoding="UTF-8"?>
<svg width="218px" height="120px" viewBox="0 0 218 120" version="1.1" xmlns="http://www.w3.org/2000/svg" xmlns:xlink="http://www.w3.org/1999/xlink">
    <!-- Generator: Sketch 52.4 (67378) - http://www.bohemiancoding.com/sketch -->
    <title>brusselsairlines</title>
    <desc>Created with Sketch.</desc>
    <g id="Page-1" stroke="none" stroke-width="1" fill="none" fill-rule="evenodd">
        <g id="Rectangle-1-+-Shape" fill="#808080">
            <g id="Group-2" transform="translate(25.000000, 23.000000)">
                <path d="M70.2264381,11.0719424 L73.6231988,11.0719424 L73.6231988,18.9372336 C74.7119041,18.5549771 75.7473838,18.3638488 76.7199606,18.3638488 C78.8441457,18.3638488 80.4844617,19.0678783 81.6530054,20.4807759 C82.6642917,21.7073839 83.1747736,23.3162484 83.1747736,25.2855954 C83.1747736,27.8694561 82.3134867,29.8170289 80.5860742,31.0992819 C79.0884995,32.2387935 77.0054433,32.8000815 74.3441636,32.8000815 C73.2094908,32.8000815 71.8328833,32.6621789 70.2264381,32.3670188 L70.2264381,11.0719424 Z M73.6231988,29.9621896 L73.6231988,21.5428684 C74.3731958,21.2815791 75.0796446,21.1557732 75.7473838,21.1509345 C76.9183469,21.1509345 77.8328594,21.4896428 78.5223728,22.1525434 C79.2989826,22.9025404 79.6957552,24.0226972 79.6957552,25.5057558 C79.6957552,28.5541307 78.1086647,30.0831569 74.9369032,30.0831569 C74.5473886,30.0831569 74.1070678,30.0371893 73.6231988,29.9621896 Z M86.6658887,32.6186307 L86.6658887,19.5977149 C88.6424937,18.7920729 90.6384535,18.3880423 92.6634454,18.3880423 C93.6311834,18.3880423 94.5456959,18.5186869 95.3948861,18.7872342 L95.3948861,21.6541583 C94.6739212,21.3880303 93.8755373,21.2646437 93.0142504,21.2646437 C92.0150609,21.2646437 91.0376454,21.4412559 90.0699073,21.8041577 L90.0699073,32.6258887 L86.6658887,32.6186307 Z M97.6472965,18.6154607 L101.051315,18.6154607 L101.051315,26.9742983 C101.051315,28.1428421 101.300508,28.9388066 101.784377,29.347676 C102.207762,29.7178358 102.935985,29.901706 103.95211,29.901706 C104.636785,29.901706 105.39162,29.8073516 106.226294,29.6428361 L106.226294,18.6154607 L109.637571,18.6154607 L109.637571,32.1323423 C107.358548,32.5775018 105.372266,32.7976622 103.661789,32.7976622 C101.506152,32.7976622 99.9384163,32.3621801 98.9610009,31.5008932 C98.4505191,31.0049274 98.1045527,30.4097685 97.9013277,29.6888036 C97.7319735,29.0452578 97.6472965,28.1960677 97.6472965,27.1146204 L97.6472965,18.6154607 Z M113.370621,29.0331611 C114.708519,29.8726739 115.973836,30.2936399 117.164154,30.2936399 C118.678664,30.2936399 119.438339,29.8194483 119.438339,28.8686456 C119.438339,28.2202611 118.98834,27.7049406 118.100441,27.2912326 L116.723833,26.6380094 C115.453677,26.0501085 114.573035,25.3993046 114.050457,24.7001139 C113.598039,24.0904389 113.370621,23.3549579 113.370621,22.5202839 C113.370621,21.1606119 113.912554,20.1106161 115.006098,19.3509417 C115.961739,18.6952991 117.185928,18.3614295 118.698019,18.3614295 C119.941562,18.3614295 121.153654,18.6178801 122.305263,19.1307813 L122.305263,22.0606083 C121.158493,21.3541595 120.035917,20.9960964 118.937534,20.9960964 C117.423024,20.9960964 116.670608,21.4485139 116.670608,22.3509297 C116.670608,22.7114121 116.823026,23.0235077 117.132703,23.2630228 C117.418185,23.4831832 118.068989,23.8146335 119.073017,24.3009219 C120.46898,25.0097901 121.410105,25.6436585 121.881877,26.1759144 C122.486713,26.8775245 122.79639,27.721876 122.79639,28.7283236 C122.79639,30.1412212 122.232682,31.2323459 121.127041,31.9992783 C120.159303,32.6742756 118.886728,33.0129839 117.297218,33.0129839 C115.937546,33.0057259 114.626261,32.7129851 113.370621,32.1347616 L113.370621,29.0331611 Z M125.518153,29.0331611 C126.868148,29.8726739 128.135884,30.2936399 129.321364,30.2936399 C130.835874,30.2936399 131.595548,29.8194483 131.595548,28.8686456 C131.595548,28.2202611 131.143131,27.7049406 130.245553,27.2912326 L128.881043,26.6380094 C127.606048,26.0501085 126.722987,25.3993046 126.207666,24.7001139 C125.75041,24.0904389 125.518153,23.3549579 125.518153,22.5202839 C125.518153,21.1606119 126.069764,20.1106161 127.160888,19.3509417 C128.106852,18.6952991 129.328622,18.3614295 130.852809,18.3614295 C132.101191,18.3614295 133.296348,18.6178801 134.464891,19.1307813 L134.464891,22.0606083 C133.310864,21.3541595 132.195546,20.9960964 131.087486,20.9960964 C129.577814,20.9960964 128.825398,21.4485139 128.825398,22.3509297 C128.825398,22.7114121 128.977817,23.0235077 129.287493,23.2630228 C129.577814,23.4831832 130.216521,23.8146335 131.230227,24.3009219 C132.626189,25.0097901 133.562476,25.6436585 134.034248,26.1759144 C134.646342,26.8775245 134.943922,27.721876 134.943922,28.7283236 C134.943922,30.1412212 134.385053,31.2323459 133.276993,31.9992783 C132.314094,32.6742756 131.03426,33.0129839 129.452008,33.0129839 C128.094756,33.0057259 126.781051,32.7129851 125.518153,32.1347616 L125.518153,29.0331611 Z M150.43257,26.2630109 L140.827769,26.2630109 C140.970511,28.8517102 142.419698,30.1605759 145.163236,30.1605759 C146.842261,30.1605759 148.366449,29.6742876 149.721282,28.675098 L149.721282,31.5323447 C148.148708,32.4831473 146.455166,32.9549196 144.643077,32.9549196 C142.257602,32.9549196 140.430997,32.2508902 139.170518,30.8113798 C138.076974,29.5799331 137.530202,27.9009075 137.530202,25.8105933 C137.530202,23.4154416 138.229393,21.5210943 139.64471,20.1202934 C140.880995,18.9106208 142.453569,18.3009459 144.352755,18.3009459 C145.690653,18.3009459 146.854358,18.6372348 147.839032,19.2783613 C148.705157,19.8444881 149.346284,20.6041625 149.76725,21.5501264 C150.217248,22.556574 150.43015,24.1073743 150.43015,26.2049466 L150.43257,26.2630109 Z M147.14468,23.8267303 L141.04793,23.8267303 C141.200348,22.963024 141.529379,22.2856074 142.049539,21.7727062 C142.632601,21.1920634 143.377759,20.8944839 144.301949,20.8944839 C146.046297,20.8944839 146.992261,21.8718993 147.14468,23.8267303 Z M153.935782,11.0719424 L157.344639,11.0719424 L157.344639,32.6234693 L153.935782,32.6234693 L153.935782,11.0719424 Z M161.111559,29.0331611 C162.449457,29.8726739 163.719613,30.2936399 164.912351,30.2936399 C166.419603,30.2936399 167.179277,29.8194483 167.179277,28.8686456 C167.179277,28.2202611 166.731698,27.7049406 165.834121,27.2912326 L164.467191,26.6380094 C163.199454,26.0501085 162.311555,25.3993046 161.796234,24.7001139 C161.334139,24.0904389 161.111559,23.3549579 161.111559,22.5202839 C161.111559,21.1606119 161.655912,20.1106161 162.756714,19.3509417 C163.705097,18.6952991 164.926867,18.3614295 166.441377,18.3614295 C167.689759,18.3614295 168.889754,18.6178801 170.041362,19.1307813 L170.041362,22.0606083 C168.901851,21.3541595 167.774436,20.9960964 166.685731,20.9960964 C165.159124,20.9960964 164.416385,21.4485139 164.416385,22.3509297 C164.416385,22.7114121 164.566384,23.0235077 164.87606,23.2630228 C165.149446,23.4831832 165.807508,23.8146335 166.813956,24.3009219 C168.212337,25.0097901 169.151043,25.6436585 169.625235,26.1759144 C170.230071,26.8775245 170.542167,27.721876 170.542167,28.7283236 C170.542167,30.1412212 169.983298,31.2323459 168.86798,31.9992783 C167.897823,32.6742756 166.622828,33.0129839 165.042995,33.0129839 C163.676065,33.0057259 162.376877,32.7129851 161.111559,32.1347616 L161.111559,29.0331611 Z M70.2264381,50.4388489 C72.0046568,49.4807882 73.8264238,49.0065966 75.6651261,49.0065966 C77.6780213,49.0065966 78.9868871,49.5969168 79.5917233,50.7799766 C79.8941415,51.3775549 80.0538183,52.4807763 80.0538183,54.1065762 L80.0538183,62.9831537 C77.6465698,63.3339588 75.6869002,63.4984742 74.1748095,63.4984742 C72.4086875,63.4984742 71.1554667,63.1452498 70.393373,62.4170269 C69.7304724,61.7734811 69.4086995,60.8178398 69.4086995,59.5452642 C69.4086995,57.6339815 70.2070834,56.2912449 71.8135286,55.5146351 C72.8732018,54.9944759 74.4844857,54.6243161 76.6352835,54.3823816 L76.9183469,54.3581881 L76.9183469,53.8573837 C76.9183469,53.0251289 76.7610895,52.4710989 76.4175425,52.1856161 C76.1151243,51.9267462 75.6191586,51.7985209 74.9078711,51.7985209 C73.4369092,51.7985209 71.8667542,52.3235188 70.2264381,53.3686759 L70.2264381,50.4388489 Z M76.9836692,56.922694 L76.9836692,60.6509049 C75.9457702,60.8033237 75.0869026,60.8807427 74.3949699,60.8734847 C73.1465878,60.8734847 72.5369128,60.3509061 72.5369128,59.2912329 C72.5369128,58.5920422 72.8127181,58.079141 73.3812643,57.728336 C74.0393261,57.3267247 75.2344827,57.0678547 76.9836692,56.922694 Z M87.7183038,42.9727497 L87.7183038,46.6162835 L84.215092,46.6162835 L84.215092,42.9727497 L87.7183038,42.9727497 Z M87.677175,49.28966 L87.677175,63.2662171 L84.2731563,63.2662171 L84.2731563,49.28966 L87.677175,49.28966 Z M92.0658671,63.2613784 L92.0658671,50.2404626 C94.0424721,49.4348207 96.0384319,49.03079 98.0755206,49.03079 C99.0335812,49.03079 99.943255,49.1614347 100.799703,49.429982 L100.799703,52.296906 C100.07148,52.0307781 99.2755158,51.9073914 98.4190676,51.9073914 C97.4102006,51.9073914 96.4352045,52.0840036 95.4747245,52.4469054 L95.4747245,63.2686364 L92.0658671,63.2613784 Z M103.535983,41.7146902 L106.947259,41.7146902 L106.947259,63.2662171 L103.535983,63.2662171 L103.535983,41.7146902 Z M114.819809,42.9727497 L114.819809,46.6162835 L111.311758,46.6162835 L111.311758,42.9727497 L114.819809,42.9727497 Z M114.771422,49.28966 L114.771422,63.2662171 L111.364984,63.2662171 L111.364984,49.28966 L114.771422,49.28966 Z M119.169791,63.2613784 L119.169791,49.969496 C121.368976,49.3356275 123.478645,49.0283707 125.513314,49.0283707 C127.712499,49.0283707 129.263299,49.4977236 130.163296,50.4557843 C130.910873,51.2614263 131.288291,52.5340019 131.288291,54.2831884 L131.288291,63.2613784 L127.877015,63.2613784 L127.877015,54.5154456 C127.877015,53.4557724 127.639919,52.7396462 127.158469,52.3380349 C126.725406,51.9848105 126.033473,51.7985209 125.089929,51.7985209 C124.286706,51.7985209 123.444774,51.9315849 122.581068,52.1856161 L122.581068,63.2613784 L119.169791,63.2613784 Z M147.546291,56.9057586 L137.939071,56.9057586 C138.081813,59.4944579 139.523742,60.8033237 142.260022,60.8033237 C143.953563,60.8033237 145.472912,60.3170353 146.827745,59.3178457 L146.827745,62.1750924 C145.26001,63.1258951 143.556791,63.5976674 141.754379,63.5976674 C139.371323,63.5976674 137.542299,62.8936379 136.276981,61.4541275 C135.193114,60.2226808 134.634246,58.5436553 134.634246,56.453341 C134.634246,54.0581893 135.343114,52.163842 136.746334,50.7630412 C137.982619,49.5533686 139.557613,48.9436936 141.45196,48.9436936 C142.794697,48.9436936 143.955983,49.2799826 144.943075,49.9211091 C145.81162,50.4872358 146.447908,51.2469102 146.880971,52.1928742 C147.316453,53.1993218 147.536613,54.750122 147.536613,56.8476943 L147.546291,56.9057586 Z M144.26082,54.469478 L138.16407,54.469478 C138.316489,53.6057718 138.640681,52.9283551 139.16084,52.4154539 C139.741483,51.8348111 140.4939,51.5372316 141.410831,51.5372316 C143.162437,51.5372316 144.108401,52.5146471 144.26082,54.469478 Z M150.367247,59.6759088 C151.709984,60.5154216 152.975301,60.9363877 154.165619,60.9363877 C155.67771,60.9363877 156.434965,60.462196 156.434965,59.5113934 C156.434965,58.8630089 155.980128,58.3476883 155.08497,57.9339803 L153.715621,57.2807571 C152.455142,56.6928562 151.559985,56.0420524 151.042245,55.3428616 C150.592246,54.7331866 150.367247,53.9977057 150.367247,53.1606123 C150.367247,51.8009403 150.904342,50.7509444 152.002725,49.9912701 C152.953527,49.3356275 154.175297,49.0017579 155.692226,49.0017579 C156.938189,49.0017579 158.145442,49.2582085 159.292212,49.7711097 L159.292212,52.7009367 C158.15512,51.9944879 157.022866,51.6364248 155.917225,51.6364248 C154.419651,51.6364248 153.662395,52.0888423 153.662395,52.9912581 C153.662395,53.3517405 153.814814,53.6638361 154.117232,53.9033512 C154.402715,54.1235116 155.058358,54.4549619 156.062386,54.9412503 C157.460767,55.6501184 158.401893,56.2839869 158.873665,56.8162428 C159.478501,57.5178529 159.776081,58.3622044 159.776081,59.368652 C159.776081,60.7815496 159.222051,61.8726743 158.11641,62.6396067 C157.141414,63.314604 155.871258,63.6533123 154.289006,63.6533123 C152.936592,63.6484736 151.620468,63.3557329 150.367247,62.7775094 L150.367247,59.6759088 Z" id="Shape"></path>
                <path d="M7.52516729,69.7176368 C3.36061819,69.7176368 6.03961325e-14,67.2404078 6.03961325e-14,64.1649047 C6.03961325e-14,61.1034236 3.3652922,58.5981505 7.53451532,58.5981505 C11.7037384,58.5888024 15.0690306,61.0940755 15.0690306,64.1649047 C15.0690306,67.2404078 11.7037384,69.7176368 7.52516729,69.7176368 Z M13.7322618,55.5740615 C10.0678325,55.5506914 7.11385379,53.4754279 7.11385379,50.9000446 C7.11385379,48.3246612 10.0678325,46.2821158 13.7322618,46.2821158 C17.387343,46.2680938 20.3319737,48.3246612 20.3319737,50.9000446 C20.3319737,53.4754279 17.387343,55.5506914 13.7322618,55.5740615 Z M19.032597,43.580534 C15.9150277,43.580534 13.3863845,41.9025619 13.3863845,39.8319724 C13.3863845,37.775405 15.9197017,36.0927589 19.032597,36.0927589 C22.1408183,36.0927589 24.6554394,37.784753 24.6554394,39.8319724 C24.6554394,41.8932139 22.1408183,43.571186 19.032597,43.580534 Z M33.2229125,11.0961162 C31.6010286,11.0961162 30.2782818,10.4324058 30.2782818,9.61912688 C30.2782818,8.79182588 31.6010286,8.14213752 33.2229125,8.14213752 C34.8447963,8.14213752 36.1488471,8.78715186 36.1581951,9.61912688 C36.1488471,10.4324058 34.8447963,11.0961162 33.2229125,11.0961162 Z M37.3500694,2.12667771 C36.120803,2.12667771 35.1439334,1.65927602 35.1345854,1.07034988 C35.1345854,0.49077178 36.120803,4.85722573e-17 37.3500694,4.85722573e-17 C38.5699879,1.38777878e-17 39.5562054,0.49077178 39.5562054,1.07034988 C39.5562054,1.65927602 38.5699879,2.12667771 37.3500694,2.12667771 Z M35.3963303,6.35666305 C33.9987993,6.35666305 32.8583391,5.80980307 32.8583391,5.12272257 C32.8583391,4.44966413 33.9987993,3.90280415 35.3963303,3.90280415 C36.8172315,3.90280415 37.9530176,4.44966413 37.9530176,5.12272257 C37.9530176,5.80980307 36.8219055,6.34731501 35.3963303,6.35666305 Z M23.5103052,33.1247581 C20.8788337,33.1247581 18.7287859,31.7786412 18.7287859,30.1100172 C18.7287859,28.4507412 20.8741597,27.0906022 23.5103052,27.0906022 C26.1604729,27.0952762 28.3058466,28.4507412 28.3058466,30.1100172 C28.3058466,31.7786412 26.1604729,33.1247581 23.5103052,33.1247581 Z M27.3663692,24.4170645 C25.108819,24.4170645 23.2812784,23.3280186 23.2812784,22.0099458 C23.2812784,20.6638289 25.108819,19.579457 27.3663692,19.579457 C29.6426155,19.579457 31.4701561,20.6638289 31.4701561,22.0099458 C31.4701561,23.3280186 29.6426155,24.4170645 27.3663692,24.4170645 Z M25.8099216,68.2312994 C22.0333159,68.2312994 18.9624868,66.0017933 18.9624868,63.2394493 C18.9624868,60.4771053 22.0333159,58.2289031 25.8005736,58.2289031 C29.5865273,58.2289031 32.6480084,60.4724313 32.6480084,63.2394493 C32.6480084,66.0111414 29.5865273,68.2312994 25.8099216,68.2312994 Z M41.5239666,63.4871722 C38.1259562,63.4871722 35.3636122,61.5240851 35.3636122,59.0889223 C35.3636122,56.6537594 38.1259562,54.6626282 41.5239666,54.6626282 C44.9266509,54.6579542 47.6936689,56.6490854 47.6936689,59.0889223 C47.6936689,61.5240851 44.9313249,63.4871722 41.5239666,63.4871722 Z M50.3111184,54.0737021 C47.5394264,54.0737021 45.2818762,52.5125804 45.2818762,50.6055815 C45.2818762,48.6658645 47.5394264,47.1047428 50.3111184,47.1047428 C53.1061806,47.1047428 55.3730788,48.6658645 55.3730788,50.6055815 C55.3730788,52.5125804 53.1155286,54.0737021 50.3111184,54.0737021 Z M44.3610949,37.784753 C42.3185494,37.784753 40.6686215,36.7611433 40.6686215,35.4804627 C40.6686215,34.20913 42.3185494,33.1574762 44.3610949,33.1574762 C46.3802702,33.1574762 48.0255241,34.204456 48.0255241,35.4804627 C48.0255241,36.7611433 46.3755962,37.784753 44.3610949,37.784753 Z M30.6989433,17.1723383 C28.7872704,17.1723383 27.2308227,16.2982971 27.2308227,15.2372952 C27.2308227,14.1762934 28.7872704,13.3162743 30.6989433,13.3162743 C32.6199643,13.3162743 34.1764119,14.1809674 34.1764119,15.2372952 C34.1764119,16.3029711 32.6246383,17.1723383 30.6989433,17.1723383 Z M49.7362143,44.6228398 C47.3758358,44.6228398 45.4594888,43.3561812 45.4594888,41.8044076 C45.4594888,40.27133 47.3758358,38.9953234 49.7502364,38.9953234 C52.1106149,39.0046714 54.0269619,40.27133 54.0269619,41.8044076 C54.0269619,43.3655292 52.115289,44.6228398 49.7362143,44.6228398 Z" id="Shape"></path>
            </g>
        </g>
    </g>
</svg>