<?xml version="1.0" encoding="UTF-8"?>
<svg width="560px" height="196px" viewBox="0 0 560 196" version="1.1" xmlns="http://www.w3.org/2000/svg" xmlns:xlink="http://www.w3.org/1999/xlink">
    <!-- Generator: Sketch 52.4 (67378) - http://www.bohemiancoding.com/sketch -->
    <title>snapchat</title>
    <desc>Created with Sketch.</desc>
    <g id="Page-1" stroke="none" stroke-width="1" fill="none" fill-rule="evenodd">
        <g id="Sliding-Screens-Pattern" transform="translate(0.000000, -10.000000)">
            <g id="Group" transform="translate(0.000000, 10.000000)">
                <rect id="Rectangle-1" stroke="#E6E6E6" stroke-width="1.1023622" fill="#FFFFFF" x="0.551181102" y="0.551181102" width="109.133858" height="194.897638"></rect>
                <rect id="Rectangle-1" stroke="#E6E6E6" stroke-width="1.1023622" fill="#FFFFFF" x="112.992126" y="0.551181102" width="109.133858" height="194.897638"></rect>
                <rect id="Rectangle-1" stroke="#E6E6E6" stroke-width="1.1023622" fill="#FFFFFF" x="225.433071" y="0.551181102" width="109.133858" height="194.897638"></rect>
                <rect id="Rectangle-1" stroke="#E6E6E6" stroke-width="1.1023622" fill="#FFFFFF" x="337.874016" y="0.551181102" width="109.133858" height="194.897638"></rect>
                <rect id="Rectangle-1" stroke="#E6E6E6" stroke-width="1.1023622" fill="#FFFFFF" x="450.314961" y="0.551181102" width="109.133858" height="194.897638"></rect>
                <g id="Oval-11-+-Oval-19-+-Oval-20" opacity="0.5" transform="translate(460.787402, 48.449438)" fill="#E6E6E6">
                    <ellipse id="Oval-11" cx="11.023622" cy="11.011236" rx="11.023622" ry="11.011236"></ellipse>
                    <ellipse id="Oval-19" cx="44.0944882" cy="11.011236" rx="11.023622" ry="11.011236"></ellipse>
                    <ellipse id="Oval-20" cx="77.1653543" cy="11.011236" rx="11.023622" ry="11.011236"></ellipse>
                    <ellipse id="Oval-23" cx="11.023622" cy="44.0449438" rx="11.023622" ry="11.011236"></ellipse>
                    <ellipse id="Oval-22" cx="44.0944882" cy="44.0449438" rx="11.023622" ry="11.011236"></ellipse>
                    <ellipse id="Oval-21" cx="77.1653543" cy="44.0449438" rx="11.023622" ry="11.011236"></ellipse>
                    <ellipse id="Oval-26" cx="11.023622" cy="77.0786517" rx="11.023622" ry="11.011236"></ellipse>
                    <ellipse id="Oval-25" cx="44.0944882" cy="77.0786517" rx="11.023622" ry="11.011236"></ellipse>
                    <ellipse id="Oval-24" cx="77.1653543" cy="77.0786517" rx="11.023622" ry="11.011236"></ellipse>
                    <ellipse id="Oval-29" cx="11.023622" cy="110.11236" rx="11.023622" ry="11.011236"></ellipse>
                    <ellipse id="Oval-28" cx="44.0944882" cy="110.11236" rx="11.023622" ry="11.011236"></ellipse>
                    <ellipse id="Oval-27" cx="77.1653543" cy="110.11236" rx="11.023622" ry="11.011236"></ellipse>
                </g>
                <rect id="Rectangle-3" stroke="#E6E6E6" stroke-width="1.1023622" x="0.551181102" y="0.551181102" width="109.133858" height="20.9201097"></rect>
                <rect id="Rectangle-4" stroke="#E6E6E6" stroke-width="1.1023622" x="112.992126" y="0.551181102" width="109.133858" height="20.9201097"></rect>
                <rect id="Rectangle-5" stroke="#E6E6E6" stroke-width="1.1023622" x="225.433071" y="0.551181102" width="109.133858" height="20.9201097"></rect>
                <rect id="Rectangle-6" stroke="#E6E6E6" stroke-width="1.1023622" x="337.874016" y="0.551181102" width="109.133858" height="20.9201097"></rect>
                <rect id="Rectangle-7" stroke="#E6E6E6" stroke-width="1.1023622" x="450.314961" y="0.551181102" width="109.133858" height="20.9201097"></rect>
                <path d="M44.5061102,114.499371 C41.8041102,114.499371 40.4321102,112.665371 40.4321102,110.229371 L40.4321102,108.577371 C40.4321102,106.141371 41.8041102,104.307371 44.5061102,104.307371 C46.7741102,104.307371 48.2161102,105.889371 48.3701102,107.737371 L47.3201102,107.737371 C47.1521102,106.393371 46.2561102,105.217371 44.4921102,105.217371 C42.4901102,105.217371 41.5241102,106.617371 41.5241102,108.535371 L41.5241102,110.271371 C41.5241102,112.189371 42.4901102,113.589371 44.4921102,113.589371 C46.2561102,113.589371 47.1521102,112.413371 47.3201102,111.069371 L48.3701102,111.069371 C48.2161102,112.917371 46.7741102,114.499371 44.5061102,114.499371 Z M50.4001102,114.303371 L50.4001102,104.083371 L51.4641102,104.083371 L51.4641102,108.241371 C51.8701102,107.499371 52.6121102,106.967371 53.8021102,106.967371 C55.4121102,106.967371 56.4341102,108.059371 56.4341102,109.781371 L56.4341102,114.303371 L55.3701102,114.303371 L55.3701102,109.935371 C55.3701102,108.717371 54.8241102,107.891371 53.5361102,107.891371 C52.3601102,107.891371 51.4641102,108.605371 51.4641102,110.089371 L51.4641102,114.303371 L50.4001102,114.303371 Z M64.5121102,114.303371 L63.4901102,114.303371 L63.4901102,113.407371 C63.1821102,113.911371 62.2161102,114.471371 61.0261102,114.471371 C59.3321102,114.471371 58.3101102,113.519371 58.3101102,112.217371 C58.3101102,110.831371 59.4441102,109.977371 61.1521102,109.977371 C62.2861102,109.977371 63.0421102,110.453371 63.4481102,110.873371 L63.4481102,109.543371 C63.4481102,108.563371 62.8041102,107.807371 61.6561102,107.807371 C60.7461102,107.807371 60.1581102,108.227371 59.8641102,108.885371 L58.8841102,108.885371 C59.2481102,107.695371 60.2561102,106.967371 61.6701102,106.967371 C63.4481102,106.967371 64.5121102,108.129371 64.5121102,109.543371 L64.5121102,114.303371 Z M61.2501102,113.785371 C62.3701102,113.785371 63.4481102,113.127371 63.4481102,112.203371 C63.4481102,111.307371 62.3841102,110.677371 61.3061102,110.677371 C60.1161102,110.677371 59.3181102,111.237371 59.3181102,112.231371 C59.3181102,113.225371 60.1441102,113.785371 61.2501102,113.785371 Z M70.1261102,114.303371 L69.2301102,114.303371 C67.8581102,114.303371 67.2841102,113.617371 67.2841102,112.399371 L67.2841102,108.003371 L66.0661102,108.003371 L66.0661102,107.135371 L67.2841102,107.135371 L67.2841102,105.077371 L68.3481102,105.077371 L68.3481102,107.135371 L70.1821102,107.135371 L70.1821102,108.003371 L68.3481102,108.003371 L68.3481102,112.399371 C68.3481102,113.127371 68.6141102,113.435371 69.4121102,113.435371 L70.1261102,113.435371 L70.1261102,114.303371 Z" id="Chat" fill="#666666"></path>
                <path d="M151.620055,114.499371 C149.534055,114.499371 147.966055,113.379371 147.966055,111.587371 L147.966055,111.335371 L149.002055,111.335371 L149.002055,111.559371 C149.002055,112.791371 149.996055,113.631371 151.620055,113.631371 C153.230055,113.631371 154.210055,112.931371 154.210055,111.685371 C154.210055,110.887371 153.720055,110.327371 152.810055,110.089371 L150.038055,109.361371 C148.624055,108.997371 148.092055,108.171371 148.092055,107.051371 C148.092055,105.315371 149.464055,104.307371 151.480055,104.307371 C153.496055,104.307371 154.910055,105.441371 154.910055,107.107371 L154.910055,107.345371 L153.888055,107.345371 L153.888055,107.135371 C153.888055,105.973371 152.992055,105.175371 151.480055,105.175371 C150.108055,105.175371 149.142055,105.805371 149.142055,106.967371 C149.142055,107.779371 149.520055,108.241371 150.360055,108.465371 L153.202055,109.221371 C154.406055,109.543371 155.260055,110.341371 155.260055,111.601371 C155.260055,113.393371 153.706055,114.499371 151.620055,114.499371 Z M157.248055,114.303371 L157.248055,107.135371 L158.256055,107.135371 L158.256055,108.353371 C158.592055,107.541371 159.404055,106.967371 160.650055,106.967371 C162.260055,106.967371 163.282055,108.059371 163.282055,109.781371 L163.282055,114.303371 L162.218055,114.303371 L162.218055,109.935371 C162.218055,108.717371 161.672055,107.891371 160.384055,107.891371 C159.208055,107.891371 158.312055,108.605371 158.312055,110.089371 L158.312055,114.303371 L157.248055,114.303371 Z M171.360055,114.303371 L170.338055,114.303371 L170.338055,113.407371 C170.030055,113.911371 169.064055,114.471371 167.874055,114.471371 C166.180055,114.471371 165.158055,113.519371 165.158055,112.217371 C165.158055,110.831371 166.292055,109.977371 168.000055,109.977371 C169.134055,109.977371 169.890055,110.453371 170.296055,110.873371 L170.296055,109.543371 C170.296055,108.563371 169.652055,107.807371 168.504055,107.807371 C167.594055,107.807371 167.006055,108.227371 166.712055,108.885371 L165.732055,108.885371 C166.096055,107.695371 167.104055,106.967371 168.518055,106.967371 C170.296055,106.967371 171.360055,108.129371 171.360055,109.543371 L171.360055,114.303371 Z M168.098055,113.785371 C169.218055,113.785371 170.296055,113.127371 170.296055,112.203371 C170.296055,111.307371 169.232055,110.677371 168.154055,110.677371 C166.964055,110.677371 166.166055,111.237371 166.166055,112.231371 C166.166055,113.225371 166.992055,113.785371 168.098055,113.785371 Z M174.608055,116.739371 L173.544055,116.739371 L173.544055,107.135371 L174.552055,107.135371 L174.552055,108.255371 C174.860055,107.597371 175.784055,106.967371 176.974055,106.967371 C178.892055,106.967371 179.970055,108.353371 179.970055,110.173371 L179.970055,111.265371 C179.970055,113.127371 178.808055,114.471371 177.002055,114.471371 C175.882055,114.471371 175.042055,113.967371 174.608055,113.239371 L174.608055,116.739371 Z M178.906055,111.223371 L178.906055,110.215371 C178.906055,108.899371 178.276055,107.835371 176.792055,107.835371 C175.378055,107.835371 174.608055,108.913371 174.608055,110.299371 L174.608055,111.223371 C174.608055,112.693371 175.616055,113.603371 176.806055,113.603371 C178.164055,113.603371 178.906055,112.539371 178.906055,111.223371 Z M184.520055,114.471371 C182.784055,114.471371 181.552055,113.603371 181.552055,112.217371 L181.552055,112.147371 L182.518055,112.147371 L182.518055,112.189371 C182.518055,113.085371 183.358055,113.673371 184.534055,113.673371 C185.640055,113.673371 186.438055,113.239371 186.438055,112.315371 C186.438055,111.811371 186.116055,111.447371 185.542055,111.321371 L183.414055,110.831371 C182.350055,110.593371 181.734055,109.949371 181.734055,109.011371 C181.734055,107.667371 182.868055,106.967371 184.450055,106.967371 C185.948055,106.967371 187.110055,107.877371 187.110055,109.207371 L187.110055,109.277371 L186.144055,109.277371 L186.144055,109.235371 C186.144055,108.353371 185.500055,107.765371 184.436055,107.765371 C183.442055,107.765371 182.714055,108.185371 182.714055,108.983371 C182.714055,109.473371 182.952055,109.781371 183.470055,109.907371 L185.668055,110.425371 C186.774055,110.691371 187.432055,111.237371 187.432055,112.273371 C187.432055,113.547371 186.200055,114.471371 184.520055,114.471371 Z" id="Snaps" fill="#666666"></path>
                <path d="M259.217,114.499371 C256.515,114.499371 255.143,112.665371 255.143,110.229371 L255.143,108.577371 C255.143,106.141371 256.515,104.307371 259.217,104.307371 C261.485,104.307371 262.927,105.889371 263.081,107.737371 L262.031,107.737371 C261.863,106.393371 260.967,105.217371 259.203,105.217371 C257.201,105.217371 256.235,106.617371 256.235,108.535371 L256.235,110.271371 C256.235,112.189371 257.201,113.589371 259.203,113.589371 C260.967,113.589371 261.863,112.413371 262.031,111.069371 L263.081,111.069371 C262.927,112.917371 261.485,114.499371 259.217,114.499371 Z M270.991,114.303371 L269.969,114.303371 L269.969,113.407371 C269.661,113.911371 268.695,114.471371 267.505,114.471371 C265.811,114.471371 264.789,113.519371 264.789,112.217371 C264.789,110.831371 265.923,109.977371 267.631,109.977371 C268.765,109.977371 269.521,110.453371 269.927,110.873371 L269.927,109.543371 C269.927,108.563371 269.283,107.807371 268.135,107.807371 C267.225,107.807371 266.637,108.227371 266.343,108.885371 L265.363,108.885371 C265.727,107.695371 266.735,106.967371 268.149,106.967371 C269.927,106.967371 270.991,108.129371 270.991,109.543371 L270.991,114.303371 Z M267.729,113.785371 C268.849,113.785371 269.927,113.127371 269.927,112.203371 C269.927,111.307371 268.863,110.677371 267.785,110.677371 C266.595,110.677371 265.797,111.237371 265.797,112.231371 C265.797,113.225371 266.623,113.785371 267.729,113.785371 Z M273.175,114.303371 L273.175,107.135371 L274.183,107.135371 L274.183,108.353371 C274.519,107.541371 275.303,106.967371 276.549,106.967371 C277.613,106.967371 278.425,107.499371 278.831,108.367371 C279.321,107.527371 280.189,106.967371 281.435,106.967371 C283.003,106.967371 284.011,108.087371 284.011,109.781371 L284.011,114.303371 L282.947,114.303371 L282.947,109.935371 C282.947,108.717371 282.345,107.891371 281.169,107.891371 C279.993,107.891371 279.125,108.605371 279.125,110.089371 L279.125,114.303371 L278.061,114.303371 L278.061,109.935371 C278.061,108.717371 277.459,107.891371 276.283,107.891371 C275.107,107.891371 274.239,108.605371 274.239,110.089371 L274.239,114.303371 L273.175,114.303371 Z M289.023,114.471371 C287.161,114.471371 285.859,113.281371 285.859,111.349371 L285.859,110.201371 C285.859,108.255371 286.965,106.967371 288.981,106.967371 C291.025,106.967371 292.019,108.325371 292.019,110.089371 L292.019,111.153371 L286.881,111.153371 L286.881,111.405371 C286.881,112.651371 287.525,113.659371 289.023,113.659371 C290.101,113.659371 290.759,113.085371 290.997,112.273371 L291.949,112.273371 C291.711,113.561371 290.521,114.471371 289.023,114.471371 Z M286.881,110.117371 L286.881,110.341371 L291.025,110.341371 L291.025,110.005371 C291.025,108.731371 290.381,107.779371 288.981,107.779371 C287.441,107.779371 286.881,108.801371 286.881,110.117371 Z M293.965,114.303371 L293.965,107.135371 L294.959,107.135371 L294.959,108.787371 C295.225,107.681371 295.995,107.093371 297.297,107.093371 L297.465,107.093371 L297.465,108.087371 L297.255,108.087371 C295.897,108.087371 295.029,108.983371 295.029,110.789371 L295.029,114.303371 L293.965,114.303371 Z M304.787,114.303371 L303.765,114.303371 L303.765,113.407371 C303.457,113.911371 302.491,114.471371 301.301,114.471371 C299.607,114.471371 298.585,113.519371 298.585,112.217371 C298.585,110.831371 299.719,109.977371 301.427,109.977371 C302.561,109.977371 303.317,110.453371 303.723,110.873371 L303.723,109.543371 C303.723,108.563371 303.079,107.807371 301.931,107.807371 C301.021,107.807371 300.433,108.227371 300.139,108.885371 L299.159,108.885371 C299.523,107.695371 300.531,106.967371 301.945,106.967371 C303.723,106.967371 304.787,108.129371 304.787,109.543371 L304.787,114.303371 Z M301.525,113.785371 C302.645,113.785371 303.723,113.127371 303.723,112.203371 C303.723,111.307371 302.659,110.677371 301.581,110.677371 C300.391,110.677371 299.593,111.237371 299.593,112.231371 C299.593,113.225371 300.419,113.785371 301.525,113.785371 Z" id="Camera" fill="#666666"></path>
                <path d="M374.142945,114.499371 C372.056945,114.499371 370.488945,113.379371 370.488945,111.587371 L370.488945,111.335371 L371.524945,111.335371 L371.524945,111.559371 C371.524945,112.791371 372.518945,113.631371 374.142945,113.631371 C375.752945,113.631371 376.732945,112.931371 376.732945,111.685371 C376.732945,110.887371 376.242945,110.327371 375.332945,110.089371 L372.560945,109.361371 C371.146945,108.997371 370.614945,108.171371 370.614945,107.051371 C370.614945,105.315371 371.986945,104.307371 374.002945,104.307371 C376.018945,104.307371 377.432945,105.441371 377.432945,107.107371 L377.432945,107.345371 L376.410945,107.345371 L376.410945,107.135371 C376.410945,105.973371 375.514945,105.175371 374.002945,105.175371 C372.630945,105.175371 371.664945,105.805371 371.664945,106.967371 C371.664945,107.779371 372.042945,108.241371 372.882945,108.465371 L375.724945,109.221371 C376.928945,109.543371 377.782945,110.341371 377.782945,111.601371 C377.782945,113.393371 376.228945,114.499371 374.142945,114.499371 Z M383.200945,114.303371 L382.304945,114.303371 C380.932945,114.303371 380.358945,113.617371 380.358945,112.399371 L380.358945,108.003371 L379.140945,108.003371 L379.140945,107.135371 L380.358945,107.135371 L380.358945,105.077371 L381.422945,105.077371 L381.422945,107.135371 L383.256945,107.135371 L383.256945,108.003371 L381.422945,108.003371 L381.422945,112.399371 C381.422945,113.127371 381.688945,113.435371 382.486945,113.435371 L383.200945,113.435371 L383.200945,114.303371 Z M387.848945,114.471371 C385.804945,114.471371 384.642945,113.071371 384.642945,111.307371 L384.642945,110.131371 C384.642945,108.367371 385.818945,106.967371 387.848945,106.967371 C389.878945,106.967371 391.040945,108.367371 391.040945,110.131371 L391.040945,111.307371 C391.040945,113.071371 389.878945,114.471371 387.848945,114.471371 Z M390.018945,110.145371 C390.018945,108.787371 389.262945,107.821371 387.848945,107.821371 C386.434945,107.821371 385.678945,108.787371 385.678945,110.145371 L385.678945,111.293371 C385.678945,112.651371 386.434945,113.617371 387.848945,113.617371 C389.262945,113.617371 390.018945,112.651371 390.018945,111.293371 L390.018945,110.145371 Z M392.958945,114.303371 L392.958945,107.135371 L393.952945,107.135371 L393.952945,108.787371 C394.218945,107.681371 394.988945,107.093371 396.290945,107.093371 L396.458945,107.093371 L396.458945,108.087371 L396.248945,108.087371 C394.890945,108.087371 394.022945,108.983371 394.022945,110.789371 L394.022945,114.303371 L392.958945,114.303371 Z M397.970945,114.303371 L397.970945,107.135371 L399.034945,107.135371 L399.034945,114.303371 L397.970945,114.303371 Z M397.830945,105.245371 C397.830945,104.867371 398.096945,104.601371 398.502945,104.601371 C398.908945,104.601371 399.174945,104.867371 399.174945,105.245371 C399.174945,105.623371 398.908945,105.889371 398.502945,105.889371 C398.096945,105.889371 397.830945,105.623371 397.830945,105.245371 Z M404.186945,114.471371 C402.324945,114.471371 401.022945,113.281371 401.022945,111.349371 L401.022945,110.201371 C401.022945,108.255371 402.128945,106.967371 404.144945,106.967371 C406.188945,106.967371 407.182945,108.325371 407.182945,110.089371 L407.182945,111.153371 L402.044945,111.153371 L402.044945,111.405371 C402.044945,112.651371 402.688945,113.659371 404.186945,113.659371 C405.264945,113.659371 405.922945,113.085371 406.160945,112.273371 L407.112945,112.273371 C406.874945,113.561371 405.684945,114.471371 404.186945,114.471371 Z M402.044945,110.117371 L402.044945,110.341371 L406.188945,110.341371 L406.188945,110.005371 C406.188945,108.731371 405.544945,107.779371 404.144945,107.779371 C402.604945,107.779371 402.044945,108.801371 402.044945,110.117371 Z M411.760945,114.471371 C410.024945,114.471371 408.792945,113.603371 408.792945,112.217371 L408.792945,112.147371 L409.758945,112.147371 L409.758945,112.189371 C409.758945,113.085371 410.598945,113.673371 411.774945,113.673371 C412.880945,113.673371 413.678945,113.239371 413.678945,112.315371 C413.678945,111.811371 413.356945,111.447371 412.782945,111.321371 L410.654945,110.831371 C409.590945,110.593371 408.974945,109.949371 408.974945,109.011371 C408.974945,107.667371 410.108945,106.967371 411.690945,106.967371 C413.188945,106.967371 414.350945,107.877371 414.350945,109.207371 L414.350945,109.277371 L413.384945,109.277371 L413.384945,109.235371 C413.384945,108.353371 412.740945,107.765371 411.676945,107.765371 C410.682945,107.765371 409.954945,108.185371 409.954945,108.983371 C409.954945,109.473371 410.192945,109.781371 410.710945,109.907371 L412.908945,110.425371 C414.014945,110.691371 414.672945,111.237371 414.672945,112.273371 C414.672945,113.547371 413.440945,114.471371 411.760945,114.471371 Z" id="Stories" fill="#666666"></path>
                <path d="M478.03689,104.503371 L481.71889,104.503371 C484.21089,104.503371 485.58289,106.085371 485.58289,108.269371 L485.58289,110.537371 C485.58289,112.721371 484.21089,114.303371 481.71889,114.303371 L478.03689,114.303371 L478.03689,104.503371 Z M481.56489,113.407371 C483.49689,113.407371 484.50489,112.245371 484.50489,110.537371 L484.50489,108.269371 C484.50489,106.561371 483.49689,105.399371 481.56489,105.399371 L479.11489,105.399371 L479.11489,113.407371 L481.56489,113.407371 Z M487.75289,114.303371 L487.75289,107.135371 L488.81689,107.135371 L488.81689,114.303371 L487.75289,114.303371 Z M487.61289,105.245371 C487.61289,104.867371 487.87889,104.601371 488.28489,104.601371 C488.69089,104.601371 488.95689,104.867371 488.95689,105.245371 C488.95689,105.623371 488.69089,105.889371 488.28489,105.889371 C487.87889,105.889371 487.61289,105.623371 487.61289,105.245371 Z M493.78689,114.471371 C492.05089,114.471371 490.81889,113.603371 490.81889,112.217371 L490.81889,112.147371 L491.78489,112.147371 L491.78489,112.189371 C491.78489,113.085371 492.62489,113.673371 493.80089,113.673371 C494.90689,113.673371 495.70489,113.239371 495.70489,112.315371 C495.70489,111.811371 495.38289,111.447371 494.80889,111.321371 L492.68089,110.831371 C491.61689,110.593371 491.00089,109.949371 491.00089,109.011371 C491.00089,107.667371 492.13489,106.967371 493.71689,106.967371 C495.21489,106.967371 496.37689,107.877371 496.37689,109.207371 L496.37689,109.277371 L495.41089,109.277371 L495.41089,109.235371 C495.41089,108.353371 494.76689,107.765371 493.70289,107.765371 C492.70889,107.765371 491.98089,108.185371 491.98089,108.983371 C491.98089,109.473371 492.21889,109.781371 492.73689,109.907371 L494.93489,110.425371 C496.04089,110.691371 496.69889,111.237371 496.69889,112.273371 C496.69889,113.547371 495.46689,114.471371 493.78689,114.471371 Z M501.34689,114.471371 C499.35889,114.471371 498.16889,113.127371 498.16889,111.321371 L498.16889,110.117371 C498.16889,108.311371 499.35889,106.967371 501.34689,106.967371 C503.15289,106.967371 504.32889,108.143371 504.41289,109.655371 L503.46089,109.655371 C503.32089,108.689371 502.71889,107.807371 501.36089,107.807371 C499.89089,107.807371 499.20489,108.759371 499.20489,110.103371 L499.20489,111.335371 C499.20489,112.679371 499.89089,113.631371 501.36089,113.631371 C502.71889,113.631371 503.32089,112.749371 503.46089,111.783371 L504.41289,111.783371 C504.32889,113.295371 503.15289,114.471371 501.34689,114.471371 Z M509.21489,114.471371 C507.17089,114.471371 506.00889,113.071371 506.00889,111.307371 L506.00889,110.131371 C506.00889,108.367371 507.18489,106.967371 509.21489,106.967371 C511.24489,106.967371 512.40689,108.367371 512.40689,110.131371 L512.40689,111.307371 C512.40689,113.071371 511.24489,114.471371 509.21489,114.471371 Z M511.38489,110.145371 C511.38489,108.787371 510.62889,107.821371 509.21489,107.821371 C507.80089,107.821371 507.04489,108.787371 507.04489,110.145371 L507.04489,111.293371 C507.04489,112.651371 507.80089,113.617371 509.21489,113.617371 C510.62889,113.617371 511.38489,112.651371 511.38489,111.293371 L511.38489,110.145371 Z M519.93889,107.135371 L517.30689,114.303371 L516.18689,114.303371 L513.55489,107.135371 L514.60489,107.135371 L516.74689,113.239371 L518.88889,107.135371 L519.93889,107.135371 Z M524.25089,114.471371 C522.38889,114.471371 521.08689,113.281371 521.08689,111.349371 L521.08689,110.201371 C521.08689,108.255371 522.19289,106.967371 524.20889,106.967371 C526.25289,106.967371 527.24689,108.325371 527.24689,110.089371 L527.24689,111.153371 L522.10889,111.153371 L522.10889,111.405371 C522.10889,112.651371 522.75289,113.659371 524.25089,113.659371 C525.32889,113.659371 525.98689,113.085371 526.22489,112.273371 L527.17689,112.273371 C526.93889,113.561371 525.74889,114.471371 524.25089,114.471371 Z M522.10889,110.117371 L522.10889,110.341371 L526.25289,110.341371 L526.25289,110.005371 C526.25289,108.731371 525.60889,107.779371 524.20889,107.779371 C522.66889,107.779371 522.10889,108.801371 522.10889,110.117371 Z M529.19289,114.303371 L529.19289,107.135371 L530.18689,107.135371 L530.18689,108.787371 C530.45289,107.681371 531.22289,107.093371 532.52489,107.093371 L532.69289,107.093371 L532.69289,108.087371 L532.48289,108.087371 C531.12489,108.087371 530.25689,108.983371 530.25689,110.789371 L530.25689,114.303371 L529.19289,114.303371 Z" id="Discover" fill="#666666"></path>
                <path d="M262.831181,53.1849438 C260.901181,53.1849438 259.921181,51.8749438 259.921181,50.1349438 L259.921181,48.9549438 C259.921181,47.2149438 260.901181,45.9049438 262.831181,45.9049438 C264.451181,45.9049438 265.481181,47.0349438 265.591181,48.3549438 L264.841181,48.3549438 C264.721181,47.3949438 264.081181,46.5549438 262.821181,46.5549438 C261.391181,46.5549438 260.701181,47.5549438 260.701181,48.9249438 L260.701181,50.1649438 C260.701181,51.5349438 261.391181,52.5349438 262.821181,52.5349438 C264.081181,52.5349438 264.721181,51.6949438 264.841181,50.7349438 L265.591181,50.7349438 C265.481181,52.0549438 264.451181,53.1849438 262.831181,53.1849438 Z M269.081181,53.1649438 C267.621181,53.1649438 266.791181,52.1649438 266.791181,50.9049438 L266.791181,50.0649438 C266.791181,48.8049438 267.631181,47.8049438 269.081181,47.8049438 C270.531181,47.8049438 271.361181,48.8049438 271.361181,50.0649438 L271.361181,50.9049438 C271.361181,52.1649438 270.531181,53.1649438 269.081181,53.1649438 Z M270.631181,50.0749438 C270.631181,49.1049438 270.091181,48.4149438 269.081181,48.4149438 C268.071181,48.4149438 267.531181,49.1049438 267.531181,50.0749438 L267.531181,50.8949438 C267.531181,51.8649438 268.071181,52.5549438 269.081181,52.5549438 C270.091181,52.5549438 270.631181,51.8649438 270.631181,50.8949438 L270.631181,50.0749438 Z M272.731181,53.0449438 L272.731181,47.9249438 L273.451181,47.9249438 L273.451181,48.7949438 C273.691181,48.2149438 274.271181,47.8049438 275.161181,47.8049438 C276.311181,47.8049438 277.041181,48.5849438 277.041181,49.8149438 L277.041181,53.0449438 L276.281181,53.0449438 L276.281181,49.9249438 C276.281181,49.0549438 275.891181,48.4649438 274.971181,48.4649438 C274.131181,48.4649438 273.491181,48.9749438 273.491181,50.0349438 L273.491181,53.0449438 L272.731181,53.0449438 Z M281.061181,53.0449438 L280.421181,53.0449438 C279.441181,53.0449438 279.031181,52.5549438 279.031181,51.6849438 L279.031181,48.5449438 L278.161181,48.5449438 L278.161181,47.9249438 L279.031181,47.9249438 L279.031181,46.4549438 L279.791181,46.4549438 L279.791181,47.9249438 L281.101181,47.9249438 L281.101181,48.5449438 L279.791181,48.5449438 L279.791181,51.6849438 C279.791181,52.2049438 279.981181,52.4249438 280.551181,52.4249438 L281.061181,52.4249438 L281.061181,53.0449438 Z M286.541181,53.0449438 L285.811181,53.0449438 L285.811181,52.4049438 C285.591181,52.7649438 284.901181,53.1649438 284.051181,53.1649438 C282.841181,53.1649438 282.111181,52.4849438 282.111181,51.5549438 C282.111181,50.5649438 282.921181,49.9549438 284.141181,49.9549438 C284.951181,49.9549438 285.491181,50.2949438 285.781181,50.5949438 L285.781181,49.6449438 C285.781181,48.9449438 285.321181,48.4049438 284.501181,48.4049438 C283.851181,48.4049438 283.431181,48.7049438 283.221181,49.1749438 L282.521181,49.1749438 C282.781181,48.3249438 283.501181,47.8049438 284.511181,47.8049438 C285.781181,47.8049438 286.541181,48.6349438 286.541181,49.6449438 L286.541181,53.0449438 Z M284.211181,52.6749438 C285.011181,52.6749438 285.781181,52.2049438 285.781181,51.5449438 C285.781181,50.9049438 285.021181,50.4549438 284.251181,50.4549438 C283.401181,50.4549438 282.831181,50.8549438 282.831181,51.5649438 C282.831181,52.2749438 283.421181,52.6749438 284.211181,52.6749438 Z M290.121181,53.1649438 C288.701181,53.1649438 287.851181,52.2049438 287.851181,50.9149438 L287.851181,50.0549438 C287.851181,48.7649438 288.701181,47.8049438 290.121181,47.8049438 C291.411181,47.8049438 292.251181,48.6449438 292.311181,49.7249438 L291.631181,49.7249438 C291.531181,49.0349438 291.101181,48.4049438 290.131181,48.4049438 C289.081181,48.4049438 288.591181,49.0849438 288.591181,50.0449438 L288.591181,50.9249438 C288.591181,51.8849438 289.081181,52.5649438 290.131181,52.5649438 C291.101181,52.5649438 291.531181,51.9349438 291.631181,51.2449438 L292.311181,51.2449438 C292.251181,52.3249438 291.411181,53.1649438 290.121181,53.1649438 Z M296.151181,53.0449438 L295.511181,53.0449438 C294.531181,53.0449438 294.121181,52.5549438 294.121181,51.6849438 L294.121181,48.5449438 L293.251181,48.5449438 L293.251181,47.9249438 L294.121181,47.9249438 L294.121181,46.4549438 L294.881181,46.4549438 L294.881181,47.9249438 L296.191181,47.9249438 L296.191181,48.5449438 L294.881181,48.5449438 L294.881181,51.6849438 C294.881181,52.2049438 295.071181,52.4249438 295.641181,52.4249438 L296.151181,52.4249438 L296.151181,53.0449438 Z M299.311181,53.1649438 C298.071181,53.1649438 297.191181,52.5449438 297.191181,51.5549438 L297.191181,51.5049438 L297.881181,51.5049438 L297.881181,51.5349438 C297.881181,52.1749438 298.481181,52.5949438 299.321181,52.5949438 C300.111181,52.5949438 300.681181,52.2849438 300.681181,51.6249438 C300.681181,51.2649438 300.451181,51.0049438 300.041181,50.9149438 L298.521181,50.5649438 C297.761181,50.3949438 297.321181,49.9349438 297.321181,49.2649438 C297.321181,48.3049438 298.131181,47.8049438 299.261181,47.8049438 C300.331181,47.8049438 301.161181,48.4549438 301.161181,49.4049438 L301.161181,49.4549438 L300.471181,49.4549438 L300.471181,49.4249438 C300.471181,48.7949438 300.011181,48.3749438 299.251181,48.3749438 C298.541181,48.3749438 298.021181,48.6749438 298.021181,49.2449438 C298.021181,49.5949438 298.191181,49.8149438 298.561181,49.9049438 L300.131181,50.2749438 C300.921181,50.4649438 301.391181,50.8549438 301.391181,51.5949438 C301.391181,52.5049438 300.511181,53.1649438 299.311181,53.1649438 Z" id="Contacts" fill="#666666"></path>
                <ellipse id="Oval-1" fill="#2C97DE" cx="123.464567" cy="33.0337079" rx="6.61417323" ry="6.60674157"></ellipse>
                <ellipse id="Oval-1" fill="#9C56B8" cx="324.094488" cy="184.988764" rx="6.61417323" ry="6.60674157"></ellipse>
                <ellipse id="Oval-10" fill="#E6E6E6" opacity="0.5" cx="280" cy="178.382022" rx="13.2283465" ry="13.2134831"></ellipse>
                <ellipse id="Oval-30" fill="#999999" opacity="0.5" cx="280" cy="11.011236" rx="6.61417323" ry="6.60674157"></ellipse>
                <ellipse id="Oval-1" fill="#9C56B8" cx="436.535433" cy="11.011236" rx="6.61417323" ry="6.60674157"></ellipse>
                <ellipse id="Oval-5" fill="#EA408B" cx="235.905512" cy="184.988764" rx="6.61417323" ry="6.60674157"></ellipse>
                <g opacity="0.5" transform="translate(116.850394, 48.449438)" fill="#E6E6E6">
                    <ellipse id="Oval-2" cx="6.61417323" cy="6.60674157" rx="6.61417323" ry="6.60674157"></ellipse>
                    <ellipse id="Oval-3" cx="6.61417323" cy="28.6292135" rx="6.61417323" ry="6.60674157"></ellipse>
                    <ellipse id="Oval-4" cx="6.61417323" cy="50.6516854" rx="6.61417323" ry="6.60674157"></ellipse>
                    <ellipse id="Oval-6" cx="6.61417323" cy="72.6741573" rx="6.61417323" ry="6.60674157"></ellipse>
                    <ellipse id="Oval-7" cx="6.61417323" cy="94.6966292" rx="6.61417323" ry="6.60674157"></ellipse>
                    <ellipse id="Oval-8" cx="6.61417323" cy="116.719101" rx="6.61417323" ry="6.60674157"></ellipse>
                </g>
                <g opacity="0.5" transform="translate(341.732283, 26.426966)" fill="#E6E6E6">
                    <ellipse id="Oval-17" cx="6.61417323" cy="28.6292135" rx="6.61417323" ry="6.60674157"></ellipse>
                    <ellipse id="Oval-18" cx="6.61417323" cy="6.60674157" rx="6.61417323" ry="6.60674157"></ellipse>
                    <ellipse id="Oval-16" cx="6.61417323" cy="50.6516854" rx="6.61417323" ry="6.60674157"></ellipse>
                    <ellipse id="Oval-15" cx="6.61417323" cy="72.6741573" rx="6.61417323" ry="6.60674157"></ellipse>
                    <ellipse id="Oval-14" cx="6.61417323" cy="94.6966292" rx="6.61417323" ry="6.60674157"></ellipse>
                    <ellipse id="Oval-13" cx="6.61417323" cy="116.719101" rx="6.61417323" ry="6.60674157"></ellipse>
                    <ellipse id="Oval-12" cx="6.61417323" cy="138.741573" rx="6.61417323" ry="6.60674157"></ellipse>
                </g>
                <g id="Path-1-+-Path-2" transform="translate(99.212598, 28.629213)" stroke="#2C97DE" stroke-width="1.1023622">
                    <polyline id="Path-1" points="4.40944882 7.82395372e-15 0 4.40449438 4.40944882 8.80898876"></polyline>
                    <path d="M-1.56655091e-14,4.40449438 L24.2519685,4.40449438" id="Path-2"></path>
                </g>
                <g id="Path-1-+-Path-3" transform="translate(211.653543, 180.584270)" stroke="#EA408B" stroke-width="1.1023622">
                    <polyline id="Path-1" points="4.40944882 7.82395372e-15 0 4.40449438 4.40944882 8.80898876"></polyline>
                    <path d="M-1.56655091e-14,4.40449438 L24.2519685,4.40449438" id="Path-2"></path>
                </g>
                <g id="Path-1-+-Path-6" transform="translate(280.095506, 23.249580) rotate(-90.000000) translate(-280.095506, -23.249580) translate(267.095506, 18.749580)" stroke="#CCCCCC" stroke-width="1.1023622">
                    <polyline id="Path-1" points="5.40944882 7.82395372e-15 1 4.40449438 5.40944882 8.80898876"></polyline>
                    <path d="M1,4.40449438 L25.2519685,4.40449438" id="Path-2"></path>
                </g>
                <g id="Path-1-+-Path-4" transform="translate(336.220472, 184.988764) scale(-1, 1) translate(-336.220472, -184.988764) translate(324.094488, 180.584270)" stroke="#9C56B8" stroke-width="1.1023622">
                    <polyline id="Path-1" points="4.40944882 7.82395372e-15 0 4.40449438 4.40944882 8.80898876"></polyline>
                    <path d="M-1.56655091e-14,4.40449438 L24.2519685,4.40449438" id="Path-2"></path>
                </g>
                <g id="Path-1-+-Path-5" transform="translate(448.661417, 11.011236) scale(-1, 1) translate(-448.661417, -11.011236) translate(436.535433, 6.606742)" stroke="#9C56B8" stroke-width="1.1023622">
                    <polyline id="Path-1" points="4.40944882 7.82395372e-15 0 4.40449438 4.40944882 8.80898876"></polyline>
                    <path d="M-1.56655091e-14,4.40449438 L24.2519685,4.40449438" id="Path-2"></path>
                </g>
            </g>
        </g>
    </g>
</svg>