<svg width="32" height="32" viewBox="0 0 32 32" fill="none" xmlns="http://www.w3.org/2000/svg">
<path d="M18.4601 18.55C18.1288 18.247 17.741 18.0124 17.3188 17.8597C16.8967 17.707 16.4485 17.6391 16.0001 17.66C15.5523 17.6372 15.1044 17.7032 14.6822 17.8542C14.26 18.0053 13.8718 18.2383 13.5401 18.54C13.274 18.8079 13.1141 19.1632 13.0901 19.54C13.0198 20.3961 13.0365 21.2572 13.1401 22.11C13.2301 23.11 13.4001 24.54 13.6201 25.96C13.7097 26.6149 13.8434 27.263 14.0201 27.9C14.1789 28.2881 14.4603 28.6135 14.8215 28.8266C15.1826 29.0397 15.6036 29.1287 16.0201 29.08C16.4366 29.1287 16.8576 29.0397 17.2187 28.8266C17.5798 28.6135 17.8613 28.2881 18.0201 27.9C18.1971 27.2631 18.3308 26.6149 18.4201 25.96C18.6401 24.55 18.8101 23.16 18.9001 22.11C19.0061 21.2575 19.0262 20.3965 18.9601 19.54C18.9203 19.1599 18.7424 18.8076 18.4601 18.55ZM13.2201 13.76C13.2161 14.3106 13.3758 14.8501 13.6788 15.3099C13.9819 15.7697 14.4147 16.1291 14.9223 16.3426C15.4299 16.5561 15.9895 16.614 16.5301 16.509C17.0707 16.404 17.5679 16.1408 17.9587 15.7528C18.3495 15.3648 18.6162 14.8695 18.7251 14.3297C18.834 13.7899 18.7801 13.2299 18.5703 12.7208C18.3605 12.2116 18.0042 11.7763 17.5466 11.4699C17.089 11.1635 16.5508 11 16.0001 11C15.2662 10.9999 14.5621 11.2901 14.0414 11.8071C13.5206 12.3242 13.2254 13.0261 13.2201 13.76ZM16.0001 2.77997C13.2141 2.83778 10.5351 3.86337 8.4227 5.68077C6.31033 7.49817 4.89629 9.99407 4.42323 12.7402C3.95017 15.4863 4.44756 18.3115 5.83008 20.731C7.21259 23.1504 9.39403 25.0133 12.0001 26C12.0256 26.0086 12.0529 26.0106 12.0795 26.0058C12.106 26.001 12.1309 25.9896 12.1518 25.9727C12.1728 25.9557 12.1891 25.9338 12.1993 25.9088C12.2095 25.8839 12.2132 25.8567 12.2101 25.83C12.1501 25.42 12.0901 25.01 12.0401 24.61C12.0307 24.5406 12.0038 24.4747 11.9618 24.4187C11.9197 24.3627 11.8641 24.3184 11.8001 24.29C9.60456 23.334 7.80531 21.6509 6.70507 19.524C5.60482 17.3971 5.27073 14.9561 5.75899 12.6118C6.24726 10.2674 7.52809 8.1628 9.38598 6.65199C11.2439 5.14118 13.5654 4.31639 15.9601 4.31639C18.3547 4.31639 20.6763 5.14118 22.5342 6.65199C24.3921 8.1628 25.6729 10.2674 26.1612 12.6118C26.6494 14.9561 26.3154 17.3971 25.2151 19.524C24.1149 21.6509 22.3156 23.334 20.1201 24.29C20.0561 24.3184 20.0004 24.3627 19.9584 24.4187C19.9164 24.4747 19.8894 24.5406 19.8801 24.61C19.8301 25.01 19.7701 25.43 19.7101 25.83C19.6875 25.8684 19.6812 25.9143 19.6925 25.9574C19.7037 26.0005 19.7316 26.0374 19.7701 26.06C19.8085 26.0825 19.8544 26.0889 19.8975 26.0776C19.9406 26.0664 19.9775 26.0384 20.0001 26C22.6061 25.0133 24.7876 23.1504 26.1701 20.731C27.5526 18.3115 28.05 15.4863 27.5769 12.7402C27.1039 9.99407 25.6898 7.49817 23.5775 5.68077C21.4651 3.86337 18.7861 2.83778 16.0001 2.77997ZM15.7801 8.25997C17.1001 8.20466 18.4055 8.55481 19.5206 9.26334C20.6358 9.97188 21.5073 11.0048 22.018 12.2233C22.5287 13.4419 22.6542 14.7875 22.3774 16.0794C22.1007 17.3713 21.4351 18.5476 20.4701 19.45C20.4166 19.4994 20.3746 19.5599 20.347 19.6273C20.3193 19.6946 20.3068 19.7672 20.3101 19.84C20.3363 20.2929 20.3363 20.747 20.3101 21.2C20.3086 21.2297 20.3155 21.2593 20.3299 21.2853C20.3443 21.3114 20.3657 21.3329 20.3917 21.3474C20.4177 21.362 20.4472 21.369 20.477 21.3677C20.5067 21.3663 20.5355 21.3568 20.5601 21.34C21.9744 20.3778 23.043 18.9876 23.6092 17.3734C24.1754 15.7593 24.2092 14.0062 23.7058 12.3713C23.2025 10.7365 22.1883 9.3061 20.8122 8.28999C19.4362 7.27388 17.7707 6.72559 16.0601 6.72559C14.3495 6.72559 12.684 7.27388 11.3079 8.28999C9.93187 9.3061 8.91772 10.7365 8.41434 12.3713C7.91095 14.0062 7.94482 15.7593 8.51099 17.3734C9.07716 18.9876 10.1458 20.3778 11.5601 21.34C11.5845 21.3541 11.6122 21.3615 11.6404 21.3614C11.6687 21.3613 11.6963 21.3538 11.7207 21.3396C11.7451 21.3254 11.7653 21.305 11.7792 21.2805C11.7931 21.2559 11.8003 21.2282 11.8001 21.2C11.7721 20.7437 11.7721 20.2862 11.8001 19.83C11.8041 19.7572 11.7919 19.6844 11.7642 19.6169C11.7365 19.5494 11.6941 19.489 11.6401 19.44C10.714 18.5708 10.0642 17.4483 9.77161 16.2124C9.47907 14.9765 9.55676 13.6818 9.99499 12.4897C10.4332 11.2977 11.2126 10.2609 12.236 9.50878C13.2594 8.75662 14.4815 8.32231 15.7501 8.25997H15.7801Z" fill="currentColor"/>
</svg>
