<svg width="32" height="32" viewBox="0 0 32 32" fill="none" xmlns="http://www.w3.org/2000/svg">
<path d="M16 8.63641C15.1716 8.63641 14.5 7.96478 14.5 7.13641V5.5C14.5 4.67158 15.1716 4 16 4C16.8284 4 17.5 4.67158 17.5 5.5V7.13641C17.5 7.96478 16.8284 8.63641 16 8.63641Z" fill="currentColor"/>
<path d="M16 23.3636C15.1716 23.3636 14.5 24.0352 14.5 24.8636V26.5C14.5 27.3284 15.1716 28 16 28C16.8284 28 17.5 27.3284 17.5 26.5V24.8636C17.5 24.0352 16.8284 23.3636 16 23.3636Z" fill="currentColor"/>
<path d="M12.1816 21.7273V20.091C12.1816 19.2626 11.5101 18.5909 10.6816 18.5909C9.85322 18.5909 9.18164 19.2625 9.18164 20.0909V21.7273C9.18164 22.5558 9.85317 23.2273 10.6816 23.2273C11.5101 23.2273 12.1816 22.5558 12.1816 21.7273Z" fill="currentColor"/>
<path d="M12.1816 15.625V10.2728C12.1816 9.44434 11.5101 8.77277 10.6816 8.77277C9.85322 8.77277 9.18164 9.44434 9.18164 10.2728V15.625C9.19974 16.4377 9.86461 17.091 10.6816 17.091C11.4987 17.091 12.1635 16.4377 12.1816 15.625Z" fill="currentColor"/>
<path d="M7 15.1818V16.8182C7 17.6467 6.32842 18.3182 5.5 18.3182C4.67158 18.3182 4 17.6467 4 16.8182V15.1818C4 14.3534 4.67158 13.6818 5.5 13.6818C6.32842 13.6818 7 14.3534 7 15.1818Z" fill="currentColor"/>
<path d="M25.0006 15.2244C25.0002 15.2102 25 15.196 25 15.1818C25 14.3534 25.6716 13.6818 26.5 13.6818C27.3284 13.6818 28 14.3534 28 15.1818C28 15.1961 27.9998 15.2103 27.9994 15.2245L28 16.8608C27.9775 17.6695 27.3142 18.3182 26.5 18.3182C25.6858 18.3182 25.0232 17.6695 25.0006 16.8608V15.2244Z" fill="currentColor"/>
<path d="M19.8184 11.9091C19.8184 12.7375 20.4899 13.4091 21.3184 13.4091C22.1468 13.4091 22.8184 12.7375 22.8184 11.9091V10.2728C22.8184 9.44434 22.1468 8.77277 21.3184 8.77277C20.4899 8.77277 19.8184 9.44434 19.8184 10.2728V11.9091Z" fill="currentColor"/>
<path d="M19.8184 16.4091C19.8184 15.5806 20.4899 14.9091 21.3184 14.9091C22.1468 14.9091 22.8184 15.5806 22.8184 16.4091V21.7273C22.8184 22.5557 22.1468 23.2273 21.3184 23.2273C20.4899 23.2273 19.8184 22.5557 19.8184 21.7273V16.4091Z" fill="currentColor"/>
<path d="M17.5 20.3635V11.6364C17.5 10.8079 16.8284 10.1364 16 10.1364C15.1716 10.1364 14.5 10.8079 14.5 11.6364V20.3635C14.5 21.192 15.1716 21.8635 16 21.8635C16.8284 21.8635 17.5 21.192 17.5 20.3635Z" fill="currentColor"/>
</svg>
