<svg width="720" height="240" viewBox="0 0 720 240" fill="none" xmlns="http://www.w3.org/2000/svg">
<g clip-path="url(#clip0_1264_1956)">
<rect width="720" height="240" fill="#7EE2F8"/>
<rect x="492" y="180" width="48" height="36" fill="white" fill-opacity="0.6"/>
<rect x="492" y="156" width="12" height="12" fill="white" fill-opacity="0.6"/>
<rect x="504" y="168" width="36" height="12" fill="white" fill-opacity="0.6"/>
<rect x="516" y="156" width="12" height="12" fill="white" fill-opacity="0.6"/>
<rect x="504" y="144" width="12" height="12" fill="white" fill-opacity="0.6"/>
<rect x="492" y="168" width="12" height="12" fill="white" fill-opacity="0.3"/>
<rect x="504" y="156" width="12" height="12" fill="white" fill-opacity="0.3"/>
<rect x="528" y="156" width="12" height="12" fill="white" fill-opacity="0.3"/>
<rect x="516" y="144" width="24" height="12" fill="white" fill-opacity="0.3"/>
<rect x="492" y="144" width="12" height="12" fill="white" fill-opacity="0.3"/>
<rect x="444" y="180" width="48" height="36" fill="white" fill-opacity="0.6"/>
<rect x="444" y="156" width="12" height="12" fill="white" fill-opacity="0.6"/>
<rect x="456" y="168" width="36" height="12" fill="white" fill-opacity="0.6"/>
<rect x="468" y="156" width="12" height="12" fill="white" fill-opacity="0.6"/>
<rect x="456" y="144" width="12" height="12" fill="white" fill-opacity="0.6"/>
<rect x="444" y="168" width="12" height="12" fill="white" fill-opacity="0.3"/>
<rect x="456" y="156" width="12" height="12" fill="white" fill-opacity="0.3"/>
<rect x="480" y="156" width="12" height="12" fill="white" fill-opacity="0.3"/>
<rect x="468" y="144" width="24" height="12" fill="white" fill-opacity="0.3"/>
<rect x="444" y="144" width="12" height="12" fill="white" fill-opacity="0.3"/>
<rect x="396" y="180" width="48" height="36" fill="white" fill-opacity="0.6"/>
<rect x="396" y="156" width="12" height="12" fill="white" fill-opacity="0.6"/>
<rect x="408" y="168" width="36" height="12" fill="white" fill-opacity="0.6"/>
<rect x="420" y="156" width="12" height="12" fill="white" fill-opacity="0.6"/>
<rect x="408" y="144" width="12" height="12" fill="white" fill-opacity="0.6"/>
<rect x="396" y="168" width="12" height="12" fill="white" fill-opacity="0.3"/>
<rect x="408" y="156" width="12" height="12" fill="white" fill-opacity="0.3"/>
<rect x="432" y="156" width="12" height="12" fill="white" fill-opacity="0.3"/>
<rect x="420" y="144" width="24" height="12" fill="white" fill-opacity="0.3"/>
<rect x="396" y="144" width="12" height="12" fill="white" fill-opacity="0.3"/>
<rect x="348" y="180" width="48" height="36" fill="white" fill-opacity="0.6"/>
<rect x="348" y="156" width="12" height="12" fill="white" fill-opacity="0.6"/>
<rect x="360" y="168" width="36" height="12" fill="white" fill-opacity="0.6"/>
<rect x="372" y="156" width="12" height="12" fill="white" fill-opacity="0.6"/>
<rect x="360" y="144" width="12" height="12" fill="white" fill-opacity="0.6"/>
<rect x="348" y="168" width="12" height="12" fill="white" fill-opacity="0.3"/>
<rect x="360" y="156" width="12" height="12" fill="white" fill-opacity="0.3"/>
<rect x="384" y="156" width="12" height="12" fill="white" fill-opacity="0.3"/>
<rect x="372" y="144" width="24" height="12" fill="white" fill-opacity="0.3"/>
<rect x="348" y="144" width="12" height="12" fill="white" fill-opacity="0.3"/>
<rect x="300" y="180" width="48" height="36" fill="white" fill-opacity="0.6"/>
<rect x="300" y="156" width="12" height="12" fill="white" fill-opacity="0.6"/>
<rect x="312" y="168" width="36" height="12" fill="white" fill-opacity="0.6"/>
<rect x="324" y="156" width="12" height="12" fill="white" fill-opacity="0.6"/>
<rect x="312" y="144" width="12" height="12" fill="white" fill-opacity="0.6"/>
<rect x="300" y="168" width="12" height="12" fill="white" fill-opacity="0.3"/>
<rect x="312" y="156" width="12" height="12" fill="white" fill-opacity="0.3"/>
<rect x="336" y="156" width="12" height="12" fill="white" fill-opacity="0.3"/>
<rect x="324" y="144" width="24" height="12" fill="white" fill-opacity="0.3"/>
<rect x="300" y="144" width="12" height="12" fill="white" fill-opacity="0.3"/>
<rect x="252" y="180" width="48" height="36" fill="white" fill-opacity="0.6"/>
<rect x="252" y="156" width="12" height="12" fill="white" fill-opacity="0.6"/>
<rect x="264" y="168" width="36" height="12" fill="white" fill-opacity="0.6"/>
<rect x="276" y="156" width="12" height="12" fill="white" fill-opacity="0.6"/>
<rect x="264" y="144" width="12" height="12" fill="white" fill-opacity="0.6"/>
<rect x="252" y="168" width="12" height="12" fill="white" fill-opacity="0.3"/>
<rect x="264" y="156" width="12" height="12" fill="white" fill-opacity="0.3"/>
<rect x="288" y="156" width="12" height="12" fill="white" fill-opacity="0.3"/>
<rect x="276" y="144" width="24" height="12" fill="white" fill-opacity="0.3"/>
<rect x="252" y="144" width="12" height="12" fill="white" fill-opacity="0.3"/>
<rect x="204" y="180" width="48" height="36" fill="white" fill-opacity="0.6"/>
<rect x="204" y="156" width="12" height="12" fill="white" fill-opacity="0.6"/>
<rect x="216" y="168" width="36" height="12" fill="white" fill-opacity="0.6"/>
<rect x="228" y="156" width="12" height="12" fill="white" fill-opacity="0.6"/>
<rect x="216" y="144" width="12" height="12" fill="white" fill-opacity="0.6"/>
<rect x="204" y="168" width="12" height="12" fill="white" fill-opacity="0.3"/>
<rect x="216" y="156" width="12" height="12" fill="white" fill-opacity="0.3"/>
<rect x="240" y="156" width="12" height="12" fill="white" fill-opacity="0.3"/>
<rect x="228" y="144" width="24" height="12" fill="white" fill-opacity="0.3"/>
<rect x="204" y="144" width="12" height="12" fill="white" fill-opacity="0.3"/>
<rect x="156" y="180" width="48" height="36" fill="white" fill-opacity="0.6"/>
<rect x="156" y="156" width="12" height="12" fill="white" fill-opacity="0.6"/>
<rect x="168" y="168" width="36" height="12" fill="white" fill-opacity="0.6"/>
<rect x="180" y="156" width="12" height="12" fill="white" fill-opacity="0.6"/>
<rect x="168" y="144" width="12" height="12" fill="white" fill-opacity="0.6"/>
<rect x="156" y="168" width="12" height="12" fill="white" fill-opacity="0.3"/>
<rect x="168" y="156" width="12" height="12" fill="white" fill-opacity="0.3"/>
<rect x="192" y="156" width="12" height="12" fill="white" fill-opacity="0.3"/>
<rect x="180" y="144" width="24" height="12" fill="white" fill-opacity="0.3"/>
<rect x="156" y="144" width="12" height="12" fill="white" fill-opacity="0.3"/>
<rect x="108" y="180" width="48" height="36" fill="white" fill-opacity="0.6"/>
<rect x="108" y="156" width="12" height="12" fill="white" fill-opacity="0.6"/>
<rect x="120" y="168" width="36" height="12" fill="white" fill-opacity="0.6"/>
<rect x="132" y="156" width="12" height="12" fill="white" fill-opacity="0.6"/>
<rect x="120" y="144" width="12" height="12" fill="white" fill-opacity="0.6"/>
<rect x="108" y="168" width="12" height="12" fill="white" fill-opacity="0.3"/>
<rect x="120" y="156" width="12" height="12" fill="white" fill-opacity="0.3"/>
<rect x="144" y="156" width="12" height="12" fill="white" fill-opacity="0.3"/>
<rect x="132" y="144" width="24" height="12" fill="white" fill-opacity="0.3"/>
<rect x="108" y="144" width="12" height="12" fill="white" fill-opacity="0.3"/>
<rect x="60" y="180" width="48" height="36" fill="white" fill-opacity="0.6"/>
<rect x="60" y="156" width="12" height="12" fill="white" fill-opacity="0.6"/>
<rect x="72" y="168" width="36" height="12" fill="white" fill-opacity="0.6"/>
<rect x="84" y="156" width="12" height="12" fill="white" fill-opacity="0.6"/>
<rect x="72" y="144" width="12" height="12" fill="white" fill-opacity="0.6"/>
<rect x="60" y="168" width="12" height="12" fill="white" fill-opacity="0.3"/>
<rect x="72" y="156" width="12" height="12" fill="white" fill-opacity="0.3"/>
<rect x="96" y="156" width="12" height="12" fill="white" fill-opacity="0.3"/>
<rect x="84" y="144" width="24" height="12" fill="white" fill-opacity="0.3"/>
<rect x="60" y="144" width="12" height="12" fill="white" fill-opacity="0.3"/>
<rect x="12" y="180" width="48" height="36" fill="white" fill-opacity="0.6"/>
<rect x="12" y="156" width="12" height="12" fill="white" fill-opacity="0.6"/>
<rect x="24" y="168" width="36" height="12" fill="white" fill-opacity="0.6"/>
<rect x="36" y="156" width="12" height="12" fill="white" fill-opacity="0.6"/>
<rect x="24" y="144" width="12" height="12" fill="white" fill-opacity="0.6"/>
<rect x="12" y="168" width="12" height="12" fill="white" fill-opacity="0.3"/>
<rect x="24" y="156" width="12" height="12" fill="white" fill-opacity="0.3"/>
<rect x="48" y="156" width="12" height="12" fill="white" fill-opacity="0.3"/>
<rect x="36" y="144" width="24" height="12" fill="white" fill-opacity="0.3"/>
<rect x="12" y="144" width="12" height="12" fill="white" fill-opacity="0.3"/>
<rect x="-36" y="180" width="48" height="36" fill="white" fill-opacity="0.6"/>
<rect x="-24" y="168" width="36" height="12" fill="white" fill-opacity="0.6"/>
<rect y="156" width="12" height="12" fill="white" fill-opacity="0.3"/>
<rect x="-12" y="144" width="24" height="12" fill="white" fill-opacity="0.3"/>
<rect x="684" y="180" width="48" height="36" fill="white" fill-opacity="0.6"/>
<rect x="684" y="156" width="12" height="12" fill="white" fill-opacity="0.6"/>
<rect x="696" y="168" width="36" height="12" fill="white" fill-opacity="0.6"/>
<rect x="708" y="156" width="12" height="12" fill="white" fill-opacity="0.6"/>
<rect x="696" y="144" width="12" height="12" fill="white" fill-opacity="0.6"/>
<rect x="684" y="168" width="12" height="12" fill="white" fill-opacity="0.3"/>
<rect x="696" y="156" width="12" height="12" fill="white" fill-opacity="0.3"/>
<rect x="708" y="144" width="24" height="12" fill="white" fill-opacity="0.3"/>
<rect x="684" y="144" width="12" height="12" fill="white" fill-opacity="0.3"/>
<rect x="636" y="180" width="48" height="36" fill="white" fill-opacity="0.6"/>
<rect x="636" y="156" width="12" height="12" fill="white" fill-opacity="0.6"/>
<rect x="648" y="168" width="36" height="12" fill="white" fill-opacity="0.6"/>
<rect x="660" y="156" width="12" height="12" fill="white" fill-opacity="0.6"/>
<rect x="648" y="144" width="12" height="12" fill="white" fill-opacity="0.6"/>
<rect x="636" y="168" width="12" height="12" fill="white" fill-opacity="0.3"/>
<rect x="648" y="156" width="12" height="12" fill="white" fill-opacity="0.3"/>
<rect x="672" y="156" width="12" height="12" fill="white" fill-opacity="0.3"/>
<rect x="660" y="144" width="24" height="12" fill="white" fill-opacity="0.3"/>
<rect x="636" y="144" width="12" height="12" fill="white" fill-opacity="0.3"/>
<rect x="588" y="180" width="48" height="36" fill="white" fill-opacity="0.6"/>
<rect x="588" y="156" width="12" height="12" fill="white" fill-opacity="0.6"/>
<rect x="600" y="168" width="36" height="12" fill="white" fill-opacity="0.6"/>
<rect x="612" y="156" width="12" height="12" fill="white" fill-opacity="0.6"/>
<rect x="600" y="144" width="12" height="12" fill="white" fill-opacity="0.6"/>
<rect x="588" y="168" width="12" height="12" fill="white" fill-opacity="0.3"/>
<rect x="600" y="156" width="12" height="12" fill="white" fill-opacity="0.3"/>
<rect x="624" y="156" width="12" height="12" fill="white" fill-opacity="0.3"/>
<rect x="612" y="144" width="24" height="12" fill="white" fill-opacity="0.3"/>
<rect x="588" y="144" width="12" height="12" fill="white" fill-opacity="0.3"/>
<rect x="540" y="180" width="48" height="36" fill="white" fill-opacity="0.6"/>
<rect x="540" y="156" width="12" height="12" fill="white" fill-opacity="0.6"/>
<rect x="552" y="168" width="36" height="12" fill="white" fill-opacity="0.6"/>
<rect x="564" y="156" width="12" height="12" fill="white" fill-opacity="0.6"/>
<rect x="552" y="144" width="12" height="12" fill="white" fill-opacity="0.6"/>
<rect x="540" y="168" width="12" height="12" fill="white" fill-opacity="0.3"/>
<rect x="552" y="156" width="12" height="12" fill="white" fill-opacity="0.3"/>
<rect x="576" y="156" width="12" height="12" fill="white" fill-opacity="0.3"/>
<rect x="564" y="144" width="24" height="12" fill="white" fill-opacity="0.3"/>
<rect x="540" y="144" width="12" height="12" fill="white" fill-opacity="0.3"/>
<rect width="48" height="36" transform="matrix(-1 0 0 1 204 108)" fill="white" fill-opacity="0.3"/>
<rect width="12" height="12" transform="matrix(-1 0 0 1 204 84)" fill="white" fill-opacity="0.3"/>
<rect width="36" height="12" transform="matrix(-1 0 0 1 192 96)" fill="white" fill-opacity="0.3"/>
<rect width="12" height="12" transform="matrix(-1 0 0 1 180 84)" fill="white" fill-opacity="0.3"/>
<rect width="12" height="12" transform="matrix(-1 0 0 1 192 72)" fill="white" fill-opacity="0.3"/>
<rect width="48" height="36" transform="matrix(-1 0 0 1 252 108)" fill="white" fill-opacity="0.3"/>
<rect width="12" height="12" transform="matrix(-1 0 0 1 252 84)" fill="white" fill-opacity="0.3"/>
<rect width="36" height="12" transform="matrix(-1 0 0 1 240 96)" fill="white" fill-opacity="0.3"/>
<rect width="12" height="12" transform="matrix(-1 0 0 1 228 84)" fill="white" fill-opacity="0.3"/>
<rect width="12" height="12" transform="matrix(-1 0 0 1 240 72)" fill="white" fill-opacity="0.3"/>
<rect width="48" height="36" transform="matrix(-1 0 0 1 300 108)" fill="white" fill-opacity="0.3"/>
<rect width="12" height="12" transform="matrix(-1 0 0 1 300 84)" fill="white" fill-opacity="0.3"/>
<rect width="36" height="12" transform="matrix(-1 0 0 1 288 96)" fill="white" fill-opacity="0.3"/>
<rect width="12" height="12" transform="matrix(-1 0 0 1 276 84)" fill="white" fill-opacity="0.3"/>
<rect width="12" height="12" transform="matrix(-1 0 0 1 288 72)" fill="white" fill-opacity="0.3"/>
<rect width="48" height="36" transform="matrix(-1 0 0 1 348 108)" fill="white" fill-opacity="0.3"/>
<rect width="12" height="12" transform="matrix(-1 0 0 1 348 84)" fill="white" fill-opacity="0.3"/>
<rect width="36" height="12" transform="matrix(-1 0 0 1 336 96)" fill="white" fill-opacity="0.3"/>
<rect width="12" height="12" transform="matrix(-1 0 0 1 324 84)" fill="white" fill-opacity="0.3"/>
<rect width="12" height="12" transform="matrix(-1 0 0 1 336 72)" fill="white" fill-opacity="0.3"/>
<rect width="48" height="36" transform="matrix(-1 0 0 1 396 108)" fill="white" fill-opacity="0.3"/>
<rect width="12" height="12" transform="matrix(-1 0 0 1 396 84)" fill="white" fill-opacity="0.3"/>
<rect width="36" height="12" transform="matrix(-1 0 0 1 384 96)" fill="white" fill-opacity="0.3"/>
<rect width="12" height="12" transform="matrix(-1 0 0 1 372 84)" fill="white" fill-opacity="0.3"/>
<rect width="12" height="12" transform="matrix(-1 0 0 1 384 72)" fill="white" fill-opacity="0.3"/>
<rect width="48" height="36" transform="matrix(-1 0 0 1 444 108)" fill="white" fill-opacity="0.3"/>
<rect width="12" height="12" transform="matrix(-1 0 0 1 444 84)" fill="white" fill-opacity="0.3"/>
<rect width="36" height="12" transform="matrix(-1 0 0 1 432 96)" fill="white" fill-opacity="0.3"/>
<rect width="12" height="12" transform="matrix(-1 0 0 1 420 84)" fill="white" fill-opacity="0.3"/>
<rect width="12" height="12" transform="matrix(-1 0 0 1 432 72)" fill="white" fill-opacity="0.3"/>
<rect width="48" height="36" transform="matrix(-1 0 0 1 492 108)" fill="white" fill-opacity="0.3"/>
<rect width="12" height="12" transform="matrix(-1 0 0 1 492 84)" fill="white" fill-opacity="0.3"/>
<rect width="36" height="12" transform="matrix(-1 0 0 1 480 96)" fill="white" fill-opacity="0.3"/>
<rect width="12" height="12" transform="matrix(-1 0 0 1 468 84)" fill="white" fill-opacity="0.3"/>
<rect width="12" height="12" transform="matrix(-1 0 0 1 480 72)" fill="white" fill-opacity="0.3"/>
<rect width="48" height="36" transform="matrix(-1 0 0 1 540 108)" fill="white" fill-opacity="0.3"/>
<rect width="12" height="12" transform="matrix(-1 0 0 1 540 84)" fill="white" fill-opacity="0.3"/>
<rect width="36" height="12" transform="matrix(-1 0 0 1 528 96)" fill="white" fill-opacity="0.3"/>
<rect width="12" height="12" transform="matrix(-1 0 0 1 516 84)" fill="white" fill-opacity="0.3"/>
<rect width="12" height="12" transform="matrix(-1 0 0 1 528 72)" fill="white" fill-opacity="0.3"/>
<rect width="48" height="36" transform="matrix(-1 0 0 1 12 108)" fill="white" fill-opacity="0.3"/>
<rect width="12" height="12" transform="matrix(-1 0 0 1 12 84)" fill="white" fill-opacity="0.3"/>
<rect width="48" height="36" transform="matrix(-1 0 0 1 60 108)" fill="white" fill-opacity="0.3"/>
<rect width="12" height="12" transform="matrix(-1 0 0 1 60 84)" fill="white" fill-opacity="0.3"/>
<rect width="36" height="12" transform="matrix(-1 0 0 1 48 96)" fill="white" fill-opacity="0.3"/>
<rect width="12" height="12" transform="matrix(-1 0 0 1 36 84)" fill="white" fill-opacity="0.3"/>
<rect width="12" height="12" transform="matrix(-1 0 0 1 48 72)" fill="white" fill-opacity="0.3"/>
<rect width="48" height="36" transform="matrix(-1 0 0 1 108 108)" fill="white" fill-opacity="0.3"/>
<rect width="12" height="12" transform="matrix(-1 0 0 1 108 84)" fill="white" fill-opacity="0.3"/>
<rect width="36" height="12" transform="matrix(-1 0 0 1 96 96)" fill="white" fill-opacity="0.3"/>
<rect width="12" height="12" transform="matrix(-1 0 0 1 84 84)" fill="white" fill-opacity="0.3"/>
<rect width="12" height="12" transform="matrix(-1 0 0 1 96 72)" fill="white" fill-opacity="0.3"/>
<rect width="48" height="36" transform="matrix(-1 0 0 1 156 108)" fill="white" fill-opacity="0.3"/>
<rect width="12" height="12" transform="matrix(-1 0 0 1 156 84)" fill="white" fill-opacity="0.3"/>
<rect width="36" height="12" transform="matrix(-1 0 0 1 144 96)" fill="white" fill-opacity="0.3"/>
<rect width="12" height="12" transform="matrix(-1 0 0 1 132 84)" fill="white" fill-opacity="0.3"/>
<rect width="12" height="12" transform="matrix(-1 0 0 1 144 72)" fill="white" fill-opacity="0.3"/>
<rect width="48" height="36" transform="matrix(-1 0 0 1 588 108)" fill="white" fill-opacity="0.3"/>
<rect width="12" height="12" transform="matrix(-1 0 0 1 588 84)" fill="white" fill-opacity="0.3"/>
<rect width="36" height="12" transform="matrix(-1 0 0 1 576 96)" fill="white" fill-opacity="0.3"/>
<rect width="12" height="12" transform="matrix(-1 0 0 1 564 84)" fill="white" fill-opacity="0.3"/>
<rect width="12" height="12" transform="matrix(-1 0 0 1 576 72)" fill="white" fill-opacity="0.3"/>
<rect width="48" height="36" transform="matrix(-1 0 0 1 636 108)" fill="white" fill-opacity="0.3"/>
<rect width="12" height="12" transform="matrix(-1 0 0 1 636 84)" fill="white" fill-opacity="0.3"/>
<rect width="36" height="12" transform="matrix(-1 0 0 1 624 96)" fill="white" fill-opacity="0.3"/>
<rect width="12" height="12" transform="matrix(-1 0 0 1 612 84)" fill="white" fill-opacity="0.3"/>
<rect width="12" height="12" transform="matrix(-1 0 0 1 624 72)" fill="white" fill-opacity="0.3"/>
<rect width="48" height="36" transform="matrix(-1 0 0 1 684 108)" fill="white" fill-opacity="0.3"/>
<rect width="12" height="12" transform="matrix(-1 0 0 1 684 84)" fill="white" fill-opacity="0.3"/>
<rect width="36" height="12" transform="matrix(-1 0 0 1 672 96)" fill="white" fill-opacity="0.3"/>
<rect width="12" height="12" transform="matrix(-1 0 0 1 660 84)" fill="white" fill-opacity="0.3"/>
<rect width="12" height="12" transform="matrix(-1 0 0 1 672 72)" fill="white" fill-opacity="0.3"/>
<rect width="48" height="36" transform="matrix(-1 0 0 1 732 108)" fill="white" fill-opacity="0.3"/>
<rect width="36" height="12" transform="matrix(-1 0 0 1 720 96)" fill="white" fill-opacity="0.3"/>
<rect width="12" height="12" transform="matrix(-1 0 0 1 708 84)" fill="white" fill-opacity="0.3"/>
<rect width="12" height="12" transform="matrix(-1 0 0 1 720 72)" fill="white" fill-opacity="0.3"/>
<rect y="216" width="720" height="24" fill="white" fill-opacity="0.6"/>
<rect width="60" height="84" transform="matrix(-1 0 0 1 324 72)" fill="#F3C3AF"/>
<rect width="12" height="24" transform="matrix(-1 0 0 1 288 96)" fill="#DA968B"/>
<rect width="36" height="60" transform="matrix(-1 0 0 1 312 144)" fill="#F3C3AF"/>
<rect width="12" height="12" transform="matrix(-1 0 0 1 312 96)" fill="white"/>
<rect width="12" height="12" transform="matrix(-1 0 0 1 276 96)" fill="white"/>
<rect width="12" height="12" transform="matrix(-1 0 0 1 336 108)" fill="#DC958B"/>
<rect width="60" height="36" transform="matrix(-1 0 0 1 324 168)" fill="#2B2F3B"/>
<rect width="84" height="36" transform="matrix(-1 0 0 1 336 180)" fill="#2B2F3B"/>
<rect width="108" height="36" transform="matrix(-1 0 0 1 348 192)" fill="#2B2F3B"/>
<rect width="120" height="36" transform="matrix(-1 0 0 1 360 204)" fill="#2B2F3B"/>
<rect width="60" height="24" transform="matrix(-1 0 0 1 324 48)" fill="#826A5E"/>
<rect width="12" height="48" transform="matrix(-1 0 0 1 264 60)" fill="#826A5E"/>
<rect width="12" height="12" transform="matrix(-1 0 0 1 312 48)" fill="#B39987"/>
<rect width="24" height="12" transform="matrix(-1 0 0 1 300 168)" fill="#F3C3AF"/>
<rect width="12" height="12" transform="matrix(-1 0 0 1 288 180)" fill="#F3C3AF"/>
<rect width="12" height="12" transform="matrix(-1 0 0 1 276 48)" fill="#B39987"/>
<rect width="12" height="12" transform="matrix(-1 0 0 1 300 60)" fill="#B39987"/>
<rect width="12" height="12" transform="matrix(-1 0 0 1 276 60)" fill="#B39987"/>
<rect width="12" height="48" transform="matrix(-1 0 0 1 336 60)" fill="#826A5E"/>
<rect width="36" height="12" transform="matrix(-1 0 0 1 300 120)" fill="#AA6B59"/>
<rect width="36" height="12" transform="matrix(-1 0 0 1 300 144)" fill="#AA6B59"/>
<rect width="12" height="36" transform="matrix(-1 0 0 1 312 120)" fill="#AA6B59"/>
<rect width="12" height="12" transform="matrix(-1 0 0 1 276 132)" fill="#AA6B59"/>
<rect width="12" height="48" transform="matrix(-1 0 0 1 324 108)" fill="#AA6B59"/>
<rect width="12" height="12" transform="matrix(-1 0 0 1 336 72)" fill="#B39987"/>
<rect opacity="0.2" width="12" height="84" transform="matrix(-1 0 0 1 324 72)" fill="#574843"/>
<rect opacity="0.2" width="12" height="12" transform="matrix(-1 0 0 1 312 156)" fill="#574843"/>
<rect opacity="0.2" width="12" height="12" transform="matrix(-1 0 0 1 324 180)" fill="white"/>
<rect opacity="0.2" width="12" height="12" transform="matrix(-1 0 0 1 274.5 228)" fill="white"/>
<rect opacity="0.2" width="24" height="12" transform="matrix(-1 0 0 1 312 192)" fill="white"/>
<rect opacity="0.2" width="12" height="12" transform="matrix(-1 0 0 1 276 192)" fill="white"/>
<rect opacity="0.2" width="12" height="12" transform="matrix(-1 0 0 1 264 180)" fill="white"/>
<rect opacity="0.2" width="13.5" height="24" transform="matrix(-1 0 0 1 288 204)" fill="white"/>
<rect width="60" height="36" transform="matrix(-1 0 0 1 456 168)" fill="#3E3842"/>
<rect width="84" height="36" transform="matrix(-1 0 0 1 468 180)" fill="#3E3842"/>
<rect width="108" height="36" transform="matrix(-1 0 0 1 480 192)" fill="#3E3842"/>
<rect width="120" height="36" transform="matrix(-1 0 0 1 480 204)" fill="#3E3842"/>
<rect width="36" height="48" transform="matrix(-1 0 0 1 444 144)" fill="#F3B7A5"/>
<rect width="24" height="12" transform="matrix(-1 0 0 1 444 192)" fill="#F3B7A5"/>
<rect width="12" height="12" transform="matrix(-1 0 0 1 432 204)" fill="#F3B7A5"/>
<rect width="60" height="84" transform="matrix(-1 0 0 1 456 72)" fill="#F3B7A5"/>
<rect width="24" height="12" transform="matrix(-1 0 0 1 444 132)" fill="white"/>
<rect width="12" height="12" transform="matrix(-1 0 0 1 420 96)" fill="white"/>
<rect width="12" height="12" transform="matrix(-1 0 0 1 396 108)" fill="#DC958B"/>
<rect width="12" height="12" transform="matrix(-1 0 0 1 456 96)" fill="white"/>
<rect width="12" height="24" transform="matrix(-1 0 0 1 444 96)" fill="#DC958B"/>
<rect opacity="0.2" width="48" height="12" transform="matrix(-1 0 0 1 456 72)" fill="#574843"/>
<rect opacity="0.2" width="12" height="84" transform="matrix(-1 0 0 1 408 72)" fill="#574843"/>
<rect opacity="0.2" width="12" height="36" transform="matrix(-1 0 0 1 420 156)" fill="#574843"/>
<rect width="12" height="60" transform="matrix(-1 0 0 1 468 48)" fill="#574843"/>
<rect width="12" height="12" transform="matrix(-1 0 0 1 432 72)" fill="#574843"/>
<rect width="12" height="12" transform="matrix(-1 0 0 1 408 72)" fill="#574843"/>
<rect width="12" height="60" transform="matrix(-1 0 0 1 396 48)" fill="#574843"/>
<rect width="12" height="36" transform="matrix(-1 0 0 1 384 60)" fill="#574843"/>
<rect width="60" height="36" transform="matrix(-1 0 0 1 456 36)" fill="#574843"/>
<rect width="12" height="36" transform="matrix(-1 0 0 1 456 180)" fill="#E19F44"/>
<rect width="12" height="24" transform="matrix(-1 0 0 1 396 192)" fill="#F16B22"/>
<rect width="12" height="12" transform="matrix(-1 0 0 1 456 216)" fill="#FCF4F1"/>
<rect width="12" height="12" transform="matrix(-1 0 0 1 468 204)" fill="#FCF4F1"/>
<rect width="12" height="24" transform="matrix(-1 0 0 1 444 204)" fill="#E19F44"/>
<rect width="12" height="12" transform="matrix(-1 0 0 1 408 204)" fill="#F16B22"/>
<rect width="24" height="24" transform="matrix(-1 0 0 1 408 216)" fill="#74646E"/>
</g>
<defs>
<clipPath id="clip0_1264_1956">
<rect width="720" height="240" fill="white"/>
</clipPath>
</defs>
</svg>
