<svg width="136" height="24" viewBox="0 0 136 24" fill="none" xmlns="http://www.w3.org/2000/svg">
<path d="M0.561523 22.1997H7.87672C13.1183 22.1997 16.5455 18.8301 16.5455 12.1485C16.5455 5.46689 13.1183 2.09729 7.87672 2.09729H0.561523V22.1997ZM4.36312 18.8301V5.46689H7.87672C10.6991 5.46689 12.5135 7.13729 12.5135 10.5645V13.7325C12.5135 17.1597 10.6991 18.8301 7.87672 18.8301H4.36312Z" fill="white"/>
<path d="M20.8498 2.09729V13.9629C20.8498 19.8669 22.8946 22.5453 28.5394 22.5453C34.1842 22.5453 36.2866 19.8669 36.2866 13.9629V2.09729H32.5426V14.4525C32.5426 17.5917 31.4482 19.1757 28.5682 19.1757C25.6882 19.1757 24.5938 17.5917 24.5938 14.4525V2.09729H20.8498Z" fill="white"/>
<path d="M48.8364 22.1997H59.0316C61.998 22.1997 64.2156 19.6653 64.2156 16.4397C64.2156 13.0125 61.6236 11.7741 59.8668 11.7453V11.5725C61.71 11.4573 63.4668 10.3053 63.4668 7.25249C63.4668 4.14209 61.4508 2.09729 58.1388 2.09729H48.8364V22.1997ZM52.638 13.5885H57.9372C59.3772 13.5885 60.2412 14.3949 60.2412 15.8061V16.7853C60.2412 18.1965 59.3772 18.9741 57.9372 18.9741H52.638V13.5885ZM52.638 5.32289H57.3324C58.7148 5.32289 59.5212 6.10049 59.5212 7.45409V8.34689C59.5212 9.67169 58.7148 10.4781 57.3324 10.4781H52.638V5.32289Z" fill="white"/>
<path d="M81.0037 22.1997V19.1469H75.9253V5.15009V2.09729H67.0741V5.15009H72.1237V19.1469H67.0741V22.1997H81.0037Z" fill="white"/>
<path d="M97.1164 5.46689V2.09729H81.91V5.46689H87.6124V22.1997H91.414V5.46689H97.1164Z" fill="white"/>
<path d="M115.308 22.1997L108.626 2.09729H103.903L97.1638 22.1997H101.023L102.607 17.0733H109.749L111.362 22.1997H115.308ZM108.828 13.8189H103.529L106.092 5.55329H106.236L108.828 13.8189Z" fill="white"/>
<path d="M132.604 22.1997V19.1469H127.525V5.15009V2.09729H118.674V5.15009H123.724V19.1469H118.674V22.1997H132.604Z" fill="white"/>
</svg>
