<svg width="32" height="32" viewBox="0 0 32 32" fill="none" xmlns="http://www.w3.org/2000/svg">
<path d="M16 28C13.6266 28 11.3065 27.2962 9.33316 25.9776C7.35977 24.659 5.8217 22.7849 4.91345 20.5922C4.0052 18.3995 3.76756 15.9867 4.23058 13.6589C4.6936 11.3311 5.83649 9.19295 7.51472 7.51472C9.19295 5.83649 11.3311 4.6936 13.6589 4.23058C15.9867 3.76756 18.3995 4.0052 20.5922 4.91345C22.7849 5.8217 24.659 7.35977 25.9776 9.33316C27.2962 11.3065 28 13.6266 28 16C28.003 17.5767 27.6947 19.1385 27.0927 20.5957C26.4907 22.053 25.6069 23.3771 24.492 24.492C23.3771 25.6069 22.053 26.4907 20.5957 27.0927C19.1385 27.6947 17.5767 28.003 16 28ZM16 23.2457L16.9028 22.3428L16 18.9143L15.0971 22.3428L16 23.2457ZM14.8571 23.2457L14.4114 24.9486L15.4629 23.8971L14.8571 23.2457ZM17.1428 23.2457L16.5371 23.8514L17.5886 24.9028L17.1428 23.2457ZM18 26.2857L16 24.2971L14 26.2857C14.6603 26.4062 15.329 26.475 16 26.4914C16.6723 26.4998 17.3434 26.4307 18 26.2857ZM16 5.49715C13.5223 5.50178 11.1263 6.38313 9.23618 7.9851C7.34609 9.58707 6.08394 11.8063 5.67329 14.2497C5.26263 16.6931 5.72998 19.2029 6.99254 21.3348C8.25511 23.4666 10.2314 25.0828 12.5714 25.8971L14.8571 17.5428C14.6054 17.3598 14.4013 17.1188 14.262 16.8404C14.1228 16.562 14.0525 16.2541 14.0571 15.9429C14.0571 15.6019 14.1443 15.2667 14.3103 14.9689C14.4763 14.6712 14.7157 14.4208 15.0057 14.2415C15.2957 14.0623 15.6267 13.9602 15.9672 13.9449C16.3078 13.9296 16.6466 14.0015 16.9516 14.154C17.2565 14.3065 17.5174 14.5343 17.7095 14.816C17.9015 15.0976 18.0184 15.4237 18.0491 15.7632C18.0797 16.1028 18.023 16.4445 17.8844 16.756C17.7458 17.0674 17.5299 17.3383 17.2571 17.5428L19.5428 25.8971C21.8924 25.0798 23.8751 23.4541 25.1371 21.3103C26.3991 19.1665 26.8582 16.644 26.4326 14.193C26.0069 11.742 24.7241 9.52195 22.8132 7.92915C20.9023 6.33636 18.4876 5.47441 16 5.49715ZM22.8571 21.2C22.7334 21.3535 22.556 21.4543 22.3607 21.4819C22.1655 21.5094 21.9671 21.4618 21.8057 21.3486C21.7246 21.2966 21.6556 21.2278 21.6033 21.1469C21.5511 21.066 21.5167 20.9748 21.5026 20.8795C21.4886 20.7842 21.4951 20.687 21.5217 20.5944C21.5484 20.5019 21.5945 20.4161 21.6571 20.3428C22.5363 19.0631 23.0069 17.5469 23.0069 15.9943C23.0069 14.4416 22.5363 12.9255 21.6571 11.6457C21.5945 11.5725 21.5484 11.4867 21.5217 11.3941C21.4951 11.3016 21.4886 11.2044 21.5026 11.1091C21.5167 11.0138 21.5511 10.9226 21.6033 10.8417C21.6556 10.7608 21.7246 10.692 21.8057 10.64C21.9671 10.5268 22.1655 10.4791 22.3607 10.5067C22.556 10.5343 22.7334 10.635 22.8571 10.7886C23.931 12.3099 24.5075 14.1264 24.5075 15.9886C24.5075 17.8507 23.931 19.6672 22.8571 21.1886V21.2ZM19.2 19.2457C19.057 19.0897 18.9777 18.8858 18.9777 18.6743C18.9777 18.4627 19.057 18.2588 19.2 18.1028C19.7071 17.5187 19.9906 16.7735 20 16C19.9904 15.2345 19.7249 14.4942 19.2457 13.8971C19.1139 13.7359 19.0419 13.534 19.0419 13.3257C19.0419 13.1174 19.1139 12.9155 19.2457 12.7543C19.3101 12.6774 19.3905 12.6156 19.4813 12.5732C19.5722 12.5308 19.6712 12.5088 19.7714 12.5088C19.8717 12.5088 19.9707 12.5308 20.0615 12.5732C20.1523 12.6156 20.2328 12.6774 20.2971 12.7543C21.1037 13.6654 21.549 14.8403 21.549 16.0571C21.549 17.274 21.1037 18.4488 20.2971 19.36C20.2207 19.4313 20.1298 19.4853 20.0307 19.5186C19.9316 19.5518 19.8265 19.5633 19.7226 19.5525C19.6186 19.5417 19.5181 19.5087 19.428 19.4558C19.3379 19.4028 19.2601 19.3312 19.2 19.2457ZM12.8 19.2457C12.7318 19.3162 12.6501 19.3723 12.5598 19.4106C12.4695 19.4489 12.3724 19.4686 12.2743 19.4686C12.1762 19.4686 12.0791 19.4489 11.9888 19.4106C11.8985 19.3723 11.8168 19.3162 11.7486 19.2457C10.942 18.3346 10.4967 17.1597 10.4967 15.9429C10.4967 14.726 10.942 13.5511 11.7486 12.64C11.8129 12.5631 11.8934 12.5013 11.9842 12.4589C12.075 12.4165 12.174 12.3945 12.2743 12.3945C12.3745 12.3945 12.4735 12.4165 12.5644 12.4589C12.6552 12.5013 12.7356 12.5631 12.8 12.64C12.9429 12.796 13.0223 12.9999 13.0223 13.2114C13.0223 13.423 12.9429 13.6269 12.8 13.7829C12.2797 14.4041 11.9963 15.1896 12 16C11.9966 16.7678 12.2637 17.5122 12.7543 18.1028C12.9036 18.253 12.9912 18.4538 12.9996 18.6654C13.0081 18.877 12.9369 19.0841 12.8 19.2457ZM10.1943 21.3486C10.0329 21.4618 9.83446 21.5094 9.63924 21.4819C9.44401 21.4543 9.26657 21.3535 9.14286 21.2C8.06898 19.6787 7.49246 17.8622 7.49246 16C7.49246 14.1378 8.06898 12.3213 9.14286 10.8C9.26657 10.6465 9.44401 10.5457 9.63924 10.5181C9.83446 10.4905 10.0329 10.5382 10.1943 10.6514C10.2754 10.7034 10.3444 10.7722 10.3967 10.8531C10.4489 10.934 10.4833 11.0252 10.4973 11.1205C10.5114 11.2158 10.5049 11.313 10.4783 11.4056C10.4516 11.4981 10.4054 11.5839 10.3429 11.6571C9.46372 12.9369 8.99313 14.4531 8.99313 16.0057C8.99313 17.5583 9.46372 19.0745 10.3429 20.3543C10.4527 20.5066 10.4986 20.6959 10.4708 20.8816C10.4431 21.0674 10.3438 21.2349 10.1943 21.3486Z" fill="currentColor"/>
</svg>
