<svg width="32" height="32" viewBox="0 0 32 32" fill="none" xmlns="http://www.w3.org/2000/svg">
<path fill-rule="evenodd" clip-rule="evenodd" d="M11.0729 23.3739C12.5313 24.3484 14.246 24.8686 16 24.8686V28C13.6266 28 11.3066 27.2962 9.33316 25.9776C7.35977 24.6591 5.8217 22.7849 4.91345 20.5922C4.0052 18.3995 3.76756 15.9867 4.23058 13.6589C4.6936 11.3311 5.83649 9.19295 7.51472 7.51472C9.19295 5.83649 11.3311 4.6936 13.6589 4.23058C15.9867 3.76756 18.3995 4.0052 20.5922 4.91345C22.7849 5.8217 24.6591 7.35977 25.9776 9.33316C27.2962 11.3066 28 13.6266 28 16H24.8686C24.8686 14.246 24.3484 12.5313 23.3739 11.0729C22.3995 9.61446 21.0144 8.47775 19.3939 7.80651C17.7733 7.13527 15.9902 6.95964 14.2698 7.30184C12.5495 7.64404 10.9693 8.48869 9.72898 9.72898C8.48869 10.9693 7.64404 12.5495 7.30184 14.2698C6.95964 15.9902 7.13527 17.7733 7.80651 19.3939C8.47775 21.0144 9.61446 22.3995 11.0729 23.3739ZM10.8321 10.8377C12.2027 9.46711 14.0617 8.6971 16.0001 8.6971C17.9369 8.6971 19.7944 9.4665 21.164 10.8361C22.5335 12.2056 23.3029 14.0631 23.3029 16H20.6972C20.6972 15.0709 20.4217 14.1628 19.9056 13.3904C19.3895 12.6179 18.6559 12.0159 17.7976 11.6604C16.9393 11.3048 15.9948 11.2118 15.0837 11.3931C14.1725 11.5743 13.3356 12.0217 12.6787 12.6786C12.0218 13.3355 11.5744 14.1724 11.3932 15.0836C11.2119 15.9947 11.305 16.9392 11.6605 17.7975C12.016 18.6558 12.618 19.3894 13.3905 19.9055C14.1629 20.4216 15.0711 20.6971 16.0001 20.6971V23.3142C14.0617 23.3142 12.2027 22.5442 10.8321 21.1736C9.4615 19.803 8.69149 17.944 8.69149 16.0057C8.69149 14.0673 9.4615 12.2084 10.8321 10.8377Z" fill="currentColor"/>
</svg>
