<svg width="32" height="32" viewBox="0 0 32 32" fill="none" xmlns="http://www.w3.org/2000/svg">
<path d="M8.74 20.45C8.19851 20.452 7.66975 20.6144 7.22047 20.9166C6.7712 21.2189 6.42156 21.6475 6.21571 22.1484C6.00986 22.6492 5.95702 23.1998 6.06387 23.7307C6.17072 24.2615 6.43247 24.7488 6.81606 25.131C7.19965 25.5132 7.68789 25.7732 8.21912 25.8781C8.75035 25.983 9.30076 25.9281 9.80085 25.7205C10.3009 25.5128 10.7283 25.1616 11.0289 24.7112C11.3295 24.2609 11.49 23.7315 11.49 23.19C11.4874 22.4624 11.1965 21.7655 10.681 21.2519C10.1656 20.7384 9.46762 20.45 8.74 20.45ZM6 12.33V16.33C7.26857 16.3313 8.52446 16.5825 9.69596 17.0692C10.8675 17.5558 11.9316 18.2685 12.8277 19.1664C13.7238 20.0644 14.4343 21.13 14.9185 22.3025C15.4028 23.475 15.6513 24.7314 15.65 26H19.65C19.6539 24.2054 19.3037 22.4277 18.6194 20.7687C17.9351 19.1097 16.9301 17.602 15.662 16.3321C14.394 15.0622 12.8878 14.055 11.2298 13.3683C9.57182 12.6815 7.7946 12.3287 6 12.33ZM6 5.33001V9.33001C10.4092 9.33789 14.6361 11.0902 17.7576 14.2042C20.8791 17.3182 22.6415 21.5409 22.66 25.95H26.66C26.6521 20.4758 24.4719 15.2286 20.5982 11.3606C16.7246 7.49256 11.4742 5.32 6 5.32001V5.33001Z" fill="currentColor"/>
</svg>
