<svg width="32" height="32" viewBox="0 0 32 32" fill="none" xmlns="http://www.w3.org/2000/svg">
<path fill-rule="evenodd" clip-rule="evenodd" d="M22.9886 14.6366C23.2444 14.7841 23.5476 14.8263 23.834 14.7542C24.1203 14.682 24.3673 14.5013 24.5227 14.2502C24.6728 13.992 24.7152 13.6851 24.6408 13.3959C24.5664 13.1067 24.3811 12.8584 24.125 12.7047C19.7046 10.0684 12.6932 9.81837 8.47731 11.1025C8.23685 11.221 8.04604 11.4207 7.93859 11.6663C7.83114 11.9119 7.81397 12.1876 7.89013 12.4446C7.96629 12.7016 8.13086 12.9234 8.35476 13.0709C8.57866 13.2183 8.84747 13.2818 9.11367 13.2502C12.7955 12.1252 19.1477 12.3411 22.9886 14.6366ZM22.8636 18.0456C22.9943 17.833 23.0353 17.5773 22.9778 17.3345C22.9203 17.0917 22.7689 16.8816 22.5568 16.7502C20.5372 15.5971 18.3064 14.8621 15.9969 14.5888C13.6874 14.3155 11.3466 14.5095 9.11367 15.1593C8.87558 15.2301 8.67538 15.3926 8.5571 15.6111C8.43883 15.8295 8.41217 16.086 8.48299 16.3241C8.55382 16.5621 8.71632 16.7624 8.93476 16.8806C9.1532 16.9989 9.40967 17.0256 9.64776 16.9547C11.6349 16.3792 13.7169 16.2063 15.7717 16.4464C17.8265 16.6864 19.8127 17.3344 21.6136 18.3525C21.8221 18.4691 22.0671 18.5024 22.2991 18.4454C22.5311 18.3885 22.7329 18.2456 22.8636 18.0456ZM21.4091 21.307C21.5101 21.1379 21.5405 20.9358 21.4937 20.7444C21.4469 20.553 21.3267 20.3878 21.1591 20.2843C18.0114 18.3411 14.1137 17.8979 9.56822 18.9434C9.39316 19.0033 9.24644 19.1258 9.15626 19.2874C9.06608 19.449 9.03882 19.6382 9.0797 19.8187C9.12059 19.9991 9.22674 20.1581 9.37775 20.265C9.52876 20.372 9.71397 20.4193 9.89776 20.3979C14.0568 19.4434 17.5796 19.8297 20.3864 21.5343C20.4684 21.5868 20.5599 21.6226 20.6558 21.6396C20.7517 21.6566 20.85 21.6545 20.945 21.6333C21.0401 21.6122 21.13 21.5725 21.2096 21.5165C21.2893 21.4605 21.3571 21.3893 21.4091 21.307ZM15.9318 4.00019C18.3081 3.98669 20.6348 4.67899 22.6171 5.98933C24.5995 7.29967 26.1481 9.16906 27.0669 11.3606C27.9856 13.552 28.233 15.967 27.7777 18.2992C27.3224 20.6314 26.1849 22.776 24.5094 24.4611C22.8339 26.1461 20.6959 27.2958 18.3663 27.7644C16.0367 28.233 13.6204 27.9993 11.4237 27.0931C9.22703 26.1869 7.34885 24.6489 6.02724 22.6741C4.70563 20.6992 4.00009 18.3765 4.00005 16.0002C3.99557 14.4288 4.30063 12.8719 4.89784 11.4184C5.49504 9.96495 6.37268 8.64332 7.48065 7.52902C8.58862 6.41471 9.90523 5.52955 11.3553 4.92408C12.8053 4.3186 14.3605 4.00466 15.9318 4.00019Z" fill="currentColor"/>
</svg>
