<?xml version="1.0" encoding="UTF-8" standalone="no"?>
<svg width="560px" height="196px" viewBox="0 0 560 196" version="1.1" xmlns="http://www.w3.org/2000/svg" xmlns:xlink="http://www.w3.org/1999/xlink">
    <!-- Generator: Sketch 3.8.3 (29802) - http://www.bohemiancoding.com/sketch -->
    <title>snapchat</title>
    <desc>Created with Sketch.</desc>
    <defs>
        <rect id="path-1" x="0" y="0" width="110.23622" height="196"></rect>
        <mask id="mask-2" maskContentUnits="userSpaceOnUse" maskUnits="objectBoundingBox" x="0" y="0" width="110.23622" height="196" fill="white">
            <use xlink:href="#path-1"></use>
        </mask>
        <rect id="path-3" x="112.440945" y="0" width="110.23622" height="196"></rect>
        <mask id="mask-4" maskContentUnits="userSpaceOnUse" maskUnits="objectBoundingBox" x="0" y="0" width="110.23622" height="196" fill="white">
            <use xlink:href="#path-3"></use>
        </mask>
        <rect id="path-5" x="224.88189" y="0" width="110.23622" height="196"></rect>
        <mask id="mask-6" maskContentUnits="userSpaceOnUse" maskUnits="objectBoundingBox" x="0" y="0" width="110.23622" height="196" fill="white">
            <use xlink:href="#path-5"></use>
        </mask>
        <rect id="path-7" x="337.322835" y="0" width="110.23622" height="196"></rect>
        <mask id="mask-8" maskContentUnits="userSpaceOnUse" maskUnits="objectBoundingBox" x="0" y="0" width="110.23622" height="196" fill="white">
            <use xlink:href="#path-7"></use>
        </mask>
        <rect id="path-9" x="449.76378" y="0" width="110.23622" height="196"></rect>
        <mask id="mask-10" maskContentUnits="userSpaceOnUse" maskUnits="objectBoundingBox" x="0" y="0" width="110.23622" height="196" fill="white">
            <use xlink:href="#path-9"></use>
        </mask>
        <rect id="path-11" x="0" y="0" width="110.23622" height="22.0224719"></rect>
        <mask id="mask-12" maskContentUnits="userSpaceOnUse" maskUnits="objectBoundingBox" x="0" y="0" width="110.23622" height="22.0224719" fill="white">
            <use xlink:href="#path-11"></use>
        </mask>
        <rect id="path-13" x="112.440945" y="0" width="110.23622" height="22.0224719"></rect>
        <mask id="mask-14" maskContentUnits="userSpaceOnUse" maskUnits="objectBoundingBox" x="0" y="0" width="110.23622" height="22.0224719" fill="white">
            <use xlink:href="#path-13"></use>
        </mask>
        <rect id="path-15" x="224.88189" y="0" width="110.23622" height="22.0224719"></rect>
        <mask id="mask-16" maskContentUnits="userSpaceOnUse" maskUnits="objectBoundingBox" x="0" y="0" width="110.23622" height="22.0224719" fill="white">
            <use xlink:href="#path-15"></use>
        </mask>
        <rect id="path-17" x="337.322835" y="0" width="110.23622" height="22.0224719"></rect>
        <mask id="mask-18" maskContentUnits="userSpaceOnUse" maskUnits="objectBoundingBox" x="0" y="0" width="110.23622" height="22.0224719" fill="white">
            <use xlink:href="#path-17"></use>
        </mask>
        <rect id="path-19" x="449.76378" y="0" width="110.23622" height="22.0224719"></rect>
        <mask id="mask-20" maskContentUnits="userSpaceOnUse" maskUnits="objectBoundingBox" x="0" y="0" width="110.23622" height="22.0224719" fill="white">
            <use xlink:href="#path-19"></use>
        </mask>
    </defs>
    <g id="Page-1" stroke="none" stroke-width="1" fill="none" fill-rule="evenodd">
        <g id="Sliding-Screens-Pattern" transform="translate(0.000000, -10.000000)">
            <g id="Group" transform="translate(0.000000, 10.000000)">
                <use id="Rectangle-1" stroke="#E6E6E6" mask="url(#mask-2)" stroke-width="2.20472441" fill="#FFFFFF" xlink:href="#path-1"></use>
                <use id="Rectangle-1" stroke="#E6E6E6" mask="url(#mask-4)" stroke-width="2.20472441" fill="#FFFFFF" xlink:href="#path-3"></use>
                <use id="Rectangle-1" stroke="#E6E6E6" mask="url(#mask-6)" stroke-width="2.20472441" fill="#FFFFFF" xlink:href="#path-5"></use>
                <use id="Rectangle-1" stroke="#E6E6E6" mask="url(#mask-8)" stroke-width="2.20472441" fill="#FFFFFF" xlink:href="#path-7"></use>
                <use id="Rectangle-1" stroke="#E6E6E6" mask="url(#mask-10)" stroke-width="2.20472441" fill="#FFFFFF" xlink:href="#path-9"></use>
                <g id="Oval-11-+-Oval-19-+-Oval-20" opacity="0.5" transform="translate(460.787402, 48.449438)" fill="#E6E6E6">
                    <ellipse id="Oval-11" cx="11.023622" cy="11.011236" rx="11.023622" ry="11.011236"></ellipse>
                    <ellipse id="Oval-19" cx="44.0944882" cy="11.011236" rx="11.023622" ry="11.011236"></ellipse>
                    <ellipse id="Oval-20" cx="77.1653543" cy="11.011236" rx="11.023622" ry="11.011236"></ellipse>
                    <ellipse id="Oval-23" cx="11.023622" cy="44.0449438" rx="11.023622" ry="11.011236"></ellipse>
                    <ellipse id="Oval-22" cx="44.0944882" cy="44.0449438" rx="11.023622" ry="11.011236"></ellipse>
                    <ellipse id="Oval-21" cx="77.1653543" cy="44.0449438" rx="11.023622" ry="11.011236"></ellipse>
                    <ellipse id="Oval-26" cx="11.023622" cy="77.0786517" rx="11.023622" ry="11.011236"></ellipse>
                    <ellipse id="Oval-25" cx="44.0944882" cy="77.0786517" rx="11.023622" ry="11.011236"></ellipse>
                    <ellipse id="Oval-24" cx="77.1653543" cy="77.0786517" rx="11.023622" ry="11.011236"></ellipse>
                    <ellipse id="Oval-29" cx="11.023622" cy="110.11236" rx="11.023622" ry="11.011236"></ellipse>
                    <ellipse id="Oval-28" cx="44.0944882" cy="110.11236" rx="11.023622" ry="11.011236"></ellipse>
                    <ellipse id="Oval-27" cx="77.1653543" cy="110.11236" rx="11.023622" ry="11.011236"></ellipse>
                </g>
                <use id="Rectangle-3" stroke="#E6E6E6" mask="url(#mask-12)" stroke-width="2.20472441" xlink:href="#path-11"></use>
                <use id="Rectangle-4" stroke="#E6E6E6" mask="url(#mask-14)" stroke-width="2.20472441" xlink:href="#path-13"></use>
                <use id="Rectangle-5" stroke="#E6E6E6" mask="url(#mask-16)" stroke-width="2.20472441" xlink:href="#path-15"></use>
                <use id="Rectangle-6" stroke="#E6E6E6" mask="url(#mask-18)" stroke-width="2.20472441" xlink:href="#path-17"></use>
                <use id="Rectangle-7" stroke="#E6E6E6" mask="url(#mask-20)" stroke-width="2.20472441" xlink:href="#path-19"></use>
                <text id="Chat" font-family="Colfax-Regular, Colfax" font-size="14" font-weight="normal" fill="#666666">
                    <tspan x="39.4521102" y="114.303371">Chat</tspan>
                </text>
                <text id="Snaps" font-family="Colfax-Regular, Colfax" font-size="14" font-weight="normal" fill="#666666">
                    <tspan x="147.000055" y="114.303371">Snaps</tspan>
                </text>
                <text id="Camera" font-family="Colfax-Regular, Colfax" font-size="14" font-weight="normal" fill="#666666">
                    <tspan x="254.163" y="114.303371">Camera</tspan>
                </text>
                <text id="Stories" font-family="Colfax-Regular, Colfax" font-size="14" font-weight="normal" fill="#666666">
                    <tspan x="369.522945" y="114.303371">Stories</tspan>
                </text>
                <text id="Discover" font-family="Colfax-Regular, Colfax" font-size="14" font-weight="normal" fill="#666666">
                    <tspan x="476.76289" y="114.303371">Discover</tspan>
                </text>
                <text id="Contacts" font-family="Colfax-Regular, Colfax" font-size="10" font-weight="normal" fill="#666666">
                    <tspan x="259.221181" y="53.0449438">Contacts</tspan>
                </text>
                <ellipse id="Oval-1" fill="#2C97DE" cx="123.464567" cy="33.0337079" rx="6.61417323" ry="6.60674157"></ellipse>
                <ellipse id="Oval-1" fill="#9C56B8" cx="324.094488" cy="184.988764" rx="6.61417323" ry="6.60674157"></ellipse>
                <ellipse id="Oval-10" fill="#E6E6E6" opacity="0.5" cx="280" cy="178.382022" rx="13.2283465" ry="13.2134831"></ellipse>
                <ellipse id="Oval-30" fill="#999999" opacity="0.5" cx="280" cy="11.011236" rx="6.61417323" ry="6.60674157"></ellipse>
                <ellipse id="Oval-1" fill="#9C56B8" cx="436.535433" cy="11.011236" rx="6.61417323" ry="6.60674157"></ellipse>
                <ellipse id="Oval-5" fill="#EA408B" cx="235.905512" cy="184.988764" rx="6.61417323" ry="6.60674157"></ellipse>
                <g opacity="0.5" transform="translate(116.850394, 48.449438)" fill="#E6E6E6">
                    <ellipse id="Oval-2" cx="6.61417323" cy="6.60674157" rx="6.61417323" ry="6.60674157"></ellipse>
                    <ellipse id="Oval-3" cx="6.61417323" cy="28.6292135" rx="6.61417323" ry="6.60674157"></ellipse>
                    <ellipse id="Oval-4" cx="6.61417323" cy="50.6516854" rx="6.61417323" ry="6.60674157"></ellipse>
                    <ellipse id="Oval-6" cx="6.61417323" cy="72.6741573" rx="6.61417323" ry="6.60674157"></ellipse>
                    <ellipse id="Oval-7" cx="6.61417323" cy="94.6966292" rx="6.61417323" ry="6.60674157"></ellipse>
                    <ellipse id="Oval-8" cx="6.61417323" cy="116.719101" rx="6.61417323" ry="6.60674157"></ellipse>
                </g>
                <g opacity="0.5" transform="translate(341.732283, 26.426966)" fill="#E6E6E6">
                    <ellipse id="Oval-17" cx="6.61417323" cy="28.6292135" rx="6.61417323" ry="6.60674157"></ellipse>
                    <ellipse id="Oval-18" cx="6.61417323" cy="6.60674157" rx="6.61417323" ry="6.60674157"></ellipse>
                    <ellipse id="Oval-16" cx="6.61417323" cy="50.6516854" rx="6.61417323" ry="6.60674157"></ellipse>
                    <ellipse id="Oval-15" cx="6.61417323" cy="72.6741573" rx="6.61417323" ry="6.60674157"></ellipse>
                    <ellipse id="Oval-14" cx="6.61417323" cy="94.6966292" rx="6.61417323" ry="6.60674157"></ellipse>
                    <ellipse id="Oval-13" cx="6.61417323" cy="116.719101" rx="6.61417323" ry="6.60674157"></ellipse>
                    <ellipse id="Oval-12" cx="6.61417323" cy="138.741573" rx="6.61417323" ry="6.60674157"></ellipse>
                </g>
                <g id="Path-1-+-Path-2" transform="translate(99.212598, 28.629213)" stroke-width="1.1023622" stroke="#2C97DE">
                    <polyline id="Path-1" points="4.40944882 7.82395372e-15 0 4.40449438 4.40944882 8.80898876"></polyline>
                    <path d="M-1.59872116e-14,4.40449438 L24.2519685,4.40449438" id="Path-2"></path>
                </g>
                <g id="Path-1-+-Path-3" transform="translate(211.653543, 180.584270)" stroke-width="1.1023622" stroke="#EA408B">
                    <polyline id="Path-1" points="4.40944882 7.82395372e-15 0 4.40449438 4.40944882 8.80898876"></polyline>
                    <path d="M-1.59872116e-14,4.40449438 L24.2519685,4.40449438" id="Path-2"></path>
                </g>
                <g id="Path-1-+-Path-6" transform="translate(280.095506, 23.249580) rotate(-90.000000) translate(-280.095506, -23.249580) translate(267.095506, 18.749580)" stroke-width="1.1023622" stroke="#CCCCCC">
                    <polyline id="Path-1" points="5.40944882 7.82395372e-15 1 4.40449438 5.40944882 8.80898876"></polyline>
                    <path d="M1,4.40449438 L25.2519685,4.40449438" id="Path-2"></path>
                </g>
                <g id="Path-1-+-Path-4" transform="translate(336.220472, 184.988764) scale(-1, 1) translate(-336.220472, -184.988764) translate(324.094488, 180.584270)" stroke-width="1.1023622" stroke="#9C56B8">
                    <polyline id="Path-1" points="4.40944882 7.82395372e-15 0 4.40449438 4.40944882 8.80898876"></polyline>
                    <path d="M-1.59872116e-14,4.40449438 L24.2519685,4.40449438" id="Path-2"></path>
                </g>
                <g id="Path-1-+-Path-5" transform="translate(448.661417, 11.011236) scale(-1, 1) translate(-448.661417, -11.011236) translate(436.535433, 6.606742)" stroke-width="1.1023622" stroke="#9C56B8">
                    <polyline id="Path-1" points="4.40944882 7.82395372e-15 0 4.40449438 4.40944882 8.80898876"></polyline>
                    <path d="M-1.59872116e-14,4.40449438 L24.2519685,4.40449438" id="Path-2"></path>
                </g>
            </g>
        </g>
    </g>
</svg>