<svg xmlns="http://www.w3.org/2000/svg" width="128" height="128" fill="none" viewBox="0 0 128 128"><path fill="currentColor" d="M28 64c0-8.837 7.163-16 16-16s16 7.163 16 16c0 13.255 10.745 24 24 24s24-10.745 24-24c0-11.892-8.649-21.764-20-23.668l-.048-.008A24.16 24.16 0 0 0 84 40a23.929 23.929 0 0 0-17.398 7.47 27.894 27.894 0 0 1 4.002 7.777C73.462 50.883 78.394 48 84 48c1.381 0 2.722.175 4 .504 6.901 1.776 12 8.04 12 15.496 0 8.837-7.163 16-16 16s-16-7.163-16-16c0-13.255-10.745-24-24-24S20 50.745 20 64c0 11.892 8.649 21.764 20 23.668 1.3.218 2.637.332 4 .332s2.699-.114 4-.332a23.947 23.947 0 0 0 13.398-7.137 27.894 27.894 0 0 1-4.002-7.778 16.026 16.026 0 0 1-9.397 6.743A16.033 16.033 0 0 1 44 80c-1.38 0-2.72-.175-3.999-.504H40C33.099 77.72 28 71.456 28 64Z"/></svg>